<?xml version="1.0" encoding="UTF-8"?>
<svg xmlns="http://www.w3.org/2000/svg" xmlns:xlink="http://www.w3.org/1999/xlink" width="312pt" height="226pt" viewBox="0 0 312 226" version="1.1">
<defs>
<clipPath id="clip1">
  <path d="M 69 9 L 71 9 L 71 178.875 L 69 178.875 Z M 69 9 "/>
</clipPath>
<clipPath id="clip2">
  <path d="M 124 9 L 126 9 L 126 178.875 L 124 178.875 Z M 124 9 "/>
</clipPath>
<clipPath id="clip3">
  <path d="M 180 9 L 182 9 L 182 178.875 L 180 178.875 Z M 180 9 "/>
</clipPath>
<clipPath id="clip4">
  <path d="M 235 9 L 237 9 L 237 178.875 L 235 178.875 Z M 235 9 "/>
</clipPath>
<clipPath id="clip5">
  <path d="M 291 9 L 293 9 L 293 178.875 L 291 178.875 Z M 291 9 "/>
</clipPath>
<clipPath id="clip6">
  <path d="M 58.707031 170 L 302.832031 170 L 302.832031 172 L 58.707031 172 Z M 58.707031 170 "/>
</clipPath>
<clipPath id="clip7">
  <path d="M 58.707031 139 L 302.832031 139 L 302.832031 141 L 58.707031 141 Z M 58.707031 139 "/>
</clipPath>
<clipPath id="clip8">
  <path d="M 58.707031 108 L 302.832031 108 L 302.832031 111 L 58.707031 111 Z M 58.707031 108 "/>
</clipPath>
<clipPath id="clip9">
  <path d="M 58.707031 77 L 302.832031 77 L 302.832031 80 L 58.707031 80 Z M 58.707031 77 "/>
</clipPath>
<clipPath id="clip10">
  <path d="M 58.707031 46 L 302.832031 46 L 302.832031 49 L 58.707031 49 Z M 58.707031 46 "/>
</clipPath>
<clipPath id="clip11">
  <path d="M 58.707031 16 L 302.832031 16 L 302.832031 18 L 58.707031 18 Z M 58.707031 16 "/>
</clipPath>
</defs>
<g id="surface1">
<path style=" stroke:none;fill-rule:nonzero;fill:rgb(100%,100%,100%);fill-opacity:1;" d="M 58.707031 178.875 L 302.832031 178.875 L 302.832031 9 L 58.707031 9 Z M 58.707031 178.875 "/>
<g clip-path="url(#clip1)" clip-rule="nonzero">
<path style="fill:none;stroke-width:0.8;stroke-linecap:square;stroke-linejoin:round;stroke:rgb(69.019608%,69.019608%,69.019608%);stroke-opacity:1;stroke-miterlimit:4;" d="M 55.84375 143.1 L 55.84375 7.2 " transform="matrix(1.25,0,0,1.25,0,0)"/>
</g>
<path style="fill:none;stroke-width:0.8;stroke-linecap:butt;stroke-linejoin:round;stroke:rgb(0%,0%,0%);stroke-opacity:1;stroke-miterlimit:4;" d="M 0.000852 0 L 0.000852 3.5 " transform="matrix(1.25,0,0,1.25,69.803623,178.875)"/>
<path style=" stroke:none;fill-rule:nonzero;fill:rgb(0%,0%,0%);fill-opacity:1;" d="M 57.9375 192.6875 L 65.761719 192.6875 L 65.761719 193.722656 L 57.9375 193.722656 Z M 57.9375 192.6875 "/>
<path style=" stroke:none;fill-rule:nonzero;fill:rgb(0%,0%,0%);fill-opacity:1;" d="M 68.636719 196.085938 L 70.652344 196.085938 L 70.652344 189.132812 L 68.460938 189.574219 L 68.460938 188.449219 L 70.640625 188.011719 L 71.871094 188.011719 L 71.871094 196.085938 L 73.886719 196.085938 L 73.886719 197.125 L 68.636719 197.125 Z M 68.636719 196.085938 "/>
<path style=" stroke:none;fill-rule:nonzero;fill:rgb(0%,0%,0%);fill-opacity:1;" d="M 79.011719 188.824219 C 78.378906 188.824219 77.902344 189.136719 77.582031 189.761719 C 77.261719 190.382812 77.101562 191.324219 77.101562 192.578125 C 77.101562 193.824219 77.261719 194.761719 77.582031 195.386719 C 77.902344 196.011719 78.378906 196.324219 79.011719 196.324219 C 79.652344 196.324219 80.128906 196.011719 80.449219 195.386719 C 80.769531 194.761719 80.929688 193.824219 80.929688 192.578125 C 80.929688 191.324219 80.769531 190.382812 80.449219 189.761719 C 80.128906 189.136719 79.652344 188.824219 79.011719 188.824219 Z M 79.011719 187.847656 C 80.035156 187.847656 80.816406 188.25 81.355469 189.058594 C 81.894531 189.867188 82.164062 191.039062 82.164062 192.578125 C 82.164062 194.109375 81.894531 195.28125 81.355469 196.089844 C 80.816406 196.898438 80.035156 197.300781 79.011719 197.300781 C 77.992188 197.300781 77.210938 196.898438 76.671875 196.089844 C 76.132812 195.28125 75.863281 194.109375 75.863281 192.578125 C 75.863281 191.039062 76.132812 189.867188 76.671875 189.058594 C 77.210938 188.25 77.992188 187.847656 79.011719 187.847656 Z M 79.011719 187.847656 "/>
<g clip-path="url(#clip2)" clip-rule="nonzero">
<path style="fill:none;stroke-width:0.8;stroke-linecap:square;stroke-linejoin:round;stroke:rgb(69.019608%,69.019608%,69.019608%);stroke-opacity:1;stroke-miterlimit:4;" d="M 100.228125 143.1 L 100.228125 7.2 " transform="matrix(1.25,0,0,1.25,0,0)"/>
</g>
<path style="fill:none;stroke-width:0.8;stroke-linecap:butt;stroke-linejoin:round;stroke:rgb(0%,0%,0%);stroke-opacity:1;stroke-miterlimit:4;" d="M -0.001136 0 L -0.001136 3.5 " transform="matrix(1.25,0,0,1.25,125.286576,178.875)"/>
<path style=" stroke:none;fill-rule:nonzero;fill:rgb(0%,0%,0%);fill-opacity:1;" d="M 117.398438 192.6875 L 125.222656 192.6875 L 125.222656 193.722656 L 117.398438 193.722656 Z M 117.398438 192.6875 "/>
<path style=" stroke:none;fill-rule:nonzero;fill:rgb(0%,0%,0%);fill-opacity:1;" d="M 127.894531 188.011719 L 132.734375 188.011719 L 132.734375 189.050781 L 129.023438 189.050781 L 129.023438 191.28125 C 129.203125 191.21875 129.382812 191.175781 129.558594 191.144531 C 129.738281 191.113281 129.917969 191.101562 130.097656 191.101562 C 131.117188 191.101562 131.921875 191.378906 132.515625 191.9375 C 133.109375 192.492188 133.40625 193.246094 133.40625 194.199219 C 133.40625 195.179688 133.101562 195.941406 132.492188 196.488281 C 131.882812 197.03125 131.019531 197.300781 129.910156 197.300781 C 129.527344 197.300781 129.136719 197.269531 128.738281 197.203125 C 128.34375 197.136719 127.933594 197.039062 127.511719 196.910156 L 127.511719 195.671875 C 127.878906 195.871094 128.253906 196.019531 128.644531 196.117188 C 129.035156 196.214844 129.449219 196.261719 129.882812 196.261719 C 130.589844 196.261719 131.144531 196.078125 131.554688 195.707031 C 131.96875 195.335938 132.171875 194.835938 132.171875 194.199219 C 132.171875 193.566406 131.96875 193.0625 131.554688 192.695312 C 131.144531 192.324219 130.589844 192.136719 129.882812 192.136719 C 129.554688 192.136719 129.226562 192.171875 128.898438 192.246094 C 128.570312 192.320312 128.238281 192.433594 127.894531 192.589844 Z M 127.894531 188.011719 "/>
<g clip-path="url(#clip3)" clip-rule="nonzero">
<path style="fill:none;stroke-width:0.8;stroke-linecap:square;stroke-linejoin:round;stroke:rgb(69.019608%,69.019608%,69.019608%);stroke-opacity:1;stroke-miterlimit:4;" d="M 144.615625 143.1 L 144.615625 7.2 " transform="matrix(1.25,0,0,1.25,0,0)"/>
</g>
<path style="fill:none;stroke-width:0.8;stroke-linecap:butt;stroke-linejoin:round;stroke:rgb(0%,0%,0%);stroke-opacity:1;stroke-miterlimit:4;" d="M 0 0 L 0 3.5 " transform="matrix(1.25,0,0,1.25,180.769531,178.875)"/>
<path style=" stroke:none;fill-rule:nonzero;fill:rgb(0%,0%,0%);fill-opacity:1;" d="M 180.765625 188.824219 C 180.132812 188.824219 179.65625 189.136719 179.335938 189.761719 C 179.015625 190.382812 178.855469 191.324219 178.855469 192.578125 C 178.855469 193.824219 179.015625 194.761719 179.335938 195.386719 C 179.65625 196.011719 180.132812 196.324219 180.765625 196.324219 C 181.40625 196.324219 181.882812 196.011719 182.203125 195.386719 C 182.523438 194.761719 182.683594 193.824219 182.683594 192.578125 C 182.683594 191.324219 182.523438 190.382812 182.203125 189.761719 C 181.882812 189.136719 181.40625 188.824219 180.765625 188.824219 Z M 180.765625 187.847656 C 181.789062 187.847656 182.570312 188.25 183.109375 189.058594 C 183.648438 189.867188 183.914062 191.039062 183.914062 192.578125 C 183.914062 194.109375 183.648438 195.28125 183.109375 196.089844 C 182.570312 196.898438 181.789062 197.300781 180.765625 197.300781 C 179.746094 197.300781 178.964844 196.898438 178.425781 196.089844 C 177.886719 195.28125 177.617188 194.109375 177.617188 192.578125 C 177.617188 191.039062 177.886719 189.867188 178.425781 189.058594 C 178.964844 188.25 179.746094 187.847656 180.765625 187.847656 Z M 180.765625 187.847656 "/>
<g clip-path="url(#clip4)" clip-rule="nonzero">
<path style="fill:none;stroke-width:0.8;stroke-linecap:square;stroke-linejoin:round;stroke:rgb(69.019608%,69.019608%,69.019608%);stroke-opacity:1;stroke-miterlimit:4;" d="M 189.003125 143.1 L 189.003125 7.2 " transform="matrix(1.25,0,0,1.25,0,0)"/>
</g>
<path style="fill:none;stroke-width:0.8;stroke-linecap:butt;stroke-linejoin:round;stroke:rgb(0%,0%,0%);stroke-opacity:1;stroke-miterlimit:4;" d="M 0.001136 0 L 0.001136 3.5 " transform="matrix(1.25,0,0,1.25,236.252486,178.875)"/>
<path style=" stroke:none;fill-rule:nonzero;fill:rgb(0%,0%,0%);fill-opacity:1;" d="M 233.625 188.011719 L 238.464844 188.011719 L 238.464844 189.050781 L 234.753906 189.050781 L 234.753906 191.28125 C 234.933594 191.21875 235.109375 191.175781 235.289062 191.144531 C 235.46875 191.113281 235.648438 191.101562 235.828125 191.101562 C 236.84375 191.101562 237.652344 191.378906 238.246094 191.9375 C 238.839844 192.492188 239.136719 193.246094 239.136719 194.199219 C 239.136719 195.179688 238.832031 195.941406 238.222656 196.488281 C 237.609375 197.03125 236.75 197.300781 235.640625 197.300781 C 235.257812 197.300781 234.867188 197.269531 234.46875 197.203125 C 234.074219 197.136719 233.664062 197.039062 233.242188 196.910156 L 233.242188 195.671875 C 233.605469 195.871094 233.984375 196.019531 234.375 196.117188 C 234.765625 196.214844 235.179688 196.261719 235.613281 196.261719 C 236.316406 196.261719 236.875 196.078125 237.285156 195.707031 C 237.695312 195.335938 237.902344 194.835938 237.902344 194.199219 C 237.902344 193.566406 237.695312 193.0625 237.285156 192.695312 C 236.875 192.324219 236.316406 192.136719 235.613281 192.136719 C 235.285156 192.136719 234.957031 192.171875 234.628906 192.246094 C 234.300781 192.320312 233.964844 192.433594 233.625 192.589844 Z M 233.625 188.011719 "/>
<g clip-path="url(#clip5)" clip-rule="nonzero">
<path style="fill:none;stroke-width:0.8;stroke-linecap:square;stroke-linejoin:round;stroke:rgb(69.019608%,69.019608%,69.019608%);stroke-opacity:1;stroke-miterlimit:4;" d="M 233.3875 143.1 L 233.3875 7.2 " transform="matrix(1.25,0,0,1.25,0,0)"/>
</g>
<path style="fill:none;stroke-width:0.8;stroke-linecap:butt;stroke-linejoin:round;stroke:rgb(0%,0%,0%);stroke-opacity:1;stroke-miterlimit:4;" d="M -0.000852 0 L -0.000852 3.5 " transform="matrix(1.25,0,0,1.25,291.73544,178.875)"/>
<path style=" stroke:none;fill-rule:nonzero;fill:rgb(0%,0%,0%);fill-opacity:1;" d="M 285.332031 196.085938 L 287.347656 196.085938 L 287.347656 189.132812 L 285.15625 189.574219 L 285.15625 188.449219 L 287.335938 188.011719 L 288.566406 188.011719 L 288.566406 196.085938 L 290.582031 196.085938 L 290.582031 197.125 L 285.332031 197.125 Z M 285.332031 196.085938 "/>
<path style=" stroke:none;fill-rule:nonzero;fill:rgb(0%,0%,0%);fill-opacity:1;" d="M 295.707031 188.824219 C 295.074219 188.824219 294.597656 189.136719 294.277344 189.761719 C 293.957031 190.382812 293.796875 191.324219 293.796875 192.578125 C 293.796875 193.824219 293.957031 194.761719 294.277344 195.386719 C 294.597656 196.011719 295.074219 196.324219 295.707031 196.324219 C 296.347656 196.324219 296.828125 196.011719 297.144531 195.386719 C 297.464844 194.761719 297.625 193.824219 297.625 192.578125 C 297.625 191.324219 297.464844 190.382812 297.144531 189.761719 C 296.828125 189.136719 296.347656 188.824219 295.707031 188.824219 Z M 295.707031 187.847656 C 296.730469 187.847656 297.511719 188.25 298.050781 189.058594 C 298.589844 189.867188 298.859375 191.039062 298.859375 192.578125 C 298.859375 194.109375 298.589844 195.28125 298.050781 196.089844 C 297.511719 196.898438 296.730469 197.300781 295.707031 197.300781 C 294.6875 197.300781 293.90625 196.898438 293.367188 196.089844 C 292.828125 195.28125 292.558594 194.109375 292.558594 192.578125 C 292.558594 191.039062 292.828125 189.867188 293.367188 189.058594 C 293.90625 188.25 294.6875 187.847656 295.707031 187.847656 Z M 295.707031 187.847656 "/>
<path style=" stroke:none;fill-rule:nonzero;fill:rgb(0%,0%,0%);fill-opacity:1;" d="M 183.929688 207.386719 L 181.460938 210.710938 L 184.058594 214.222656 L 182.734375 214.222656 L 180.742188 211.535156 L 178.757812 214.222656 L 177.429688 214.222656 L 180.085938 210.644531 L 177.65625 207.386719 L 178.980469 207.386719 L 180.792969 209.820312 L 182.605469 207.386719 Z M 183.929688 207.386719 "/>
<g clip-path="url(#clip6)" clip-rule="nonzero">
<path style="fill:none;stroke-width:0.8;stroke-linecap:square;stroke-linejoin:round;stroke:rgb(69.019608%,69.019608%,69.019608%);stroke-opacity:1;stroke-miterlimit:4;" d="M 46.965625 136.921875 L 242.265625 136.921875 " transform="matrix(1.25,0,0,1.25,0,0)"/>
</g>
<path style="fill:none;stroke-width:0.8;stroke-linecap:butt;stroke-linejoin:round;stroke:rgb(0%,0%,0%);stroke-opacity:1;stroke-miterlimit:4;" d="M 0 -0.000852 L -3.5 -0.000852 " transform="matrix(1.25,0,0,1.25,58.707031,171.153409)"/>
<path style=" stroke:none;fill-rule:nonzero;fill:rgb(0%,0%,0%);fill-opacity:1;" d="M 45.976562 167.601562 C 45.34375 167.601562 44.867188 167.914062 44.546875 168.539062 C 44.226562 169.164062 44.066406 170.101562 44.066406 171.355469 C 44.066406 172.605469 44.226562 173.542969 44.546875 174.167969 C 44.867188 174.792969 45.34375 175.105469 45.976562 175.105469 C 46.617188 175.105469 47.09375 174.792969 47.414062 174.167969 C 47.734375 173.542969 47.894531 172.605469 47.894531 171.355469 C 47.894531 170.101562 47.734375 169.164062 47.414062 168.539062 C 47.09375 167.914062 46.617188 167.601562 45.976562 167.601562 Z M 45.976562 166.625 C 47 166.625 47.78125 167.03125 48.320312 167.839844 C 48.859375 168.644531 49.125 169.816406 49.125 171.355469 C 49.125 172.890625 48.859375 174.0625 48.320312 174.871094 C 47.78125 175.675781 47 176.082031 45.976562 176.082031 C 44.957031 176.082031 44.175781 175.675781 43.636719 174.871094 C 43.097656 174.0625 42.828125 172.890625 42.828125 171.355469 C 42.828125 169.816406 43.097656 168.644531 43.636719 167.839844 C 44.175781 167.03125 44.957031 166.625 45.976562 166.625 Z M 45.976562 166.625 "/>
<g clip-path="url(#clip7)" clip-rule="nonzero">
<path style="fill:none;stroke-width:0.8;stroke-linecap:square;stroke-linejoin:round;stroke:rgb(69.019608%,69.019608%,69.019608%);stroke-opacity:1;stroke-miterlimit:4;" d="M 46.965625 112.2125 L 242.265625 112.2125 " transform="matrix(1.25,0,0,1.25,0,0)"/>
</g>
<path style="fill:none;stroke-width:0.8;stroke-linecap:butt;stroke-linejoin:round;stroke:rgb(0%,0%,0%);stroke-opacity:1;stroke-miterlimit:4;" d="M 0 -0.001136 L -3.5 -0.001136 " transform="matrix(1.25,0,0,1.25,58.707031,140.267045)"/>
<path style=" stroke:none;fill-rule:nonzero;fill:rgb(0%,0%,0%);fill-opacity:1;" d="M 36.449219 143.980469 L 40.75 143.980469 L 40.75 145.015625 L 34.96875 145.015625 L 34.96875 143.980469 C 35.433594 143.496094 36.070312 142.84375 36.878906 142.03125 C 37.6875 141.214844 38.195312 140.6875 38.402344 140.449219 C 38.796875 140.007812 39.070312 139.632812 39.226562 139.324219 C 39.386719 139.015625 39.464844 138.714844 39.464844 138.417969 C 39.464844 137.933594 39.296875 137.539062 38.953125 137.234375 C 38.617188 136.929688 38.171875 136.777344 37.625 136.777344 C 37.242188 136.777344 36.832031 136.84375 36.402344 136.976562 C 35.972656 137.109375 35.515625 137.316406 35.027344 137.589844 L 35.027344 136.34375 C 35.523438 136.144531 35.988281 135.992188 36.417969 135.890625 C 36.851562 135.789062 37.246094 135.738281 37.601562 135.738281 C 38.546875 135.738281 39.300781 135.976562 39.859375 136.449219 C 40.421875 136.917969 40.703125 137.550781 40.703125 138.339844 C 40.703125 138.714844 40.632812 139.070312 40.492188 139.40625 C 40.351562 139.738281 40.097656 140.132812 39.726562 140.589844 C 39.625 140.707031 39.300781 141.050781 38.757812 141.613281 C 38.210938 142.175781 37.441406 142.964844 36.449219 143.980469 Z M 36.449219 143.980469 "/>
<path style=" stroke:none;fill-rule:nonzero;fill:rgb(0%,0%,0%);fill-opacity:1;" d="M 45.976562 136.714844 C 45.34375 136.714844 44.863281 137.027344 44.542969 137.652344 C 44.226562 138.277344 44.066406 139.214844 44.066406 140.46875 C 44.066406 141.71875 44.226562 142.65625 44.542969 143.28125 C 44.863281 143.90625 45.34375 144.21875 45.976562 144.21875 C 46.617188 144.21875 47.09375 143.90625 47.414062 143.28125 C 47.734375 142.65625 47.894531 141.71875 47.894531 140.46875 C 47.894531 139.214844 47.734375 138.277344 47.414062 137.652344 C 47.09375 137.027344 46.617188 136.714844 45.976562 136.714844 Z M 45.976562 135.738281 C 47 135.738281 47.777344 136.144531 48.316406 136.953125 C 48.855469 137.757812 49.125 138.929688 49.125 140.46875 C 49.125 142.003906 48.855469 143.175781 48.316406 143.984375 C 47.777344 144.789062 47 145.195312 45.976562 145.195312 C 44.957031 145.195312 44.175781 144.789062 43.636719 143.984375 C 43.097656 143.175781 42.828125 142.003906 42.828125 140.46875 C 42.828125 138.929688 43.097656 137.757812 43.636719 136.953125 C 44.175781 136.144531 44.957031 135.738281 45.976562 135.738281 Z M 45.976562 135.738281 "/>
<g clip-path="url(#clip8)" clip-rule="nonzero">
<path style="fill:none;stroke-width:0.8;stroke-linecap:square;stroke-linejoin:round;stroke:rgb(69.019608%,69.019608%,69.019608%);stroke-opacity:1;stroke-miterlimit:4;" d="M 46.965625 87.503125 L 242.265625 87.503125 " transform="matrix(1.25,0,0,1.25,0,0)"/>
</g>
<path style="fill:none;stroke-width:0.8;stroke-linecap:butt;stroke-linejoin:round;stroke:rgb(0%,0%,0%);stroke-opacity:1;stroke-miterlimit:4;" d="M 0 -0.00142 L -3.5 -0.00142 " transform="matrix(1.25,0,0,1.25,58.707031,109.380681)"/>
<path style=" stroke:none;fill-rule:nonzero;fill:rgb(0%,0%,0%);fill-opacity:1;" d="M 38.773438 106.089844 L 35.664062 110.957031 L 38.773438 110.957031 Z M 38.453125 105.015625 L 40 105.015625 L 40 110.957031 L 41.304688 110.957031 L 41.304688 111.980469 L 40 111.980469 L 40 114.128906 L 38.773438 114.128906 L 38.773438 111.980469 L 34.664062 111.980469 L 34.664062 110.792969 Z M 38.453125 105.015625 "/>
<path style=" stroke:none;fill-rule:nonzero;fill:rgb(0%,0%,0%);fill-opacity:1;" d="M 45.976562 105.828125 C 45.34375 105.828125 44.863281 106.140625 44.542969 106.765625 C 44.226562 107.390625 44.066406 108.328125 44.066406 109.582031 C 44.066406 110.832031 44.226562 111.769531 44.542969 112.394531 C 44.863281 113.019531 45.34375 113.332031 45.976562 113.332031 C 46.617188 113.332031 47.09375 113.019531 47.414062 112.394531 C 47.734375 111.769531 47.894531 110.832031 47.894531 109.582031 C 47.894531 108.328125 47.734375 107.390625 47.414062 106.765625 C 47.09375 106.140625 46.617188 105.828125 45.976562 105.828125 Z M 45.976562 104.851562 C 47 104.851562 47.777344 105.257812 48.316406 106.066406 C 48.855469 106.871094 49.125 108.046875 49.125 109.582031 C 49.125 111.117188 48.855469 112.289062 48.316406 113.097656 C 47.777344 113.902344 47 114.308594 45.976562 114.308594 C 44.957031 114.308594 44.175781 113.902344 43.636719 113.097656 C 43.097656 112.289062 42.828125 111.117188 42.828125 109.582031 C 42.828125 108.046875 43.097656 106.871094 43.636719 106.066406 C 44.175781 105.257812 44.957031 104.851562 45.976562 104.851562 Z M 45.976562 104.851562 "/>
<g clip-path="url(#clip9)" clip-rule="nonzero">
<path style="fill:none;stroke-width:0.8;stroke-linecap:square;stroke-linejoin:round;stroke:rgb(69.019608%,69.019608%,69.019608%);stroke-opacity:1;stroke-miterlimit:4;" d="M 46.965625 62.796875 L 242.265625 62.796875 " transform="matrix(1.25,0,0,1.25,0,0)"/>
</g>
<path style="fill:none;stroke-width:0.8;stroke-linecap:butt;stroke-linejoin:round;stroke:rgb(0%,0%,0%);stroke-opacity:1;stroke-miterlimit:4;" d="M 0 0.00142 L -3.5 0.00142 " transform="matrix(1.25,0,0,1.25,58.707031,78.494319)"/>
<path style=" stroke:none;fill-rule:nonzero;fill:rgb(0%,0%,0%);fill-opacity:1;" d="M 38.179688 78.195312 C 37.625 78.195312 37.1875 78.386719 36.859375 78.765625 C 36.539062 79.140625 36.375 79.660156 36.375 80.320312 C 36.375 80.972656 36.539062 81.492188 36.859375 81.875 C 37.1875 82.253906 37.625 82.445312 38.179688 82.445312 C 38.730469 82.445312 39.167969 82.253906 39.492188 81.875 C 39.816406 81.492188 39.976562 80.972656 39.976562 80.320312 C 39.976562 79.660156 39.816406 79.140625 39.492188 78.765625 C 39.167969 78.386719 38.730469 78.195312 38.179688 78.195312 Z M 40.625 74.332031 L 40.625 75.453125 C 40.316406 75.308594 40.003906 75.195312 39.6875 75.121094 C 39.371094 75.042969 39.058594 75.003906 38.75 75.003906 C 37.9375 75.003906 37.3125 75.277344 36.882812 75.828125 C 36.457031 76.375 36.210938 77.207031 36.148438 78.316406 C 36.390625 77.964844 36.691406 77.691406 37.054688 77.503906 C 37.414062 77.3125 37.816406 77.21875 38.25 77.21875 C 39.164062 77.21875 39.890625 77.496094 40.421875 78.054688 C 40.953125 78.609375 41.21875 79.363281 41.21875 80.320312 C 41.21875 81.253906 40.941406 82.007812 40.386719 82.574219 C 39.832031 83.136719 39.097656 83.421875 38.179688 83.421875 C 37.125 83.421875 36.316406 83.015625 35.757812 82.210938 C 35.203125 81.402344 34.921875 80.230469 34.921875 78.695312 C 34.921875 77.257812 35.265625 76.109375 35.949219 75.25 C 36.632812 74.394531 37.550781 73.964844 38.703125 73.964844 C 39.011719 73.964844 39.324219 73.996094 39.640625 74.058594 C 39.953125 74.117188 40.28125 74.210938 40.625 74.332031 Z M 40.625 74.332031 "/>
<path style=" stroke:none;fill-rule:nonzero;fill:rgb(0%,0%,0%);fill-opacity:1;" d="M 45.976562 74.941406 C 45.34375 74.941406 44.863281 75.253906 44.542969 75.878906 C 44.226562 76.503906 44.066406 77.441406 44.066406 78.695312 C 44.066406 79.945312 44.226562 80.882812 44.542969 81.507812 C 44.863281 82.132812 45.34375 82.445312 45.976562 82.445312 C 46.617188 82.445312 47.09375 82.132812 47.414062 81.507812 C 47.734375 80.882812 47.894531 79.945312 47.894531 78.695312 C 47.894531 77.441406 47.734375 76.503906 47.414062 75.878906 C 47.09375 75.253906 46.617188 74.941406 45.976562 74.941406 Z M 45.976562 73.964844 C 47 73.964844 47.777344 74.371094 48.316406 75.179688 C 48.855469 75.984375 49.125 77.160156 49.125 78.695312 C 49.125 80.230469 48.855469 81.402344 48.316406 82.210938 C 47.777344 83.015625 47 83.421875 45.976562 83.421875 C 44.957031 83.421875 44.175781 83.015625 43.636719 82.210938 C 43.097656 81.402344 42.828125 80.230469 42.828125 78.695312 C 42.828125 77.160156 43.097656 75.984375 43.636719 75.179688 C 44.175781 74.371094 44.957031 73.964844 45.976562 73.964844 Z M 45.976562 73.964844 "/>
<g clip-path="url(#clip10)" clip-rule="nonzero">
<path style="fill:none;stroke-width:0.8;stroke-linecap:square;stroke-linejoin:round;stroke:rgb(69.019608%,69.019608%,69.019608%);stroke-opacity:1;stroke-miterlimit:4;" d="M 46.965625 38.0875 L 242.265625 38.0875 " transform="matrix(1.25,0,0,1.25,0,0)"/>
</g>
<path style="fill:none;stroke-width:0.8;stroke-linecap:butt;stroke-linejoin:round;stroke:rgb(0%,0%,0%);stroke-opacity:1;stroke-miterlimit:4;" d="M 0 0.001136 L -3.5 0.001136 " transform="matrix(1.25,0,0,1.25,58.707031,47.607955)"/>
<path style=" stroke:none;fill-rule:nonzero;fill:rgb(0%,0%,0%);fill-opacity:1;" d="M 38.023438 48.027344 C 37.4375 48.027344 36.976562 48.1875 36.640625 48.5 C 36.304688 48.8125 36.140625 49.246094 36.140625 49.792969 C 36.140625 50.34375 36.304688 50.773438 36.640625 51.085938 C 36.976562 51.402344 37.4375 51.558594 38.023438 51.558594 C 38.609375 51.558594 39.070312 51.402344 39.40625 51.085938 C 39.746094 50.769531 39.914062 50.339844 39.914062 49.792969 C 39.914062 49.246094 39.75 48.8125 39.414062 48.5 C 39.078125 48.1875 38.613281 48.027344 38.023438 48.027344 Z M 36.789062 47.503906 C 36.261719 47.375 35.851562 47.128906 35.554688 46.765625 C 35.261719 46.402344 35.113281 45.960938 35.113281 45.441406 C 35.113281 44.714844 35.371094 44.136719 35.890625 43.714844 C 36.410156 43.292969 37.121094 43.078125 38.023438 43.078125 C 38.929688 43.078125 39.644531 43.292969 40.160156 43.714844 C 40.675781 44.136719 40.9375 44.714844 40.9375 45.441406 C 40.9375 45.960938 40.789062 46.402344 40.492188 46.765625 C 40.199219 47.128906 39.789062 47.375 39.265625 47.503906 C 39.859375 47.644531 40.320312 47.914062 40.648438 48.316406 C 40.984375 48.71875 41.148438 49.210938 41.148438 49.792969 C 41.148438 50.675781 40.878906 51.355469 40.339844 51.828125 C 39.800781 52.300781 39.027344 52.535156 38.023438 52.535156 C 37.019531 52.535156 36.246094 52.300781 35.707031 51.828125 C 35.167969 51.355469 34.898438 50.675781 34.898438 49.792969 C 34.898438 49.210938 35.066406 48.71875 35.398438 48.316406 C 35.734375 47.914062 36.195312 47.644531 36.789062 47.503906 Z M 36.339844 45.558594 C 36.339844 46.03125 36.488281 46.398438 36.78125 46.660156 C 37.078125 46.925781 37.492188 47.058594 38.023438 47.058594 C 38.554688 47.058594 38.96875 46.925781 39.265625 46.660156 C 39.566406 46.398438 39.714844 46.03125 39.714844 45.558594 C 39.714844 45.085938 39.566406 44.71875 39.265625 44.453125 C 38.96875 44.1875 38.554688 44.054688 38.023438 44.054688 C 37.492188 44.054688 37.078125 44.1875 36.78125 44.453125 C 36.488281 44.71875 36.339844 45.085938 36.339844 45.558594 Z M 36.339844 45.558594 "/>
<path style=" stroke:none;fill-rule:nonzero;fill:rgb(0%,0%,0%);fill-opacity:1;" d="M 45.976562 44.054688 C 45.34375 44.054688 44.863281 44.367188 44.542969 44.992188 C 44.226562 45.617188 44.066406 46.554688 44.066406 47.808594 C 44.066406 49.058594 44.226562 49.996094 44.542969 50.621094 C 44.863281 51.246094 45.34375 51.558594 45.976562 51.558594 C 46.617188 51.558594 47.09375 51.246094 47.414062 50.621094 C 47.734375 49.996094 47.894531 49.058594 47.894531 47.808594 C 47.894531 46.554688 47.734375 45.617188 47.414062 44.992188 C 47.09375 44.367188 46.617188 44.054688 45.976562 44.054688 Z M 45.976562 43.078125 C 47 43.078125 47.777344 43.484375 48.316406 44.292969 C 48.855469 45.101562 49.125 46.273438 49.125 47.808594 C 49.125 49.34375 48.855469 50.515625 48.316406 51.324219 C 47.777344 52.132812 47 52.535156 45.976562 52.535156 C 44.957031 52.535156 44.175781 52.132812 43.636719 51.324219 C 43.097656 50.515625 42.828125 49.34375 42.828125 47.808594 C 42.828125 46.273438 43.097656 45.101562 43.636719 44.292969 C 44.175781 43.484375 44.957031 43.078125 45.976562 43.078125 Z M 45.976562 43.078125 "/>
<g clip-path="url(#clip11)" clip-rule="nonzero">
<path style="fill:none;stroke-width:0.8;stroke-linecap:square;stroke-linejoin:round;stroke:rgb(69.019608%,69.019608%,69.019608%);stroke-opacity:1;stroke-miterlimit:4;" d="M 46.965625 13.378125 L 242.265625 13.378125 " transform="matrix(1.25,0,0,1.25,0,0)"/>
</g>
<path style="fill:none;stroke-width:0.8;stroke-linecap:butt;stroke-linejoin:round;stroke:rgb(0%,0%,0%);stroke-opacity:1;stroke-miterlimit:4;" d="M 0 0.000852 L -3.5 0.000852 " transform="matrix(1.25,0,0,1.25,58.707031,16.721591)"/>
<path style=" stroke:none;fill-rule:nonzero;fill:rgb(0%,0%,0%);fill-opacity:1;" d="M 27.648438 20.433594 L 29.664062 20.433594 L 29.664062 13.480469 L 27.46875 13.917969 L 27.46875 12.796875 L 29.648438 12.355469 L 30.882812 12.355469 L 30.882812 20.433594 L 32.898438 20.433594 L 32.898438 21.46875 L 27.648438 21.46875 Z M 27.648438 20.433594 "/>
<path style=" stroke:none;fill-rule:nonzero;fill:rgb(0%,0%,0%);fill-opacity:1;" d="M 38.023438 13.167969 C 37.390625 13.167969 36.910156 13.480469 36.589844 14.105469 C 36.273438 14.730469 36.113281 15.667969 36.113281 16.921875 C 36.113281 18.171875 36.273438 19.109375 36.589844 19.734375 C 36.910156 20.359375 37.390625 20.671875 38.023438 20.671875 C 38.664062 20.671875 39.140625 20.359375 39.460938 19.734375 C 39.78125 19.109375 39.941406 18.171875 39.941406 16.921875 C 39.941406 15.667969 39.78125 14.730469 39.460938 14.105469 C 39.140625 13.480469 38.664062 13.167969 38.023438 13.167969 Z M 38.023438 12.191406 C 39.046875 12.191406 39.824219 12.597656 40.363281 13.40625 C 40.902344 14.214844 41.171875 15.386719 41.171875 16.921875 C 41.171875 18.457031 40.902344 19.628906 40.363281 20.4375 C 39.824219 21.246094 39.046875 21.648438 38.023438 21.648438 C 37.003906 21.648438 36.222656 21.246094 35.683594 20.4375 C 35.144531 19.628906 34.875 18.457031 34.875 16.921875 C 34.875 15.386719 35.144531 14.214844 35.683594 13.40625 C 36.222656 12.597656 37.003906 12.191406 38.023438 12.191406 Z M 38.023438 12.191406 "/>
<path style=" stroke:none;fill-rule:nonzero;fill:rgb(0%,0%,0%);fill-opacity:1;" d="M 45.976562 13.167969 C 45.34375 13.167969 44.863281 13.480469 44.542969 14.105469 C 44.226562 14.730469 44.066406 15.667969 44.066406 16.921875 C 44.066406 18.171875 44.226562 19.109375 44.542969 19.734375 C 44.863281 20.359375 45.34375 20.671875 45.976562 20.671875 C 46.617188 20.671875 47.09375 20.359375 47.414062 19.734375 C 47.734375 19.109375 47.894531 18.171875 47.894531 16.921875 C 47.894531 15.667969 47.734375 14.730469 47.414062 14.105469 C 47.09375 13.480469 46.617188 13.167969 45.976562 13.167969 Z M 45.976562 12.191406 C 47 12.191406 47.777344 12.597656 48.316406 13.40625 C 48.855469 14.214844 49.125 15.386719 49.125 16.921875 C 49.125 18.457031 48.855469 19.628906 48.316406 20.4375 C 47.777344 21.246094 47 21.648438 45.976562 21.648438 C 44.957031 21.648438 44.175781 21.246094 43.636719 20.4375 C 43.097656 19.628906 42.828125 18.457031 42.828125 16.921875 C 42.828125 15.386719 43.097656 14.214844 43.636719 13.40625 C 44.175781 12.597656 44.957031 12.191406 45.976562 12.191406 Z M 45.976562 12.191406 "/>
<path style=" stroke:none;fill-rule:nonzero;fill:rgb(0%,0%,0%);fill-opacity:1;" d="M 9 100.074219 L 9.9375 100.074219 L 9.9375 101.148438 C 9.9375 101.550781 10.015625 101.832031 10.179688 101.988281 C 10.34375 102.144531 10.636719 102.222656 11.058594 102.222656 L 11.664062 102.222656 L 11.664062 100.375 L 12.535156 100.375 L 12.535156 102.222656 L 18.5 102.222656 L 18.5 103.351562 L 12.535156 103.351562 L 12.535156 104.425781 L 11.664062 104.425781 L 11.664062 103.351562 L 11.1875 103.351562 C 10.425781 103.351562 9.871094 103.175781 9.523438 102.820312 C 9.175781 102.46875 9 101.90625 9 101.136719 Z M 9 100.074219 "/>
<path style=" stroke:none;fill-rule:nonzero;fill:rgb(0%,0%,0%);fill-opacity:1;" d="M 9.015625 96.4375 C 9.949219 96.984375 10.875 97.386719 11.792969 97.652344 C 12.707031 97.917969 13.632812 98.050781 14.574219 98.050781 C 15.511719 98.050781 16.445312 97.917969 17.367188 97.648438 C 18.289062 97.382812 19.214844 96.980469 20.148438 96.4375 L 20.148438 97.414062 C 19.191406 98.023438 18.25 98.480469 17.328125 98.785156 C 16.402344 99.085938 15.484375 99.238281 14.574219 99.238281 C 13.667969 99.238281 12.753906 99.089844 11.835938 98.789062 C 10.914062 98.484375 9.972656 98.027344 9.015625 97.414062 Z M 9.015625 96.4375 "/>
<path style=" stroke:none;fill-rule:nonzero;fill:rgb(0%,0%,0%);fill-opacity:1;" d="M 11.664062 88.574219 L 14.988281 91.046875 L 18.5 88.449219 L 18.5 89.773438 L 15.8125 91.761719 L 18.5 93.75 L 18.5 95.078125 L 14.921875 92.421875 L 11.664062 94.851562 L 11.664062 93.527344 L 14.097656 91.714844 L 11.664062 89.902344 Z M 11.664062 88.574219 "/>
<path style=" stroke:none;fill-rule:nonzero;fill:rgb(0%,0%,0%);fill-opacity:1;" d="M 9.015625 87.039062 L 9.015625 86.0625 C 9.972656 85.453125 10.914062 84.996094 11.835938 84.691406 C 12.753906 84.386719 13.667969 84.238281 14.574219 84.238281 C 15.484375 84.238281 16.402344 84.386719 17.328125 84.691406 C 18.25 84.996094 19.191406 85.453125 20.148438 86.0625 L 20.148438 87.039062 C 19.214844 86.496094 18.289062 86.09375 17.367188 85.828125 C 16.445312 85.558594 15.511719 85.425781 14.574219 85.425781 C 13.632812 85.425781 12.707031 85.558594 11.792969 85.828125 C 10.875 86.09375 9.949219 86.496094 9.015625 87.039062 Z M 9.015625 87.039062 "/>
<path style="fill:none;stroke-width:1.5;stroke-linecap:square;stroke-linejoin:round;stroke:rgb(12.156863%,46.666667%,70.588235%);stroke-opacity:1;stroke-miterlimit:4;" d="M 55.84375 13.378125 L 60.459375 25.890625 L 64.896875 37.29375 L 69.246875 47.871875 L 73.509375 57.65625 L 77.68125 66.684375 L 81.765625 74.99375 L 85.759375 82.615625 L 89.575 89.43125 L 93.30625 95.646875 L 96.94375 101.296875 L 100.496875 106.40625 L 103.95625 111.00625 L 107.33125 115.128125 L 110.615625 118.8 L 113.8125 122.046875 L 116.91875 124.896875 L 120.025 127.44375 L 123.04375 129.628125 L 125.971875 131.475 L 128.815625 133.009375 L 131.65625 134.290625 L 134.40625 135.2875 L 137.159375 136.05 L 139.821875 136.5625 L 142.484375 136.853125 L 145.146875 136.91875 L 147.8125 136.7625 L 150.475 136.384375 L 153.1375 135.784375 L 155.890625 134.93125 L 158.640625 133.8375 L 161.39375 132.509375 L 164.234375 130.8875 L 167.1625 128.953125 L 170.09375 126.746875 L 173.1125 124.19375 L 176.21875 121.265625 L 179.415625 117.9375 L 182.609375 114.290625 L 185.89375 110.209375 L 189.26875 105.665625 L 192.73125 100.628125 L 196.28125 95.075 L 199.921875 88.971875 L 203.65 82.2875 L 207.55625 74.81875 L 211.55 66.684375 L 215.634375 57.853125 L 219.80625 48.290625 L 224.06875 37.959375 L 228.415625 26.828125 L 232.85625 14.85625 L 233.3 13.625 " transform="matrix(1.25,0,0,1.25,0,0)"/>
<path style="fill:none;stroke-width:1.5;stroke-linecap:square;stroke-linejoin:round;stroke:rgb(100%,49.803922%,5.490196%);stroke-opacity:1;stroke-miterlimit:4;" d="M 233.3875 13.378125 L 197.878125 92.446875 L 176.575 120.9125 L 163.790625 131.159375 L 156.121875 134.846875 L 151.51875 136.175 L 148.75625 136.653125 L 147.1 136.825 L 146.10625 136.8875 L 145.509375 136.909375 L 145.153125 136.91875 " transform="matrix(1.25,0,0,1.25,0,0)"/>
<path style="fill-rule:nonzero;fill:rgb(100%,49.803922%,5.490196%);fill-opacity:1;stroke-width:1;stroke-linecap:butt;stroke-linejoin:round;stroke:rgb(100%,49.803922%,5.490196%);stroke-opacity:1;stroke-miterlimit:4;" d="M -0.000852 3.000852 C 0.796023 3.000852 1.558523 2.685227 2.121023 2.122727 C 2.683523 1.560227 2.999148 0.794602 2.999148 0.000852 C 2.999148 -0.796023 2.683523 -1.558523 2.121023 -2.121023 C 1.558523 -2.683523 0.796023 -2.999148 -0.000852 -2.999148 C -0.794602 -2.999148 -1.560227 -2.683523 -2.122727 -2.121023 C -2.685227 -1.558523 -3.000852 -0.796023 -3.000852 0.000852 C -3.000852 0.794602 -2.685227 1.560227 -2.122727 2.122727 C -1.560227 2.685227 -0.794602 3.000852 -0.000852 3.000852 Z M -0.000852 3.000852 " transform="matrix(1.25,0,0,1.25,291.73544,16.721591)"/>
<path style="fill-rule:nonzero;fill:rgb(100%,49.803922%,5.490196%);fill-opacity:1;stroke-width:1;stroke-linecap:butt;stroke-linejoin:round;stroke:rgb(100%,49.803922%,5.490196%);stroke-opacity:1;stroke-miterlimit:4;" d="M -0.001136 3.000511 C 0.795739 3.000511 1.558239 2.684886 2.120739 2.122386 C 2.683239 1.559886 2.998864 0.794261 2.998864 0.000511 C 2.998864 -0.796364 2.683239 -1.558864 2.120739 -2.121364 C 1.558239 -2.683864 0.795739 -2.999489 -0.001136 -2.999489 C -0.794886 -2.999489 -1.557386 -2.683864 -2.119886 -2.121364 C -2.682386 -1.558864 -3.001136 -0.796364 -3.001136 0.000511 C -3.001136 0.794261 -2.682386 1.559886 -2.119886 2.122386 C -1.557386 2.684886 -0.794886 3.000511 -0.001136 3.000511 Z M -0.001136 3.000511 " transform="matrix(1.25,0,0,1.25,247.349076,115.557955)"/>
<path style="fill-rule:nonzero;fill:rgb(100%,49.803922%,5.490196%);fill-opacity:1;stroke-width:1;stroke-linecap:butt;stroke-linejoin:round;stroke:rgb(100%,49.803922%,5.490196%);stroke-opacity:1;stroke-miterlimit:4;" d="M 0.001193 3.001264 C 0.794943 3.001264 1.557443 2.682514 2.119943 2.120014 C 2.682443 1.557514 3.001193 0.795014 3.001193 0.001264 C 3.001193 -0.795611 2.682443 -1.558111 2.119943 -2.120611 C 1.557443 -2.683111 0.794943 -2.998736 0.001193 -2.998736 C -0.795682 -2.998736 -1.558182 -2.683111 -2.120682 -2.120611 C -2.683182 -1.558111 -2.998807 -0.795611 -2.998807 0.001264 C -2.998807 0.795014 -2.683182 1.557514 -2.120682 2.120014 C -1.558182 2.682514 -0.795682 3.001264 0.001193 3.001264 Z M 0.001193 3.001264 " transform="matrix(1.25,0,0,1.25,220.717259,151.139045)"/>
<path style="fill-rule:nonzero;fill:rgb(100%,49.803922%,5.490196%);fill-opacity:1;stroke-width:1;stroke-linecap:butt;stroke-linejoin:round;stroke:rgb(100%,49.803922%,5.490196%);stroke-opacity:1;stroke-miterlimit:4;" d="M 0.000091 3.000784 C 0.796966 3.000784 1.559466 2.685159 2.121966 2.122659 C 2.684466 1.560159 3.000091 0.794534 3.000091 0.000784 C 3.000091 -0.796091 2.684466 -1.558591 2.121966 -2.121091 C 1.559466 -2.683591 0.796966 -2.999216 0.000091 -2.999216 C -0.796784 -2.999216 -1.559284 -2.683591 -2.121784 -2.121091 C -2.684284 -1.558591 -2.999909 -0.796091 -2.999909 0.000784 C -2.999909 0.794534 -2.684284 1.560159 -2.121784 2.122659 C -1.559284 2.685159 -0.796784 3.000784 0.000091 3.000784 Z M 0.000091 3.000784 " transform="matrix(1.25,0,0,1.25,204.738168,163.948239)"/>
<path style="fill-rule:nonzero;fill:rgb(100%,49.803922%,5.490196%);fill-opacity:1;stroke-width:1;stroke-linecap:butt;stroke-linejoin:round;stroke:rgb(100%,49.803922%,5.490196%);stroke-opacity:1;stroke-miterlimit:4;" d="M 0.001305 2.999237 C 0.795055 2.999237 1.557555 2.683612 2.120055 2.121112 C 2.682555 1.558612 3.001305 0.796112 3.001305 -0.000763 C 3.001305 -0.794513 2.682555 -1.560138 2.120055 -2.122638 C 1.557555 -2.685138 0.795055 -3.000763 0.001305 -3.000763 C -0.79557 -3.000763 -1.55807 -2.685138 -2.12057 -2.122638 C -2.68307 -1.560138 -2.998695 -0.794513 -2.998695 -0.000763 C -2.998695 0.796112 -2.68307 1.558612 -2.12057 2.121112 C -1.55807 2.683612 -0.79557 2.999237 0.001305 2.999237 Z M 0.001305 2.999237 " transform="matrix(1.25,0,0,1.25,195.150712,168.559547)"/>
<path style="fill-rule:nonzero;fill:rgb(100%,49.803922%,5.490196%);fill-opacity:1;stroke-width:1;stroke-linecap:butt;stroke-linejoin:round;stroke:rgb(100%,49.803922%,5.490196%);stroke-opacity:1;stroke-miterlimit:4;" d="M 0.000158 2.999305 C 0.797033 2.999305 1.559533 2.68368 2.122033 2.12118 C 2.684533 1.55868 3.000158 0.79618 3.000158 -0.000695 C 3.000158 -0.794445 2.684533 -1.56007 2.122033 -2.12257 C 1.559533 -2.68507 0.797033 -3.000695 0.000158 -3.000695 C -0.796717 -3.000695 -1.559217 -2.68507 -2.121717 -2.12257 C -2.684217 -1.56007 -2.999842 -0.794445 -2.999842 -0.000695 C -2.999842 0.79618 -2.684217 1.55868 -2.121717 2.12118 C -1.559217 2.68368 -0.796717 2.999305 0.000158 2.999305 Z M 0.000158 2.999305 " transform="matrix(1.25,0,0,1.25,189.39824,170.219619)"/>
<path style="fill-rule:nonzero;fill:rgb(100%,49.803922%,5.490196%);fill-opacity:1;stroke-width:1;stroke-linecap:butt;stroke-linejoin:round;stroke:rgb(100%,49.803922%,5.490196%);stroke-opacity:1;stroke-miterlimit:4;" d="M -0.001155 2.999329 C 0.79572 2.999329 1.55822 2.683704 2.12072 2.121204 C 2.68322 1.558704 2.998845 0.796204 2.998845 -0.000671 C 2.998845 -0.794421 2.68322 -1.560046 2.12072 -2.122546 C 1.55822 -2.685046 0.79572 -3.000671 -0.001155 -3.000671 C -0.794905 -3.000671 -1.557405 -2.685046 -2.119905 -2.122546 C -2.682405 -1.560046 -3.001155 -0.794421 -3.001155 -0.000671 C -3.001155 0.796204 -2.682405 1.558704 -2.119905 2.121204 C -1.557405 2.683704 -0.794905 2.999329 -0.001155 2.999329 Z M -0.001155 2.999329 " transform="matrix(1.25,0,0,1.25,185.946756,170.817245)"/>
<path style="fill-rule:nonzero;fill:rgb(100%,49.803922%,5.490196%);fill-opacity:1;stroke-width:1;stroke-linecap:butt;stroke-linejoin:round;stroke:rgb(100%,49.803922%,5.490196%);stroke-opacity:1;stroke-miterlimit:4;" d="M -0.000693 2.999088 C 0.796182 2.999088 1.558682 2.683463 2.121182 2.120963 C 2.683682 1.558463 2.999307 0.795963 2.999307 -0.000912 C 2.999307 -0.794662 2.683682 -1.560287 2.121182 -2.122787 C 1.558682 -2.685287 0.796182 -3.000912 -0.000693 -3.000912 C -0.794443 -3.000912 -1.560068 -2.685287 -2.122568 -2.122787 C -2.685068 -1.560287 -3.000693 -0.794662 -3.000693 -0.000912 C -3.000693 0.795963 -2.685068 1.558463 -2.122568 2.120963 C -1.560068 2.683463 -0.794443 2.999088 -0.000693 2.999088 Z M -0.000693 2.999088 " transform="matrix(1.25,0,0,1.25,183.875866,171.03239)"/>
<path style="fill-rule:nonzero;fill:rgb(100%,49.803922%,5.490196%);fill-opacity:1;stroke-width:1;stroke-linecap:butt;stroke-linejoin:round;stroke:rgb(100%,49.803922%,5.490196%);stroke-opacity:1;stroke-miterlimit:4;" d="M -0.000416 2.999626 C 0.796459 2.999626 1.558959 2.684001 2.121459 2.121501 C 2.683959 1.559001 2.999584 0.796501 2.999584 -0.000374 C 2.999584 -0.794124 2.683959 -1.559749 2.121459 -2.122249 C 1.558959 -2.684749 0.796459 -3.000374 -0.000416 -3.000374 C -0.794166 -3.000374 -1.559791 -2.684749 -2.122291 -2.122249 C -2.684791 -1.559749 -3.000416 -0.794124 -3.000416 -0.000374 C -3.000416 0.796501 -2.684791 1.559001 -2.122291 2.121501 C -1.559791 2.684001 -0.794166 2.999626 -0.000416 2.999626 Z M -0.000416 2.999626 " transform="matrix(1.25,0,0,1.25,182.633332,171.109843)"/>
<path style="fill-rule:nonzero;fill:rgb(100%,49.803922%,5.490196%);fill-opacity:1;stroke-width:1;stroke-linecap:butt;stroke-linejoin:round;stroke:rgb(100%,49.803922%,5.490196%);stroke-opacity:1;stroke-miterlimit:4;" d="M -0.000875 2.999195 C 0.796 2.999195 1.5585 2.68357 2.121 2.12107 C 2.6835 1.55857 2.999125 0.79607 2.999125 -0.000805 C 2.999125 -0.794555 2.6835 -1.56018 2.121 -2.12268 C 1.5585 -2.68518 0.796 -3.000805 -0.000875 -3.000805 C -0.794625 -3.000805 -1.56025 -2.68518 -2.12275 -2.12268 C -2.68525 -1.56018 -3.000875 -0.794555 -3.000875 -0.000805 C -3.000875 0.79607 -2.68525 1.55857 -2.12275 2.12107 C -1.56025 2.68357 -0.794625 2.999195 -0.000875 2.999195 Z M -0.000875 2.999195 " transform="matrix(1.25,0,0,1.25,181.887813,171.137725)"/>
<path style="fill-rule:nonzero;fill:rgb(100%,49.803922%,5.490196%);fill-opacity:1;stroke-width:1;stroke-linecap:butt;stroke-linejoin:round;stroke:rgb(100%,49.803922%,5.490196%);stroke-opacity:1;stroke-miterlimit:4;" d="M 0.000725 3.00054 C 0.794475 3.00054 1.5601 2.684915 2.1226 2.122415 C 2.6851 1.559915 3.000725 0.79429 3.000725 0.00054 C 3.000725 -0.796335 2.6851 -1.558835 2.1226 -2.121335 C 1.5601 -2.683835 0.794475 -2.99946 0.000725 -2.99946 C -0.79615 -2.99946 -1.55865 -2.683835 -2.12115 -2.121335 C -2.68365 -1.558835 -2.999275 -0.796335 -2.999275 0.00054 C -2.999275 0.79429 -2.68365 1.559915 -2.12115 2.122415 C -1.55865 2.684915 -0.79615 3.00054 0.000725 3.00054 Z M 0.000725 3.00054 " transform="matrix(1.25,0,0,1.25,181.4405,171.147762)"/>
<path style="fill:none;stroke-width:0.8;stroke-linecap:square;stroke-linejoin:miter;stroke:rgb(0%,0%,0%);stroke-opacity:1;stroke-miterlimit:4;" d="M 46.965625 143.1 L 46.965625 7.2 " transform="matrix(1.25,0,0,1.25,0,0)"/>
<path style="fill:none;stroke-width:0.8;stroke-linecap:square;stroke-linejoin:miter;stroke:rgb(0%,0%,0%);stroke-opacity:1;stroke-miterlimit:4;" d="M 242.265625 143.1 L 242.265625 7.2 " transform="matrix(1.25,0,0,1.25,0,0)"/>
<path style="fill:none;stroke-width:0.8;stroke-linecap:square;stroke-linejoin:miter;stroke:rgb(0%,0%,0%);stroke-opacity:1;stroke-miterlimit:4;" d="M 46.965625 143.1 L 242.265625 143.1 " transform="matrix(1.25,0,0,1.25,0,0)"/>
<path style="fill:none;stroke-width:0.8;stroke-linecap:square;stroke-linejoin:miter;stroke:rgb(0%,0%,0%);stroke-opacity:1;stroke-miterlimit:4;" d="M 46.965625 7.2 L 242.265625 7.2 " transform="matrix(1.25,0,0,1.25,0,0)"/>
</g>
</svg>
