<?xml version="1.0" encoding="UTF-8"?>
<svg xmlns="http://www.w3.org/2000/svg" xmlns:xlink="http://www.w3.org/1999/xlink" width="306pt" height="226pt" viewBox="0 0 306 226" version="1.1">
<defs>
<clipPath id="clip1">
  <path d="M 154 9 L 297.398438 9 L 297.398438 137 L 154 137 Z M 154 9 "/>
</clipPath>
<clipPath id="clip2">
  <path d="M 109 9 L 297.398438 9 L 297.398438 173 L 109 173 Z M 109 9 "/>
</clipPath>
<clipPath id="clip3">
  <path d="M 75 9 L 171 9 L 171 178.875 L 75 178.875 Z M 75 9 "/>
</clipPath>
<clipPath id="clip4">
  <path d="M 53.273438 87 L 122 87 L 122 178.875 L 53.273438 178.875 Z M 53.273438 87 "/>
</clipPath>
<clipPath id="clip5">
  <path d="M 53.273438 143 L 86 143 L 86 178.875 L 53.273438 178.875 Z M 53.273438 143 "/>
</clipPath>
<clipPath id="clip6">
  <path d="M 53.273438 177 L 56 177 L 56 178.875 L 53.273438 178.875 Z M 53.273438 177 "/>
</clipPath>
</defs>
<g id="surface1">
<path style=" stroke:none;fill-rule:nonzero;fill:rgb(100%,100%,100%);fill-opacity:1;" d="M 53.273438 178.875 L 297.402344 178.875 L 297.402344 9 L 53.273438 9 Z M 53.273438 178.875 "/>
<path style="fill:none;stroke-width:0.8;stroke-linecap:butt;stroke-linejoin:round;stroke:rgb(0%,0%,0%);stroke-opacity:1;stroke-miterlimit:4;" d="M 0.000000000000014211 0 L 0.000000000000014211 3.5 " transform="matrix(1.25,0,0,1.25,110.492187,178.875)"/>
<path style=" stroke:none;fill-rule:nonzero;fill:rgb(0%,0%,0%);fill-opacity:1;" d="M 102.601562 192.6875 L 110.425781 192.6875 L 110.425781 193.722656 L 102.601562 193.722656 Z M 102.601562 192.6875 "/>
<path style=" stroke:none;fill-rule:nonzero;fill:rgb(0%,0%,0%);fill-opacity:1;" d="M 116.476562 189.085938 L 113.363281 193.949219 L 116.476562 193.949219 Z M 116.152344 188.011719 L 117.703125 188.011719 L 117.703125 193.949219 L 119.003906 193.949219 L 119.003906 194.976562 L 117.703125 194.976562 L 117.703125 197.125 L 116.476562 197.125 L 116.476562 194.976562 L 112.363281 194.976562 L 112.363281 193.785156 Z M 116.152344 188.011719 "/>
<path style="fill:none;stroke-width:0.8;stroke-linecap:butt;stroke-linejoin:round;stroke:rgb(0%,0%,0%);stroke-opacity:1;stroke-miterlimit:4;" d="M 0.000000000000028422 0 L 0.000000000000028422 3.5 " transform="matrix(1.25,0,0,1.25,186.78125,178.875)"/>
<path style=" stroke:none;fill-rule:nonzero;fill:rgb(0%,0%,0%);fill-opacity:1;" d="M 178.890625 192.6875 L 186.714844 192.6875 L 186.714844 193.722656 L 178.890625 193.722656 Z M 178.890625 192.6875 "/>
<path style=" stroke:none;fill-rule:nonzero;fill:rgb(0%,0%,0%);fill-opacity:1;" d="M 190.441406 196.085938 L 194.742188 196.085938 L 194.742188 197.125 L 188.957031 197.125 L 188.957031 196.085938 C 189.425781 195.601562 190.0625 194.953125 190.871094 194.136719 C 191.679688 193.320312 192.1875 192.792969 192.394531 192.558594 C 192.789062 192.113281 193.0625 191.738281 193.21875 191.433594 C 193.375 191.125 193.457031 190.824219 193.457031 190.527344 C 193.457031 190.042969 193.285156 189.648438 192.945312 189.34375 C 192.605469 189.035156 192.164062 188.882812 191.617188 188.882812 C 191.230469 188.882812 190.824219 188.949219 190.394531 189.085938 C 189.964844 189.21875 189.507812 189.421875 189.019531 189.695312 L 189.019531 188.449219 C 189.515625 188.25 189.976562 188.101562 190.410156 188 C 190.839844 187.898438 191.234375 187.847656 191.59375 187.847656 C 192.539062 187.847656 193.289062 188.082031 193.851562 188.554688 C 194.414062 189.027344 194.695312 189.65625 194.695312 190.445312 C 194.695312 190.820312 194.625 191.175781 194.484375 191.511719 C 194.34375 191.847656 194.089844 192.242188 193.71875 192.699219 C 193.617188 192.816406 193.292969 193.15625 192.746094 193.722656 C 192.203125 194.285156 191.433594 195.074219 190.441406 196.085938 Z M 190.441406 196.085938 "/>
<path style="fill:none;stroke-width:0.8;stroke-linecap:butt;stroke-linejoin:round;stroke:rgb(0%,0%,0%);stroke-opacity:1;stroke-miterlimit:4;" d="M -0.000001 0 L -0.000001 3.5 " transform="matrix(1.25,0,0,1.25,263.070314,178.875)"/>
<path style=" stroke:none;fill-rule:nonzero;fill:rgb(0%,0%,0%);fill-opacity:1;" d="M 263.066406 188.824219 C 262.433594 188.824219 261.957031 189.136719 261.636719 189.761719 C 261.316406 190.382812 261.15625 191.324219 261.15625 192.578125 C 261.15625 193.824219 261.316406 194.761719 261.636719 195.386719 C 261.957031 196.011719 262.433594 196.324219 263.066406 196.324219 C 263.707031 196.324219 264.183594 196.011719 264.503906 195.386719 C 264.824219 194.761719 264.984375 193.824219 264.984375 192.578125 C 264.984375 191.324219 264.824219 190.382812 264.503906 189.761719 C 264.183594 189.136719 263.707031 188.824219 263.066406 188.824219 Z M 263.066406 187.847656 C 264.089844 187.847656 264.871094 188.25 265.410156 189.058594 C 265.949219 189.867188 266.21875 191.039062 266.21875 192.578125 C 266.21875 194.109375 265.949219 195.28125 265.410156 196.089844 C 264.871094 196.898438 264.089844 197.300781 263.066406 197.300781 C 262.046875 197.300781 261.265625 196.898438 260.726562 196.089844 C 260.1875 195.28125 259.917969 194.109375 259.917969 192.578125 C 259.917969 191.039062 260.1875 189.867188 260.726562 189.058594 C 261.265625 188.25 262.046875 187.847656 263.066406 187.847656 Z M 263.066406 187.847656 "/>
<path style=" stroke:none;fill-rule:nonzero;fill:rgb(0%,0%,0%);fill-opacity:1;" d="M 174.523438 207.386719 L 172.050781 210.710938 L 174.648438 214.222656 L 173.324219 214.222656 L 171.335938 211.535156 L 169.347656 214.222656 L 168.019531 214.222656 L 170.675781 210.644531 L 168.246094 207.386719 L 169.570312 207.386719 L 171.382812 209.820312 L 173.195312 207.386719 Z M 174.523438 207.386719 "/>
<path style=" stroke:none;fill-rule:nonzero;fill:rgb(0%,0%,0%);fill-opacity:1;" d="M 176.609375 213.183594 L 178.625 213.183594 L 178.625 206.230469 L 176.433594 206.671875 L 176.433594 205.546875 L 178.613281 205.109375 L 179.84375 205.109375 L 179.84375 213.183594 L 181.859375 213.183594 L 181.859375 214.222656 L 176.609375 214.222656 Z M 176.609375 213.183594 "/>
<path style="fill:none;stroke-width:0.8;stroke-linecap:butt;stroke-linejoin:round;stroke:rgb(0%,0%,0%);stroke-opacity:1;stroke-miterlimit:4;" d="M -0.001562 0 L -3.501562 0 " transform="matrix(1.25,0,0,1.25,53.27539,178.875)"/>
<path style=" stroke:none;fill-rule:nonzero;fill:rgb(0%,0%,0%);fill-opacity:1;" d="M 27.421875 179.1875 L 35.246094 179.1875 L 35.246094 180.222656 L 27.421875 180.222656 Z M 27.421875 179.1875 "/>
<path style=" stroke:none;fill-rule:nonzero;fill:rgb(0%,0%,0%);fill-opacity:1;" d="M 41.644531 178.710938 C 42.234375 178.835938 42.695312 179.097656 43.023438 179.5 C 43.355469 179.898438 43.523438 180.390625 43.523438 180.976562 C 43.523438 181.875 43.214844 182.570312 42.59375 183.0625 C 41.976562 183.554688 41.097656 183.800781 39.957031 183.800781 C 39.578125 183.800781 39.183594 183.765625 38.777344 183.6875 C 38.375 183.613281 37.957031 183.5 37.523438 183.347656 L 37.523438 182.160156 C 37.867188 182.359375 38.238281 182.507812 38.644531 182.609375 C 39.054688 182.710938 39.480469 182.761719 39.921875 182.761719 C 40.695312 182.761719 41.285156 182.609375 41.6875 182.304688 C 42.09375 182 42.296875 181.558594 42.296875 180.976562 C 42.296875 180.4375 42.109375 180.019531 41.730469 179.714844 C 41.355469 179.414062 40.832031 179.261719 40.160156 179.261719 L 39.097656 179.261719 L 39.097656 178.246094 L 40.210938 178.246094 C 40.816406 178.246094 41.277344 178.125 41.601562 177.882812 C 41.921875 177.640625 42.082031 177.292969 42.082031 176.835938 C 42.082031 176.371094 41.917969 176.011719 41.585938 175.761719 C 41.253906 175.507812 40.78125 175.382812 40.160156 175.382812 C 39.824219 175.382812 39.460938 175.421875 39.074219 175.496094 C 38.6875 175.566406 38.261719 175.679688 37.796875 175.835938 L 37.796875 174.738281 C 38.265625 174.605469 38.707031 174.507812 39.113281 174.445312 C 39.523438 174.378906 39.910156 174.347656 40.269531 174.347656 C 41.207031 174.347656 41.945312 174.558594 42.492188 174.984375 C 43.035156 175.410156 43.308594 175.984375 43.308594 176.707031 C 43.308594 177.214844 43.164062 177.640625 42.875 177.988281 C 42.585938 178.335938 42.175781 178.574219 41.644531 178.710938 Z M 41.644531 178.710938 "/>
<path style="fill:none;stroke-width:0.8;stroke-linecap:butt;stroke-linejoin:round;stroke:rgb(0%,0%,0%);stroke-opacity:1;stroke-miterlimit:4;" d="M -0.001562 -0.000721 L -3.501562 -0.000721 " transform="matrix(1.25,0,0,1.25,53.27539,135.317307)"/>
<path style=" stroke:none;fill-rule:nonzero;fill:rgb(0%,0%,0%);fill-opacity:1;" d="M 27.421875 135.628906 L 35.246094 135.628906 L 35.246094 136.664062 L 27.421875 136.664062 Z M 27.421875 135.628906 "/>
<path style=" stroke:none;fill-rule:nonzero;fill:rgb(0%,0%,0%);fill-opacity:1;" d="M 38.96875 139.027344 L 43.273438 139.027344 L 43.273438 140.066406 L 37.488281 140.066406 L 37.488281 139.027344 C 37.953125 138.542969 38.59375 137.894531 39.398438 137.078125 C 40.207031 136.261719 40.714844 135.738281 40.921875 135.5 C 41.316406 135.058594 41.59375 134.683594 41.75 134.375 C 41.90625 134.066406 41.984375 133.765625 41.984375 133.46875 C 41.984375 132.984375 41.816406 132.589844 41.476562 132.285156 C 41.136719 131.980469 40.691406 131.824219 40.148438 131.824219 C 39.761719 131.824219 39.351562 131.894531 38.921875 132.027344 C 38.496094 132.160156 38.035156 132.363281 37.546875 132.636719 L 37.546875 131.390625 C 38.042969 131.191406 38.507812 131.042969 38.9375 130.941406 C 39.371094 130.839844 39.765625 130.789062 40.125 130.789062 C 41.066406 130.789062 41.820312 131.023438 42.382812 131.496094 C 42.941406 131.96875 43.222656 132.597656 43.222656 133.386719 C 43.222656 133.761719 43.152344 134.117188 43.011719 134.453125 C 42.875 134.789062 42.617188 135.183594 42.246094 135.640625 C 42.144531 135.757812 41.820312 136.101562 41.277344 136.664062 C 40.730469 137.226562 39.964844 138.015625 38.96875 139.027344 Z M 38.96875 139.027344 "/>
<path style="fill:none;stroke-width:0.8;stroke-linecap:butt;stroke-linejoin:round;stroke:rgb(0%,0%,0%);stroke-opacity:1;stroke-miterlimit:4;" d="M -0.001562 -0.001442 L -3.501562 -0.001442 " transform="matrix(1.25,0,0,1.25,53.27539,91.759615)"/>
<path style=" stroke:none;fill-rule:nonzero;fill:rgb(0%,0%,0%);fill-opacity:1;" d="M 27.421875 92.070312 L 35.246094 92.070312 L 35.246094 93.109375 L 27.421875 93.109375 Z M 27.421875 92.070312 "/>
<path style=" stroke:none;fill-rule:nonzero;fill:rgb(0%,0%,0%);fill-opacity:1;" d="M 38.121094 95.472656 L 40.136719 95.472656 L 40.136719 88.519531 L 37.945312 88.957031 L 37.945312 87.835938 L 40.125 87.394531 L 41.355469 87.394531 L 41.355469 95.472656 L 43.371094 95.472656 L 43.371094 96.507812 L 38.121094 96.507812 Z M 38.121094 95.472656 "/>
<path style="fill:none;stroke-width:0.8;stroke-linecap:butt;stroke-linejoin:round;stroke:rgb(0%,0%,0%);stroke-opacity:1;stroke-miterlimit:4;" d="M -0.001562 0.000962 L -3.501562 0.000962 " transform="matrix(1.25,0,0,1.25,53.27539,48.201923)"/>
<path style=" stroke:none;fill-rule:nonzero;fill:rgb(0%,0%,0%);fill-opacity:1;" d="M 40.542969 44.648438 C 39.910156 44.648438 39.433594 44.960938 39.113281 45.585938 C 38.792969 46.210938 38.632812 47.148438 38.632812 48.402344 C 38.632812 49.652344 38.792969 50.589844 39.113281 51.214844 C 39.433594 51.839844 39.910156 52.152344 40.542969 52.152344 C 41.183594 52.152344 41.664062 51.839844 41.980469 51.214844 C 42.300781 50.589844 42.460938 49.652344 42.460938 48.402344 C 42.460938 47.148438 42.300781 46.210938 41.980469 45.585938 C 41.664062 44.960938 41.183594 44.648438 40.542969 44.648438 Z M 40.542969 43.671875 C 41.566406 43.671875 42.347656 44.078125 42.886719 44.886719 C 43.425781 45.695312 43.695312 46.867188 43.695312 48.402344 C 43.695312 49.9375 43.425781 51.109375 42.886719 51.917969 C 42.347656 52.726562 41.566406 53.128906 40.542969 53.128906 C 39.523438 53.128906 38.742188 52.726562 38.203125 51.917969 C 37.664062 51.109375 37.394531 49.9375 37.394531 48.402344 C 37.394531 46.867188 37.664062 45.695312 38.203125 44.886719 C 38.742188 44.078125 39.523438 43.671875 40.542969 43.671875 Z M 40.542969 43.671875 "/>
<path style=" stroke:none;fill-rule:nonzero;fill:rgb(0%,0%,0%);fill-opacity:1;" d="M 11.660156 94.75 L 14.988281 97.226562 L 18.496094 94.625 L 18.496094 95.949219 L 15.8125 97.9375 L 18.496094 99.929688 L 18.496094 101.253906 L 14.921875 98.597656 L 11.660156 101.027344 L 11.660156 99.703125 L 14.097656 97.890625 L 11.660156 96.078125 Z M 11.660156 94.75 "/>
<path style=" stroke:none;fill-rule:nonzero;fill:rgb(0%,0%,0%);fill-opacity:1;" d="M 17.460938 91.816406 L 17.460938 87.515625 L 18.496094 87.515625 L 18.496094 93.300781 L 17.460938 93.300781 C 16.976562 92.832031 16.328125 92.195312 15.511719 91.386719 C 14.695312 90.578125 14.167969 90.070312 13.929688 89.863281 C 13.488281 89.46875 13.113281 89.195312 12.804688 89.039062 C 12.5 88.878906 12.195312 88.800781 11.898438 88.800781 C 11.414062 88.800781 11.019531 88.972656 10.714844 89.3125 C 10.410156 89.652344 10.257812 90.09375 10.257812 90.640625 C 10.257812 91.027344 10.324219 91.433594 10.457031 91.863281 C 10.59375 92.292969 10.796875 92.75 11.070312 93.238281 L 9.824219 93.238281 C 9.625 92.742188 9.472656 92.28125 9.371094 91.847656 C 9.269531 91.417969 9.21875 91.019531 9.21875 90.664062 C 9.21875 89.71875 9.457031 88.964844 9.929688 88.40625 C 10.402344 87.84375 11.03125 87.5625 11.820312 87.5625 C 12.195312 87.5625 12.550781 87.632812 12.886719 87.773438 C 13.222656 87.914062 13.617188 88.167969 14.070312 88.539062 C 14.191406 88.640625 14.53125 88.964844 15.09375 89.511719 C 15.660156 90.054688 16.449219 90.824219 17.460938 91.816406 Z M 17.460938 91.816406 "/>
<path style="fill:none;stroke-width:1.5;stroke-linecap:square;stroke-linejoin:round;stroke:rgb(100%,49.803922%,5.490196%);stroke-opacity:1;stroke-miterlimit:4;" d="M 57.878125 108.253125 L 88.39375 80.378125 L 112.80625 63.65 L 132.3375 53.615625 L 147.959375 47.59375 L 160.459375 43.98125 L 170.459375 41.8125 L 178.459375 40.5125 L 184.859375 39.73125 L 189.978125 39.2625 L 194.071875 38.984375 L 197.35 38.815625 L 199.971875 38.7125 L 202.06875 38.653125 L 203.746875 38.615625 L 205.0875 38.59375 L 206.1625 38.58125 L 207.021875 38.571875 L 207.70625 38.56875 L 208.25625 38.565625 L 208.696875 38.565625 " transform="matrix(1.25,0,0,1.25,0,0.000000000000014211)"/>
<path style="fill-rule:nonzero;fill:rgb(100%,49.803922%,5.490196%);fill-opacity:1;stroke-width:1;stroke-linecap:butt;stroke-linejoin:round;stroke:rgb(100%,49.803922%,5.490196%);stroke-opacity:1;stroke-miterlimit:4;" d="M 0.000000000000014211 2.999279 C 0.796875 2.999279 1.559375 2.683654 2.121875 2.121154 C 2.684375 1.558654 3 0.796154 3 -0.000721 C 3 -0.794471 2.684375 -1.560096 2.121875 -2.122596 C 1.559375 -2.685096 0.796875 -3.000721 0.000000000000014211 -3.000721 C -0.796875 -3.000721 -1.559375 -2.685096 -2.121875 -2.122596 C -2.684375 -1.560096 -3 -0.794471 -3 -0.000721 C -3 0.796154 -2.684375 1.558654 -2.121875 2.121154 C -1.559375 2.683654 -0.796875 2.999279 0.000000000000014211 2.999279 Z M 0.000000000000014211 2.999279 " transform="matrix(1.25,0,0,1.25,72.347656,135.317307)"/>
<path style="fill-rule:nonzero;fill:rgb(100%,49.803922%,5.490196%);fill-opacity:1;stroke-width:1;stroke-linecap:butt;stroke-linejoin:round;stroke:rgb(100%,49.803922%,5.490196%);stroke-opacity:1;stroke-miterlimit:4;" d="M 0.000000000000014211 3.001202 C 0.796875 3.001202 1.559375 2.682452 2.121875 2.119952 C 2.684375 1.557452 3 0.794952 3 0.001202 C 3 -0.795673 2.684375 -1.558173 2.121875 -2.120673 C 1.559375 -2.683173 0.796875 -2.998798 0.000000000000014211 -2.998798 C -0.796875 -2.998798 -1.559375 -2.683173 -2.121875 -2.120673 C -2.684375 -1.558173 -3 -0.795673 -3 0.001202 C -3 0.794952 -2.684375 1.557452 -2.121875 2.119952 C -1.559375 2.682452 -0.796875 3.001202 0.000000000000014211 3.001202 Z M 0.000000000000014211 3.001202 " transform="matrix(1.25,0,0,1.25,110.492187,100.471154)"/>
<path style="fill-rule:nonzero;fill:rgb(100%,49.803922%,5.490196%);fill-opacity:1;stroke-width:1;stroke-linecap:butt;stroke-linejoin:round;stroke:rgb(100%,49.803922%,5.490196%);stroke-opacity:1;stroke-miterlimit:4;" d="M 0.000000000000014211 2.999231 C 0.796875 2.999231 1.559375 2.683606 2.121875 2.121106 C 2.684375 1.558606 3 0.796106 3 -0.000769 C 3 -0.794519 2.684375 -1.560144 2.121875 -2.122644 C 1.559375 -2.685144 0.796875 -3.000769 0.000000000000014211 -3.000769 C -0.796875 -3.000769 -1.559375 -2.685144 -2.121875 -2.122644 C -2.684375 -1.560144 -3 -0.794519 -3 -0.000769 C -3 0.796106 -2.684375 1.558606 -2.121875 2.121106 C -1.559375 2.683606 -0.796875 2.999231 0.000000000000014211 2.999231 Z M 0.000000000000014211 2.999231 " transform="matrix(1.25,0,0,1.25,141.007812,79.563461)"/>
<path style="fill-rule:nonzero;fill:rgb(100%,49.803922%,5.490196%);fill-opacity:1;stroke-width:1;stroke-linecap:butt;stroke-linejoin:round;stroke:rgb(100%,49.803922%,5.490196%);stroke-opacity:1;stroke-miterlimit:4;" d="M 0.00125 3.000549 C 0.795 3.000549 1.5575 2.684924 2.12 2.122424 C 2.6825 1.559924 3.00125 0.794299 3.00125 0.000549 C 3.00125 -0.796326 2.6825 -1.558826 2.12 -2.121326 C 1.5575 -2.683826 0.795 -2.999451 0.00125 -2.999451 C -0.795625 -2.999451 -1.558125 -2.683826 -2.120625 -2.121326 C -2.683125 -1.558826 -2.99875 -0.796326 -2.99875 0.000549 C -2.99875 0.794299 -2.683125 1.559924 -2.120625 2.122424 C -1.558125 2.684924 -0.795625 3.000549 0.00125 3.000549 Z M 0.00125 3.000549 " transform="matrix(1.25,0,0,1.25,165.420312,67.018845)"/>
<path style="fill-rule:nonzero;fill:rgb(100%,49.803922%,5.490196%);fill-opacity:1;stroke-width:1;stroke-linecap:butt;stroke-linejoin:round;stroke:rgb(100%,49.803922%,5.490196%);stroke-opacity:1;stroke-miterlimit:4;" d="M -0.000875 3.000089 C 0.796 3.000089 1.5585 2.684464 2.121 2.121964 C 2.6835 1.559464 2.999125 0.796964 2.999125 0.000089 C 2.999125 -0.796786 2.6835 -1.559286 2.121 -2.121786 C 1.5585 -2.684286 0.796 -2.999911 -0.000875 -2.999911 C -0.794625 -2.999911 -1.56025 -2.684286 -2.12275 -2.121786 C -2.68525 -1.559286 -3.000875 -0.796786 -3.000875 0.000089 C -3.000875 0.796964 -2.68525 1.559464 -2.12275 2.121964 C -1.56025 2.684464 -0.794625 3.000089 -0.000875 3.000089 Z M -0.000875 3.000089 " transform="matrix(1.25,0,0,1.25,184.950312,59.492076)"/>
<path style="fill-rule:nonzero;fill:rgb(100%,49.803922%,5.490196%);fill-opacity:1;stroke-width:1;stroke-linecap:butt;stroke-linejoin:round;stroke:rgb(100%,49.803922%,5.490196%);stroke-opacity:1;stroke-miterlimit:4;" d="M -0.000075 3.000438 C 0.7968 3.000438 1.5593 2.684813 2.1218 2.122313 C 2.6843 1.559813 2.999925 0.794188 2.999925 0.000438 C 2.999925 -0.796437 2.6843 -1.558937 2.1218 -2.121437 C 1.5593 -2.683937 0.7968 -2.999562 -0.000075 -2.999562 C -0.79695 -2.999562 -1.55945 -2.683937 -2.12195 -2.121437 C -2.68445 -1.558937 -3.000075 -0.796437 -3.000075 0.000438 C -3.000075 0.794188 -2.68445 1.559813 -2.12195 2.122313 C -1.55945 2.684813 -0.79695 3.000438 -0.000075 3.000438 Z M -0.000075 3.000438 " transform="matrix(1.25,0,0,1.25,200.574312,54.976015)"/>
<path style="fill-rule:nonzero;fill:rgb(100%,49.803922%,5.490196%);fill-opacity:1;stroke-width:1;stroke-linecap:butt;stroke-linejoin:round;stroke:rgb(100%,49.803922%,5.490196%);stroke-opacity:1;stroke-miterlimit:4;" d="M 0.000565 2.999398 C 0.794315 2.999398 1.55994 2.683773 2.12244 2.121273 C 2.68494 1.558773 3.000565 0.796273 3.000565 -0.000602 C 3.000565 -0.794352 2.68494 -1.559977 2.12244 -2.122477 C 1.55994 -2.684977 0.794315 -3.000602 0.000565 -3.000602 C -0.79631 -3.000602 -1.55881 -2.684977 -2.12131 -2.122477 C -2.68381 -1.559977 -2.999435 -0.794352 -2.999435 -0.000602 C -2.999435 0.796273 -2.68381 1.558773 -2.12131 2.121273 C -1.55881 2.683773 -0.79631 2.999398 0.000565 2.999398 Z M 0.000565 2.999398 " transform="matrix(1.25,0,0,1.25,213.073512,52.266378)"/>
<path style="fill-rule:nonzero;fill:rgb(100%,49.803922%,5.490196%);fill-opacity:1;stroke-width:1;stroke-linecap:butt;stroke-linejoin:round;stroke:rgb(100%,49.803922%,5.490196%);stroke-opacity:1;stroke-miterlimit:4;" d="M 0.001076 3.000024 C 0.794826 3.000024 1.557326 2.684399 2.119826 2.121899 C 2.685451 1.559399 3.001076 0.796899 3.001076 0.000024 C 3.001076 -0.796851 2.685451 -1.559351 2.119826 -2.121851 C 1.557326 -2.684351 0.794826 -2.999976 0.001076 -2.999976 C -0.795799 -2.999976 -1.558299 -2.684351 -2.120799 -2.121851 C -2.683299 -1.559351 -2.998924 -0.796851 -2.998924 0.000024 C -2.998924 0.796899 -2.683299 1.559399 -2.120799 2.121899 C -1.558299 2.684399 -0.795799 3.000024 0.001076 3.000024 Z M 0.001076 3.000024 " transform="matrix(1.25,0,0,1.25,223.072874,50.640595)"/>
<path style="fill-rule:nonzero;fill:rgb(100%,49.803922%,5.490196%);fill-opacity:1;stroke-width:1;stroke-linecap:butt;stroke-linejoin:round;stroke:rgb(100%,49.803922%,5.490196%);stroke-opacity:1;stroke-miterlimit:4;" d="M 0.001486 2.999149 C 0.795236 2.999149 1.557736 2.683524 2.120236 2.121024 C 2.682736 1.558524 3.001486 0.796024 3.001486 -0.000851 C 3.001486 -0.794601 2.682736 -1.560226 2.120236 -2.122726 C 1.557736 -2.685226 0.795236 -3.000851 0.001486 -3.000851 C -0.795389 -3.000851 -1.557889 -2.685226 -2.120389 -2.122726 C -2.682889 -1.560226 -2.998514 -0.794601 -2.998514 -0.000851 C -2.998514 0.796024 -2.682889 1.558524 -2.120389 2.121024 C -1.557889 2.683524 -0.795389 2.999149 0.001486 2.999149 Z M 0.001486 2.999149 " transform="matrix(1.25,0,0,1.25,231.072361,49.665126)"/>
<path style="fill-rule:nonzero;fill:rgb(100%,49.803922%,5.490196%);fill-opacity:1;stroke-width:1;stroke-linecap:butt;stroke-linejoin:round;stroke:rgb(100%,49.803922%,5.490196%);stroke-opacity:1;stroke-miterlimit:4;" d="M 0.000564 2.998624 C 0.794314 2.998624 1.559939 2.682999 2.122439 2.120499 C 2.684939 1.557999 3.000564 0.795499 3.000564 -0.001376 C 3.000564 -0.795126 2.684939 -1.557626 2.122439 -2.120126 C 1.559939 -2.682626 0.794314 -3.001376 0.000564 -3.001376 C -0.796311 -3.001376 -1.558811 -2.682626 -2.121311 -2.120126 C -2.683811 -1.557626 -2.999436 -0.795126 -2.999436 -0.001376 C -2.999436 0.795499 -2.683811 1.557999 -2.121311 2.120499 C -1.558811 2.682999 -0.796311 2.998624 0.000564 2.998624 Z M 0.000564 2.998624 " transform="matrix(1.25,0,0,1.25,237.471951,49.079845)"/>
<path style="fill-rule:nonzero;fill:rgb(100%,49.803922%,5.490196%);fill-opacity:1;stroke-width:1;stroke-linecap:butt;stroke-linejoin:round;stroke:rgb(100%,49.803922%,5.490196%);stroke-opacity:1;stroke-miterlimit:4;" d="M -0.001424 3.001434 C 0.795451 3.001434 1.557951 2.682684 2.120451 2.120184 C 2.682951 1.557684 2.998576 0.795184 2.998576 0.001434 C 2.998576 -0.795441 2.682951 -1.557941 2.120451 -2.120441 C 1.557951 -2.682941 0.795451 -2.998566 -0.001424 -2.998566 C -0.795174 -2.998566 -1.557674 -2.682941 -2.120174 -2.120441 C -2.682674 -1.557941 -3.001424 -0.795441 -3.001424 0.001434 C -3.001424 0.795184 -2.682674 1.557684 -2.120174 2.120184 C -1.557674 2.682684 -0.795174 3.001434 -0.001424 3.001434 Z M -0.001424 3.001434 " transform="matrix(1.25,0,0,1.25,242.591624,48.728676)"/>
<path style="fill-rule:nonzero;fill:rgb(100%,49.803922%,5.490196%);fill-opacity:1;stroke-width:1;stroke-linecap:butt;stroke-linejoin:round;stroke:rgb(100%,49.803922%,5.490196%);stroke-opacity:1;stroke-miterlimit:4;" d="M 0.000111 3.001246 C 0.796986 3.001246 1.559486 2.682496 2.121986 2.119996 C 2.684486 1.557496 3.000111 0.794996 3.000111 0.001246 C 3.000111 -0.795629 2.684486 -1.558129 2.121986 -2.120629 C 1.559486 -2.683129 0.796986 -2.998754 0.000111 -2.998754 C -0.796764 -2.998754 -1.559264 -2.683129 -2.121764 -2.120629 C -2.684264 -1.558129 -2.999889 -0.795629 -2.999889 0.001246 C -2.999889 0.794996 -2.684264 1.557496 -2.121764 2.119996 C -1.559264 2.682496 -0.796764 3.001246 0.000111 3.001246 Z M 0.000111 3.001246 " transform="matrix(1.25,0,0,1.25,246.687361,48.517974)"/>
<path style="fill-rule:nonzero;fill:rgb(100%,49.803922%,5.490196%);fill-opacity:1;stroke-width:1;stroke-linecap:butt;stroke-linejoin:round;stroke:rgb(100%,49.803922%,5.490196%);stroke-opacity:1;stroke-miterlimit:4;" d="M 0.000713 2.999257 C 0.794463 2.999257 1.560088 2.683632 2.122588 2.121132 C 2.685088 1.558632 3.000713 0.796132 3.000713 -0.000743 C 3.000713 -0.794493 2.685088 -1.560118 2.122588 -2.122618 C 1.560088 -2.685118 0.794463 -3.000743 0.000713 -3.000743 C -0.796162 -3.000743 -1.558662 -2.685118 -2.121162 -2.122618 C -2.683662 -1.560118 -2.999287 -0.794493 -2.999287 -0.000743 C -2.999287 0.796132 -2.683662 1.558632 -2.121162 2.121132 C -1.558662 2.683632 -0.796162 2.999257 0.000713 2.999257 Z M 0.000713 2.999257 " transform="matrix(1.25,0,0,1.25,249.963952,48.391554)"/>
<path style="fill-rule:nonzero;fill:rgb(100%,49.803922%,5.490196%);fill-opacity:1;stroke-width:1;stroke-linecap:butt;stroke-linejoin:round;stroke:rgb(100%,49.803922%,5.490196%);stroke-opacity:1;stroke-miterlimit:4;" d="M 0.000571 3.000564 C 0.794321 3.000564 1.559946 2.684939 2.122446 2.122439 C 2.684946 1.559939 3.000571 0.794314 3.000571 0.000564 C 3.000571 -0.796311 2.684946 -1.558811 2.122446 -2.121311 C 1.559946 -2.683811 0.794321 -2.999436 0.000571 -2.999436 C -0.796304 -2.999436 -1.558804 -2.683811 -2.121304 -2.121311 C -2.683804 -1.558811 -2.999429 -0.796311 -2.999429 0.000564 C -2.999429 0.794314 -2.683804 1.559939 -2.121304 2.122439 C -1.558804 2.684939 -0.796304 3.000564 0.000571 3.000564 Z M 0.000571 3.000564 " transform="matrix(1.25,0,0,1.25,252.585224,48.315701)"/>
<path style="fill-rule:nonzero;fill:rgb(100%,49.803922%,5.490196%);fill-opacity:1;stroke-width:1;stroke-linecap:butt;stroke-linejoin:round;stroke:rgb(100%,49.803922%,5.490196%);stroke-opacity:1;stroke-miterlimit:4;" d="M 0.001081 2.999473 C 0.794831 2.999473 1.557331 2.683848 2.119831 2.121348 C 2.685456 1.558848 3.001081 0.796348 3.001081 -0.000527 C 3.001081 -0.794277 2.685456 -1.559902 2.119831 -2.122402 C 1.557331 -2.684902 0.794831 -3.000527 0.001081 -3.000527 C -0.795794 -3.000527 -1.558294 -2.684902 -2.120794 -2.122402 C -2.683294 -1.559902 -2.998919 -0.794277 -2.998919 -0.000527 C -2.998919 0.796348 -2.683294 1.558848 -2.120794 2.121348 C -1.558294 2.683848 -0.795794 2.999473 0.001081 2.999473 Z M 0.001081 2.999473 " transform="matrix(1.25,0,0,1.25,254.682242,48.27019)"/>
<path style="fill-rule:nonzero;fill:rgb(100%,49.803922%,5.490196%);fill-opacity:1;stroke-width:1;stroke-linecap:butt;stroke-linejoin:round;stroke:rgb(100%,49.803922%,5.490196%);stroke-opacity:1;stroke-miterlimit:4;" d="M -0.000385 2.999444 C 0.79649 2.999444 1.55899 2.683819 2.12149 2.121319 C 2.68399 1.558819 2.999615 0.796319 2.999615 -0.000556 C 2.999615 -0.794306 2.68399 -1.559931 2.12149 -2.122431 C 1.55899 -2.684931 0.79649 -3.000556 -0.000385 -3.000556 C -0.794135 -3.000556 -1.55976 -2.684931 -2.12226 -2.122431 C -2.68476 -1.559931 -3.000385 -0.794306 -3.000385 -0.000556 C -3.000385 0.796319 -2.68476 1.558819 -2.12226 2.121319 C -1.55976 2.683819 -0.794135 2.999444 -0.000385 2.999444 Z M -0.000385 2.999444 " transform="matrix(1.25,0,0,1.25,256.359856,48.242883)"/>
<path style="fill-rule:nonzero;fill:rgb(100%,49.803922%,5.490196%);fill-opacity:1;stroke-width:1;stroke-linecap:butt;stroke-linejoin:round;stroke:rgb(100%,49.803922%,5.490196%);stroke-opacity:1;stroke-miterlimit:4;" d="M 0.000942 3.000051 C 0.794692 3.000051 1.557192 2.684426 2.122817 2.121926 C 2.685317 1.559426 3.000942 0.796926 3.000942 0.000051 C 3.000942 -0.796824 2.685317 -1.559324 2.122817 -2.121824 C 1.557192 -2.684324 0.794692 -2.999949 0.000942 -2.999949 C -0.795933 -2.999949 -1.558433 -2.684324 -2.120933 -2.121824 C -2.683433 -1.559324 -2.999058 -0.796824 -2.999058 0.000051 C -2.999058 0.796926 -2.683433 1.559426 -2.120933 2.121926 C -1.558433 2.684426 -0.795933 3.000051 0.000942 3.000051 Z M 0.000942 3.000051 " transform="matrix(1.25,0,0,1.25,257.701947,48.226499)"/>
<path style="fill-rule:nonzero;fill:rgb(100%,49.803922%,5.490196%);fill-opacity:1;stroke-width:1;stroke-linecap:butt;stroke-linejoin:round;stroke:rgb(100%,49.803922%,5.490196%);stroke-opacity:1;stroke-miterlimit:4;" d="M 0.001378 2.998541 C 0.795128 2.998541 1.557628 2.682916 2.120128 2.120416 C 2.682628 1.557916 3.001378 0.795416 3.001378 -0.001459 C 3.001378 -0.795209 2.682628 -1.557709 2.120128 -2.120209 C 1.557628 -2.682709 0.795128 -3.001459 0.001378 -3.001459 C -0.795497 -3.001459 -1.557997 -2.682709 -2.120497 -2.120209 C -2.682997 -1.557709 -2.998622 -0.795209 -2.998622 -0.001459 C -2.998622 0.795416 -2.682997 1.557916 -2.120497 2.120416 C -1.557997 2.682916 -0.795497 2.998541 0.001378 2.998541 Z M 0.001378 2.998541 " transform="matrix(1.25,0,0,1.25,258.775621,48.216668)"/>
<path style="fill-rule:nonzero;fill:rgb(100%,49.803922%,5.490196%);fill-opacity:1;stroke-width:1;stroke-linecap:butt;stroke-linejoin:round;stroke:rgb(100%,49.803922%,5.490196%);stroke-opacity:1;stroke-miterlimit:4;" d="M -0.001397 3.000134 C 0.795478 3.000134 1.557978 2.684509 2.120478 2.122009 C 2.682978 1.559509 2.998603 0.797009 2.998603 0.000134 C 2.998603 -0.796741 2.682978 -1.559241 2.120478 -2.121741 C 1.557978 -2.684241 0.795478 -2.999866 -0.001397 -2.999866 C -0.795147 -2.999866 -1.557647 -2.684241 -2.120147 -2.121741 C -2.682647 -1.559241 -3.001397 -0.796741 -3.001397 0.000134 C -3.001397 0.797009 -2.682647 1.559509 -2.120147 2.122009 C -1.557647 2.684509 -0.795147 3.000134 -0.001397 3.000134 Z M -0.001397 3.000134 " transform="matrix(1.25,0,0,1.25,259.634559,48.21077)"/>
<path style="fill-rule:nonzero;fill:rgb(100%,49.803922%,5.490196%);fill-opacity:1;stroke-width:1;stroke-linecap:butt;stroke-linejoin:round;stroke:rgb(100%,49.803922%,5.490196%);stroke-opacity:1;stroke-miterlimit:4;" d="M -0.001118 2.99984 C 0.795757 2.99984 1.558257 2.684215 2.120757 2.121715 C 2.683257 1.559215 2.998882 0.796715 2.998882 -0.00016 C 2.998882 -0.797035 2.683257 -1.559535 2.120757 -2.122035 C 1.558257 -2.684535 0.795757 -3.00016 -0.001118 -3.00016 C -0.794868 -3.00016 -1.557368 -2.684535 -2.119868 -2.122035 C -2.682368 -1.559535 -3.001118 -0.797035 -3.001118 -0.00016 C -3.001118 0.796715 -2.682368 1.559215 -2.119868 2.121715 C -1.557368 2.684215 -0.794868 2.99984 -0.001118 2.99984 Z M -0.001118 2.99984 " transform="matrix(1.25,0,0,1.25,260.32171,48.207231)"/>
<path style="fill-rule:nonzero;fill:rgb(100%,49.803922%,5.490196%);fill-opacity:1;stroke-width:1;stroke-linecap:butt;stroke-linejoin:round;stroke:rgb(100%,49.803922%,5.490196%);stroke-opacity:1;stroke-miterlimit:4;" d="M -0.00027 3.001539 C 0.796605 3.001539 1.559105 2.682789 2.121605 2.120289 C 2.684105 1.557789 2.99973 0.795289 2.99973 0.001539 C 2.99973 -0.795336 2.684105 -1.557836 2.121605 -2.120336 C 1.559105 -2.682836 0.796605 -2.998461 -0.00027 -2.998461 C -0.797145 -2.998461 -1.559645 -2.682836 -2.122145 -2.120336 C -2.684645 -1.557836 -3.00027 -0.795336 -3.00027 0.001539 C -3.00027 0.795289 -2.684645 1.557789 -2.122145 2.120289 C -1.559645 2.682789 -0.797145 3.001539 -0.00027 3.001539 Z M -0.00027 3.001539 " transform="matrix(1.25,0,0,1.25,260.871431,48.205108)"/>
<g clip-path="url(#clip1)" clip-rule="nonzero">
<path style="fill:none;stroke-width:1.5;stroke-linecap:butt;stroke-linejoin:round;stroke:rgb(12.156863%,46.666667%,70.588235%);stroke-opacity:1;stroke-miterlimit:4;" d="M 133.390625 7.2 L 131.35625 10.684375 L 131.115625 11.15 L 129.61875 14.16875 L 128.121875 17.653125 L 128.065625 17.8125 L 126.9 21.1375 L 125.9 24.621875 L 125.125 28.10625 L 125.0125 28.803125 L 124.584375 31.59375 L 124.2625 35.078125 L 124.15625 38.5625 L 124.2625 42.046875 L 124.584375 45.53125 L 125.0125 48.31875 L 125.125 49.015625 L 125.9 52.5 L 126.9 55.984375 L 128.065625 59.309375 L 128.121875 59.46875 L 129.61875 62.953125 L 131.115625 65.975 L 131.35625 66.4375 L 133.390625 69.921875 L 134.16875 71.115625 L 135.725 73.40625 L 137.21875 75.4 L 138.3875 76.89375 L 140.271875 79.090625 L 141.421875 80.378125 L 143.321875 82.328125 L 144.884375 83.8625 L 146.375 85.215625 L 148.828125 87.346875 L 149.425 87.828125 L 152.478125 90.16875 L 153.384375 90.83125 L 155.528125 92.290625 L 158.58125 94.259375 L 158.671875 94.315625 L 161.63125 96.00625 L 164.684375 97.640625 L 165 97.8 L 167.734375 99.09375 L 170.7875 100.4375 L 172.8625 101.284375 L 173.8375 101.6625 L 176.8875 102.74375 L 179.940625 103.734375 L 182.99375 104.628125 L 183.53125 104.76875 L 186.04375 105.39375 L 189.096875 106.065625 L 192.146875 106.646875 L 195.2 107.1375 L 198.25 107.5375 L 201.303125 107.853125 L 204.353125 108.075 L 207.40625 108.209375 L 210.45625 108.253125 L 213.509375 108.209375 L 216.559375 108.075 L 219.6125 107.853125 L 222.6625 107.5375 L 225.715625 107.1375 L 228.765625 106.646875 L 231.81875 106.065625 L 234.86875 105.39375 L 237.38125 104.76875 L 237.921875 104.628125 " transform="matrix(1.25,0,0,1.25,0,0.000000000000014211)"/>
</g>
<g clip-path="url(#clip2)" clip-rule="nonzero">
<path style="fill:none;stroke-width:1.5;stroke-linecap:butt;stroke-linejoin:round;stroke:rgb(12.156863%,46.666667%,70.588235%);stroke-opacity:1;stroke-miterlimit:4;" d="M 94.740625 7.2 L 94.496875 7.815625 L 93.3875 10.684375 L 92.196875 14.16875 L 91.44375 16.715625 L 91.175 17.653125 L 90.325 21.1375 L 89.63125 24.621875 L 89.0875 28.10625 L 88.703125 31.59375 L 88.471875 35.078125 L 88.39375 38.5625 L 88.471875 42.046875 L 88.703125 45.53125 L 89.0875 49.015625 L 89.63125 52.5 L 90.325 55.984375 L 91.175 59.46875 L 91.44375 60.40625 L 92.196875 62.953125 L 93.3875 66.4375 L 94.496875 69.309375 L 94.740625 69.921875 L 96.2875 73.40625 L 97.546875 75.978125 L 98.009375 76.89375 L 99.93125 80.378125 L 100.6 81.490625 L 102.0625 83.8625 L 103.653125 86.25 L 104.403125 87.346875 L 106.703125 90.46875 L 106.975 90.83125 L 109.753125 94.259375 L 109.803125 94.315625 L 112.80625 97.69375 L 112.903125 97.8 L 115.859375 100.8375 L 116.309375 101.284375 L 118.909375 103.734375 L 120.046875 104.76875 L 121.9625 106.421875 L 124.15625 108.253125 L 125.0125 108.934375 L 128.065625 111.271875 L 128.696875 111.7375 L 131.115625 113.440625 L 133.746875 115.221875 L 134.16875 115.49375 L 137.21875 117.390625 L 139.425 118.70625 L 140.271875 119.190625 L 143.321875 120.85625 L 145.878125 122.19375 L 146.375 122.440625 L 149.425 123.9 L 152.478125 125.284375 L 153.384375 125.678125 L 155.528125 126.565625 L 158.58125 127.759375 L 161.63125 128.8875 L 162.41875 129.1625 L 164.684375 129.91875 L 167.734375 130.871875 L 170.7875 131.759375 L 173.8375 132.58125 L 174.103125 132.646875 L 176.8875 133.3125 L 179.940625 133.978125 L 182.99375 134.578125 L 186.04375 135.115625 L 189.096875 135.59375 L 192.146875 136.003125 L 193.25625 136.13125 L 195.2 136.34375 L 198.25 136.61875 L 201.303125 136.834375 L 204.353125 136.9875 L 207.40625 137.078125 L 210.45625 137.109375 L 213.509375 137.078125 L 216.559375 136.9875 L 219.6125 136.834375 L 222.6625 136.61875 L 225.715625 136.34375 L 227.65625 136.13125 L 228.765625 136.003125 L 231.81875 135.59375 L 234.86875 135.115625 L 237.921875 134.578125 " transform="matrix(1.25,0,0,1.25,0,0.000000000000014211)"/>
</g>
<g clip-path="url(#clip3)" clip-rule="nonzero">
<path style="fill:none;stroke-width:1.5;stroke-linecap:butt;stroke-linejoin:round;stroke:rgb(12.156863%,46.666667%,70.588235%);stroke-opacity:1;stroke-miterlimit:4;" d="M 66.1 7.2 L 65.009375 10.684375 L 64.046875 14.16875 L 63.98125 14.4375 L 63.225 17.653125 L 62.534375 21.1375 L 61.96875 24.621875 L 61.528125 28.10625 L 61.2125 31.59375 L 61.025 35.078125 L 60.9625 38.5625 L 61.025 42.046875 L 61.2125 45.53125 L 61.528125 49.015625 L 61.96875 52.5 L 62.534375 55.984375 L 63.225 59.46875 L 63.98125 62.684375 L 64.046875 62.953125 L 65.009375 66.4375 L 66.1 69.921875 L 67.034375 72.58125 L 67.328125 73.40625 L 68.70625 76.89375 L 70.084375 80.075 L 70.21875 80.378125 L 71.89375 83.8625 L 73.1375 86.25 L 73.71875 87.346875 L 75.70625 90.83125 L 76.1875 91.61875 L 77.871875 94.315625 L 79.240625 96.375 L 80.209375 97.8 L 82.290625 100.6875 L 82.73125 101.284375 L 85.34375 104.628125 L 85.45625 104.76875 L 88.39375 108.253125 L 91.44375 111.6125 L 91.565625 111.7375 L 94.496875 114.7375 L 94.984375 115.221875 L 97.546875 117.6625 L 98.678125 118.70625 L 100.6 120.4125 L 102.6625 122.19375 L 103.653125 123.009375 L 106.703125 125.4625 L 106.975 125.678125 L 109.753125 127.759375 L 111.678125 129.1625 L 112.80625 129.95 L 115.859375 132.021875 L 116.809375 132.646875 L 118.909375 133.978125 L 121.9625 135.846875 L 122.44375 136.13125 L 125.0125 137.596875 L 128.065625 139.278125 L 128.696875 139.615625 L 131.115625 140.85625 L 134.16875 142.3625 L 135.725 143.1 " transform="matrix(1.25,0,0,1.25,0,0.000000000000014211)"/>
</g>
<g clip-path="url(#clip4)" clip-rule="nonzero">
<path style="fill:none;stroke-width:1.5;stroke-linecap:butt;stroke-linejoin:round;stroke:rgb(12.156863%,46.666667%,70.588235%);stroke-opacity:1;stroke-miterlimit:4;" d="M 42.61875 71.115625 L 43.31875 73.40625 L 44.496875 76.89375 L 45.671875 80.075 L 45.7875 80.378125 L 47.2125 83.8625 L 48.721875 87.28125 L 48.753125 87.346875 L 50.4375 90.83125 L 51.775 93.415625 L 52.25 94.315625 L 54.203125 97.8 L 54.828125 98.846875 L 56.30625 101.284375 L 57.878125 103.734375 L 58.55625 104.76875 L 60.928125 108.209375 L 60.9625 108.253125 L 63.540625 111.7375 L 63.98125 112.30625 L 66.29375 115.221875 L 67.034375 116.1125 L 69.23125 118.70625 L 70.084375 119.671875 L 72.365625 122.19375 L 73.1375 123.009375 L 75.70625 125.678125 L 76.1875 126.15625 L 79.240625 129.128125 L 79.275 129.1625 L 82.290625 131.921875 L 83.1 132.646875 L 85.34375 134.578125 L 87.1875 136.13125 L 88.39375 137.109375 L 91.44375 139.525 L 91.565625 139.615625 L 94.496875 141.8 L 96.2875 143.1 " transform="matrix(1.25,0,0,1.25,0,0.000000000000014211)"/>
</g>
<g clip-path="url(#clip5)" clip-rule="nonzero">
<path style="fill:none;stroke-width:1.5;stroke-linecap:butt;stroke-linejoin:round;stroke:rgb(12.156863%,46.666667%,70.588235%);stroke-opacity:1;stroke-miterlimit:4;" d="M 42.61875 115.49375 L 44.94375 118.70625 L 45.671875 119.671875 L 47.6125 122.19375 L 48.721875 123.578125 L 50.4375 125.678125 L 51.775 127.246875 L 53.434375 129.1625 L 54.828125 130.70625 L 56.609375 132.646875 L 57.878125 133.978125 L 59.975 136.13125 L 60.928125 137.078125 L 63.540625 139.615625 L 63.98125 140.028125 L 67.034375 142.834375 L 67.328125 143.1 " transform="matrix(1.25,0,0,1.25,0,0.000000000000014211)"/>
</g>
<g clip-path="url(#clip6)" clip-rule="nonzero">
<path style="fill:none;stroke-width:1.5;stroke-linecap:butt;stroke-linejoin:round;stroke:rgb(12.156863%,46.666667%,70.588235%);stroke-opacity:1;stroke-miterlimit:4;" d="M 42.61875 142.3625 L 43.31875 143.1 " transform="matrix(1.25,0,0,1.25,0,0.000000000000014211)"/>
</g>
<path style="fill:none;stroke-width:0.8;stroke-linecap:square;stroke-linejoin:miter;stroke:rgb(0%,0%,0%);stroke-opacity:1;stroke-miterlimit:4;" d="M 42.61875 143.1 L 42.61875 7.2 " transform="matrix(1.25,0,0,1.25,0,0.000000000000014211)"/>
<path style="fill:none;stroke-width:0.8;stroke-linecap:square;stroke-linejoin:miter;stroke:rgb(0%,0%,0%);stroke-opacity:1;stroke-miterlimit:4;" d="M 237.921875 143.1 L 237.921875 7.2 " transform="matrix(1.25,0,0,1.25,0,0.000000000000014211)"/>
<path style="fill:none;stroke-width:0.8;stroke-linecap:square;stroke-linejoin:miter;stroke:rgb(0%,0%,0%);stroke-opacity:1;stroke-miterlimit:4;" d="M 42.61875 143.1 L 237.921875 143.1 " transform="matrix(1.25,0,0,1.25,0,0.000000000000014211)"/>
<path style="fill:none;stroke-width:0.8;stroke-linecap:square;stroke-linejoin:miter;stroke:rgb(0%,0%,0%);stroke-opacity:1;stroke-miterlimit:4;" d="M 42.61875 7.2 L 237.921875 7.2 " transform="matrix(1.25,0,0,1.25,0,0.000000000000014211)"/>
</g>
</svg>
