<?xml version="1.0" encoding="UTF-8"?>
<svg xmlns="http://www.w3.org/2000/svg" xmlns:xlink="http://www.w3.org/1999/xlink" width="304pt" height="226pt" viewBox="0 0 304 226" version="1.1">
<defs>
<clipPath id="clip1">
  <path d="M 61 9 L 63 9 L 63 178.875 L 61 178.875 Z M 61 9 "/>
</clipPath>
<clipPath id="clip2">
  <path d="M 116 9 L 119 9 L 119 178.875 L 116 178.875 Z M 116 9 "/>
</clipPath>
<clipPath id="clip3">
  <path d="M 172 9 L 174 9 L 174 178.875 L 172 178.875 Z M 172 9 "/>
</clipPath>
<clipPath id="clip4">
  <path d="M 227 9 L 230 9 L 230 178.875 L 227 178.875 Z M 227 9 "/>
</clipPath>
<clipPath id="clip5">
  <path d="M 283 9 L 285 9 L 285 178.875 L 283 178.875 Z M 283 9 "/>
</clipPath>
<clipPath id="clip6">
  <path d="M 50.753906 172 L 294.878906 172 L 294.878906 174 L 50.753906 174 Z M 50.753906 172 "/>
</clipPath>
<clipPath id="clip7">
  <path d="M 50.753906 130 L 294.878906 130 L 294.878906 132 L 50.753906 132 Z M 50.753906 130 "/>
</clipPath>
<clipPath id="clip8">
  <path d="M 50.753906 88 L 294.878906 88 L 294.878906 90 L 50.753906 90 Z M 50.753906 88 "/>
</clipPath>
<clipPath id="clip9">
  <path d="M 50.753906 45 L 294.878906 45 L 294.878906 48 L 50.753906 48 Z M 50.753906 45 "/>
</clipPath>
</defs>
<g id="surface1">
<path style=" stroke:none;fill-rule:nonzero;fill:rgb(100%,100%,100%);fill-opacity:1;" d="M 50.753906 178.875 L 294.878906 178.875 L 294.878906 9 L 50.753906 9 Z M 50.753906 178.875 "/>
<g clip-path="url(#clip1)" clip-rule="nonzero">
<path style="fill:none;stroke-width:0.8;stroke-linecap:square;stroke-linejoin:round;stroke:rgb(69.019608%,69.019608%,69.019608%);stroke-opacity:1;stroke-miterlimit:4;" d="M 49.48125 143.1 L 49.48125 7.2 " transform="matrix(1.25,0,0,1.25,0,0)"/>
</g>
<path style="fill:none;stroke-width:0.8;stroke-linecap:butt;stroke-linejoin:round;stroke:rgb(0%,0%,0%);stroke-opacity:1;stroke-miterlimit:4;" d="M 0.000852 0 L 0.000852 3.5 " transform="matrix(1.25,0,0,1.25,61.850498,178.875)"/>
<path style=" stroke:none;fill-rule:nonzero;fill:rgb(0%,0%,0%);fill-opacity:1;" d="M 49.984375 192.6875 L 57.808594 192.6875 L 57.808594 193.722656 L 49.984375 193.722656 Z M 49.984375 192.6875 "/>
<path style=" stroke:none;fill-rule:nonzero;fill:rgb(0%,0%,0%);fill-opacity:1;" d="M 60.683594 196.085938 L 62.699219 196.085938 L 62.699219 189.132812 L 60.507812 189.574219 L 60.507812 188.449219 L 62.6875 188.011719 L 63.917969 188.011719 L 63.917969 196.085938 L 65.933594 196.085938 L 65.933594 197.125 L 60.683594 197.125 Z M 60.683594 196.085938 "/>
<path style=" stroke:none;fill-rule:nonzero;fill:rgb(0%,0%,0%);fill-opacity:1;" d="M 71.058594 188.824219 C 70.425781 188.824219 69.949219 189.136719 69.628906 189.761719 C 69.308594 190.382812 69.148438 191.324219 69.148438 192.578125 C 69.148438 193.824219 69.308594 194.761719 69.628906 195.386719 C 69.949219 196.011719 70.425781 196.324219 71.058594 196.324219 C 71.699219 196.324219 72.175781 196.011719 72.496094 195.386719 C 72.816406 194.761719 72.976562 193.824219 72.976562 192.578125 C 72.976562 191.324219 72.816406 190.382812 72.496094 189.761719 C 72.175781 189.136719 71.699219 188.824219 71.058594 188.824219 Z M 71.058594 187.847656 C 72.082031 187.847656 72.863281 188.25 73.402344 189.058594 C 73.941406 189.867188 74.210938 191.039062 74.210938 192.578125 C 74.210938 194.109375 73.941406 195.28125 73.402344 196.089844 C 72.863281 196.898438 72.082031 197.300781 71.058594 197.300781 C 70.039062 197.300781 69.257812 196.898438 68.71875 196.089844 C 68.179688 195.28125 67.910156 194.109375 67.910156 192.578125 C 67.910156 191.039062 68.179688 189.867188 68.71875 189.058594 C 69.257812 188.25 70.039062 187.847656 71.058594 187.847656 Z M 71.058594 187.847656 "/>
<g clip-path="url(#clip2)" clip-rule="nonzero">
<path style="fill:none;stroke-width:0.8;stroke-linecap:square;stroke-linejoin:round;stroke:rgb(69.019608%,69.019608%,69.019608%);stroke-opacity:1;stroke-miterlimit:4;" d="M 93.865625 143.1 L 93.865625 7.2 " transform="matrix(1.25,0,0,1.25,0,0)"/>
</g>
<path style="fill:none;stroke-width:0.8;stroke-linecap:butt;stroke-linejoin:round;stroke:rgb(0%,0%,0%);stroke-opacity:1;stroke-miterlimit:4;" d="M -0.001136 0 L -0.001136 3.5 " transform="matrix(1.25,0,0,1.25,117.333451,178.875)"/>
<path style=" stroke:none;fill-rule:nonzero;fill:rgb(0%,0%,0%);fill-opacity:1;" d="M 109.445312 192.6875 L 117.269531 192.6875 L 117.269531 193.722656 L 109.445312 193.722656 Z M 109.445312 192.6875 "/>
<path style=" stroke:none;fill-rule:nonzero;fill:rgb(0%,0%,0%);fill-opacity:1;" d="M 119.941406 188.011719 L 124.78125 188.011719 L 124.78125 189.050781 L 121.070312 189.050781 L 121.070312 191.28125 C 121.25 191.21875 121.429688 191.175781 121.605469 191.144531 C 121.785156 191.113281 121.964844 191.101562 122.144531 191.101562 C 123.164062 191.101562 123.96875 191.378906 124.5625 191.9375 C 125.15625 192.492188 125.453125 193.246094 125.453125 194.199219 C 125.453125 195.179688 125.148438 195.941406 124.539062 196.488281 C 123.929688 197.03125 123.066406 197.300781 121.957031 197.300781 C 121.574219 197.300781 121.183594 197.269531 120.785156 197.203125 C 120.390625 197.136719 119.980469 197.039062 119.558594 196.910156 L 119.558594 195.671875 C 119.925781 195.871094 120.300781 196.019531 120.691406 196.117188 C 121.082031 196.214844 121.496094 196.261719 121.929688 196.261719 C 122.636719 196.261719 123.191406 196.078125 123.601562 195.707031 C 124.015625 195.335938 124.21875 194.835938 124.21875 194.199219 C 124.21875 193.566406 124.015625 193.0625 123.601562 192.695312 C 123.191406 192.324219 122.636719 192.136719 121.929688 192.136719 C 121.601562 192.136719 121.273438 192.171875 120.945312 192.246094 C 120.617188 192.320312 120.285156 192.433594 119.941406 192.589844 Z M 119.941406 188.011719 "/>
<g clip-path="url(#clip3)" clip-rule="nonzero">
<path style="fill:none;stroke-width:0.8;stroke-linecap:square;stroke-linejoin:round;stroke:rgb(69.019608%,69.019608%,69.019608%);stroke-opacity:1;stroke-miterlimit:4;" d="M 138.253125 143.1 L 138.253125 7.2 " transform="matrix(1.25,0,0,1.25,0,0)"/>
</g>
<path style="fill:none;stroke-width:0.8;stroke-linecap:butt;stroke-linejoin:round;stroke:rgb(0%,0%,0%);stroke-opacity:1;stroke-miterlimit:4;" d="M 0 0 L 0 3.5 " transform="matrix(1.25,0,0,1.25,172.816406,178.875)"/>
<path style=" stroke:none;fill-rule:nonzero;fill:rgb(0%,0%,0%);fill-opacity:1;" d="M 172.8125 188.824219 C 172.179688 188.824219 171.703125 189.136719 171.382812 189.761719 C 171.0625 190.382812 170.902344 191.324219 170.902344 192.578125 C 170.902344 193.824219 171.0625 194.761719 171.382812 195.386719 C 171.703125 196.011719 172.179688 196.324219 172.8125 196.324219 C 173.453125 196.324219 173.929688 196.011719 174.25 195.386719 C 174.570312 194.761719 174.730469 193.824219 174.730469 192.578125 C 174.730469 191.324219 174.570312 190.382812 174.25 189.761719 C 173.929688 189.136719 173.453125 188.824219 172.8125 188.824219 Z M 172.8125 187.847656 C 173.835938 187.847656 174.617188 188.25 175.15625 189.058594 C 175.695312 189.867188 175.960938 191.039062 175.960938 192.578125 C 175.960938 194.109375 175.695312 195.28125 175.15625 196.089844 C 174.617188 196.898438 173.835938 197.300781 172.8125 197.300781 C 171.792969 197.300781 171.011719 196.898438 170.472656 196.089844 C 169.933594 195.28125 169.664062 194.109375 169.664062 192.578125 C 169.664062 191.039062 169.933594 189.867188 170.472656 189.058594 C 171.011719 188.25 171.792969 187.847656 172.8125 187.847656 Z M 172.8125 187.847656 "/>
<g clip-path="url(#clip4)" clip-rule="nonzero">
<path style="fill:none;stroke-width:0.8;stroke-linecap:square;stroke-linejoin:round;stroke:rgb(69.019608%,69.019608%,69.019608%);stroke-opacity:1;stroke-miterlimit:4;" d="M 182.640625 143.1 L 182.640625 7.2 " transform="matrix(1.25,0,0,1.25,0,0)"/>
</g>
<path style="fill:none;stroke-width:0.8;stroke-linecap:butt;stroke-linejoin:round;stroke:rgb(0%,0%,0%);stroke-opacity:1;stroke-miterlimit:4;" d="M 0.001136 0 L 0.001136 3.5 " transform="matrix(1.25,0,0,1.25,228.299361,178.875)"/>
<path style=" stroke:none;fill-rule:nonzero;fill:rgb(0%,0%,0%);fill-opacity:1;" d="M 225.671875 188.011719 L 230.511719 188.011719 L 230.511719 189.050781 L 226.800781 189.050781 L 226.800781 191.28125 C 226.980469 191.21875 227.15625 191.175781 227.335938 191.144531 C 227.515625 191.113281 227.695312 191.101562 227.875 191.101562 C 228.890625 191.101562 229.699219 191.378906 230.292969 191.9375 C 230.886719 192.492188 231.183594 193.246094 231.183594 194.199219 C 231.183594 195.179688 230.878906 195.941406 230.269531 196.488281 C 229.65625 197.03125 228.796875 197.300781 227.6875 197.300781 C 227.304688 197.300781 226.914062 197.269531 226.515625 197.203125 C 226.121094 197.136719 225.710938 197.039062 225.289062 196.910156 L 225.289062 195.671875 C 225.652344 195.871094 226.03125 196.019531 226.421875 196.117188 C 226.8125 196.214844 227.226562 196.261719 227.660156 196.261719 C 228.363281 196.261719 228.921875 196.078125 229.332031 195.707031 C 229.742188 195.335938 229.949219 194.835938 229.949219 194.199219 C 229.949219 193.566406 229.742188 193.0625 229.332031 192.695312 C 228.921875 192.324219 228.363281 192.136719 227.660156 192.136719 C 227.332031 192.136719 227.003906 192.171875 226.675781 192.246094 C 226.347656 192.320312 226.011719 192.433594 225.671875 192.589844 Z M 225.671875 188.011719 "/>
<g clip-path="url(#clip5)" clip-rule="nonzero">
<path style="fill:none;stroke-width:0.8;stroke-linecap:square;stroke-linejoin:round;stroke:rgb(69.019608%,69.019608%,69.019608%);stroke-opacity:1;stroke-miterlimit:4;" d="M 227.025 143.1 L 227.025 7.2 " transform="matrix(1.25,0,0,1.25,0,0)"/>
</g>
<path style="fill:none;stroke-width:0.8;stroke-linecap:butt;stroke-linejoin:round;stroke:rgb(0%,0%,0%);stroke-opacity:1;stroke-miterlimit:4;" d="M -0.000852 0 L -0.000852 3.5 " transform="matrix(1.25,0,0,1.25,283.782315,178.875)"/>
<path style=" stroke:none;fill-rule:nonzero;fill:rgb(0%,0%,0%);fill-opacity:1;" d="M 277.378906 196.085938 L 279.394531 196.085938 L 279.394531 189.132812 L 277.203125 189.574219 L 277.203125 188.449219 L 279.382812 188.011719 L 280.613281 188.011719 L 280.613281 196.085938 L 282.628906 196.085938 L 282.628906 197.125 L 277.378906 197.125 Z M 277.378906 196.085938 "/>
<path style=" stroke:none;fill-rule:nonzero;fill:rgb(0%,0%,0%);fill-opacity:1;" d="M 287.753906 188.824219 C 287.121094 188.824219 286.644531 189.136719 286.324219 189.761719 C 286.003906 190.382812 285.84375 191.324219 285.84375 192.578125 C 285.84375 193.824219 286.003906 194.761719 286.324219 195.386719 C 286.644531 196.011719 287.121094 196.324219 287.753906 196.324219 C 288.394531 196.324219 288.875 196.011719 289.191406 195.386719 C 289.511719 194.761719 289.671875 193.824219 289.671875 192.578125 C 289.671875 191.324219 289.511719 190.382812 289.191406 189.761719 C 288.875 189.136719 288.394531 188.824219 287.753906 188.824219 Z M 287.753906 187.847656 C 288.777344 187.847656 289.558594 188.25 290.097656 189.058594 C 290.636719 189.867188 290.90625 191.039062 290.90625 192.578125 C 290.90625 194.109375 290.636719 195.28125 290.097656 196.089844 C 289.558594 196.898438 288.777344 197.300781 287.753906 197.300781 C 286.734375 197.300781 285.953125 196.898438 285.414062 196.089844 C 284.875 195.28125 284.605469 194.109375 284.605469 192.578125 C 284.605469 191.039062 284.875 189.867188 285.414062 189.058594 C 285.953125 188.25 286.734375 187.847656 287.753906 187.847656 Z M 287.753906 187.847656 "/>
<path style=" stroke:none;fill-rule:nonzero;fill:rgb(0%,0%,0%);fill-opacity:1;" d="M 175.976562 207.386719 L 173.507812 210.710938 L 176.105469 214.222656 L 174.78125 214.222656 L 172.789062 211.535156 L 170.804688 214.222656 L 169.476562 214.222656 L 172.132812 210.644531 L 169.703125 207.386719 L 171.027344 207.386719 L 172.839844 209.820312 L 174.652344 207.386719 Z M 175.976562 207.386719 "/>
<g clip-path="url(#clip6)" clip-rule="nonzero">
<path style="fill:none;stroke-width:0.8;stroke-linecap:square;stroke-linejoin:round;stroke:rgb(69.019608%,69.019608%,69.019608%);stroke-opacity:1;stroke-miterlimit:4;" d="M 40.603125 138.609375 L 235.903125 138.609375 " transform="matrix(1.25,0,0,1.25,0,0)"/>
</g>
<path style="fill:none;stroke-width:0.8;stroke-linecap:butt;stroke-linejoin:round;stroke:rgb(0%,0%,0%);stroke-opacity:1;stroke-miterlimit:4;" d="M 0 -0.000902 L -3.5 -0.000902 " transform="matrix(1.25,0,0,1.25,50.753906,173.262846)"/>
<path style=" stroke:none;fill-rule:nonzero;fill:rgb(0%,0%,0%);fill-opacity:1;" d="M 38.023438 169.710938 C 37.390625 169.710938 36.914062 170.023438 36.59375 170.648438 C 36.273438 171.273438 36.113281 172.210938 36.113281 173.464844 C 36.113281 174.714844 36.273438 175.652344 36.59375 176.277344 C 36.914062 176.902344 37.390625 177.214844 38.023438 177.214844 C 38.664062 177.214844 39.140625 176.902344 39.460938 176.277344 C 39.78125 175.652344 39.941406 174.714844 39.941406 173.464844 C 39.941406 172.210938 39.78125 171.273438 39.460938 170.648438 C 39.140625 170.023438 38.664062 169.710938 38.023438 169.710938 Z M 38.023438 168.734375 C 39.046875 168.734375 39.828125 169.140625 40.367188 169.949219 C 40.90625 170.753906 41.171875 171.925781 41.171875 173.464844 C 41.171875 175 40.90625 176.171875 40.367188 176.980469 C 39.828125 177.785156 39.046875 178.191406 38.023438 178.191406 C 37.003906 178.191406 36.222656 177.785156 35.683594 176.980469 C 35.144531 176.171875 34.875 175 34.875 173.464844 C 34.875 171.925781 35.144531 170.753906 35.683594 169.949219 C 36.222656 169.140625 37.003906 168.734375 38.023438 168.734375 Z M 38.023438 168.734375 "/>
<g clip-path="url(#clip7)" clip-rule="nonzero">
<path style="fill:none;stroke-width:0.8;stroke-linecap:square;stroke-linejoin:round;stroke:rgb(69.019608%,69.019608%,69.019608%);stroke-opacity:1;stroke-miterlimit:4;" d="M 40.603125 104.859375 L 235.903125 104.859375 " transform="matrix(1.25,0,0,1.25,0,0)"/>
</g>
<path style="fill:none;stroke-width:0.8;stroke-linecap:butt;stroke-linejoin:round;stroke:rgb(0%,0%,0%);stroke-opacity:1;stroke-miterlimit:4;" d="M 0 0.000097 L -3.5 0.000097 " transform="matrix(1.25,0,0,1.25,50.753906,131.074097)"/>
<path style=" stroke:none;fill-rule:nonzero;fill:rgb(0%,0%,0%);fill-opacity:1;" d="M 28.496094 134.785156 L 32.796875 134.785156 L 32.796875 135.824219 L 27.015625 135.824219 L 27.015625 134.785156 C 27.480469 134.300781 28.117188 133.652344 28.925781 132.835938 C 29.734375 132.019531 30.242188 131.492188 30.449219 131.257812 C 30.84375 130.8125 31.117188 130.4375 31.273438 130.132812 C 31.433594 129.824219 31.511719 129.523438 31.511719 129.226562 C 31.511719 128.742188 31.34375 128.347656 31 128.042969 C 30.664062 127.734375 30.21875 127.582031 29.671875 127.582031 C 29.289062 127.582031 28.878906 127.648438 28.449219 127.785156 C 28.019531 127.917969 27.5625 128.121094 27.074219 128.394531 L 27.074219 127.148438 C 27.570312 126.949219 28.035156 126.800781 28.464844 126.699219 C 28.898438 126.597656 29.292969 126.546875 29.648438 126.546875 C 30.59375 126.546875 31.347656 126.78125 31.90625 127.253906 C 32.46875 127.726562 32.75 128.355469 32.75 129.144531 C 32.75 129.519531 32.679688 129.875 32.539062 130.210938 C 32.398438 130.546875 32.144531 130.941406 31.773438 131.398438 C 31.671875 131.515625 31.347656 131.855469 30.804688 132.421875 C 30.257812 132.984375 29.488281 133.773438 28.496094 134.785156 Z M 28.496094 134.785156 "/>
<path style=" stroke:none;fill-rule:nonzero;fill:rgb(0%,0%,0%);fill-opacity:1;" d="M 38.023438 127.523438 C 37.390625 127.523438 36.910156 127.835938 36.589844 128.460938 C 36.273438 129.082031 36.113281 130.023438 36.113281 131.277344 C 36.113281 132.523438 36.273438 133.460938 36.589844 134.085938 C 36.910156 134.710938 37.390625 135.023438 38.023438 135.023438 C 38.664062 135.023438 39.140625 134.710938 39.460938 134.085938 C 39.78125 133.460938 39.941406 132.523438 39.941406 131.277344 C 39.941406 130.023438 39.78125 129.082031 39.460938 128.460938 C 39.140625 127.835938 38.664062 127.523438 38.023438 127.523438 Z M 38.023438 126.546875 C 39.046875 126.546875 39.824219 126.949219 40.363281 127.757812 C 40.902344 128.566406 41.171875 129.738281 41.171875 131.277344 C 41.171875 132.808594 40.902344 133.980469 40.363281 134.789062 C 39.824219 135.597656 39.046875 136 38.023438 136 C 37.003906 136 36.222656 135.597656 35.683594 134.789062 C 35.144531 133.980469 34.875 132.808594 34.875 131.277344 C 34.875 129.738281 35.144531 128.566406 35.683594 127.757812 C 36.222656 126.949219 37.003906 126.546875 38.023438 126.546875 Z M 38.023438 126.546875 "/>
<g clip-path="url(#clip8)" clip-rule="nonzero">
<path style="fill:none;stroke-width:0.8;stroke-linecap:square;stroke-linejoin:round;stroke:rgb(69.019608%,69.019608%,69.019608%);stroke-opacity:1;stroke-miterlimit:4;" d="M 40.603125 71.109375 L 235.903125 71.109375 " transform="matrix(1.25,0,0,1.25,0,0)"/>
</g>
<path style="fill:none;stroke-width:0.8;stroke-linecap:butt;stroke-linejoin:round;stroke:rgb(0%,0%,0%);stroke-opacity:1;stroke-miterlimit:4;" d="M 0 0.001097 L -3.5 0.001097 " transform="matrix(1.25,0,0,1.25,50.753906,88.885347)"/>
<path style=" stroke:none;fill-rule:nonzero;fill:rgb(0%,0%,0%);fill-opacity:1;" d="M 30.820312 85.59375 L 27.710938 90.460938 L 30.820312 90.460938 Z M 30.5 84.519531 L 32.046875 84.519531 L 32.046875 90.460938 L 33.351562 90.460938 L 33.351562 91.484375 L 32.046875 91.484375 L 32.046875 93.632812 L 30.820312 93.632812 L 30.820312 91.484375 L 26.710938 91.484375 L 26.710938 90.296875 Z M 30.5 84.519531 "/>
<path style=" stroke:none;fill-rule:nonzero;fill:rgb(0%,0%,0%);fill-opacity:1;" d="M 38.023438 85.332031 C 37.390625 85.332031 36.910156 85.644531 36.589844 86.269531 C 36.273438 86.894531 36.113281 87.832031 36.113281 89.085938 C 36.113281 90.335938 36.273438 91.273438 36.589844 91.898438 C 36.910156 92.523438 37.390625 92.835938 38.023438 92.835938 C 38.664062 92.835938 39.140625 92.523438 39.460938 91.898438 C 39.78125 91.273438 39.941406 90.335938 39.941406 89.085938 C 39.941406 87.832031 39.78125 86.894531 39.460938 86.269531 C 39.140625 85.644531 38.664062 85.332031 38.023438 85.332031 Z M 38.023438 84.355469 C 39.046875 84.355469 39.824219 84.761719 40.363281 85.570312 C 40.902344 86.378906 41.171875 87.550781 41.171875 89.085938 C 41.171875 90.621094 40.902344 91.792969 40.363281 92.601562 C 39.824219 93.410156 39.046875 93.8125 38.023438 93.8125 C 37.003906 93.8125 36.222656 93.410156 35.683594 92.601562 C 35.144531 91.792969 34.875 90.621094 34.875 89.085938 C 34.875 87.550781 35.144531 86.378906 35.683594 85.570312 C 36.222656 84.761719 37.003906 84.355469 38.023438 84.355469 Z M 38.023438 84.355469 "/>
<g clip-path="url(#clip9)" clip-rule="nonzero">
<path style="fill:none;stroke-width:0.8;stroke-linecap:square;stroke-linejoin:round;stroke:rgb(69.019608%,69.019608%,69.019608%);stroke-opacity:1;stroke-miterlimit:4;" d="M 40.603125 37.35625 L 235.903125 37.35625 " transform="matrix(1.25,0,0,1.25,0,0)"/>
</g>
<path style="fill:none;stroke-width:0.8;stroke-linecap:butt;stroke-linejoin:round;stroke:rgb(0%,0%,0%);stroke-opacity:1;stroke-miterlimit:4;" d="M 0 -0.001029 L -3.5 -0.001029 " transform="matrix(1.25,0,0,1.25,50.753906,46.696599)"/>
<path style=" stroke:none;fill-rule:nonzero;fill:rgb(0%,0%,0%);fill-opacity:1;" d="M 30.226562 46.398438 C 29.671875 46.398438 29.234375 46.589844 28.90625 46.96875 C 28.585938 47.34375 28.421875 47.863281 28.421875 48.523438 C 28.421875 49.175781 28.585938 49.695312 28.90625 50.078125 C 29.234375 50.457031 29.671875 50.648438 30.226562 50.648438 C 30.777344 50.648438 31.214844 50.457031 31.539062 50.078125 C 31.863281 49.695312 32.023438 49.175781 32.023438 48.523438 C 32.023438 47.863281 31.863281 47.34375 31.539062 46.96875 C 31.214844 46.589844 30.777344 46.398438 30.226562 46.398438 Z M 32.671875 42.535156 L 32.671875 43.65625 C 32.363281 43.511719 32.050781 43.398438 31.734375 43.324219 C 31.417969 43.246094 31.105469 43.207031 30.796875 43.207031 C 29.984375 43.207031 29.359375 43.480469 28.929688 44.03125 C 28.503906 44.578125 28.257812 45.410156 28.195312 46.519531 C 28.4375 46.164062 28.738281 45.894531 29.101562 45.707031 C 29.460938 45.515625 29.863281 45.421875 30.296875 45.421875 C 31.210938 45.421875 31.9375 45.699219 32.46875 46.257812 C 33 46.8125 33.265625 47.566406 33.265625 48.523438 C 33.265625 49.457031 32.988281 50.210938 32.433594 50.777344 C 31.878906 51.339844 31.144531 51.625 30.226562 51.625 C 29.171875 51.625 28.363281 51.21875 27.804688 50.414062 C 27.25 49.605469 26.96875 48.433594 26.96875 46.898438 C 26.96875 45.457031 27.3125 44.308594 27.996094 43.453125 C 28.679688 42.597656 29.597656 42.167969 30.75 42.167969 C 31.058594 42.167969 31.371094 42.199219 31.6875 42.261719 C 32 42.320312 32.328125 42.414062 32.671875 42.535156 Z M 32.671875 42.535156 "/>
<path style=" stroke:none;fill-rule:nonzero;fill:rgb(0%,0%,0%);fill-opacity:1;" d="M 38.023438 43.144531 C 37.390625 43.144531 36.910156 43.457031 36.589844 44.082031 C 36.273438 44.707031 36.113281 45.644531 36.113281 46.898438 C 36.113281 48.148438 36.273438 49.085938 36.589844 49.710938 C 36.910156 50.335938 37.390625 50.648438 38.023438 50.648438 C 38.664062 50.648438 39.140625 50.335938 39.460938 49.710938 C 39.78125 49.085938 39.941406 48.148438 39.941406 46.898438 C 39.941406 45.644531 39.78125 44.707031 39.460938 44.082031 C 39.140625 43.457031 38.664062 43.144531 38.023438 43.144531 Z M 38.023438 42.167969 C 39.046875 42.167969 39.824219 42.574219 40.363281 43.382812 C 40.902344 44.1875 41.171875 45.359375 41.171875 46.898438 C 41.171875 48.433594 40.902344 49.605469 40.363281 50.414062 C 39.824219 51.21875 39.046875 51.625 38.023438 51.625 C 37.003906 51.625 36.222656 51.21875 35.683594 50.414062 C 35.144531 49.605469 34.875 48.433594 34.875 46.898438 C 34.875 45.359375 35.144531 44.1875 35.683594 43.382812 C 36.222656 42.574219 37.003906 42.167969 38.023438 42.167969 Z M 38.023438 42.167969 "/>
<path style=" stroke:none;fill-rule:nonzero;fill:rgb(0%,0%,0%);fill-opacity:1;" d="M 9 100.074219 L 9.933594 100.074219 L 9.933594 101.148438 C 9.933594 101.550781 10.015625 101.832031 10.179688 101.988281 C 10.34375 102.144531 10.636719 102.222656 11.058594 102.222656 L 11.660156 102.222656 L 11.660156 100.375 L 12.535156 100.375 L 12.535156 102.222656 L 18.496094 102.222656 L 18.496094 103.351562 L 12.535156 103.351562 L 12.535156 104.425781 L 11.660156 104.425781 L 11.660156 103.351562 L 11.183594 103.351562 C 10.425781 103.351562 9.871094 103.175781 9.523438 102.820312 C 9.175781 102.46875 9 101.90625 9 101.136719 Z M 9 100.074219 "/>
<path style=" stroke:none;fill-rule:nonzero;fill:rgb(0%,0%,0%);fill-opacity:1;" d="M 9.011719 96.4375 C 9.949219 96.984375 10.875 97.386719 11.789062 97.652344 C 12.707031 97.917969 13.632812 98.050781 14.574219 98.050781 C 15.511719 98.050781 16.441406 97.917969 17.363281 97.648438 C 18.285156 97.382812 19.214844 96.980469 20.144531 96.4375 L 20.144531 97.414062 C 19.1875 98.023438 18.25 98.480469 17.324219 98.785156 C 16.402344 99.085938 15.484375 99.238281 14.574219 99.238281 C 13.667969 99.238281 12.753906 99.089844 11.832031 98.789062 C 10.914062 98.484375 9.972656 98.027344 9.011719 97.414062 Z M 9.011719 96.4375 "/>
<path style=" stroke:none;fill-rule:nonzero;fill:rgb(0%,0%,0%);fill-opacity:1;" d="M 11.660156 88.574219 L 14.988281 91.046875 L 18.496094 88.449219 L 18.496094 89.773438 L 15.8125 91.761719 L 18.496094 93.75 L 18.496094 95.078125 L 14.921875 92.421875 L 11.660156 94.851562 L 11.660156 93.527344 L 14.097656 91.714844 L 11.660156 89.902344 Z M 11.660156 88.574219 "/>
<path style=" stroke:none;fill-rule:nonzero;fill:rgb(0%,0%,0%);fill-opacity:1;" d="M 9.011719 87.039062 L 9.011719 86.0625 C 9.972656 85.453125 10.914062 84.996094 11.832031 84.691406 C 12.753906 84.386719 13.667969 84.238281 14.574219 84.238281 C 15.484375 84.238281 16.402344 84.386719 17.324219 84.691406 C 18.25 84.996094 19.1875 85.453125 20.144531 86.0625 L 20.144531 87.039062 C 19.214844 86.496094 18.285156 86.09375 17.363281 85.828125 C 16.441406 85.558594 15.511719 85.425781 14.574219 85.425781 C 13.632812 85.425781 12.707031 85.558594 11.789062 85.828125 C 10.875 86.09375 9.949219 86.496094 9.011719 87.039062 Z M 9.011719 87.039062 "/>
<path style="fill:none;stroke-width:1.5;stroke-linecap:square;stroke-linejoin:round;stroke:rgb(12.156863%,46.666667%,70.588235%);stroke-opacity:1;stroke-miterlimit:4;" d="M 49.48125 13.378125 L 51.521875 26.98125 L 53.5625 39.10625 L 55.60625 49.9125 L 57.646875 59.546875 L 59.690625 68.134375 L 61.73125 75.7875 L 63.771875 82.609375 L 65.815625 88.690625 L 67.94375 94.33125 L 70.075 99.334375 L 72.20625 103.771875 L 74.3375 107.70625 L 76.55625 111.33125 L 78.775 114.53125 L 80.99375 117.353125 L 83.303125 119.934375 L 85.7 122.284375 L 88.184375 124.403125 L 90.759375 126.30625 L 93.421875 128.003125 L 96.2625 129.55 L 99.28125 130.940625 L 102.565625 132.2 L 106.11875 133.315625 L 109.934375 134.28125 L 114.196875 135.121875 L 118.9 135.815625 L 124.1375 136.359375 L 129.909375 136.734375 L 136.121875 136.909375 L 142.515625 136.875 L 148.728125 136.621875 L 154.5 136.165625 L 159.646875 135.540625 L 164.2625 134.7625 L 168.434375 133.8375 L 172.165625 132.7875 L 175.625 131.58125 L 178.821875 130.234375 L 181.753125 128.759375 L 184.503125 127.13125 L 187.165625 125.290625 L 189.653125 123.30625 L 192.05 121.10625 L 194.35625 118.6875 L 196.578125 116.04375 L 198.796875 113.046875 L 200.928125 109.79375 L 203.05625 106.125 L 205.1 102.16875 L 207.140625 97.734375 L 209.18125 92.75625 L 211.225 87.171875 L 213.265625 80.90625 L 215.21875 74.196875 L 217.171875 66.709375 L 219.125 58.353125 L 221.078125 49.021875 L 223.03125 38.60625 L 224.984375 26.98125 L 226.9375 14.003125 " transform="matrix(1.25,0,0,1.25,0,0)"/>
<path style="fill:none;stroke-width:1.5;stroke-linecap:square;stroke-linejoin:round;stroke:rgb(100%,49.803922%,5.490196%);stroke-opacity:1;stroke-miterlimit:4;" d="M 227.025 13.378125 L 209.271875 92.521875 L 191.53125 121.60625 L 173.8625 132.225 L 156.740625 135.921875 L 142.921875 136.865625 L 138.35625 136.921875 L 138.253125 136.921875 " transform="matrix(1.25,0,0,1.25,0,0)"/>
<path style="fill-rule:nonzero;fill:rgb(100%,49.803922%,5.490196%);fill-opacity:1;stroke-width:1;stroke-linecap:butt;stroke-linejoin:round;stroke:rgb(100%,49.803922%,5.490196%);stroke-opacity:1;stroke-miterlimit:4;" d="M -0.000852 3.000852 C 0.796023 3.000852 1.558523 2.685227 2.121023 2.122727 C 2.683523 1.560227 2.999148 0.794602 2.999148 0.000852 C 2.999148 -0.796023 2.683523 -1.558523 2.121023 -2.121023 C 1.558523 -2.683523 0.796023 -2.999148 -0.000852 -2.999148 C -0.794602 -2.999148 -1.560227 -2.683523 -2.122727 -2.121023 C -2.685227 -1.558523 -3.000852 -0.796023 -3.000852 0.000852 C -3.000852 0.794602 -2.685227 1.560227 -2.122727 2.122727 C -1.560227 2.685227 -0.794602 3.000852 -0.000852 3.000852 Z M -0.000852 3.000852 " transform="matrix(1.25,0,0,1.25,283.782315,16.721591)"/>
<path style="fill-rule:nonzero;fill:rgb(100%,49.803922%,5.490196%);fill-opacity:1;stroke-width:1;stroke-linecap:butt;stroke-linejoin:round;stroke:rgb(100%,49.803922%,5.490196%);stroke-opacity:1;stroke-miterlimit:4;" d="M -0.001049 2.9998 C 0.795826 2.9998 1.558326 2.684175 2.120826 2.121675 C 2.683326 1.559175 2.998951 0.796675 2.998951 -0.0002 C 2.998951 -0.797075 2.683326 -1.559575 2.120826 -2.122075 C 1.558326 -2.684575 0.795826 -3.0002 -0.001049 -3.0002 C -0.794799 -3.0002 -1.557299 -2.684575 -2.119799 -2.122075 C -2.685424 -1.559575 -3.001049 -0.797075 -3.001049 -0.0002 C -3.001049 0.796675 -2.685424 1.559175 -2.119799 2.121675 C -1.557299 2.684175 -0.794799 2.9998 -0.001049 2.9998 Z M -0.001049 2.9998 " transform="matrix(1.25,0,0,1.25,261.591155,115.652594)"/>
<path style="fill-rule:nonzero;fill:rgb(100%,49.803922%,5.490196%);fill-opacity:1;stroke-width:1;stroke-linecap:butt;stroke-linejoin:round;stroke:rgb(100%,49.803922%,5.490196%);stroke-opacity:1;stroke-miterlimit:4;" d="M 0.000964 2.998539 C 0.794714 2.998539 1.557214 2.682914 2.122839 2.120414 C 2.685339 1.557914 3.000964 0.795414 3.000964 -0.001461 C 3.000964 -0.795211 2.685339 -1.557711 2.122839 -2.120211 C 1.557214 -2.682711 0.794714 -3.001461 0.000964 -3.001461 C -0.795911 -3.001461 -1.558411 -2.682711 -2.120911 -2.120211 C -2.683411 -1.557711 -2.999036 -0.795211 -2.999036 -0.001461 C -2.999036 0.795414 -2.683411 1.557914 -2.120911 2.120414 C -1.558411 2.682914 -0.795911 2.998539 0.000964 2.998539 Z M 0.000964 2.998539 " transform="matrix(1.25,0,0,1.25,239.412857,152.009639)"/>
<path style="fill-rule:nonzero;fill:rgb(100%,49.803922%,5.490196%);fill-opacity:1;stroke-width:1;stroke-linecap:butt;stroke-linejoin:round;stroke:rgb(100%,49.803922%,5.490196%);stroke-opacity:1;stroke-miterlimit:4;" d="M -0.00091 2.998604 C 0.795965 2.998604 1.558465 2.682979 2.120965 2.120479 C 2.683465 1.557979 2.99909 0.795479 2.99909 -0.001396 C 2.99909 -0.795146 2.683465 -1.557646 2.120965 -2.120146 C 1.558465 -2.682646 0.795965 -3.001396 -0.00091 -3.001396 C -0.79466 -3.001396 -1.560285 -2.682646 -2.122785 -2.120146 C -2.685285 -1.557646 -3.00091 -0.795146 -3.00091 -0.001396 C -3.00091 0.795479 -2.685285 1.557979 -2.122785 2.120479 C -1.560285 2.682979 -0.79466 2.998604 -0.00091 2.998604 Z M -0.00091 2.998604 " transform="matrix(1.25,0,0,1.25,217.329262,165.282995)"/>
<path style="fill-rule:nonzero;fill:rgb(100%,49.803922%,5.490196%);fill-opacity:1;stroke-width:1;stroke-linecap:butt;stroke-linejoin:round;stroke:rgb(100%,49.803922%,5.490196%);stroke-opacity:1;stroke-miterlimit:4;" d="M 0.000195 2.999715 C 0.79707 2.999715 1.55957 2.68409 2.12207 2.12159 C 2.68457 1.55909 3.000195 0.79659 3.000195 -0.000285 C 3.000195 -0.79716 2.68457 -1.55966 2.12207 -2.12216 C 1.55957 -2.68466 0.79707 -3.000285 0.000195 -3.000285 C -0.79668 -3.000285 -1.55918 -2.68466 -2.12168 -2.12216 C -2.68418 -1.55966 -2.999805 -0.79716 -2.999805 -0.000285 C -2.999805 0.79659 -2.68418 1.55909 -2.12168 2.12159 C -1.55918 2.68409 -0.79668 2.999715 0.000195 2.999715 Z M 0.000195 2.999715 " transform="matrix(1.25,0,0,1.25,195.925538,169.9027)"/>
<path style="fill-rule:nonzero;fill:rgb(100%,49.803922%,5.490196%);fill-opacity:1;stroke-width:1;stroke-linecap:butt;stroke-linejoin:round;stroke:rgb(100%,49.803922%,5.490196%);stroke-opacity:1;stroke-miterlimit:4;" d="M 0.001401 3.001545 C 0.795151 3.001545 1.557651 2.682795 2.120151 2.120295 C 2.682651 1.557795 3.001401 0.795295 3.001401 0.001545 C 3.001401 -0.79533 2.682651 -1.55783 2.120151 -2.12033 C 1.557651 -2.68283 0.795151 -2.998455 0.001401 -2.998455 C -0.795474 -2.998455 -1.557974 -2.68283 -2.120474 -2.12033 C -2.682974 -1.55783 -2.998599 -0.79533 -2.998599 0.001545 C -2.998599 0.795295 -2.682974 1.557795 -2.120474 2.120295 C -1.557974 2.682795 -0.795474 3.001545 0.001401 3.001545 Z M 0.001401 3.001545 " transform="matrix(1.25,0,0,1.25,178.650593,171.0801)"/>
<path style="fill-rule:nonzero;fill:rgb(100%,49.803922%,5.490196%);fill-opacity:1;stroke-width:1;stroke-linecap:butt;stroke-linejoin:round;stroke:rgb(100%,49.803922%,5.490196%);stroke-opacity:1;stroke-miterlimit:4;" d="M -0.001499 2.999177 C 0.795376 2.999177 1.557876 2.683552 2.120376 2.121052 C 2.682876 1.558552 2.998501 0.796052 2.998501 -0.000823 C 2.998501 -0.794573 2.682876 -1.560198 2.120376 -2.122698 C 1.557876 -2.685198 0.795376 -3.000823 -0.001499 -3.000823 C -0.795249 -3.000823 -1.557749 -2.685198 -2.120249 -2.122698 C -2.682749 -1.560198 -3.001499 -0.794573 -3.001499 -0.000823 C -3.001499 0.796052 -2.682749 1.558552 -2.120249 2.121052 C -1.557749 2.683552 -0.795249 2.999177 -0.001499 2.999177 Z M -0.001499 2.999177 " transform="matrix(1.25,0,0,1.25,172.947186,171.153372)"/>
<path style="fill-rule:nonzero;fill:rgb(100%,49.803922%,5.490196%);fill-opacity:1;stroke-width:1;stroke-linecap:butt;stroke-linejoin:round;stroke:rgb(100%,49.803922%,5.490196%);stroke-opacity:1;stroke-miterlimit:4;" d="M -0.000001 2.999148 C 0.796874 2.999148 1.559374 2.683523 2.121874 2.121023 C 2.684374 1.558523 2.999999 0.796023 2.999999 -0.000852 C 2.999999 -0.794602 2.684374 -1.560227 2.121874 -2.122727 C 1.559374 -2.685227 0.796874 -3.000852 -0.000001 -3.000852 C -0.796876 -3.000852 -1.559376 -2.685227 -2.121876 -2.122727 C -2.684376 -1.560227 -3.000001 -0.794602 -3.000001 -0.000852 C -3.000001 0.796023 -2.684376 1.558523 -2.121876 2.121023 C -1.559376 2.683523 -0.796876 2.999148 -0.000001 2.999148 Z M -0.000001 2.999148 " transform="matrix(1.25,0,0,1.25,172.816408,171.153409)"/>
<path style="fill-rule:nonzero;fill:rgb(100%,49.803922%,5.490196%);fill-opacity:1;stroke-width:1;stroke-linecap:butt;stroke-linejoin:round;stroke:rgb(100%,49.803922%,5.490196%);stroke-opacity:1;stroke-miterlimit:4;" d="M 0 2.999148 C 0.796875 2.999148 1.559375 2.683523 2.121875 2.121023 C 2.684375 1.558523 3 0.796023 3 -0.000852 C 3 -0.794602 2.684375 -1.560227 2.121875 -2.122727 C 1.559375 -2.685227 0.796875 -3.000852 0 -3.000852 C -0.796875 -3.000852 -1.559375 -2.685227 -2.121875 -2.122727 C -2.684375 -1.560227 -3 -0.794602 -3 -0.000852 C -3 0.796023 -2.684375 1.558523 -2.121875 2.121023 C -1.559375 2.683523 -0.796875 2.999148 0 2.999148 Z M 0 2.999148 " transform="matrix(1.25,0,0,1.25,172.816406,171.153409)"/>
<path style="fill-rule:nonzero;fill:rgb(100%,49.803922%,5.490196%);fill-opacity:1;stroke-width:1;stroke-linecap:butt;stroke-linejoin:round;stroke:rgb(100%,49.803922%,5.490196%);stroke-opacity:1;stroke-miterlimit:4;" d="M 0 2.999148 C 0.796875 2.999148 1.559375 2.683523 2.121875 2.121023 C 2.684375 1.558523 3 0.796023 3 -0.000852 C 3 -0.794602 2.684375 -1.560227 2.121875 -2.122727 C 1.559375 -2.685227 0.796875 -3.000852 0 -3.000852 C -0.796875 -3.000852 -1.559375 -2.685227 -2.121875 -2.122727 C -2.684375 -1.560227 -3 -0.794602 -3 -0.000852 C -3 0.796023 -2.684375 1.558523 -2.121875 2.121023 C -1.559375 2.683523 -0.796875 2.999148 0 2.999148 Z M 0 2.999148 " transform="matrix(1.25,0,0,1.25,172.816406,171.153409)"/>
<path style="fill-rule:nonzero;fill:rgb(100%,49.803922%,5.490196%);fill-opacity:1;stroke-width:1;stroke-linecap:butt;stroke-linejoin:round;stroke:rgb(100%,49.803922%,5.490196%);stroke-opacity:1;stroke-miterlimit:4;" d="M 0 2.999148 C 0.796875 2.999148 1.559375 2.683523 2.121875 2.121023 C 2.684375 1.558523 3 0.796023 3 -0.000852 C 3 -0.794602 2.684375 -1.560227 2.121875 -2.122727 C 1.559375 -2.685227 0.796875 -3.000852 0 -3.000852 C -0.796875 -3.000852 -1.559375 -2.685227 -2.121875 -2.122727 C -2.684375 -1.560227 -3 -0.794602 -3 -0.000852 C -3 0.796023 -2.684375 1.558523 -2.121875 2.121023 C -1.559375 2.683523 -0.796875 2.999148 0 2.999148 Z M 0 2.999148 " transform="matrix(1.25,0,0,1.25,172.816406,171.153409)"/>
<path style="fill:none;stroke-width:0.8;stroke-linecap:square;stroke-linejoin:miter;stroke:rgb(0%,0%,0%);stroke-opacity:1;stroke-miterlimit:4;" d="M 40.603125 143.1 L 40.603125 7.2 " transform="matrix(1.25,0,0,1.25,0,0)"/>
<path style="fill:none;stroke-width:0.8;stroke-linecap:square;stroke-linejoin:miter;stroke:rgb(0%,0%,0%);stroke-opacity:1;stroke-miterlimit:4;" d="M 235.903125 143.1 L 235.903125 7.2 " transform="matrix(1.25,0,0,1.25,0,0)"/>
<path style="fill:none;stroke-width:0.8;stroke-linecap:square;stroke-linejoin:miter;stroke:rgb(0%,0%,0%);stroke-opacity:1;stroke-miterlimit:4;" d="M 40.603125 143.1 L 235.903125 143.1 " transform="matrix(1.25,0,0,1.25,0,0)"/>
<path style="fill:none;stroke-width:0.8;stroke-linecap:square;stroke-linejoin:miter;stroke:rgb(0%,0%,0%);stroke-opacity:1;stroke-miterlimit:4;" d="M 40.603125 7.2 L 235.903125 7.2 " transform="matrix(1.25,0,0,1.25,0,0)"/>
</g>
</svg>
