<?xml version="1.0" encoding="UTF-8"?>
<svg xmlns="http://www.w3.org/2000/svg" xmlns:xlink="http://www.w3.org/1999/xlink" width="306pt" height="226pt" viewBox="0 0 306 226" version="1.1">
<defs>
<clipPath id="clip1">
  <path d="M 154 9 L 297.398438 9 L 297.398438 137 L 154 137 Z M 154 9 "/>
</clipPath>
<clipPath id="clip2">
  <path d="M 109 9 L 297.398438 9 L 297.398438 173 L 109 173 Z M 109 9 "/>
</clipPath>
<clipPath id="clip3">
  <path d="M 75 9 L 171 9 L 171 178.875 L 75 178.875 Z M 75 9 "/>
</clipPath>
<clipPath id="clip4">
  <path d="M 53.273438 87 L 122 87 L 122 178.875 L 53.273438 178.875 Z M 53.273438 87 "/>
</clipPath>
<clipPath id="clip5">
  <path d="M 53.273438 143 L 86 143 L 86 178.875 L 53.273438 178.875 Z M 53.273438 143 "/>
</clipPath>
<clipPath id="clip6">
  <path d="M 53.273438 177 L 56 177 L 56 178.875 L 53.273438 178.875 Z M 53.273438 177 "/>
</clipPath>
</defs>
<g id="surface1">
<path style=" stroke:none;fill-rule:nonzero;fill:rgb(100%,100%,100%);fill-opacity:1;" d="M 53.273438 178.875 L 297.402344 178.875 L 297.402344 9 L 53.273438 9 Z M 53.273438 178.875 "/>
<path style="fill:none;stroke-width:0.8;stroke-linecap:butt;stroke-linejoin:round;stroke:rgb(0%,0%,0%);stroke-opacity:1;stroke-miterlimit:4;" d="M 0.000000000000014211 0 L 0.000000000000014211 3.5 " transform="matrix(1.25,0,0,1.25,110.492187,178.875)"/>
<path style=" stroke:none;fill-rule:nonzero;fill:rgb(0%,0%,0%);fill-opacity:1;" d="M 102.601562 192.6875 L 110.425781 192.6875 L 110.425781 193.722656 L 102.601562 193.722656 Z M 102.601562 192.6875 "/>
<path style=" stroke:none;fill-rule:nonzero;fill:rgb(0%,0%,0%);fill-opacity:1;" d="M 116.476562 189.085938 L 113.363281 193.949219 L 116.476562 193.949219 Z M 116.152344 188.011719 L 117.703125 188.011719 L 117.703125 193.949219 L 119.003906 193.949219 L 119.003906 194.976562 L 117.703125 194.976562 L 117.703125 197.125 L 116.476562 197.125 L 116.476562 194.976562 L 112.363281 194.976562 L 112.363281 193.785156 Z M 116.152344 188.011719 "/>
<path style="fill:none;stroke-width:0.8;stroke-linecap:butt;stroke-linejoin:round;stroke:rgb(0%,0%,0%);stroke-opacity:1;stroke-miterlimit:4;" d="M 0.000000000000028422 0 L 0.000000000000028422 3.5 " transform="matrix(1.25,0,0,1.25,186.78125,178.875)"/>
<path style=" stroke:none;fill-rule:nonzero;fill:rgb(0%,0%,0%);fill-opacity:1;" d="M 178.890625 192.6875 L 186.714844 192.6875 L 186.714844 193.722656 L 178.890625 193.722656 Z M 178.890625 192.6875 "/>
<path style=" stroke:none;fill-rule:nonzero;fill:rgb(0%,0%,0%);fill-opacity:1;" d="M 190.441406 196.085938 L 194.742188 196.085938 L 194.742188 197.125 L 188.957031 197.125 L 188.957031 196.085938 C 189.425781 195.601562 190.0625 194.953125 190.871094 194.136719 C 191.679688 193.320312 192.1875 192.792969 192.394531 192.558594 C 192.789062 192.113281 193.0625 191.738281 193.21875 191.433594 C 193.375 191.125 193.457031 190.824219 193.457031 190.527344 C 193.457031 190.042969 193.285156 189.648438 192.945312 189.34375 C 192.605469 189.035156 192.164062 188.882812 191.617188 188.882812 C 191.230469 188.882812 190.824219 188.949219 190.394531 189.085938 C 189.964844 189.21875 189.507812 189.421875 189.019531 189.695312 L 189.019531 188.449219 C 189.515625 188.25 189.976562 188.101562 190.410156 188 C 190.839844 187.898438 191.234375 187.847656 191.59375 187.847656 C 192.539062 187.847656 193.289062 188.082031 193.851562 188.554688 C 194.414062 189.027344 194.695312 189.65625 194.695312 190.445312 C 194.695312 190.820312 194.625 191.175781 194.484375 191.511719 C 194.34375 191.847656 194.089844 192.242188 193.71875 192.699219 C 193.617188 192.816406 193.292969 193.15625 192.746094 193.722656 C 192.203125 194.285156 191.433594 195.074219 190.441406 196.085938 Z M 190.441406 196.085938 "/>
<path style="fill:none;stroke-width:0.8;stroke-linecap:butt;stroke-linejoin:round;stroke:rgb(0%,0%,0%);stroke-opacity:1;stroke-miterlimit:4;" d="M -0.000001 0 L -0.000001 3.5 " transform="matrix(1.25,0,0,1.25,263.070314,178.875)"/>
<path style=" stroke:none;fill-rule:nonzero;fill:rgb(0%,0%,0%);fill-opacity:1;" d="M 263.066406 188.824219 C 262.433594 188.824219 261.957031 189.136719 261.636719 189.761719 C 261.316406 190.382812 261.15625 191.324219 261.15625 192.578125 C 261.15625 193.824219 261.316406 194.761719 261.636719 195.386719 C 261.957031 196.011719 262.433594 196.324219 263.066406 196.324219 C 263.707031 196.324219 264.183594 196.011719 264.503906 195.386719 C 264.824219 194.761719 264.984375 193.824219 264.984375 192.578125 C 264.984375 191.324219 264.824219 190.382812 264.503906 189.761719 C 264.183594 189.136719 263.707031 188.824219 263.066406 188.824219 Z M 263.066406 187.847656 C 264.089844 187.847656 264.871094 188.25 265.410156 189.058594 C 265.949219 189.867188 266.21875 191.039062 266.21875 192.578125 C 266.21875 194.109375 265.949219 195.28125 265.410156 196.089844 C 264.871094 196.898438 264.089844 197.300781 263.066406 197.300781 C 262.046875 197.300781 261.265625 196.898438 260.726562 196.089844 C 260.1875 195.28125 259.917969 194.109375 259.917969 192.578125 C 259.917969 191.039062 260.1875 189.867188 260.726562 189.058594 C 261.265625 188.25 262.046875 187.847656 263.066406 187.847656 Z M 263.066406 187.847656 "/>
<path style=" stroke:none;fill-rule:nonzero;fill:rgb(0%,0%,0%);fill-opacity:1;" d="M 174.523438 207.386719 L 172.050781 210.710938 L 174.648438 214.222656 L 173.324219 214.222656 L 171.335938 211.535156 L 169.347656 214.222656 L 168.019531 214.222656 L 170.675781 210.644531 L 168.246094 207.386719 L 169.570312 207.386719 L 171.382812 209.820312 L 173.195312 207.386719 Z M 174.523438 207.386719 "/>
<path style=" stroke:none;fill-rule:nonzero;fill:rgb(0%,0%,0%);fill-opacity:1;" d="M 176.609375 213.183594 L 178.625 213.183594 L 178.625 206.230469 L 176.433594 206.671875 L 176.433594 205.546875 L 178.613281 205.109375 L 179.84375 205.109375 L 179.84375 213.183594 L 181.859375 213.183594 L 181.859375 214.222656 L 176.609375 214.222656 Z M 176.609375 213.183594 "/>
<path style="fill:none;stroke-width:0.8;stroke-linecap:butt;stroke-linejoin:round;stroke:rgb(0%,0%,0%);stroke-opacity:1;stroke-miterlimit:4;" d="M -0.001562 0 L -3.501562 0 " transform="matrix(1.25,0,0,1.25,53.27539,178.875)"/>
<path style=" stroke:none;fill-rule:nonzero;fill:rgb(0%,0%,0%);fill-opacity:1;" d="M 27.421875 179.1875 L 35.246094 179.1875 L 35.246094 180.222656 L 27.421875 180.222656 Z M 27.421875 179.1875 "/>
<path style=" stroke:none;fill-rule:nonzero;fill:rgb(0%,0%,0%);fill-opacity:1;" d="M 41.644531 178.710938 C 42.234375 178.835938 42.695312 179.097656 43.023438 179.5 C 43.355469 179.898438 43.523438 180.390625 43.523438 180.976562 C 43.523438 181.875 43.214844 182.570312 42.59375 183.0625 C 41.976562 183.554688 41.097656 183.800781 39.957031 183.800781 C 39.578125 183.800781 39.183594 183.765625 38.777344 183.6875 C 38.375 183.613281 37.957031 183.5 37.523438 183.347656 L 37.523438 182.160156 C 37.867188 182.359375 38.238281 182.507812 38.644531 182.609375 C 39.054688 182.710938 39.480469 182.761719 39.921875 182.761719 C 40.695312 182.761719 41.285156 182.609375 41.6875 182.304688 C 42.09375 182 42.296875 181.558594 42.296875 180.976562 C 42.296875 180.4375 42.109375 180.019531 41.730469 179.714844 C 41.355469 179.414062 40.832031 179.261719 40.160156 179.261719 L 39.097656 179.261719 L 39.097656 178.246094 L 40.210938 178.246094 C 40.816406 178.246094 41.277344 178.125 41.601562 177.882812 C 41.921875 177.640625 42.082031 177.292969 42.082031 176.835938 C 42.082031 176.371094 41.917969 176.011719 41.585938 175.761719 C 41.253906 175.507812 40.78125 175.382812 40.160156 175.382812 C 39.824219 175.382812 39.460938 175.421875 39.074219 175.496094 C 38.6875 175.566406 38.261719 175.679688 37.796875 175.835938 L 37.796875 174.738281 C 38.265625 174.605469 38.707031 174.507812 39.113281 174.445312 C 39.523438 174.378906 39.910156 174.347656 40.269531 174.347656 C 41.207031 174.347656 41.945312 174.558594 42.492188 174.984375 C 43.035156 175.410156 43.308594 175.984375 43.308594 176.707031 C 43.308594 177.214844 43.164062 177.640625 42.875 177.988281 C 42.585938 178.335938 42.175781 178.574219 41.644531 178.710938 Z M 41.644531 178.710938 "/>
<path style="fill:none;stroke-width:0.8;stroke-linecap:butt;stroke-linejoin:round;stroke:rgb(0%,0%,0%);stroke-opacity:1;stroke-miterlimit:4;" d="M -0.001562 -0.000721 L -3.501562 -0.000721 " transform="matrix(1.25,0,0,1.25,53.27539,135.317307)"/>
<path style=" stroke:none;fill-rule:nonzero;fill:rgb(0%,0%,0%);fill-opacity:1;" d="M 27.421875 135.628906 L 35.246094 135.628906 L 35.246094 136.664062 L 27.421875 136.664062 Z M 27.421875 135.628906 "/>
<path style=" stroke:none;fill-rule:nonzero;fill:rgb(0%,0%,0%);fill-opacity:1;" d="M 38.96875 139.027344 L 43.273438 139.027344 L 43.273438 140.066406 L 37.488281 140.066406 L 37.488281 139.027344 C 37.953125 138.542969 38.59375 137.894531 39.398438 137.078125 C 40.207031 136.261719 40.714844 135.738281 40.921875 135.5 C 41.316406 135.058594 41.59375 134.683594 41.75 134.375 C 41.90625 134.066406 41.984375 133.765625 41.984375 133.46875 C 41.984375 132.984375 41.816406 132.589844 41.476562 132.285156 C 41.136719 131.980469 40.691406 131.824219 40.148438 131.824219 C 39.761719 131.824219 39.351562 131.894531 38.921875 132.027344 C 38.496094 132.160156 38.035156 132.363281 37.546875 132.636719 L 37.546875 131.390625 C 38.042969 131.191406 38.507812 131.042969 38.9375 130.941406 C 39.371094 130.839844 39.765625 130.789062 40.125 130.789062 C 41.066406 130.789062 41.820312 131.023438 42.382812 131.496094 C 42.941406 131.96875 43.222656 132.597656 43.222656 133.386719 C 43.222656 133.761719 43.152344 134.117188 43.011719 134.453125 C 42.875 134.789062 42.617188 135.183594 42.246094 135.640625 C 42.144531 135.757812 41.820312 136.101562 41.277344 136.664062 C 40.730469 137.226562 39.964844 138.015625 38.96875 139.027344 Z M 38.96875 139.027344 "/>
<path style="fill:none;stroke-width:0.8;stroke-linecap:butt;stroke-linejoin:round;stroke:rgb(0%,0%,0%);stroke-opacity:1;stroke-miterlimit:4;" d="M -0.001562 -0.001442 L -3.501562 -0.001442 " transform="matrix(1.25,0,0,1.25,53.27539,91.759615)"/>
<path style=" stroke:none;fill-rule:nonzero;fill:rgb(0%,0%,0%);fill-opacity:1;" d="M 27.421875 92.070312 L 35.246094 92.070312 L 35.246094 93.109375 L 27.421875 93.109375 Z M 27.421875 92.070312 "/>
<path style=" stroke:none;fill-rule:nonzero;fill:rgb(0%,0%,0%);fill-opacity:1;" d="M 38.121094 95.472656 L 40.136719 95.472656 L 40.136719 88.519531 L 37.945312 88.957031 L 37.945312 87.835938 L 40.125 87.394531 L 41.355469 87.394531 L 41.355469 95.472656 L 43.371094 95.472656 L 43.371094 96.507812 L 38.121094 96.507812 Z M 38.121094 95.472656 "/>
<path style="fill:none;stroke-width:0.8;stroke-linecap:butt;stroke-linejoin:round;stroke:rgb(0%,0%,0%);stroke-opacity:1;stroke-miterlimit:4;" d="M -0.001562 0.000962 L -3.501562 0.000962 " transform="matrix(1.25,0,0,1.25,53.27539,48.201923)"/>
<path style=" stroke:none;fill-rule:nonzero;fill:rgb(0%,0%,0%);fill-opacity:1;" d="M 40.542969 44.648438 C 39.910156 44.648438 39.433594 44.960938 39.113281 45.585938 C 38.792969 46.210938 38.632812 47.148438 38.632812 48.402344 C 38.632812 49.652344 38.792969 50.589844 39.113281 51.214844 C 39.433594 51.839844 39.910156 52.152344 40.542969 52.152344 C 41.183594 52.152344 41.664062 51.839844 41.980469 51.214844 C 42.300781 50.589844 42.460938 49.652344 42.460938 48.402344 C 42.460938 47.148438 42.300781 46.210938 41.980469 45.585938 C 41.664062 44.960938 41.183594 44.648438 40.542969 44.648438 Z M 40.542969 43.671875 C 41.566406 43.671875 42.347656 44.078125 42.886719 44.886719 C 43.425781 45.695312 43.695312 46.867188 43.695312 48.402344 C 43.695312 49.9375 43.425781 51.109375 42.886719 51.917969 C 42.347656 52.726562 41.566406 53.128906 40.542969 53.128906 C 39.523438 53.128906 38.742188 52.726562 38.203125 51.917969 C 37.664062 51.109375 37.394531 49.9375 37.394531 48.402344 C 37.394531 46.867188 37.664062 45.695312 38.203125 44.886719 C 38.742188 44.078125 39.523438 43.671875 40.542969 43.671875 Z M 40.542969 43.671875 "/>
<path style=" stroke:none;fill-rule:nonzero;fill:rgb(0%,0%,0%);fill-opacity:1;" d="M 11.660156 94.75 L 14.988281 97.226562 L 18.496094 94.625 L 18.496094 95.949219 L 15.8125 97.9375 L 18.496094 99.929688 L 18.496094 101.253906 L 14.921875 98.597656 L 11.660156 101.027344 L 11.660156 99.703125 L 14.097656 97.890625 L 11.660156 96.078125 Z M 11.660156 94.75 "/>
<path style=" stroke:none;fill-rule:nonzero;fill:rgb(0%,0%,0%);fill-opacity:1;" d="M 17.460938 91.816406 L 17.460938 87.515625 L 18.496094 87.515625 L 18.496094 93.300781 L 17.460938 93.300781 C 16.976562 92.832031 16.328125 92.195312 15.511719 91.386719 C 14.695312 90.578125 14.167969 90.070312 13.929688 89.863281 C 13.488281 89.46875 13.113281 89.195312 12.804688 89.039062 C 12.5 88.878906 12.195312 88.800781 11.898438 88.800781 C 11.414062 88.800781 11.019531 88.972656 10.714844 89.3125 C 10.410156 89.652344 10.257812 90.09375 10.257812 90.640625 C 10.257812 91.027344 10.324219 91.433594 10.457031 91.863281 C 10.59375 92.292969 10.796875 92.75 11.070312 93.238281 L 9.824219 93.238281 C 9.625 92.742188 9.472656 92.28125 9.371094 91.847656 C 9.269531 91.417969 9.21875 91.019531 9.21875 90.664062 C 9.21875 89.71875 9.457031 88.964844 9.929688 88.40625 C 10.402344 87.84375 11.03125 87.5625 11.820312 87.5625 C 12.195312 87.5625 12.550781 87.632812 12.886719 87.773438 C 13.222656 87.914062 13.617188 88.167969 14.070312 88.539062 C 14.191406 88.640625 14.53125 88.964844 15.09375 89.511719 C 15.660156 90.054688 16.449219 90.824219 17.460938 91.816406 Z M 17.460938 91.816406 "/>
<path style="fill:none;stroke-width:1.5;stroke-linecap:square;stroke-linejoin:round;stroke:rgb(100%,49.803922%,5.490196%);stroke-opacity:1;stroke-miterlimit:4;" d="M 57.878125 108.253125 L 90.06875 83.628125 L 109.80625 66.24375 L 124.709375 52.440625 L 136.33125 51.66875 L 148.3875 44.6375 L 155.784375 45.421875 L 165.70625 42.91875 L 171.5 36.659375 L 174.01875 39.68125 L 178.465625 38.196875 L 184 40.93125 L 188.509375 39.6375 L 190.215625 41.721875 L 191.925 44.4375 L 195.515625 43.86875 L 197.16875 44.765625 L 199.065625 43.575 L 199.278125 41.596875 L 200.36875 42.85 L 198.765625 44.7375 L 199.51875 44.45625 L 203.5125 43.965625 L 203.0625 40.728125 L 203.759375 39.928125 L 203.709375 35.08125 L 202.084375 36.8625 L 203.98125 36.16875 L 204.21875 39.296875 L 205.25625 38.1 L 205.321875 41.634375 L 205.15625 38.56875 L 205.621875 36.346875 L 208.7 37.978125 L 207.95 39.190625 L 208.184375 38.5375 L 208.4625 39.078125 L 209.271875 38.084375 L 210.496875 38.3375 L 211.803125 37.35 L 211.753125 35.8375 L 212.853125 34.5125 L 212.115625 34.40625 L 211.0375 33.746875 L 212.109375 33.578125 L 212.21875 35.16875 L 212.8375 34.509375 L 212.615625 36.859375 L 211.453125 35.340625 L 210.846875 36.984375 L 213.025 38.1125 " transform="matrix(1.25,0,0,1.25,0,0.000000000000014211)"/>
<path style="fill-rule:nonzero;fill:rgb(100%,49.803922%,5.490196%);fill-opacity:1;stroke-width:1;stroke-linecap:butt;stroke-linejoin:round;stroke:rgb(100%,49.803922%,5.490196%);stroke-opacity:1;stroke-miterlimit:4;" d="M 0.000000000000014211 2.999279 C 0.796875 2.999279 1.559375 2.683654 2.121875 2.121154 C 2.684375 1.558654 3 0.796154 3 -0.000721 C 3 -0.794471 2.684375 -1.560096 2.121875 -2.122596 C 1.559375 -2.685096 0.796875 -3.000721 0.000000000000014211 -3.000721 C -0.796875 -3.000721 -1.559375 -2.685096 -2.121875 -2.122596 C -2.684375 -1.560096 -3 -0.794471 -3 -0.000721 C -3 0.796154 -2.684375 1.558654 -2.121875 2.121154 C -1.559375 2.683654 -0.796875 2.999279 0.000000000000014211 2.999279 Z M 0.000000000000014211 2.999279 " transform="matrix(1.25,0,0,1.25,72.347656,135.317307)"/>
<path style="fill-rule:nonzero;fill:rgb(100%,49.803922%,5.490196%);fill-opacity:1;stroke-width:1;stroke-linecap:butt;stroke-linejoin:round;stroke:rgb(100%,49.803922%,5.490196%);stroke-opacity:1;stroke-miterlimit:4;" d="M 0.001557 3.00057 C 0.795307 3.00057 1.557807 2.684945 2.120307 2.122445 C 2.682807 1.559945 3.001557 0.79432 3.001557 0.00057 C 3.001557 -0.796305 2.682807 -1.558805 2.120307 -2.121305 C 1.557807 -2.683805 0.795307 -2.99943 0.001557 -2.99943 C -0.795318 -2.99943 -1.557818 -2.683805 -2.120318 -2.121305 C -2.682818 -1.558805 -2.998443 -0.796305 -2.998443 0.00057 C -2.998443 0.79432 -2.682818 1.559945 -2.120318 2.122445 C -1.557818 2.684945 -0.795318 3.00057 0.001557 3.00057 Z M 0.001557 3.00057 " transform="matrix(1.25,0,0,1.25,112.583991,104.534444)"/>
<path style="fill-rule:nonzero;fill:rgb(100%,49.803922%,5.490196%);fill-opacity:1;stroke-width:1;stroke-linecap:butt;stroke-linejoin:round;stroke:rgb(100%,49.803922%,5.490196%);stroke-opacity:1;stroke-miterlimit:4;" d="M -0.000335 2.999161 C 0.79654 2.999161 1.55904 2.683536 2.12154 2.121036 C 2.68404 1.558536 2.999665 0.796036 2.999665 -0.000839 C 2.999665 -0.794589 2.68404 -1.560214 2.12154 -2.122714 C 1.55904 -2.685214 0.79654 -3.000839 -0.000335 -3.000839 C -0.794085 -3.000839 -1.55971 -2.685214 -2.12221 -2.122714 C -2.68471 -1.560214 -3.000335 -0.794589 -3.000335 -0.000839 C -3.000335 0.796036 -2.68471 1.558536 -2.12221 2.121036 C -1.55971 2.683536 -0.794085 2.999161 -0.000335 2.999161 Z M -0.000335 2.999161 " transform="matrix(1.25,0,0,1.25,137.258231,82.805736)"/>
<path style="fill-rule:nonzero;fill:rgb(100%,49.803922%,5.490196%);fill-opacity:1;stroke-width:1;stroke-linecap:butt;stroke-linejoin:round;stroke:rgb(100%,49.803922%,5.490196%);stroke-opacity:1;stroke-miterlimit:4;" d="M 0.000545 2.999624 C 0.794295 2.999624 1.55992 2.683999 2.12242 2.121499 C 2.68492 1.558999 3.000545 0.796499 3.000545 -0.000376 C 3.000545 -0.794126 2.68492 -1.559751 2.12242 -2.122251 C 1.55992 -2.684751 0.794295 -3.000376 0.000545 -3.000376 C -0.79633 -3.000376 -1.55883 -2.684751 -2.12133 -2.122251 C -2.68383 -1.559751 -2.999455 -0.794126 -2.999455 -0.000376 C -2.999455 0.796499 -2.68383 1.558999 -2.12133 2.121499 C -1.55883 2.683999 -0.79633 2.999624 0.000545 2.999624 Z M 0.000545 2.999624 " transform="matrix(1.25,0,0,1.25,155.886037,65.551251)"/>
<path style="fill-rule:nonzero;fill:rgb(100%,49.803922%,5.490196%);fill-opacity:1;stroke-width:1;stroke-linecap:butt;stroke-linejoin:round;stroke:rgb(100%,49.803922%,5.490196%);stroke-opacity:1;stroke-miterlimit:4;" d="M -0.000397 3.001526 C 0.796478 3.001526 1.558978 2.682776 2.121478 2.120276 C 2.683978 1.557776 2.999603 0.795276 2.999603 0.001526 C 2.999603 -0.795349 2.683978 -1.557849 2.121478 -2.120349 C 1.558978 -2.682849 0.796478 -2.998474 -0.000397 -2.998474 C -0.794147 -2.998474 -1.559772 -2.682849 -2.122272 -2.120349 C -2.684772 -1.557849 -3.000397 -0.795349 -3.000397 0.001526 C -3.000397 0.795276 -2.684772 1.557776 -2.122272 2.120276 C -1.559772 2.682776 -0.794147 3.001526 -0.000397 3.001526 Z M -0.000397 3.001526 " transform="matrix(1.25,0,0,1.25,170.414559,64.58403)"/>
<path style="fill-rule:nonzero;fill:rgb(100%,49.803922%,5.490196%);fill-opacity:1;stroke-width:1;stroke-linecap:butt;stroke-linejoin:round;stroke:rgb(100%,49.803922%,5.490196%);stroke-opacity:1;stroke-miterlimit:4;" d="M -0.000721 2.999031 C 0.796154 2.999031 1.558654 2.683406 2.121154 2.120906 C 2.683654 1.558406 2.999279 0.795906 2.999279 -0.000969 C 2.999279 -0.794719 2.683654 -1.557219 2.121154 -2.122844 C 1.558654 -2.685344 0.796154 -3.000969 -0.000721 -3.000969 C -0.794471 -3.000969 -1.560096 -2.685344 -2.122596 -2.122844 C -2.685096 -1.557219 -3.000721 -0.794719 -3.000721 -0.000969 C -3.000721 0.795906 -2.685096 1.558406 -2.122596 2.120906 C -1.560096 2.683406 -0.794471 2.999031 -0.000721 2.999031 Z M -0.000721 2.999031 " transform="matrix(1.25,0,0,1.25,185.485276,55.798086)"/>
<path style="fill-rule:nonzero;fill:rgb(100%,49.803922%,5.490196%);fill-opacity:1;stroke-width:1;stroke-linecap:butt;stroke-linejoin:round;stroke:rgb(100%,49.803922%,5.490196%);stroke-opacity:1;stroke-miterlimit:4;" d="M 0.00058 3.001038 C 0.79433 3.001038 1.559955 2.685413 2.122455 2.119788 C 2.684955 1.557288 3.00058 0.794788 3.00058 0.001038 C 3.00058 -0.795837 2.684955 -1.558337 2.122455 -2.120837 C 1.559955 -2.683337 0.79433 -2.998962 0.00058 -2.998962 C -0.796295 -2.998962 -1.558795 -2.683337 -2.121295 -2.120837 C -2.683795 -1.558337 -2.99942 -0.795837 -2.99942 0.001038 C -2.99942 0.794788 -2.683795 1.557288 -2.121295 2.119788 C -1.558795 2.685413 -0.796295 3.001038 0.00058 3.001038 Z M 0.00058 3.001038 " transform="matrix(1.25,0,0,1.25,194.729744,56.776046)"/>
<path style="fill-rule:nonzero;fill:rgb(100%,49.803922%,5.490196%);fill-opacity:1;stroke-width:1;stroke-linecap:butt;stroke-linejoin:round;stroke:rgb(100%,49.803922%,5.490196%);stroke-opacity:1;stroke-miterlimit:4;" d="M -0.000145 3.000168 C 0.79673 3.000168 1.55923 2.684543 2.12173 2.122043 C 2.68423 1.559543 2.999855 0.797043 2.999855 0.000168 C 2.999855 -0.796707 2.68423 -1.559207 2.12173 -2.121707 C 1.55923 -2.684207 0.79673 -2.999832 -0.000145 -2.999832 C -0.79702 -2.999832 -1.55952 -2.684207 -2.12202 -2.121707 C -2.68452 -1.559207 -3.000145 -0.796707 -3.000145 0.000168 C -3.000145 0.797043 -2.68452 1.559543 -2.12202 2.122043 C -1.55952 2.684543 -0.79702 3.000168 -0.000145 3.000168 Z M -0.000145 3.000168 " transform="matrix(1.25,0,0,1.25,207.132994,53.648228)"/>
<path style="fill-rule:nonzero;fill:rgb(100%,49.803922%,5.490196%);fill-opacity:1;stroke-width:1;stroke-linecap:butt;stroke-linejoin:round;stroke:rgb(100%,49.803922%,5.490196%);stroke-opacity:1;stroke-miterlimit:4;" d="M 0.000699 2.999839 C 0.794449 2.999839 1.560074 2.684214 2.122574 2.121714 C 2.685074 1.559214 3.000699 0.796714 3.000699 -0.000161 C 3.000699 -0.797036 2.685074 -1.559536 2.122574 -2.122036 C 1.560074 -2.684536 0.794449 -3.000161 0.000699 -3.000161 C -0.796176 -3.000161 -1.558676 -2.684536 -2.121176 -2.122036 C -2.683676 -1.559536 -2.999301 -0.797036 -2.999301 -0.000161 C -2.999301 0.796714 -2.683676 1.559214 -2.121176 2.121714 C -1.558676 2.684214 -0.796176 2.999839 0.000699 2.999839 Z M 0.000699 2.999839 " transform="matrix(1.25,0,0,1.25,214.374126,45.82442)"/>
<path style="fill-rule:nonzero;fill:rgb(100%,49.803922%,5.490196%);fill-opacity:1;stroke-width:1;stroke-linecap:butt;stroke-linejoin:round;stroke:rgb(100%,49.803922%,5.490196%);stroke-opacity:1;stroke-miterlimit:4;" d="M -0.001277 2.999272 C 0.795598 2.999272 1.558098 2.683647 2.120598 2.121147 C 2.683098 1.558647 2.998723 0.796147 2.998723 -0.000728 C 2.998723 -0.794478 2.683098 -1.560103 2.120598 -2.122603 C 1.558098 -2.685103 0.795598 -3.000728 -0.001277 -3.000728 C -0.795027 -3.000728 -1.557527 -2.685103 -2.120027 -2.122603 C -2.682527 -1.560103 -3.001277 -0.794478 -3.001277 -0.000728 C -3.001277 0.796147 -2.682527 1.558647 -2.120027 2.121147 C -1.557527 2.683647 -0.795027 2.999272 -0.001277 2.999272 Z M -0.001277 2.999272 " transform="matrix(1.25,0,0,1.25,217.525034,49.602473)"/>
<path style="fill-rule:nonzero;fill:rgb(100%,49.803922%,5.490196%);fill-opacity:1;stroke-width:1;stroke-linecap:butt;stroke-linejoin:round;stroke:rgb(100%,49.803922%,5.490196%);stroke-opacity:1;stroke-miterlimit:4;" d="M -0.001157 2.999708 C 0.795718 2.999708 1.558218 2.684083 2.120718 2.121583 C 2.683218 1.559083 2.998843 0.796583 2.998843 -0.000292 C 2.998843 -0.797167 2.683218 -1.559667 2.120718 -2.122167 C 1.558218 -2.684667 0.795718 -3.000292 -0.001157 -3.000292 C -0.794907 -3.000292 -1.557407 -2.684667 -2.119907 -2.122167 C -2.682407 -1.559667 -3.001157 -0.797167 -3.001157 -0.000292 C -3.001157 0.796583 -2.682407 1.559083 -2.119907 2.121583 C -1.557407 2.684083 -0.794907 2.999708 -0.001157 2.999708 Z M -0.001157 2.999708 " transform="matrix(1.25,0,0,1.25,223.083477,47.746459)"/>
<path style="fill-rule:nonzero;fill:rgb(100%,49.803922%,5.490196%);fill-opacity:1;stroke-width:1;stroke-linecap:butt;stroke-linejoin:round;stroke:rgb(100%,49.803922%,5.490196%);stroke-opacity:1;stroke-miterlimit:4;" d="M -0.000936 3.000918 C 0.795939 3.000918 1.558439 2.685293 2.120939 2.122793 C 2.683439 1.560293 2.999064 0.794668 2.999064 0.000918 C 2.999064 -0.795957 2.683439 -1.558457 2.120939 -2.120957 C 1.558439 -2.683457 0.795939 -2.999082 -0.000936 -2.999082 C -0.794686 -2.999082 -1.557186 -2.683457 -2.122811 -2.120957 C -2.685311 -1.558457 -3.000936 -0.795957 -3.000936 0.000918 C -3.000936 0.794668 -2.685311 1.560293 -2.122811 2.122793 C -1.557186 2.685293 -0.794686 3.000918 -0.000936 3.000918 Z M -0.000936 3.000918 " transform="matrix(1.25,0,0,1.25,230.00117,51.162915)"/>
<path style="fill-rule:nonzero;fill:rgb(100%,49.803922%,5.490196%);fill-opacity:1;stroke-width:1;stroke-linecap:butt;stroke-linejoin:round;stroke:rgb(100%,49.803922%,5.490196%);stroke-opacity:1;stroke-miterlimit:4;" d="M -0.001309 2.999194 C 0.795566 2.999194 1.558066 2.683569 2.120566 2.121069 C 2.683066 1.558569 2.998691 0.796069 2.998691 -0.000806 C 2.998691 -0.794556 2.683066 -1.560181 2.120566 -2.122681 C 1.558066 -2.685181 0.795566 -3.000806 -0.001309 -3.000806 C -0.795059 -3.000806 -1.557559 -2.685181 -2.120059 -2.122681 C -2.682559 -1.560181 -3.001309 -0.794556 -3.001309 -0.000806 C -3.001309 0.796069 -2.682559 1.558569 -2.120059 2.121069 C -1.557559 2.683569 -0.795059 2.999194 -0.001309 2.999194 Z M -0.001309 2.999194 " transform="matrix(1.25,0,0,1.25,235.638355,49.547883)"/>
<path style="fill-rule:nonzero;fill:rgb(100%,49.803922%,5.490196%);fill-opacity:1;stroke-width:1;stroke-linecap:butt;stroke-linejoin:round;stroke:rgb(100%,49.803922%,5.490196%);stroke-opacity:1;stroke-miterlimit:4;" d="M 0.00012 3.000567 C 0.796995 3.000567 1.559495 2.684942 2.121995 2.122442 C 2.684495 1.559942 3.00012 0.794317 3.00012 0.000567 C 3.00012 -0.796308 2.684495 -1.558808 2.121995 -2.121308 C 1.559495 -2.683808 0.796995 -2.999433 0.00012 -2.999433 C -0.796755 -2.999433 -1.559255 -2.683808 -2.121755 -2.121308 C -2.684255 -1.558808 -2.99988 -0.796308 -2.99988 0.000567 C -2.99988 0.794317 -2.684255 1.559942 -2.121755 2.122442 C -1.559255 2.684942 -0.796755 3.000567 0.00012 3.000567 Z M 0.00012 3.000567 " transform="matrix(1.25,0,0,1.25,237.769381,52.151635)"/>
<path style="fill-rule:nonzero;fill:rgb(100%,49.803922%,5.490196%);fill-opacity:1;stroke-width:1;stroke-linecap:butt;stroke-linejoin:round;stroke:rgb(100%,49.803922%,5.490196%);stroke-opacity:1;stroke-miterlimit:4;" d="M -0.001435 3.00049 C 0.79544 3.00049 1.55794 2.684865 2.12044 2.122365 C 2.68294 1.559865 2.998565 0.79424 2.998565 0.00049 C 2.998565 -0.796385 2.68294 -1.558885 2.12044 -2.121385 C 1.55794 -2.683885 0.79544 -2.99951 -0.001435 -2.99951 C -0.795185 -2.99951 -1.557685 -2.683885 -2.120185 -2.121385 C -2.682685 -1.558885 -3.001435 -0.796385 -3.001435 0.00049 C -3.001435 0.79424 -2.682685 1.559865 -2.120185 2.122365 C -1.557685 2.684865 -0.795185 3.00049 -0.001435 3.00049 Z M -0.001435 3.00049 " transform="matrix(1.25,0,0,1.25,239.908044,55.546263)"/>
<path style="fill-rule:nonzero;fill:rgb(100%,49.803922%,5.490196%);fill-opacity:1;stroke-width:1;stroke-linecap:butt;stroke-linejoin:round;stroke:rgb(100%,49.803922%,5.490196%);stroke-opacity:1;stroke-miterlimit:4;" d="M 0.00109 3.001367 C 0.79484 3.001367 1.55734 2.682617 2.11984 2.120117 C 2.68234 1.557617 3.00109 0.795117 3.00109 0.001367 C 3.00109 -0.795508 2.68234 -1.558008 2.11984 -2.120508 C 1.55734 -2.683008 0.79484 -2.998633 0.00109 -2.998633 C -0.795785 -2.998633 -1.558285 -2.683008 -2.120785 -2.120508 C -2.683285 -1.558008 -2.99891 -0.795508 -2.99891 0.001367 C -2.99891 0.795117 -2.683285 1.557617 -2.120785 2.120117 C -1.558285 2.682617 -0.795785 3.001367 0.00109 3.001367 Z M 0.00109 3.001367 " transform="matrix(1.25,0,0,1.25,244.393169,54.834229)"/>
<path style="fill-rule:nonzero;fill:rgb(100%,49.803922%,5.490196%);fill-opacity:1;stroke-width:1;stroke-linecap:butt;stroke-linejoin:round;stroke:rgb(100%,49.803922%,5.490196%);stroke-opacity:1;stroke-miterlimit:4;" d="M -0.000203 2.998952 C 0.796672 2.998952 1.559172 2.683327 2.121672 2.120827 C 2.684172 1.558327 2.999797 0.795827 2.999797 -0.001048 C 2.999797 -0.794798 2.684172 -1.557298 2.121672 -2.119798 C 1.559172 -2.685423 0.796672 -3.001048 -0.000203 -3.001048 C -0.797078 -3.001048 -1.559578 -2.685423 -2.122078 -2.119798 C -2.684578 -1.557298 -3.000203 -0.794798 -3.000203 -0.001048 C -3.000203 0.795827 -2.684578 1.558327 -2.122078 2.120827 C -1.559578 2.683327 -0.797078 2.998952 -0.000203 2.998952 Z M -0.000203 2.998952 " transform="matrix(1.25,0,0,1.25,246.461191,55.958341)"/>
<path style="fill-rule:nonzero;fill:rgb(100%,49.803922%,5.490196%);fill-opacity:1;stroke-width:1;stroke-linecap:butt;stroke-linejoin:round;stroke:rgb(100%,49.803922%,5.490196%);stroke-opacity:1;stroke-miterlimit:4;" d="M -0.001181 2.998949 C 0.795694 2.998949 1.558194 2.683324 2.120694 2.120824 C 2.683194 1.558324 2.998819 0.795824 2.998819 -0.001051 C 2.998819 -0.794801 2.683194 -1.557301 2.120694 -2.119801 C 1.558194 -2.685426 0.795694 -3.001051 -0.001181 -3.001051 C -0.794931 -3.001051 -1.557431 -2.685426 -2.119931 -2.119801 C -2.682431 -1.557301 -3.001181 -0.794801 -3.001181 -0.001051 C -3.001181 0.795824 -2.682431 1.558324 -2.119931 2.120824 C -1.557431 2.683324 -0.794931 2.998949 -0.001181 2.998949 Z M -0.001181 2.998949 " transform="matrix(1.25,0,0,1.25,248.833507,54.470064)"/>
<path style="fill-rule:nonzero;fill:rgb(100%,49.803922%,5.490196%);fill-opacity:1;stroke-width:1;stroke-linecap:butt;stroke-linejoin:round;stroke:rgb(100%,49.803922%,5.490196%);stroke-opacity:1;stroke-miterlimit:4;" d="M 0.000021 3.000796 C 0.796896 3.000796 1.559396 2.685171 2.121896 2.122671 C 2.684396 1.560171 3.000021 0.794546 3.000021 0.000796 C 3.000021 -0.796079 2.684396 -1.558579 2.121896 -2.121079 C 1.559396 -2.683579 0.796896 -2.999204 0.000021 -2.999204 C -0.796854 -2.999204 -1.559354 -2.683579 -2.121854 -2.121079 C -2.684354 -1.558579 -2.999979 -0.796079 -2.999979 0.000796 C -2.999979 0.794546 -2.684354 1.560171 -2.121854 2.122671 C -1.559354 2.685171 -0.796854 3.000796 0.000021 3.000796 Z M 0.000021 3.000796 " transform="matrix(1.25,0,0,1.25,249.09763,51.995099)"/>
<path style="fill-rule:nonzero;fill:rgb(100%,49.803922%,5.490196%);fill-opacity:1;stroke-width:1;stroke-linecap:butt;stroke-linejoin:round;stroke:rgb(100%,49.803922%,5.490196%);stroke-opacity:1;stroke-miterlimit:4;" d="M -0.00059 3.001208 C 0.796285 3.001208 1.558785 2.682458 2.121285 2.119958 C 2.683785 1.557458 2.99941 0.794958 2.99941 0.001208 C 2.99941 -0.795667 2.683785 -1.558167 2.121285 -2.120667 C 1.558785 -2.683167 0.796285 -2.998792 -0.00059 -2.998792 C -0.79434 -2.998792 -1.559965 -2.683167 -2.122465 -2.120667 C -2.684965 -1.558167 -3.00059 -0.795667 -3.00059 0.001208 C -3.00059 0.794958 -2.684965 1.557458 -2.122465 2.119958 C -1.559965 2.682458 -0.79434 3.001208 -0.00059 3.001208 Z M -0.00059 3.001208 " transform="matrix(1.25,0,0,1.25,250.461675,53.56099)"/>
<path style="fill-rule:nonzero;fill:rgb(100%,49.803922%,5.490196%);fill-opacity:1;stroke-width:1;stroke-linecap:butt;stroke-linejoin:round;stroke:rgb(100%,49.803922%,5.490196%);stroke-opacity:1;stroke-miterlimit:4;" d="M 0.001376 3.000415 C 0.795126 3.000415 1.557626 2.68479 2.120126 2.12229 C 2.682626 1.55979 3.001376 0.794165 3.001376 0.000415 C 3.001376 -0.79646 2.682626 -1.55896 2.120126 -2.12146 C 1.557626 -2.68396 0.795126 -2.999585 0.001376 -2.999585 C -0.795499 -2.999585 -1.557999 -2.68396 -2.120499 -2.12146 C -2.682999 -1.55896 -2.998624 -0.79646 -2.998624 0.000415 C -2.998624 0.794165 -2.682999 1.55979 -2.120499 2.12229 C -1.557999 2.68479 -0.795499 3.000415 0.001376 3.000415 Z M 0.001376 3.000415 " transform="matrix(1.25,0,0,1.25,248.455311,55.921356)"/>
<path style="fill-rule:nonzero;fill:rgb(100%,49.803922%,5.490196%);fill-opacity:1;stroke-width:1;stroke-linecap:butt;stroke-linejoin:round;stroke:rgb(100%,49.803922%,5.490196%);stroke-opacity:1;stroke-miterlimit:4;" d="M 0.001364 2.999254 C 0.795114 2.999254 1.557614 2.683629 2.120114 2.121129 C 2.682614 1.558629 3.001364 0.796129 3.001364 -0.000746 C 3.001364 -0.794496 2.682614 -1.560121 2.120114 -2.122621 C 1.557614 -2.685121 0.795114 -3.000746 0.001364 -3.000746 C -0.795511 -3.000746 -1.558011 -2.685121 -2.120511 -2.122621 C -2.683011 -1.560121 -2.998636 -0.794496 -2.998636 -0.000746 C -2.998636 0.796129 -2.683011 1.558629 -2.120511 2.121129 C -1.558011 2.683629 -0.795511 2.999254 0.001364 2.999254 Z M 0.001364 2.999254 " transform="matrix(1.25,0,0,1.25,249.396732,55.571245)"/>
<path style="fill-rule:nonzero;fill:rgb(100%,49.803922%,5.490196%);fill-opacity:1;stroke-width:1;stroke-linecap:butt;stroke-linejoin:round;stroke:rgb(100%,49.803922%,5.490196%);stroke-opacity:1;stroke-miterlimit:4;" d="M -0.001353 2.99903 C 0.795522 2.99903 1.558022 2.683405 2.120522 2.120905 C 2.683022 1.558405 2.998647 0.795905 2.998647 -0.00097 C 2.998647 -0.79472 2.683022 -1.55722 2.120522 -2.122845 C 1.558022 -2.685345 0.795522 -3.00097 -0.001353 -3.00097 C -0.795103 -3.00097 -1.557603 -2.685345 -2.120103 -2.122845 C -2.682603 -1.55722 -3.001353 -0.79472 -3.001353 -0.00097 C -3.001353 0.795905 -2.682603 1.558405 -2.120103 2.120905 C -1.557603 2.683405 -0.795103 2.99903 -0.001353 2.99903 Z M -0.001353 2.99903 " transform="matrix(1.25,0,0,1.25,254.392316,54.958244)"/>
<path style="fill-rule:nonzero;fill:rgb(100%,49.803922%,5.490196%);fill-opacity:1;stroke-width:1;stroke-linecap:butt;stroke-linejoin:round;stroke:rgb(100%,49.803922%,5.490196%);stroke-opacity:1;stroke-miterlimit:4;" d="M -0.001396 2.999229 C 0.795479 2.999229 1.557979 2.683604 2.120479 2.121104 C 2.682979 1.558604 2.998604 0.796104 2.998604 -0.000771 C 2.998604 -0.794521 2.682979 -1.560146 2.120479 -2.122646 C 1.557979 -2.685146 0.795479 -3.000771 -0.001396 -3.000771 C -0.795146 -3.000771 -1.557646 -2.685146 -2.120146 -2.122646 C -2.682646 -1.560146 -3.001396 -0.794521 -3.001396 -0.000771 C -3.001396 0.796104 -2.682646 1.558604 -2.120146 2.121104 C -1.557646 2.683604 -0.795146 2.999229 -0.001396 2.999229 Z M -0.001396 2.999229 " transform="matrix(1.25,0,0,1.25,253.82987,50.91112)"/>
<path style="fill-rule:nonzero;fill:rgb(100%,49.803922%,5.490196%);fill-opacity:1;stroke-width:1;stroke-linecap:butt;stroke-linejoin:round;stroke:rgb(100%,49.803922%,5.490196%);stroke-opacity:1;stroke-miterlimit:4;" d="M -0.001515 3.001081 C 0.79536 3.001081 1.55786 2.685456 2.12036 2.119831 C 2.68286 1.557331 2.998485 0.794831 2.998485 0.001081 C 2.998485 -0.795794 2.68286 -1.558294 2.12036 -2.120794 C 1.55786 -2.683294 0.79536 -2.998919 -0.001515 -2.998919 C -0.795265 -2.998919 -1.557765 -2.683294 -2.120265 -2.120794 C -2.682765 -1.558294 -3.001515 -0.795794 -3.001515 0.001081 C -3.001515 0.794831 -2.682765 1.557331 -2.120265 2.119831 C -1.557765 2.685456 -0.795265 3.001081 -0.001515 3.001081 Z M -0.001515 3.001081 " transform="matrix(1.25,0,0,1.25,254.701112,49.908805)"/>
<path style="fill-rule:nonzero;fill:rgb(100%,49.803922%,5.490196%);fill-opacity:1;stroke-width:1;stroke-linecap:butt;stroke-linejoin:round;stroke:rgb(100%,49.803922%,5.490196%);stroke-opacity:1;stroke-miterlimit:4;" d="M -0.000876 3.000826 C 0.795999 3.000826 1.558499 2.685201 2.120999 2.122701 C 2.683499 1.560201 2.999124 0.794576 2.999124 0.000826 C 2.999124 -0.796049 2.683499 -1.558549 2.120999 -2.121049 C 1.558499 -2.683549 0.795999 -2.999174 -0.000876 -2.999174 C -0.794626 -2.999174 -1.560251 -2.683549 -2.122751 -2.121049 C -2.685251 -1.558549 -3.000876 -0.796049 -3.000876 0.000826 C -3.000876 0.794576 -2.685251 1.560201 -2.122751 2.122701 C -1.560251 2.685201 -0.794626 3.000826 -0.000876 3.000826 Z M -0.000876 3.000826 " transform="matrix(1.25,0,0,1.25,254.637814,43.85053)"/>
<path style="fill-rule:nonzero;fill:rgb(100%,49.803922%,5.490196%);fill-opacity:1;stroke-width:1;stroke-linecap:butt;stroke-linejoin:round;stroke:rgb(100%,49.803922%,5.490196%);stroke-opacity:1;stroke-miterlimit:4;" d="M 0.000449 3.000355 C 0.794199 3.000355 1.559824 2.68473 2.122324 2.12223 C 2.684824 1.55973 3.000449 0.794105 3.000449 0.000355 C 3.000449 -0.79652 2.684824 -1.55902 2.122324 -2.12152 C 1.559824 -2.68402 0.794199 -2.999645 0.000449 -2.999645 C -0.796426 -2.999645 -1.558926 -2.68402 -2.121426 -2.12152 C -2.683926 -1.55902 -2.999551 -0.79652 -2.999551 0.000355 C -2.999551 0.794105 -2.683926 1.55973 -2.121426 2.12223 C -1.558926 2.68473 -0.796426 3.000355 0.000449 3.000355 Z M 0.000449 3.000355 " transform="matrix(1.25,0,0,1.25,252.604907,46.077681)"/>
<path style="fill-rule:nonzero;fill:rgb(100%,49.803922%,5.490196%);fill-opacity:1;stroke-width:1;stroke-linecap:butt;stroke-linejoin:round;stroke:rgb(100%,49.803922%,5.490196%);stroke-opacity:1;stroke-miterlimit:4;" d="M 0.001058 2.999127 C 0.794808 2.999127 1.557308 2.683502 2.119808 2.121002 C 2.685433 1.558502 3.001058 0.796002 3.001058 -0.000873 C 3.001058 -0.794623 2.685433 -1.560248 2.119808 -2.122748 C 1.557308 -2.685248 0.794808 -3.000873 0.001058 -3.000873 C -0.795817 -3.000873 -1.558317 -2.685248 -2.120817 -2.122748 C -2.683317 -1.560248 -2.998942 -0.794623 -2.998942 -0.000873 C -2.998942 0.796002 -2.683317 1.558502 -2.120817 2.121002 C -1.558317 2.683502 -0.795817 2.999127 0.001058 2.999127 Z M 0.001058 2.999127 " transform="matrix(1.25,0,0,1.25,254.97524,45.212029)"/>
<path style="fill-rule:nonzero;fill:rgb(100%,49.803922%,5.490196%);fill-opacity:1;stroke-width:1;stroke-linecap:butt;stroke-linejoin:round;stroke:rgb(100%,49.803922%,5.490196%);stroke-opacity:1;stroke-miterlimit:4;" d="M 0.000865 3.000421 C 0.794615 3.000421 1.56024 2.684796 2.12274 2.122296 C 2.68524 1.559796 3.000865 0.794171 3.000865 0.000421 C 3.000865 -0.796454 2.68524 -1.558954 2.12274 -2.121454 C 1.56024 -2.683954 0.794615 -2.999579 0.000865 -2.999579 C -0.79601 -2.999579 -1.55851 -2.683954 -2.12101 -2.121454 C -2.68351 -1.558954 -2.999135 -0.796454 -2.999135 0.000421 C -2.999135 0.794171 -2.68351 1.559796 -2.12101 2.122296 C -1.55851 2.684796 -0.79601 3.000421 0.000865 3.000421 Z M 0.000865 3.000421 " transform="matrix(1.25,0,0,1.25,255.272356,49.120567)"/>
<path style="fill-rule:nonzero;fill:rgb(100%,49.803922%,5.490196%);fill-opacity:1;stroke-width:1;stroke-linecap:butt;stroke-linejoin:round;stroke:rgb(100%,49.803922%,5.490196%);stroke-opacity:1;stroke-miterlimit:4;" d="M -0.000622 3.00144 C 0.796253 3.00144 1.558753 2.68269 2.121253 2.12019 C 2.683753 1.55769 2.999378 0.79519 2.999378 0.00144 C 2.999378 -0.795435 2.683753 -1.557935 2.121253 -2.120435 C 1.558753 -2.682935 0.796253 -2.99856 -0.000622 -2.99856 C -0.794372 -2.99856 -1.559997 -2.682935 -2.122497 -2.120435 C -2.684997 -1.557935 -3.000622 -0.795435 -3.000622 0.00144 C -3.000622 0.79519 -2.684997 1.55769 -2.122497 2.12019 C -1.559997 2.68269 -0.794372 3.00144 -0.000622 3.00144 Z M -0.000622 3.00144 " transform="matrix(1.25,0,0,1.25,256.57109,47.6232)"/>
<path style="fill-rule:nonzero;fill:rgb(100%,49.803922%,5.490196%);fill-opacity:1;stroke-width:1;stroke-linecap:butt;stroke-linejoin:round;stroke:rgb(100%,49.803922%,5.490196%);stroke-opacity:1;stroke-miterlimit:4;" d="M 0.000103 3.000236 C 0.796978 3.000236 1.559478 2.684611 2.121978 2.122111 C 2.684478 1.559611 3.000103 0.797111 3.000103 0.000236 C 3.000103 -0.796639 2.684478 -1.559139 2.121978 -2.121639 C 1.559478 -2.684139 0.796978 -2.999764 0.000103 -2.999764 C -0.796772 -2.999764 -1.559272 -2.684139 -2.121772 -2.121639 C -2.684272 -1.559139 -2.999897 -0.796639 -2.999897 0.000236 C -2.999897 0.797111 -2.684272 1.559611 -2.121772 2.122111 C -1.559272 2.684611 -0.796772 3.000236 0.000103 3.000236 Z M 0.000103 3.000236 " transform="matrix(1.25,0,0,1.25,256.652215,52.042674)"/>
<path style="fill-rule:nonzero;fill:rgb(100%,49.803922%,5.490196%);fill-opacity:1;stroke-width:1;stroke-linecap:butt;stroke-linejoin:round;stroke:rgb(100%,49.803922%,5.490196%);stroke-opacity:1;stroke-miterlimit:4;" d="M 0.000653 2.999395 C 0.794403 2.999395 1.560028 2.68377 2.122528 2.12127 C 2.685028 1.55877 3.000653 0.79627 3.000653 -0.000605 C 3.000653 -0.794355 2.685028 -1.55998 2.122528 -2.12248 C 1.560028 -2.68498 0.794403 -3.000605 0.000653 -3.000605 C -0.796222 -3.000605 -1.558722 -2.68498 -2.121222 -2.12248 C -2.683722 -1.55998 -2.999347 -0.794355 -2.999347 -0.000605 C -2.999347 0.79627 -2.683722 1.55877 -2.121222 2.12127 C -1.558722 2.68377 -0.796222 2.999395 0.000653 2.999395 Z M 0.000653 2.999395 " transform="matrix(1.25,0,0,1.25,256.444496,48.211694)"/>
<path style="fill-rule:nonzero;fill:rgb(100%,49.803922%,5.490196%);fill-opacity:1;stroke-width:1;stroke-linecap:butt;stroke-linejoin:round;stroke:rgb(100%,49.803922%,5.490196%);stroke-opacity:1;stroke-miterlimit:4;" d="M -0.001529 2.998736 C 0.795346 2.998736 1.557846 2.683111 2.120346 2.120611 C 2.682846 1.558111 2.998471 0.795611 2.998471 -0.001264 C 2.998471 -0.795014 2.682846 -1.557514 2.120346 -2.120014 C 1.557846 -2.682514 0.795346 -3.001264 -0.001529 -3.001264 C -0.795279 -3.001264 -1.557779 -2.682514 -2.120279 -2.120014 C -2.682779 -1.557514 -3.001529 -0.795014 -3.001529 -0.001264 C -3.001529 0.795611 -2.682779 1.558111 -2.120279 2.120611 C -1.557779 2.683111 -0.795279 2.998736 -0.001529 2.998736 Z M -0.001529 2.998736 " transform="matrix(1.25,0,0,1.25,257.029255,45.435174)"/>
<path style="fill-rule:nonzero;fill:rgb(100%,49.803922%,5.490196%);fill-opacity:1;stroke-width:1;stroke-linecap:butt;stroke-linejoin:round;stroke:rgb(100%,49.803922%,5.490196%);stroke-opacity:1;stroke-miterlimit:4;" d="M -0.000303 2.999745 C 0.796572 2.999745 1.559072 2.68412 2.121572 2.12162 C 2.684072 1.55912 2.999697 0.79662 2.999697 -0.000255 C 2.999697 -0.79713 2.684072 -1.55963 2.121572 -2.12213 C 1.559072 -2.68463 0.796572 -3.000255 -0.000303 -3.000255 C -0.794053 -3.000255 -1.559678 -2.68463 -2.122178 -2.12213 C -2.684678 -1.55963 -3.000303 -0.79713 -3.000303 -0.000255 C -3.000303 0.79662 -2.684678 1.55912 -2.122178 2.12162 C -1.559678 2.68412 -0.794053 2.999745 -0.000303 2.999745 Z M -0.000303 2.999745 " transform="matrix(1.25,0,0,1.25,260.875379,47.472975)"/>
<path style="fill-rule:nonzero;fill:rgb(100%,49.803922%,5.490196%);fill-opacity:1;stroke-width:1;stroke-linecap:butt;stroke-linejoin:round;stroke:rgb(100%,49.803922%,5.490196%);stroke-opacity:1;stroke-miterlimit:4;" d="M -0.000102 3.000591 C 0.796773 3.000591 1.559273 2.684966 2.121773 2.122466 C 2.684273 1.559966 2.999898 0.794341 2.999898 0.000591 C 2.999898 -0.796284 2.684273 -1.558784 2.121773 -2.121284 C 1.559273 -2.683784 0.796773 -2.999409 -0.000102 -2.999409 C -0.796977 -2.999409 -1.559477 -2.683784 -2.121977 -2.121284 C -2.684477 -1.558784 -3.000102 -0.796284 -3.000102 0.000591 C -3.000102 0.794341 -2.684477 1.559966 -2.121977 2.122466 C -1.559477 2.684966 -0.796977 3.000591 -0.000102 3.000591 Z M -0.000102 3.000591 " transform="matrix(1.25,0,0,1.25,259.937627,48.987543)"/>
<path style="fill-rule:nonzero;fill:rgb(100%,49.803922%,5.490196%);fill-opacity:1;stroke-width:1;stroke-linecap:butt;stroke-linejoin:round;stroke:rgb(100%,49.803922%,5.490196%);stroke-opacity:1;stroke-miterlimit:4;" d="M 0.000831 2.999105 C 0.794581 2.999105 1.560206 2.68348 2.122706 2.12098 C 2.685206 1.55848 3.000831 0.79598 3.000831 -0.000895 C 3.000831 -0.794645 2.685206 -1.56027 2.122706 -2.12277 C 1.560206 -2.68527 0.794581 -3.000895 0.000831 -3.000895 C -0.796044 -3.000895 -1.558544 -2.68527 -2.121044 -2.12277 C -2.683544 -1.56027 -2.999169 -0.794645 -2.999169 -0.000895 C -2.999169 0.79598 -2.683544 1.55848 -2.121044 2.12098 C -1.558544 2.68348 -0.796044 2.999105 0.000831 2.999105 Z M 0.000831 2.999105 " transform="matrix(1.25,0,0,1.25,260.22943,48.172994)"/>
<path style="fill-rule:nonzero;fill:rgb(100%,49.803922%,5.490196%);fill-opacity:1;stroke-width:1;stroke-linecap:butt;stroke-linejoin:round;stroke:rgb(100%,49.803922%,5.490196%);stroke-opacity:1;stroke-miterlimit:4;" d="M 0.001242 2.998533 C 0.794992 2.998533 1.557492 2.682908 2.119992 2.120408 C 2.682492 1.557908 3.001242 0.795408 3.001242 -0.001467 C 3.001242 -0.795217 2.682492 -1.557717 2.119992 -2.120217 C 1.557492 -2.682717 0.794992 -3.001467 0.001242 -3.001467 C -0.795633 -3.001467 -1.558133 -2.682717 -2.120633 -2.120217 C -2.683133 -1.557717 -2.998758 -0.795217 -2.998758 -0.001467 C -2.998758 0.795408 -2.683133 1.557908 -2.120633 2.120408 C -1.558133 2.682908 -0.795633 2.998533 0.001242 2.998533 Z M 0.001242 2.998533 " transform="matrix(1.25,0,0,1.25,260.576572,48.84949)"/>
<path style="fill-rule:nonzero;fill:rgb(100%,49.803922%,5.490196%);fill-opacity:1;stroke-width:1;stroke-linecap:butt;stroke-linejoin:round;stroke:rgb(100%,49.803922%,5.490196%);stroke-opacity:1;stroke-miterlimit:4;" d="M -0.001276 3.000568 C 0.795599 3.000568 1.558099 2.684943 2.120599 2.122443 C 2.683099 1.559943 2.998724 0.794318 2.998724 0.000568 C 2.998724 -0.796307 2.683099 -1.558807 2.120599 -2.121307 C 1.558099 -2.683807 0.795599 -2.999432 -0.001276 -2.999432 C -0.795026 -2.999432 -1.557526 -2.683807 -2.120026 -2.121307 C -2.682526 -1.558807 -3.001276 -0.796307 -3.001276 0.000568 C -3.001276 0.794318 -2.682526 1.559943 -2.120026 2.122443 C -1.557526 2.684943 -0.795026 3.000568 -0.001276 3.000568 Z M -0.001276 3.000568 " transform="matrix(1.25,0,0,1.25,261.591439,47.604759)"/>
<path style="fill-rule:nonzero;fill:rgb(100%,49.803922%,5.490196%);fill-opacity:1;stroke-width:1;stroke-linecap:butt;stroke-linejoin:round;stroke:rgb(100%,49.803922%,5.490196%);stroke-opacity:1;stroke-miterlimit:4;" d="M 0.000061 2.998464 C 0.796936 2.998464 1.559436 2.682839 2.121936 2.120339 C 2.684436 1.557839 3.000061 0.795339 3.000061 -0.001536 C 3.000061 -0.795286 2.684436 -1.557786 2.121936 -2.120286 C 1.559436 -2.682786 0.796936 -3.001536 0.000061 -3.001536 C -0.796814 -3.001536 -1.559314 -2.682786 -2.121814 -2.120286 C -2.684314 -1.557786 -2.999939 -0.795286 -2.999939 -0.001536 C -2.999939 0.795339 -2.684314 1.557839 -2.121814 2.120339 C -1.559314 2.682839 -0.796814 2.998464 0.000061 2.998464 Z M 0.000061 2.998464 " transform="matrix(1.25,0,0,1.25,263.121017,47.923795)"/>
<path style="fill-rule:nonzero;fill:rgb(100%,49.803922%,5.490196%);fill-opacity:1;stroke-width:1;stroke-linecap:butt;stroke-linejoin:round;stroke:rgb(100%,49.803922%,5.490196%);stroke-opacity:1;stroke-miterlimit:4;" d="M 0.001363 2.999041 C 0.795113 2.999041 1.557613 2.683416 2.120113 2.120916 C 2.682613 1.558416 3.001363 0.795916 3.001363 -0.000959 C 3.001363 -0.794709 2.682613 -1.557209 2.120113 -2.122834 C 1.557613 -2.685334 0.795113 -3.000959 0.001363 -3.000959 C -0.795512 -3.000959 -1.558012 -2.685334 -2.120512 -2.122834 C -2.683012 -1.557209 -2.998637 -0.794709 -2.998637 -0.000959 C -2.998637 0.795916 -2.683012 1.558416 -2.120512 2.120916 C -1.558012 2.683416 -0.795512 2.999041 0.001363 2.999041 Z M 0.001363 2.999041 " transform="matrix(1.25,0,0,1.25,264.752202,46.688699)"/>
<path style="fill-rule:nonzero;fill:rgb(100%,49.803922%,5.490196%);fill-opacity:1;stroke-width:1;stroke-linecap:butt;stroke-linejoin:round;stroke:rgb(100%,49.803922%,5.490196%);stroke-opacity:1;stroke-miterlimit:4;" d="M -0.000932 2.999107 C 0.795943 2.999107 1.558443 2.683482 2.120943 2.120982 C 2.683443 1.558482 2.999068 0.795982 2.999068 -0.000893 C 2.999068 -0.794643 2.683443 -1.560268 2.120943 -2.122768 C 1.558443 -2.685268 0.795943 -3.000893 -0.000932 -3.000893 C -0.794682 -3.000893 -1.557182 -2.685268 -2.122807 -2.122768 C -2.685307 -1.560268 -3.000932 -0.794643 -3.000932 -0.000893 C -3.000932 0.795982 -2.685307 1.558482 -2.122807 2.120982 C -1.557182 2.683482 -0.794682 2.999107 -0.000932 2.999107 Z M -0.000932 2.999107 " transform="matrix(1.25,0,0,1.25,264.692571,44.797991)"/>
<path style="fill-rule:nonzero;fill:rgb(100%,49.803922%,5.490196%);fill-opacity:1;stroke-width:1;stroke-linecap:butt;stroke-linejoin:round;stroke:rgb(100%,49.803922%,5.490196%);stroke-opacity:1;stroke-miterlimit:4;" d="M 0.000063 2.999118 C 0.796938 2.999118 1.559438 2.683493 2.121938 2.120993 C 2.684438 1.558493 3.000063 0.795993 3.000063 -0.000882 C 3.000063 -0.794632 2.684438 -1.560257 2.121938 -2.122757 C 1.559438 -2.685257 0.796938 -3.000882 0.000063 -3.000882 C -0.796812 -3.000882 -1.559312 -2.685257 -2.121812 -2.122757 C -2.684312 -1.560257 -2.999937 -0.794632 -2.999937 -0.000882 C -2.999937 0.795993 -2.684312 1.558493 -2.121812 2.120993 C -1.559312 2.683493 -0.796812 2.999118 0.000063 2.999118 Z M 0.000063 2.999118 " transform="matrix(1.25,0,0,1.25,266.066327,43.141728)"/>
<path style="fill-rule:nonzero;fill:rgb(100%,49.803922%,5.490196%);fill-opacity:1;stroke-width:1;stroke-linecap:butt;stroke-linejoin:round;stroke:rgb(100%,49.803922%,5.490196%);stroke-opacity:1;stroke-miterlimit:4;" d="M -0.000258 3.000966 C 0.796617 3.000966 1.559117 2.685341 2.121617 2.122841 C 2.684117 1.557216 2.999742 0.794716 2.999742 0.000966 C 2.999742 -0.795909 2.684117 -1.558409 2.121617 -2.120909 C 1.559117 -2.683409 0.796617 -2.999034 -0.000258 -2.999034 C -0.797133 -2.999034 -1.559633 -2.683409 -2.122133 -2.120909 C -2.684633 -1.558409 -3.000258 -0.795909 -3.000258 0.000966 C -3.000258 0.794716 -2.684633 1.557216 -2.122133 2.122841 C -1.559633 2.685341 -0.797133 3.000966 -0.000258 3.000966 Z M -0.000258 3.000966 " transform="matrix(1.25,0,0,1.25,265.144854,43.006605)"/>
<path style="fill-rule:nonzero;fill:rgb(100%,49.803922%,5.490196%);fill-opacity:1;stroke-width:1;stroke-linecap:butt;stroke-linejoin:round;stroke:rgb(100%,49.803922%,5.490196%);stroke-opacity:1;stroke-miterlimit:4;" d="M -0.000669 3.000985 C 0.796206 3.000985 1.558706 2.68536 2.121206 2.12286 C 2.683706 1.557235 2.999331 0.794735 2.999331 0.000985 C 2.999331 -0.79589 2.683706 -1.55839 2.121206 -2.12089 C 1.558706 -2.68339 0.796206 -2.999015 -0.000669 -2.999015 C -0.794419 -2.999015 -1.560044 -2.68339 -2.122544 -2.12089 C -2.685044 -1.55839 -3.000669 -0.79589 -3.000669 0.000985 C -3.000669 0.794735 -2.685044 1.557235 -2.122544 2.12286 C -1.560044 2.68536 -0.794419 3.000985 -0.000669 3.000985 Z M -0.000669 3.000985 " transform="matrix(1.25,0,0,1.25,263.797711,42.182363)"/>
<path style="fill-rule:nonzero;fill:rgb(100%,49.803922%,5.490196%);fill-opacity:1;stroke-width:1;stroke-linecap:butt;stroke-linejoin:round;stroke:rgb(100%,49.803922%,5.490196%);stroke-opacity:1;stroke-miterlimit:4;" d="M 0.000025 3.000255 C 0.7969 3.000255 1.5594 2.68463 2.1219 2.12213 C 2.6844 1.55963 3.000025 0.79713 3.000025 0.000255 C 3.000025 -0.79662 2.6844 -1.55912 2.1219 -2.12162 C 1.5594 -2.68412 0.7969 -2.999745 0.000025 -2.999745 C -0.79685 -2.999745 -1.55935 -2.68412 -2.12185 -2.12162 C -2.68435 -1.55912 -2.999975 -0.79662 -2.999975 0.000255 C -2.999975 0.79713 -2.68435 1.55963 -2.12185 2.12213 C -1.55935 2.68463 -0.79685 3.000255 0.000025 3.000255 Z M 0.000025 3.000255 " transform="matrix(1.25,0,0,1.25,265.136687,41.972338)"/>
<path style="fill-rule:nonzero;fill:rgb(100%,49.803922%,5.490196%);fill-opacity:1;stroke-width:1;stroke-linecap:butt;stroke-linejoin:round;stroke:rgb(100%,49.803922%,5.490196%);stroke-opacity:1;stroke-miterlimit:4;" d="M 0.000314 2.99968 C 0.794064 2.99968 1.559689 2.684055 2.122189 2.121555 C 2.684689 1.559055 3.000314 0.796555 3.000314 -0.00032 C 3.000314 -0.79407 2.684689 -1.559695 2.122189 -2.122195 C 1.559689 -2.684695 0.794064 -3.00032 0.000314 -3.00032 C -0.796561 -3.00032 -1.559061 -2.684695 -2.121561 -2.122195 C -2.684061 -1.559695 -2.999686 -0.79407 -2.999686 -0.00032 C -2.999686 0.796555 -2.684061 1.559055 -2.121561 2.121555 C -1.559061 2.684055 -0.796561 2.99968 0.000314 2.99968 Z M 0.000314 2.99968 " transform="matrix(1.25,0,0,1.25,265.273045,43.961338)"/>
<path style="fill-rule:nonzero;fill:rgb(100%,49.803922%,5.490196%);fill-opacity:1;stroke-width:1;stroke-linecap:butt;stroke-linejoin:round;stroke:rgb(100%,49.803922%,5.490196%);stroke-opacity:1;stroke-miterlimit:4;" d="M -0.000126 2.998839 C 0.796749 2.998839 1.559249 2.683214 2.121749 2.120714 C 2.684249 1.558214 2.999874 0.795714 2.999874 -0.001161 C 2.999874 -0.794911 2.684249 -1.557411 2.121749 -2.119911 C 1.559249 -2.682411 0.796749 -3.001161 -0.000126 -3.001161 C -0.797001 -3.001161 -1.559501 -2.682411 -2.122001 -2.119911 C -2.684501 -1.557411 -3.000126 -0.794911 -3.000126 -0.001161 C -3.000126 0.795714 -2.684501 1.558214 -2.122001 2.120714 C -1.559501 2.683214 -0.797001 2.998839 -0.000126 2.998839 Z M -0.000126 2.998839 " transform="matrix(1.25,0,0,1.25,266.047032,43.13817)"/>
<path style="fill-rule:nonzero;fill:rgb(100%,49.803922%,5.490196%);fill-opacity:1;stroke-width:1;stroke-linecap:butt;stroke-linejoin:round;stroke:rgb(100%,49.803922%,5.490196%);stroke-opacity:1;stroke-miterlimit:4;" d="M -0.001003 3.001318 C 0.795872 3.001318 1.558372 2.682568 2.120872 2.120068 C 2.683372 1.557568 2.998997 0.795068 2.998997 0.001318 C 2.998997 -0.795557 2.683372 -1.558057 2.120872 -2.120557 C 1.558372 -2.683057 0.795872 -2.998682 -0.001003 -2.998682 C -0.794753 -2.998682 -1.557253 -2.683057 -2.122878 -2.120557 C -2.685378 -1.558057 -3.001003 -0.795557 -3.001003 0.001318 C -3.001003 0.795068 -2.685378 1.557568 -2.122878 2.120068 C -1.557253 2.682568 -0.794753 3.001318 -0.001003 3.001318 Z M -0.001003 3.001318 " transform="matrix(1.25,0,0,1.25,265.770785,46.072571)"/>
<path style="fill-rule:nonzero;fill:rgb(100%,49.803922%,5.490196%);fill-opacity:1;stroke-width:1;stroke-linecap:butt;stroke-linejoin:round;stroke:rgb(100%,49.803922%,5.490196%);stroke-opacity:1;stroke-miterlimit:4;" d="M -0.000512 2.999719 C 0.796363 2.999719 1.558863 2.684094 2.121363 2.121594 C 2.683863 1.559094 2.999488 0.796594 2.999488 -0.000281 C 2.999488 -0.797156 2.683863 -1.559656 2.121363 -2.122156 C 1.558863 -2.684656 0.796363 -3.000281 -0.000512 -3.000281 C -0.794262 -3.000281 -1.559887 -2.684656 -2.122387 -2.122156 C -2.684887 -1.559656 -3.000512 -0.797156 -3.000512 -0.000281 C -3.000512 0.796594 -2.684887 1.559094 -2.122387 2.121594 C -1.559887 2.684094 -0.794262 2.999719 -0.000512 2.999719 Z M -0.000512 2.999719 " transform="matrix(1.25,0,0,1.25,264.317046,44.176133)"/>
<path style="fill-rule:nonzero;fill:rgb(100%,49.803922%,5.490196%);fill-opacity:1;stroke-width:1;stroke-linecap:butt;stroke-linejoin:round;stroke:rgb(100%,49.803922%,5.490196%);stroke-opacity:1;stroke-miterlimit:4;" d="M -0.00004 3.001463 C 0.796835 3.001463 1.559335 2.682713 2.121835 2.120213 C 2.684335 1.557713 2.99996 0.795213 2.99996 0.001463 C 2.99996 -0.795412 2.684335 -1.557912 2.121835 -2.120412 C 1.559335 -2.682912 0.796835 -2.998537 -0.00004 -2.998537 C -0.796915 -2.998537 -1.559415 -2.682912 -2.121915 -2.120412 C -2.684415 -1.557912 -3.00004 -0.795412 -3.00004 0.001463 C -3.00004 0.795213 -2.684415 1.557713 -2.121915 2.120213 C -1.559415 2.682713 -0.796915 3.001463 -0.00004 3.001463 Z M -0.00004 3.001463 " transform="matrix(1.25,0,0,1.25,263.558644,46.22864)"/>
<path style="fill-rule:nonzero;fill:rgb(100%,49.803922%,5.490196%);fill-opacity:1;stroke-width:1;stroke-linecap:butt;stroke-linejoin:round;stroke:rgb(100%,49.803922%,5.490196%);stroke-opacity:1;stroke-miterlimit:4;" d="M -0.001121 2.998502 C 0.795754 2.998502 1.558254 2.682877 2.120754 2.120377 C 2.683254 1.557877 2.998879 0.795377 2.998879 -0.001498 C 2.998879 -0.795248 2.683254 -1.557748 2.120754 -2.120248 C 1.558254 -2.682748 0.795754 -3.001498 -0.001121 -3.001498 C -0.794871 -3.001498 -1.557371 -2.682748 -2.119871 -2.120248 C -2.682371 -1.557748 -3.001121 -0.795248 -3.001121 -0.001498 C -3.001121 0.795377 -2.682371 1.557877 -2.119871 2.120377 C -1.557371 2.682877 -0.794871 2.998502 -0.001121 2.998502 Z M -0.001121 2.998502 " transform="matrix(1.25,0,0,1.25,266.282651,47.642498)"/>
<g clip-path="url(#clip1)" clip-rule="nonzero">
<path style="fill:none;stroke-width:1.5;stroke-linecap:butt;stroke-linejoin:round;stroke:rgb(12.156863%,46.666667%,70.588235%);stroke-opacity:1;stroke-miterlimit:4;" d="M 133.390625 7.2 L 131.35625 10.684375 L 131.115625 11.15 L 129.61875 14.16875 L 128.121875 17.653125 L 128.065625 17.8125 L 126.9 21.1375 L 125.9 24.621875 L 125.125 28.10625 L 125.0125 28.803125 L 124.584375 31.59375 L 124.2625 35.078125 L 124.15625 38.5625 L 124.2625 42.046875 L 124.584375 45.53125 L 125.0125 48.31875 L 125.125 49.015625 L 125.9 52.5 L 126.9 55.984375 L 128.065625 59.309375 L 128.121875 59.46875 L 129.61875 62.953125 L 131.115625 65.975 L 131.35625 66.4375 L 133.390625 69.921875 L 134.16875 71.115625 L 135.725 73.40625 L 137.21875 75.4 L 138.3875 76.89375 L 140.271875 79.090625 L 141.421875 80.378125 L 143.321875 82.328125 L 144.884375 83.8625 L 146.375 85.215625 L 148.828125 87.346875 L 149.425 87.828125 L 152.478125 90.16875 L 153.384375 90.83125 L 155.528125 92.290625 L 158.58125 94.259375 L 158.671875 94.315625 L 161.63125 96.00625 L 164.684375 97.640625 L 165 97.8 L 167.734375 99.09375 L 170.7875 100.4375 L 172.8625 101.284375 L 173.8375 101.6625 L 176.8875 102.74375 L 179.940625 103.734375 L 182.99375 104.628125 L 183.53125 104.76875 L 186.04375 105.39375 L 189.096875 106.065625 L 192.146875 106.646875 L 195.2 107.1375 L 198.25 107.5375 L 201.303125 107.853125 L 204.353125 108.075 L 207.40625 108.209375 L 210.45625 108.253125 L 213.509375 108.209375 L 216.559375 108.075 L 219.6125 107.853125 L 222.6625 107.5375 L 225.715625 107.1375 L 228.765625 106.646875 L 231.81875 106.065625 L 234.86875 105.39375 L 237.38125 104.76875 L 237.921875 104.628125 " transform="matrix(1.25,0,0,1.25,0,0.000000000000014211)"/>
</g>
<g clip-path="url(#clip2)" clip-rule="nonzero">
<path style="fill:none;stroke-width:1.5;stroke-linecap:butt;stroke-linejoin:round;stroke:rgb(12.156863%,46.666667%,70.588235%);stroke-opacity:1;stroke-miterlimit:4;" d="M 94.740625 7.2 L 94.496875 7.815625 L 93.3875 10.684375 L 92.196875 14.16875 L 91.44375 16.715625 L 91.175 17.653125 L 90.325 21.1375 L 89.63125 24.621875 L 89.0875 28.10625 L 88.703125 31.59375 L 88.471875 35.078125 L 88.39375 38.5625 L 88.471875 42.046875 L 88.703125 45.53125 L 89.0875 49.015625 L 89.63125 52.5 L 90.325 55.984375 L 91.175 59.46875 L 91.44375 60.40625 L 92.196875 62.953125 L 93.3875 66.4375 L 94.496875 69.309375 L 94.740625 69.921875 L 96.2875 73.40625 L 97.546875 75.978125 L 98.009375 76.89375 L 99.93125 80.378125 L 100.6 81.490625 L 102.0625 83.8625 L 103.653125 86.25 L 104.403125 87.346875 L 106.703125 90.46875 L 106.975 90.83125 L 109.753125 94.259375 L 109.803125 94.315625 L 112.80625 97.69375 L 112.903125 97.8 L 115.859375 100.8375 L 116.309375 101.284375 L 118.909375 103.734375 L 120.046875 104.76875 L 121.9625 106.421875 L 124.15625 108.253125 L 125.0125 108.934375 L 128.065625 111.271875 L 128.696875 111.7375 L 131.115625 113.440625 L 133.746875 115.221875 L 134.16875 115.49375 L 137.21875 117.390625 L 139.425 118.70625 L 140.271875 119.190625 L 143.321875 120.85625 L 145.878125 122.19375 L 146.375 122.440625 L 149.425 123.9 L 152.478125 125.284375 L 153.384375 125.678125 L 155.528125 126.565625 L 158.58125 127.759375 L 161.63125 128.8875 L 162.41875 129.1625 L 164.684375 129.91875 L 167.734375 130.871875 L 170.7875 131.759375 L 173.8375 132.58125 L 174.103125 132.646875 L 176.8875 133.3125 L 179.940625 133.978125 L 182.99375 134.578125 L 186.04375 135.115625 L 189.096875 135.59375 L 192.146875 136.003125 L 193.25625 136.13125 L 195.2 136.34375 L 198.25 136.61875 L 201.303125 136.834375 L 204.353125 136.9875 L 207.40625 137.078125 L 210.45625 137.109375 L 213.509375 137.078125 L 216.559375 136.9875 L 219.6125 136.834375 L 222.6625 136.61875 L 225.715625 136.34375 L 227.65625 136.13125 L 228.765625 136.003125 L 231.81875 135.59375 L 234.86875 135.115625 L 237.921875 134.578125 " transform="matrix(1.25,0,0,1.25,0,0.000000000000014211)"/>
</g>
<g clip-path="url(#clip3)" clip-rule="nonzero">
<path style="fill:none;stroke-width:1.5;stroke-linecap:butt;stroke-linejoin:round;stroke:rgb(12.156863%,46.666667%,70.588235%);stroke-opacity:1;stroke-miterlimit:4;" d="M 66.1 7.2 L 65.009375 10.684375 L 64.046875 14.16875 L 63.98125 14.4375 L 63.225 17.653125 L 62.534375 21.1375 L 61.96875 24.621875 L 61.528125 28.10625 L 61.2125 31.59375 L 61.025 35.078125 L 60.9625 38.5625 L 61.025 42.046875 L 61.2125 45.53125 L 61.528125 49.015625 L 61.96875 52.5 L 62.534375 55.984375 L 63.225 59.46875 L 63.98125 62.684375 L 64.046875 62.953125 L 65.009375 66.4375 L 66.1 69.921875 L 67.034375 72.58125 L 67.328125 73.40625 L 68.70625 76.89375 L 70.084375 80.075 L 70.21875 80.378125 L 71.89375 83.8625 L 73.1375 86.25 L 73.71875 87.346875 L 75.70625 90.83125 L 76.1875 91.61875 L 77.871875 94.315625 L 79.240625 96.375 L 80.209375 97.8 L 82.290625 100.6875 L 82.73125 101.284375 L 85.34375 104.628125 L 85.45625 104.76875 L 88.39375 108.253125 L 91.44375 111.6125 L 91.565625 111.7375 L 94.496875 114.7375 L 94.984375 115.221875 L 97.546875 117.6625 L 98.678125 118.70625 L 100.6 120.4125 L 102.6625 122.19375 L 103.653125 123.009375 L 106.703125 125.4625 L 106.975 125.678125 L 109.753125 127.759375 L 111.678125 129.1625 L 112.80625 129.95 L 115.859375 132.021875 L 116.809375 132.646875 L 118.909375 133.978125 L 121.9625 135.846875 L 122.44375 136.13125 L 125.0125 137.596875 L 128.065625 139.278125 L 128.696875 139.615625 L 131.115625 140.85625 L 134.16875 142.3625 L 135.725 143.1 " transform="matrix(1.25,0,0,1.25,0,0.000000000000014211)"/>
</g>
<g clip-path="url(#clip4)" clip-rule="nonzero">
<path style="fill:none;stroke-width:1.5;stroke-linecap:butt;stroke-linejoin:round;stroke:rgb(12.156863%,46.666667%,70.588235%);stroke-opacity:1;stroke-miterlimit:4;" d="M 42.61875 71.115625 L 43.31875 73.40625 L 44.496875 76.89375 L 45.671875 80.075 L 45.7875 80.378125 L 47.2125 83.8625 L 48.721875 87.28125 L 48.753125 87.346875 L 50.4375 90.83125 L 51.775 93.415625 L 52.25 94.315625 L 54.203125 97.8 L 54.828125 98.846875 L 56.30625 101.284375 L 57.878125 103.734375 L 58.55625 104.76875 L 60.928125 108.209375 L 60.9625 108.253125 L 63.540625 111.7375 L 63.98125 112.30625 L 66.29375 115.221875 L 67.034375 116.1125 L 69.23125 118.70625 L 70.084375 119.671875 L 72.365625 122.19375 L 73.1375 123.009375 L 75.70625 125.678125 L 76.1875 126.15625 L 79.240625 129.128125 L 79.275 129.1625 L 82.290625 131.921875 L 83.1 132.646875 L 85.34375 134.578125 L 87.1875 136.13125 L 88.39375 137.109375 L 91.44375 139.525 L 91.565625 139.615625 L 94.496875 141.8 L 96.2875 143.1 " transform="matrix(1.25,0,0,1.25,0,0.000000000000014211)"/>
</g>
<g clip-path="url(#clip5)" clip-rule="nonzero">
<path style="fill:none;stroke-width:1.5;stroke-linecap:butt;stroke-linejoin:round;stroke:rgb(12.156863%,46.666667%,70.588235%);stroke-opacity:1;stroke-miterlimit:4;" d="M 42.61875 115.49375 L 44.94375 118.70625 L 45.671875 119.671875 L 47.6125 122.19375 L 48.721875 123.578125 L 50.4375 125.678125 L 51.775 127.246875 L 53.434375 129.1625 L 54.828125 130.70625 L 56.609375 132.646875 L 57.878125 133.978125 L 59.975 136.13125 L 60.928125 137.078125 L 63.540625 139.615625 L 63.98125 140.028125 L 67.034375 142.834375 L 67.328125 143.1 " transform="matrix(1.25,0,0,1.25,0,0.000000000000014211)"/>
</g>
<g clip-path="url(#clip6)" clip-rule="nonzero">
<path style="fill:none;stroke-width:1.5;stroke-linecap:butt;stroke-linejoin:round;stroke:rgb(12.156863%,46.666667%,70.588235%);stroke-opacity:1;stroke-miterlimit:4;" d="M 42.61875 142.3625 L 43.31875 143.1 " transform="matrix(1.25,0,0,1.25,0,0.000000000000014211)"/>
</g>
<path style="fill:none;stroke-width:0.8;stroke-linecap:square;stroke-linejoin:miter;stroke:rgb(0%,0%,0%);stroke-opacity:1;stroke-miterlimit:4;" d="M 42.61875 143.1 L 42.61875 7.2 " transform="matrix(1.25,0,0,1.25,0,0.000000000000014211)"/>
<path style="fill:none;stroke-width:0.8;stroke-linecap:square;stroke-linejoin:miter;stroke:rgb(0%,0%,0%);stroke-opacity:1;stroke-miterlimit:4;" d="M 237.921875 143.1 L 237.921875 7.2 " transform="matrix(1.25,0,0,1.25,0,0.000000000000014211)"/>
<path style="fill:none;stroke-width:0.8;stroke-linecap:square;stroke-linejoin:miter;stroke:rgb(0%,0%,0%);stroke-opacity:1;stroke-miterlimit:4;" d="M 42.61875 143.1 L 237.921875 143.1 " transform="matrix(1.25,0,0,1.25,0,0.000000000000014211)"/>
<path style="fill:none;stroke-width:0.8;stroke-linecap:square;stroke-linejoin:miter;stroke:rgb(0%,0%,0%);stroke-opacity:1;stroke-miterlimit:4;" d="M 42.61875 7.2 L 237.921875 7.2 " transform="matrix(1.25,0,0,1.25,0,0.000000000000014211)"/>
</g>
</svg>
