<?xml version="1.0" encoding="UTF-8"?>
<svg xmlns="http://www.w3.org/2000/svg" xmlns:xlink="http://www.w3.org/1999/xlink" width="306pt" height="226pt" viewBox="0 0 306 226" version="1.1">
<defs>
<clipPath id="clip1">
  <path d="M 63 9 L 66 9 L 66 178.875 L 63 178.875 Z M 63 9 "/>
</clipPath>
<clipPath id="clip2">
  <path d="M 119 9 L 121 9 L 121 178.875 L 119 178.875 Z M 119 9 "/>
</clipPath>
<clipPath id="clip3">
  <path d="M 174 9 L 177 9 L 177 178.875 L 174 178.875 Z M 174 9 "/>
</clipPath>
<clipPath id="clip4">
  <path d="M 230 9 L 232 9 L 232 178.875 L 230 178.875 Z M 230 9 "/>
</clipPath>
<clipPath id="clip5">
  <path d="M 285 9 L 288 9 L 288 178.875 L 285 178.875 Z M 285 9 "/>
</clipPath>
<clipPath id="clip6">
  <path d="M 53.273438 148 L 297.398438 148 L 297.398438 150 L 53.273438 150 Z M 53.273438 148 "/>
</clipPath>
<clipPath id="clip7">
  <path d="M 53.273438 93 L 297.398438 93 L 297.398438 95 L 53.273438 95 Z M 53.273438 93 "/>
</clipPath>
<clipPath id="clip8">
  <path d="M 53.273438 37 L 297.398438 37 L 297.398438 40 L 53.273438 40 Z M 53.273438 37 "/>
</clipPath>
</defs>
<g id="surface1">
<path style=" stroke:none;fill-rule:nonzero;fill:rgb(100%,100%,100%);fill-opacity:1;" d="M 53.273438 178.875 L 297.402344 178.875 L 297.402344 9 L 53.273438 9 Z M 53.273438 178.875 "/>
<g clip-path="url(#clip1)" clip-rule="nonzero">
<path style="fill:none;stroke-width:0.8;stroke-linecap:square;stroke-linejoin:round;stroke:rgb(69.019608%,69.019608%,69.019608%);stroke-opacity:1;stroke-miterlimit:4;" d="M 51.496875 143.1 L 51.496875 7.2 " transform="matrix(1.25,0,0,1.25,0,0.000000000000014211)"/>
</g>
<path style="fill:none;stroke-width:0.8;stroke-linecap:butt;stroke-linejoin:round;stroke:rgb(0%,0%,0%);stroke-opacity:1;stroke-miterlimit:4;" d="M -0.00071 0 L -0.00071 3.5 " transform="matrix(1.25,0,0,1.25,64.371981,178.875)"/>
<path style=" stroke:none;fill-rule:nonzero;fill:rgb(0%,0%,0%);fill-opacity:1;" d="M 52.503906 192.6875 L 60.328125 192.6875 L 60.328125 193.722656 L 52.503906 193.722656 Z M 52.503906 192.6875 "/>
<path style=" stroke:none;fill-rule:nonzero;fill:rgb(0%,0%,0%);fill-opacity:1;" d="M 63.207031 196.085938 L 65.21875 196.085938 L 65.21875 189.132812 L 63.027344 189.574219 L 63.027344 188.449219 L 65.207031 188.011719 L 66.441406 188.011719 L 66.441406 196.085938 L 68.453125 196.085938 L 68.453125 197.125 L 63.207031 197.125 Z M 63.207031 196.085938 "/>
<path style=" stroke:none;fill-rule:nonzero;fill:rgb(0%,0%,0%);fill-opacity:1;" d="M 73.582031 188.824219 C 72.945312 188.824219 72.46875 189.136719 72.148438 189.761719 C 71.828125 190.382812 71.671875 191.324219 71.671875 192.578125 C 71.671875 193.824219 71.828125 194.761719 72.148438 195.386719 C 72.46875 196.011719 72.945312 196.324219 73.582031 196.324219 C 74.21875 196.324219 74.699219 196.011719 75.019531 195.386719 C 75.339844 194.761719 75.5 193.824219 75.5 192.578125 C 75.5 191.324219 75.339844 190.382812 75.019531 189.761719 C 74.699219 189.136719 74.21875 188.824219 73.582031 188.824219 Z M 73.582031 187.847656 C 74.601562 187.847656 75.382812 188.25 75.921875 189.058594 C 76.460938 189.867188 76.730469 191.039062 76.730469 192.578125 C 76.730469 194.109375 76.460938 195.28125 75.921875 196.089844 C 75.382812 196.898438 74.601562 197.300781 73.582031 197.300781 C 72.558594 197.300781 71.78125 196.898438 71.242188 196.089844 C 70.703125 195.28125 70.433594 194.109375 70.433594 192.578125 C 70.433594 191.039062 70.703125 189.867188 71.242188 189.058594 C 71.78125 188.25 72.558594 187.847656 73.582031 187.847656 Z M 73.582031 187.847656 "/>
<g clip-path="url(#clip2)" clip-rule="nonzero">
<path style="fill:none;stroke-width:0.8;stroke-linecap:square;stroke-linejoin:round;stroke:rgb(69.019608%,69.019608%,69.019608%);stroke-opacity:1;stroke-miterlimit:4;" d="M 95.884375 143.1 L 95.884375 7.2 " transform="matrix(1.25,0,0,1.25,0,0.000000000000014211)"/>
</g>
<path style="fill:none;stroke-width:0.8;stroke-linecap:butt;stroke-linejoin:round;stroke:rgb(0%,0%,0%);stroke-opacity:1;stroke-miterlimit:4;" d="M 0.000426 0 L 0.000426 3.5 " transform="matrix(1.25,0,0,1.25,119.854936,178.875)"/>
<path style=" stroke:none;fill-rule:nonzero;fill:rgb(0%,0%,0%);fill-opacity:1;" d="M 111.964844 192.6875 L 119.789062 192.6875 L 119.789062 193.722656 L 111.964844 193.722656 Z M 111.964844 192.6875 "/>
<path style=" stroke:none;fill-rule:nonzero;fill:rgb(0%,0%,0%);fill-opacity:1;" d="M 122.464844 188.011719 L 127.304688 188.011719 L 127.304688 189.050781 L 123.59375 189.050781 L 123.59375 191.28125 C 123.773438 191.21875 123.949219 191.175781 124.128906 191.144531 C 124.308594 191.113281 124.488281 191.101562 124.667969 191.101562 C 125.683594 191.101562 126.488281 191.378906 127.082031 191.9375 C 127.679688 192.492188 127.976562 193.246094 127.976562 194.199219 C 127.976562 195.179688 127.671875 195.941406 127.058594 196.488281 C 126.449219 197.03125 125.589844 197.300781 124.476562 197.300781 C 124.09375 197.300781 123.707031 197.269531 123.308594 197.203125 C 122.914062 197.136719 122.503906 197.039062 122.078125 196.910156 L 122.078125 195.671875 C 122.445312 195.871094 122.824219 196.019531 123.214844 196.117188 C 123.605469 196.214844 124.019531 196.261719 124.453125 196.261719 C 125.15625 196.261719 125.714844 196.078125 126.125 195.707031 C 126.535156 195.335938 126.742188 194.835938 126.742188 194.199219 C 126.742188 193.566406 126.535156 193.0625 126.125 192.695312 C 125.714844 192.324219 125.15625 192.136719 124.453125 192.136719 C 124.125 192.136719 123.792969 192.171875 123.464844 192.246094 C 123.140625 192.320312 122.804688 192.433594 122.464844 192.589844 Z M 122.464844 188.011719 "/>
<g clip-path="url(#clip3)" clip-rule="nonzero">
<path style="fill:none;stroke-width:0.8;stroke-linecap:square;stroke-linejoin:round;stroke:rgb(69.019608%,69.019608%,69.019608%);stroke-opacity:1;stroke-miterlimit:4;" d="M 140.26875 143.1 L 140.26875 7.2 " transform="matrix(1.25,0,0,1.25,0,0.000000000000014211)"/>
</g>
<path style="fill:none;stroke-width:0.8;stroke-linecap:butt;stroke-linejoin:round;stroke:rgb(0%,0%,0%);stroke-opacity:1;stroke-miterlimit:4;" d="M -0.001562 0 L -0.001562 3.5 " transform="matrix(1.25,0,0,1.25,175.33789,178.875)"/>
<path style=" stroke:none;fill-rule:nonzero;fill:rgb(0%,0%,0%);fill-opacity:1;" d="M 175.332031 188.824219 C 174.699219 188.824219 174.222656 189.136719 173.902344 189.761719 C 173.582031 190.382812 173.421875 191.324219 173.421875 192.578125 C 173.421875 193.824219 173.582031 194.761719 173.902344 195.386719 C 174.222656 196.011719 174.699219 196.324219 175.332031 196.324219 C 175.972656 196.324219 176.453125 196.011719 176.769531 195.386719 C 177.089844 194.761719 177.25 193.824219 177.25 192.578125 C 177.25 191.324219 177.089844 190.382812 176.769531 189.761719 C 176.453125 189.136719 175.972656 188.824219 175.332031 188.824219 Z M 175.332031 187.847656 C 176.355469 187.847656 177.136719 188.25 177.675781 189.058594 C 178.214844 189.867188 178.484375 191.039062 178.484375 192.578125 C 178.484375 194.109375 178.214844 195.28125 177.675781 196.089844 C 177.136719 196.898438 176.355469 197.300781 175.332031 197.300781 C 174.3125 197.300781 173.53125 196.898438 172.992188 196.089844 C 172.453125 195.28125 172.183594 194.109375 172.183594 192.578125 C 172.183594 191.039062 172.453125 189.867188 172.992188 189.058594 C 173.53125 188.25 174.3125 187.847656 175.332031 187.847656 Z M 175.332031 187.847656 "/>
<g clip-path="url(#clip4)" clip-rule="nonzero">
<path style="fill:none;stroke-width:0.8;stroke-linecap:square;stroke-linejoin:round;stroke:rgb(69.019608%,69.019608%,69.019608%);stroke-opacity:1;stroke-miterlimit:4;" d="M 184.65625 143.1 L 184.65625 7.2 " transform="matrix(1.25,0,0,1.25,0,0.000000000000014211)"/>
</g>
<path style="fill:none;stroke-width:0.8;stroke-linecap:butt;stroke-linejoin:round;stroke:rgb(0%,0%,0%);stroke-opacity:1;stroke-miterlimit:4;" d="M -0.000426 0 L -0.000426 3.5 " transform="matrix(1.25,0,0,1.25,230.820845,178.875)"/>
<path style=" stroke:none;fill-rule:nonzero;fill:rgb(0%,0%,0%);fill-opacity:1;" d="M 228.195312 188.011719 L 233.035156 188.011719 L 233.035156 189.050781 L 229.324219 189.050781 L 229.324219 191.28125 C 229.5 191.21875 229.679688 191.175781 229.859375 191.144531 C 230.039062 191.113281 230.21875 191.101562 230.398438 191.101562 C 231.414062 191.101562 232.21875 191.378906 232.8125 191.9375 C 233.40625 192.492188 233.707031 193.246094 233.707031 194.199219 C 233.707031 195.179688 233.398438 195.941406 232.789062 196.488281 C 232.179688 197.03125 231.316406 197.300781 230.207031 197.300781 C 229.824219 197.300781 229.433594 197.269531 229.039062 197.203125 C 228.640625 197.136719 228.230469 197.039062 227.808594 196.910156 L 227.808594 195.671875 C 228.175781 195.871094 228.554688 196.019531 228.945312 196.117188 C 229.335938 196.214844 229.746094 196.261719 230.183594 196.261719 C 230.886719 196.261719 231.445312 196.078125 231.855469 195.707031 C 232.265625 195.335938 232.472656 194.835938 232.472656 194.199219 C 232.472656 193.566406 232.265625 193.0625 231.855469 192.695312 C 231.445312 192.324219 230.886719 192.136719 230.183594 192.136719 C 229.851562 192.136719 229.523438 192.171875 229.195312 192.246094 C 228.867188 192.320312 228.535156 192.433594 228.195312 192.589844 Z M 228.195312 188.011719 "/>
<g clip-path="url(#clip5)" clip-rule="nonzero">
<path style="fill:none;stroke-width:0.8;stroke-linecap:square;stroke-linejoin:round;stroke:rgb(69.019608%,69.019608%,69.019608%);stroke-opacity:1;stroke-miterlimit:4;" d="M 229.04375 143.1 L 229.04375 7.2 " transform="matrix(1.25,0,0,1.25,0,0.000000000000014211)"/>
</g>
<path style="fill:none;stroke-width:0.8;stroke-linecap:butt;stroke-linejoin:round;stroke:rgb(0%,0%,0%);stroke-opacity:1;stroke-miterlimit:4;" d="M 0.00071 0 L 0.00071 3.5 " transform="matrix(1.25,0,0,1.25,286.3038,178.875)"/>
<path style=" stroke:none;fill-rule:nonzero;fill:rgb(0%,0%,0%);fill-opacity:1;" d="M 279.902344 196.085938 L 281.914062 196.085938 L 281.914062 189.132812 L 279.722656 189.574219 L 279.722656 188.449219 L 281.902344 188.011719 L 283.136719 188.011719 L 283.136719 196.085938 L 285.148438 196.085938 L 285.148438 197.125 L 279.902344 197.125 Z M 279.902344 196.085938 "/>
<path style=" stroke:none;fill-rule:nonzero;fill:rgb(0%,0%,0%);fill-opacity:1;" d="M 290.277344 188.824219 C 289.640625 188.824219 289.164062 189.136719 288.84375 189.761719 C 288.527344 190.382812 288.367188 191.324219 288.367188 192.578125 C 288.367188 193.824219 288.527344 194.761719 288.84375 195.386719 C 289.164062 196.011719 289.640625 196.324219 290.277344 196.324219 C 290.914062 196.324219 291.394531 196.011719 291.714844 195.386719 C 292.035156 194.761719 292.195312 193.824219 292.195312 192.578125 C 292.195312 191.324219 292.035156 190.382812 291.714844 189.761719 C 291.394531 189.136719 290.914062 188.824219 290.277344 188.824219 Z M 290.277344 187.847656 C 291.296875 187.847656 292.078125 188.25 292.617188 189.058594 C 293.15625 189.867188 293.425781 191.039062 293.425781 192.578125 C 293.425781 194.109375 293.15625 195.28125 292.617188 196.089844 C 292.078125 196.898438 291.296875 197.300781 290.277344 197.300781 C 289.253906 197.300781 288.476562 196.898438 287.9375 196.089844 C 287.398438 195.28125 287.128906 194.109375 287.128906 192.578125 C 287.128906 191.039062 287.398438 189.867188 287.9375 189.058594 C 288.476562 188.25 289.253906 187.847656 290.277344 187.847656 Z M 290.277344 187.847656 "/>
<path style=" stroke:none;fill-rule:nonzero;fill:rgb(0%,0%,0%);fill-opacity:1;" d="M 178.5 207.386719 L 176.027344 210.710938 L 178.625 214.222656 L 177.300781 214.222656 L 175.3125 211.535156 L 173.324219 214.222656 L 171.996094 214.222656 L 174.652344 210.644531 L 172.222656 207.386719 L 173.546875 207.386719 L 175.359375 209.820312 L 177.171875 207.386719 Z M 178.5 207.386719 "/>
<g clip-path="url(#clip6)" clip-rule="nonzero">
<path style="fill:none;stroke-width:0.8;stroke-linecap:square;stroke-linejoin:round;stroke:rgb(69.019608%,69.019608%,69.019608%);stroke-opacity:1;stroke-miterlimit:4;" d="M 42.61875 119.4125 L 237.921875 119.4125 " transform="matrix(1.25,0,0,1.25,0,0.000000000000014211)"/>
</g>
<path style="fill:none;stroke-width:0.8;stroke-linecap:butt;stroke-linejoin:round;stroke:rgb(0%,0%,0%);stroke-opacity:1;stroke-miterlimit:4;" d="M -0.001562 0.000903 L -3.501562 0.000903 " transform="matrix(1.25,0,0,1.25,53.27539,149.264496)"/>
<path style=" stroke:none;fill-rule:nonzero;fill:rgb(0%,0%,0%);fill-opacity:1;" d="M 27.421875 149.574219 L 35.246094 149.574219 L 35.246094 150.613281 L 27.421875 150.613281 Z M 27.421875 149.574219 "/>
<path style=" stroke:none;fill-rule:nonzero;fill:rgb(0%,0%,0%);fill-opacity:1;" d="M 37.921875 144.898438 L 42.761719 144.898438 L 42.761719 145.9375 L 39.050781 145.9375 L 39.050781 148.171875 C 39.226562 148.109375 39.40625 148.066406 39.585938 148.035156 C 39.765625 148.003906 39.945312 147.988281 40.125 147.988281 C 41.140625 147.988281 41.945312 148.269531 42.539062 148.824219 C 43.136719 149.382812 43.433594 150.136719 43.433594 151.089844 C 43.433594 152.070312 43.128906 152.832031 42.515625 153.375 C 41.90625 153.917969 41.046875 154.191406 39.933594 154.191406 C 39.550781 154.191406 39.160156 154.160156 38.765625 154.09375 C 38.367188 154.027344 37.960938 153.929688 37.535156 153.800781 L 37.535156 152.558594 C 37.902344 152.757812 38.28125 152.90625 38.671875 153.003906 C 39.0625 153.101562 39.472656 153.152344 39.910156 153.152344 C 40.613281 153.152344 41.171875 152.96875 41.582031 152.597656 C 41.992188 152.226562 42.199219 151.726562 42.199219 151.089844 C 42.199219 150.457031 41.992188 149.953125 41.582031 149.582031 C 41.171875 149.210938 40.613281 149.027344 39.910156 149.027344 C 39.578125 149.027344 39.25 149.0625 38.921875 149.136719 C 38.597656 149.210938 38.261719 149.324219 37.921875 149.476562 Z M 37.921875 144.898438 "/>
<g clip-path="url(#clip7)" clip-rule="nonzero">
<path style="fill:none;stroke-width:0.8;stroke-linecap:square;stroke-linejoin:round;stroke:rgb(69.019608%,69.019608%,69.019608%);stroke-opacity:1;stroke-miterlimit:4;" d="M 42.61875 75.15 L 237.921875 75.15 " transform="matrix(1.25,0,0,1.25,0,0.000000000000014211)"/>
</g>
<path style="fill:none;stroke-width:0.8;stroke-linecap:butt;stroke-linejoin:round;stroke:rgb(0%,0%,0%);stroke-opacity:1;stroke-miterlimit:4;" d="M -0.001562 0 L -3.501562 0 " transform="matrix(1.25,0,0,1.25,53.27539,93.9375)"/>
<path style=" stroke:none;fill-rule:nonzero;fill:rgb(0%,0%,0%);fill-opacity:1;" d="M 40.542969 90.386719 C 39.910156 90.386719 39.433594 90.699219 39.113281 91.324219 C 38.792969 91.945312 38.632812 92.886719 38.632812 94.140625 C 38.632812 95.386719 38.792969 96.324219 39.113281 96.949219 C 39.433594 97.574219 39.910156 97.886719 40.542969 97.886719 C 41.183594 97.886719 41.664062 97.574219 41.980469 96.949219 C 42.300781 96.324219 42.460938 95.386719 42.460938 94.140625 C 42.460938 92.886719 42.300781 91.945312 41.980469 91.324219 C 41.664062 90.699219 41.183594 90.386719 40.542969 90.386719 Z M 40.542969 89.410156 C 41.566406 89.410156 42.347656 89.8125 42.886719 90.621094 C 43.425781 91.429688 43.695312 92.601562 43.695312 94.140625 C 43.695312 95.671875 43.425781 96.84375 42.886719 97.652344 C 42.347656 98.460938 41.566406 98.863281 40.542969 98.863281 C 39.523438 98.863281 38.742188 98.460938 38.203125 97.652344 C 37.664062 96.84375 37.394531 95.671875 37.394531 94.140625 C 37.394531 92.601562 37.664062 91.429688 38.203125 90.621094 C 38.742188 89.8125 39.523438 89.410156 40.542969 89.410156 Z M 40.542969 89.410156 "/>
<g clip-path="url(#clip8)" clip-rule="nonzero">
<path style="fill:none;stroke-width:0.8;stroke-linecap:square;stroke-linejoin:round;stroke:rgb(69.019608%,69.019608%,69.019608%);stroke-opacity:1;stroke-miterlimit:4;" d="M 42.61875 30.8875 L 237.921875 30.8875 " transform="matrix(1.25,0,0,1.25,0,0.000000000000014211)"/>
</g>
<path style="fill:none;stroke-width:0.8;stroke-linecap:butt;stroke-linejoin:round;stroke:rgb(0%,0%,0%);stroke-opacity:1;stroke-miterlimit:4;" d="M -0.001562 -0.000903 L -3.501562 -0.000903 " transform="matrix(1.25,0,0,1.25,53.27539,38.610504)"/>
<path style=" stroke:none;fill-rule:nonzero;fill:rgb(0%,0%,0%);fill-opacity:1;" d="M 37.921875 34.246094 L 42.761719 34.246094 L 42.761719 35.285156 L 39.050781 35.285156 L 39.050781 37.519531 C 39.230469 37.457031 39.40625 37.410156 39.585938 37.382812 C 39.765625 37.351562 39.945312 37.335938 40.125 37.335938 C 41.140625 37.335938 41.945312 37.613281 42.539062 38.171875 C 43.136719 38.730469 43.433594 39.484375 43.433594 40.4375 C 43.433594 41.417969 43.128906 42.179688 42.515625 42.722656 C 41.90625 43.265625 41.046875 43.539062 39.933594 43.539062 C 39.550781 43.539062 39.164062 43.503906 38.765625 43.441406 C 38.371094 43.375 37.960938 43.277344 37.535156 43.148438 L 37.535156 41.90625 C 37.902344 42.105469 38.28125 42.253906 38.671875 42.351562 C 39.0625 42.449219 39.476562 42.5 39.910156 42.5 C 40.613281 42.5 41.171875 42.3125 41.582031 41.945312 C 41.992188 41.574219 42.199219 41.070312 42.199219 40.4375 C 42.199219 39.800781 41.992188 39.300781 41.582031 38.929688 C 41.171875 38.558594 40.613281 38.375 39.910156 38.375 C 39.582031 38.375 39.25 38.410156 38.921875 38.484375 C 38.597656 38.554688 38.261719 38.667969 37.921875 38.824219 Z M 37.921875 34.246094 "/>
<path style=" stroke:none;fill-rule:nonzero;fill:rgb(0%,0%,0%);fill-opacity:1;" d="M 9 100.074219 L 9.933594 100.074219 L 9.933594 101.148438 C 9.933594 101.550781 10.015625 101.832031 10.179688 101.988281 C 10.34375 102.144531 10.636719 102.222656 11.058594 102.222656 L 11.660156 102.222656 L 11.660156 100.375 L 12.535156 100.375 L 12.535156 102.222656 L 18.496094 102.222656 L 18.496094 103.351562 L 12.535156 103.351562 L 12.535156 104.425781 L 11.660156 104.425781 L 11.660156 103.351562 L 11.183594 103.351562 C 10.425781 103.351562 9.871094 103.175781 9.523438 102.820312 C 9.175781 102.46875 9 101.90625 9 101.136719 Z M 9 100.074219 "/>
<path style=" stroke:none;fill-rule:nonzero;fill:rgb(0%,0%,0%);fill-opacity:1;" d="M 9.011719 96.4375 C 9.949219 96.984375 10.875 97.386719 11.789062 97.652344 C 12.707031 97.917969 13.632812 98.050781 14.574219 98.050781 C 15.511719 98.050781 16.441406 97.917969 17.363281 97.648438 C 18.285156 97.382812 19.214844 96.980469 20.144531 96.4375 L 20.144531 97.414062 C 19.1875 98.023438 18.25 98.480469 17.324219 98.785156 C 16.402344 99.085938 15.484375 99.238281 14.574219 99.238281 C 13.667969 99.238281 12.753906 99.089844 11.832031 98.789062 C 10.914062 98.484375 9.972656 98.027344 9.011719 97.414062 Z M 9.011719 96.4375 "/>
<path style=" stroke:none;fill-rule:nonzero;fill:rgb(0%,0%,0%);fill-opacity:1;" d="M 11.660156 88.574219 L 14.988281 91.046875 L 18.496094 88.449219 L 18.496094 89.773438 L 15.8125 91.761719 L 18.496094 93.75 L 18.496094 95.078125 L 14.921875 92.421875 L 11.660156 94.851562 L 11.660156 93.527344 L 14.097656 91.714844 L 11.660156 89.902344 Z M 11.660156 88.574219 "/>
<path style=" stroke:none;fill-rule:nonzero;fill:rgb(0%,0%,0%);fill-opacity:1;" d="M 9.011719 87.039062 L 9.011719 86.0625 C 9.972656 85.453125 10.914062 84.996094 11.832031 84.691406 C 12.753906 84.386719 13.667969 84.238281 14.574219 84.238281 C 15.484375 84.238281 16.402344 84.386719 17.324219 84.691406 C 18.25 84.996094 19.1875 85.453125 20.144531 86.0625 L 20.144531 87.039062 C 19.214844 86.496094 18.285156 86.09375 17.363281 85.828125 C 16.441406 85.558594 15.511719 85.425781 14.574219 85.425781 C 13.632812 85.425781 12.707031 85.558594 11.789062 85.828125 C 10.875 86.09375 9.949219 86.496094 9.011719 87.039062 Z M 9.011719 87.039062 "/>
<path style="fill:none;stroke-width:1.5;stroke-linecap:square;stroke-linejoin:round;stroke:rgb(12.156863%,46.666667%,70.588235%);stroke-opacity:1;stroke-miterlimit:4;" d="M 51.496875 75.15 L 54.515625 61.50625 L 57.090625 50.884375 L 59.309375 42.621875 L 61.35 35.8375 L 63.215625 30.378125 L 64.990625 25.8625 L 66.5875 22.3875 L 68.096875 19.625 L 69.51875 17.490625 L 70.85 15.9 L 72.09375 14.76875 L 73.246875 14.021875 L 74.3125 13.5875 L 75.378125 13.390625 L 76.44375 13.428125 L 77.509375 13.690625 L 78.6625 14.225 L 79.815625 15.003125 L 81.059375 16.10625 L 82.478125 17.678125 L 83.9875 19.690625 L 85.675 22.3125 L 87.628125 25.7875 L 89.846875 30.20625 L 92.6 36.215625 L 96.59375 45.534375 L 102.71875 59.79375 L 105.65 66.040625 L 108.134375 70.834375 L 110.353125 74.634375 L 112.30625 77.55625 L 114.171875 79.946875 L 115.85625 81.759375 L 117.45625 83.159375 L 118.965625 84.196875 L 120.384375 84.921875 L 121.80625 85.403125 L 123.225 85.65 L 124.646875 85.671875 L 126.065625 85.475 L 127.575 85.040625 L 129.175 84.35 L 130.95 83.33125 L 132.903125 81.94375 L 135.209375 80.015625 L 138.228125 77.175 L 146.040625 69.6625 L 148.35 67.825 L 150.303125 66.53125 L 152.078125 65.615625 L 153.675 65.028125 L 155.184375 64.7 L 156.603125 64.609375 L 158.025 64.74375 L 159.44375 65.109375 L 160.865625 65.7125 L 162.2875 66.559375 L 163.79375 67.725 L 165.39375 69.2625 L 167.078125 71.215625 L 168.85625 73.628125 L 170.809375 76.68125 L 172.9375 80.446875 L 175.334375 85.16875 L 178.0875 91.1 L 181.815625 99.7125 L 189.271875 117.053125 L 191.9375 122.625 L 194.15625 126.775 L 196.01875 129.821875 L 197.70625 132.178125 L 199.215625 133.925 L 200.634375 135.228125 L 201.878125 136.075 L 203.03125 136.609375 L 204.096875 136.871875 L 205.1625 136.909375 L 206.228125 136.7125 L 207.29375 136.278125 L 208.359375 135.596875 L 209.5125 134.58125 L 210.665625 133.271875 L 211.909375 131.528125 L 213.240625 129.278125 L 214.6625 126.4375 L 216.259375 122.7125 L 217.946875 118.184375 L 219.721875 112.771875 L 221.675 106.096875 L 223.80625 98.0125 L 226.203125 88.021875 L 228.953125 75.565625 " transform="matrix(1.25,0,0,1.25,0,0.000000000000014211)"/>
<path style="fill:none;stroke-width:1.5;stroke-linecap:square;stroke-linejoin:round;stroke:rgb(100%,49.803922%,5.490196%);stroke-opacity:1;stroke-miterlimit:4;" d="M 229.04375 75.15 L 206.85 136.4875 L 205.846875 136.809375 L 205.33125 136.89375 L 205.06875 136.915625 L 204.9375 136.921875 L 204.80625 136.921875 " transform="matrix(1.25,0,0,1.25,0,0.000000000000014211)"/>
<path style="fill-rule:nonzero;fill:rgb(100%,49.803922%,5.490196%);fill-opacity:1;stroke-width:1;stroke-linecap:butt;stroke-linejoin:round;stroke:rgb(100%,49.803922%,5.490196%);stroke-opacity:1;stroke-miterlimit:4;" d="M 0.00071 3.000001 C 0.79446 3.000001 1.560085 2.684376 2.122585 2.121876 C 2.685085 1.559376 3.00071 0.796876 3.00071 0.000001 C 3.00071 -0.796874 2.685085 -1.559374 2.122585 -2.121874 C 1.560085 -2.684374 0.79446 -2.999999 0.00071 -2.999999 C -0.796165 -2.999999 -1.558665 -2.684374 -2.121165 -2.121874 C -2.683665 -1.559374 -2.99929 -0.796874 -2.99929 0.000001 C -2.99929 0.796876 -2.683665 1.559376 -2.121165 2.121876 C -1.558665 2.684376 -0.796165 3.000001 0.00071 3.000001 Z M 0.00071 3.000001 " transform="matrix(1.25,0,0,1.25,286.3038,93.937499)"/>
<path style="fill-rule:nonzero;fill:rgb(100%,49.803922%,5.490196%);fill-opacity:1;stroke-width:1;stroke-linecap:butt;stroke-linejoin:round;stroke:rgb(100%,49.803922%,5.490196%);stroke-opacity:1;stroke-miterlimit:4;" d="M 0.000142 2.998927 C 0.797017 2.998927 1.559517 2.683302 2.122017 2.120802 C 2.684517 1.558302 3.000142 0.795802 3.000142 -0.001073 C 3.000142 -0.794823 2.684517 -1.557323 2.122017 -2.119823 C 1.559517 -2.685448 0.797017 -3.001073 0.000142 -3.001073 C -0.796733 -3.001073 -1.559233 -2.685448 -2.121733 -2.119823 C -2.684233 -1.557323 -2.999858 -0.794823 -2.999858 -0.001073 C -2.999858 0.795802 -2.684233 1.558302 -2.121733 2.120802 C -1.559233 2.683302 -0.796733 2.998927 0.000142 2.998927 Z M 0.000142 2.998927 " transform="matrix(1.25,0,0,1.25,258.562322,170.610716)"/>
<path style="fill-rule:nonzero;fill:rgb(100%,49.803922%,5.490196%);fill-opacity:1;stroke-width:1;stroke-linecap:butt;stroke-linejoin:round;stroke:rgb(100%,49.803922%,5.490196%);stroke-opacity:1;stroke-miterlimit:4;" d="M -0.001317 2.998993 C 0.795558 2.998993 1.558058 2.683368 2.120558 2.120868 C 2.683058 1.558368 2.998683 0.795868 2.998683 -0.001007 C 2.998683 -0.794757 2.683058 -1.557257 2.120558 -2.122882 C 1.558058 -2.685382 0.795558 -3.001007 -0.001317 -3.001007 C -0.795067 -3.001007 -1.557567 -2.685382 -2.120067 -2.122882 C -2.682567 -1.557257 -3.001317 -0.794757 -3.001317 -0.001007 C -3.001317 0.795868 -2.682567 1.558368 -2.120067 2.120868 C -1.557567 2.683368 -0.795067 2.998993 -0.001317 2.998993 Z M -0.001317 2.998993 " transform="matrix(1.25,0,0,1.25,257.31024,171.012977)"/>
<path style="fill-rule:nonzero;fill:rgb(100%,49.803922%,5.490196%);fill-opacity:1;stroke-width:1;stroke-linecap:butt;stroke-linejoin:round;stroke:rgb(100%,49.803922%,5.490196%);stroke-opacity:1;stroke-miterlimit:4;" d="M -0.000615 2.99968 C 0.79626 2.99968 1.55876 2.684055 2.12126 2.121555 C 2.68376 1.559055 2.999385 0.796555 2.999385 -0.00032 C 2.999385 -0.79407 2.68376 -1.559695 2.12126 -2.122195 C 1.55876 -2.684695 0.79626 -3.00032 -0.000615 -3.00032 C -0.794365 -3.00032 -1.55999 -2.684695 -2.12249 -2.122195 C -2.68499 -1.559695 -3.000615 -0.79407 -3.000615 -0.00032 C -3.000615 0.796555 -2.68499 1.559055 -2.12249 2.121555 C -1.55999 2.684055 -0.794365 2.99968 -0.000615 2.99968 Z M -0.000615 2.99968 " transform="matrix(1.25,0,0,1.25,256.664831,171.117587)"/>
<path style="fill-rule:nonzero;fill:rgb(100%,49.803922%,5.490196%);fill-opacity:1;stroke-width:1;stroke-linecap:butt;stroke-linejoin:round;stroke:rgb(100%,49.803922%,5.490196%);stroke-opacity:1;stroke-miterlimit:4;" d="M -0.000258 3.000137 C 0.796617 3.000137 1.559117 2.684512 2.121617 2.122012 C 2.684117 1.559512 2.999742 0.797012 2.999742 0.000137 C 2.999742 -0.796738 2.684117 -1.559238 2.121617 -2.121738 C 1.559117 -2.684238 0.796617 -2.999863 -0.000258 -2.999863 C -0.797133 -2.999863 -1.559633 -2.684238 -2.122133 -2.121738 C -2.684633 -1.559238 -3.000258 -0.796738 -3.000258 0.000137 C -3.000258 0.797012 -2.684633 1.559512 -2.122133 2.122012 C -1.559633 2.684512 -0.797133 3.000137 -0.000258 3.000137 Z M -0.000258 3.000137 " transform="matrix(1.25,0,0,1.25,256.33626,171.14436)"/>
<path style="fill-rule:nonzero;fill:rgb(100%,49.803922%,5.490196%);fill-opacity:1;stroke-width:1;stroke-linecap:butt;stroke-linejoin:round;stroke:rgb(100%,49.803922%,5.490196%);stroke-opacity:1;stroke-miterlimit:4;" d="M 0.001214 3.000967 C 0.794964 3.000967 1.557464 2.685342 2.119964 2.122842 C 2.682464 1.557217 3.001214 0.794717 3.001214 0.000967 C 3.001214 -0.795908 2.682464 -1.558408 2.119964 -2.120908 C 1.557464 -2.683408 0.794964 -2.999033 0.001214 -2.999033 C -0.795661 -2.999033 -1.558161 -2.683408 -2.120661 -2.120908 C -2.683161 -1.558408 -2.998786 -0.795908 -2.998786 0.000967 C -2.998786 0.794717 -2.683161 1.557217 -2.120661 2.122842 C -1.558161 2.685342 -0.795661 3.000967 0.001214 3.000967 Z M 0.001214 3.000967 " transform="matrix(1.25,0,0,1.25,256.170357,171.151135)"/>
<path style="fill-rule:nonzero;fill:rgb(100%,49.803922%,5.490196%);fill-opacity:1;stroke-width:1;stroke-linecap:butt;stroke-linejoin:round;stroke:rgb(100%,49.803922%,5.490196%);stroke-opacity:1;stroke-miterlimit:4;" d="M -0.000837 2.999599 C 0.796038 2.999599 1.558538 2.683974 2.121038 2.121474 C 2.683538 1.558974 2.999163 0.796474 2.999163 -0.000401 C 2.999163 -0.794151 2.683538 -1.559776 2.121038 -2.122276 C 1.558538 -2.684776 0.796038 -3.000401 -0.000837 -3.000401 C -0.794587 -3.000401 -1.560212 -2.684776 -2.122712 -2.122276 C -2.685212 -1.559776 -3.000837 -0.794151 -3.000837 -0.000401 C -3.000837 0.796474 -2.685212 1.558974 -2.122712 2.121474 C -1.560212 2.683974 -0.794587 2.999599 -0.000837 2.999599 Z M -0.000837 2.999599 " transform="matrix(1.25,0,0,1.25,256.086984,171.152845)"/>
<path style="fill-rule:nonzero;fill:rgb(100%,49.803922%,5.490196%);fill-opacity:1;stroke-width:1;stroke-linecap:butt;stroke-linejoin:round;stroke:rgb(100%,49.803922%,5.490196%);stroke-opacity:1;stroke-miterlimit:4;" d="M 0.00135 2.999262 C 0.7951 2.999262 1.5576 2.683637 2.1201 2.121137 C 2.6826 1.558637 3.00135 0.796137 3.00135 -0.000738 C 3.00135 -0.794488 2.6826 -1.560113 2.1201 -2.122613 C 1.5576 -2.685113 0.7951 -3.000738 0.00135 -3.000738 C -0.795525 -3.000738 -1.558025 -2.685113 -2.120525 -2.122613 C -2.683025 -1.560113 -2.99865 -0.794488 -2.99865 -0.000738 C -2.99865 0.796137 -2.683025 1.558637 -2.120525 2.121137 C -1.558025 2.683637 -0.795525 2.999262 0.00135 2.999262 Z M 0.00135 2.999262 " transform="matrix(1.25,0,0,1.25,256.045187,171.153266)"/>
<path style="fill-rule:nonzero;fill:rgb(100%,49.803922%,5.490196%);fill-opacity:1;stroke-width:1;stroke-linecap:butt;stroke-linejoin:round;stroke:rgb(100%,49.803922%,5.490196%);stroke-opacity:1;stroke-miterlimit:4;" d="M -0.000658 2.999173 C 0.796217 2.999173 1.558717 2.683548 2.121217 2.121048 C 2.683717 1.558548 2.999342 0.796048 2.999342 -0.000827 C 2.999342 -0.794577 2.683717 -1.560202 2.121217 -2.122702 C 1.558717 -2.685202 0.796217 -3.000827 -0.000658 -3.000827 C -0.794408 -3.000827 -1.560033 -2.685202 -2.122533 -2.122702 C -2.685033 -1.560202 -3.000658 -0.794577 -3.000658 -0.000827 C -3.000658 0.796048 -2.685033 1.558548 -2.122533 2.121048 C -1.560033 2.683548 -0.794408 2.999173 -0.000658 2.999173 Z M -0.000658 2.999173 " transform="matrix(1.25,0,0,1.25,256.02426,171.153377)"/>
<path style="fill-rule:nonzero;fill:rgb(100%,49.803922%,5.490196%);fill-opacity:1;stroke-width:1;stroke-linecap:butt;stroke-linejoin:round;stroke:rgb(100%,49.803922%,5.490196%);stroke-opacity:1;stroke-miterlimit:4;" d="M 0.001469 2.999152 C 0.795219 2.999152 1.557719 2.683527 2.120219 2.121027 C 2.682719 1.558527 3.001469 0.796027 3.001469 -0.000848 C 3.001469 -0.794598 2.682719 -1.560223 2.120219 -2.122723 C 1.557719 -2.685223 0.795219 -3.000848 0.001469 -3.000848 C -0.795406 -3.000848 -1.557906 -2.685223 -2.120406 -2.122723 C -2.682906 -1.560223 -2.998531 -0.794598 -2.998531 -0.000848 C -2.998531 0.796027 -2.682906 1.558527 -2.120406 2.121027 C -1.557906 2.683527 -0.795406 2.999152 0.001469 2.999152 Z M 0.001469 2.999152 " transform="matrix(1.25,0,0,1.25,256.013789,171.153404)"/>
<path style="fill-rule:nonzero;fill:rgb(100%,49.803922%,5.490196%);fill-opacity:1;stroke-width:1;stroke-linecap:butt;stroke-linejoin:round;stroke:rgb(100%,49.803922%,5.490196%);stroke-opacity:1;stroke-miterlimit:4;" d="M -0.000591 2.999148 C 0.796284 2.999148 1.558784 2.683523 2.121284 2.121023 C 2.683784 1.558523 2.999409 0.796023 2.999409 -0.000852 C 2.999409 -0.794602 2.683784 -1.560227 2.121284 -2.122727 C 1.558784 -2.685227 0.796284 -3.000852 -0.000591 -3.000852 C -0.794341 -3.000852 -1.559966 -2.685227 -2.122466 -2.122727 C -2.684966 -1.560227 -3.000591 -0.794602 -3.000591 -0.000852 C -3.000591 0.796023 -2.684966 1.558523 -2.122466 2.121023 C -1.559966 2.683523 -0.794341 2.999148 -0.000591 2.999148 Z M -0.000591 2.999148 " transform="matrix(1.25,0,0,1.25,256.008551,171.153409)"/>
<path style="fill:none;stroke-width:0.8;stroke-linecap:square;stroke-linejoin:miter;stroke:rgb(0%,0%,0%);stroke-opacity:1;stroke-miterlimit:4;" d="M 42.61875 143.1 L 42.61875 7.2 " transform="matrix(1.25,0,0,1.25,0,0.000000000000014211)"/>
<path style="fill:none;stroke-width:0.8;stroke-linecap:square;stroke-linejoin:miter;stroke:rgb(0%,0%,0%);stroke-opacity:1;stroke-miterlimit:4;" d="M 237.921875 143.1 L 237.921875 7.2 " transform="matrix(1.25,0,0,1.25,0,0.000000000000014211)"/>
<path style="fill:none;stroke-width:0.8;stroke-linecap:square;stroke-linejoin:miter;stroke:rgb(0%,0%,0%);stroke-opacity:1;stroke-miterlimit:4;" d="M 42.61875 143.1 L 237.921875 143.1 " transform="matrix(1.25,0,0,1.25,0,0.000000000000014211)"/>
<path style="fill:none;stroke-width:0.8;stroke-linecap:square;stroke-linejoin:miter;stroke:rgb(0%,0%,0%);stroke-opacity:1;stroke-miterlimit:4;" d="M 42.61875 7.2 L 237.921875 7.2 " transform="matrix(1.25,0,0,1.25,0,0.000000000000014211)"/>
</g>
</svg>
