<?xml version="1.0" encoding="UTF-8"?>
<svg xmlns="http://www.w3.org/2000/svg" xmlns:xlink="http://www.w3.org/1999/xlink" width="314pt" height="226pt" viewBox="0 0 314 226" version="1.1">
<defs>
<clipPath id="clip1">
  <path d="M 102 9 L 105 9 L 105 178.875 L 102 178.875 Z M 102 9 "/>
</clipPath>
<clipPath id="clip2">
  <path d="M 182 9 L 184 9 L 184 178.875 L 182 178.875 Z M 182 9 "/>
</clipPath>
<clipPath id="clip3">
  <path d="M 262 9 L 264 9 L 264 178.875 L 262 178.875 Z M 262 9 "/>
</clipPath>
<clipPath id="clip4">
  <path d="M 61.230469 150 L 305.355469 150 L 305.355469 153 L 61.230469 153 Z M 61.230469 150 "/>
</clipPath>
<clipPath id="clip5">
  <path d="M 61.230469 122 L 305.355469 122 L 305.355469 124 L 61.230469 124 Z M 61.230469 122 "/>
</clipPath>
<clipPath id="clip6">
  <path d="M 61.230469 93 L 305.355469 93 L 305.355469 95 L 61.230469 95 Z M 61.230469 93 "/>
</clipPath>
<clipPath id="clip7">
  <path d="M 61.230469 64 L 305.355469 64 L 305.355469 66 L 61.230469 66 Z M 61.230469 64 "/>
</clipPath>
<clipPath id="clip8">
  <path d="M 61.230469 35 L 305.355469 35 L 305.355469 37 L 61.230469 37 Z M 61.230469 35 "/>
</clipPath>
</defs>
<g id="surface1">
<path style=" stroke:none;fill-rule:nonzero;fill:rgb(100%,100%,100%);fill-opacity:1;" d="M 61.230469 178.875 L 305.355469 178.875 L 305.355469 9 L 61.230469 9 Z M 61.230469 178.875 "/>
<g clip-path="url(#clip1)" clip-rule="nonzero">
<path style="fill:none;stroke-width:0.8;stroke-linecap:square;stroke-linejoin:round;stroke:rgb(69.019608%,69.019608%,69.019608%);stroke-opacity:1;stroke-miterlimit:4;" d="M 82.728125 143.1 L 82.728125 7.2 " transform="matrix(1.25,0,0,1.25,0,0.000000000000014211)"/>
</g>
<path style="fill:none;stroke-width:0.8;stroke-linecap:butt;stroke-linejoin:round;stroke:rgb(0%,0%,0%);stroke-opacity:1;stroke-miterlimit:4;" d="M -0.000625 0 L -0.000625 3.5 " transform="matrix(1.25,0,0,1.25,103.410938,178.875)"/>
<path style=" stroke:none;fill-rule:nonzero;fill:rgb(0%,0%,0%);fill-opacity:1;" d="M 91.542969 192.6875 L 99.367188 192.6875 L 99.367188 193.722656 L 91.542969 193.722656 Z M 91.542969 192.6875 "/>
<path style=" stroke:none;fill-rule:nonzero;fill:rgb(0%,0%,0%);fill-opacity:1;" d="M 103.09375 196.085938 L 107.394531 196.085938 L 107.394531 197.125 L 101.609375 197.125 L 101.609375 196.085938 C 102.078125 195.601562 102.714844 194.953125 103.523438 194.136719 C 104.332031 193.320312 104.839844 192.792969 105.046875 192.558594 C 105.441406 192.113281 105.714844 191.738281 105.871094 191.433594 C 106.03125 191.125 106.109375 190.824219 106.109375 190.527344 C 106.109375 190.042969 105.9375 189.648438 105.597656 189.34375 C 105.257812 189.035156 104.816406 188.882812 104.269531 188.882812 C 103.882812 188.882812 103.476562 188.949219 103.046875 189.085938 C 102.617188 189.21875 102.160156 189.421875 101.671875 189.695312 L 101.671875 188.449219 C 102.167969 188.25 102.628906 188.101562 103.0625 188 C 103.492188 187.898438 103.890625 187.847656 104.246094 187.847656 C 105.191406 187.847656 105.945312 188.082031 106.503906 188.554688 C 107.066406 189.027344 107.347656 189.65625 107.347656 190.445312 C 107.347656 190.820312 107.277344 191.175781 107.136719 191.511719 C 106.996094 191.847656 106.742188 192.242188 106.371094 192.699219 C 106.269531 192.816406 105.945312 193.15625 105.398438 193.722656 C 104.855469 194.285156 104.085938 195.074219 103.09375 196.085938 Z M 103.09375 196.085938 "/>
<path style=" stroke:none;fill-rule:nonzero;fill:rgb(0%,0%,0%);fill-opacity:1;" d="M 112.621094 188.824219 C 111.984375 188.824219 111.507812 189.136719 111.1875 189.761719 C 110.867188 190.382812 110.710938 191.324219 110.710938 192.578125 C 110.710938 193.824219 110.867188 194.761719 111.1875 195.386719 C 111.507812 196.011719 111.984375 196.324219 112.621094 196.324219 C 113.257812 196.324219 113.738281 196.011719 114.058594 195.386719 C 114.378906 194.761719 114.539062 193.824219 114.539062 192.578125 C 114.539062 191.324219 114.378906 190.382812 114.058594 189.761719 C 113.738281 189.136719 113.257812 188.824219 112.621094 188.824219 Z M 112.621094 187.847656 C 113.640625 187.847656 114.421875 188.25 114.960938 189.058594 C 115.5 189.867188 115.769531 191.039062 115.769531 192.578125 C 115.769531 194.109375 115.5 195.28125 114.960938 196.089844 C 114.421875 196.898438 113.640625 197.300781 112.621094 197.300781 C 111.597656 197.300781 110.820312 196.898438 110.28125 196.089844 C 109.742188 195.28125 109.472656 194.109375 109.472656 192.578125 C 109.472656 191.039062 109.742188 189.867188 110.28125 189.058594 C 110.820312 188.25 111.597656 187.847656 112.621094 187.847656 Z M 112.621094 187.847656 "/>
<g clip-path="url(#clip2)" clip-rule="nonzero">
<path style="fill:none;stroke-width:0.8;stroke-linecap:square;stroke-linejoin:round;stroke:rgb(69.019608%,69.019608%,69.019608%);stroke-opacity:1;stroke-miterlimit:4;" d="M 146.63125 143.1 L 146.63125 7.2 " transform="matrix(1.25,0,0,1.25,0,0.000000000000014211)"/>
</g>
<path style="fill:none;stroke-width:0.8;stroke-linecap:butt;stroke-linejoin:round;stroke:rgb(0%,0%,0%);stroke-opacity:1;stroke-miterlimit:4;" d="M -0.001562 0 L -0.001562 3.5 " transform="matrix(1.25,0,0,1.25,183.291015,178.875)"/>
<path style=" stroke:none;fill-rule:nonzero;fill:rgb(0%,0%,0%);fill-opacity:1;" d="M 183.285156 188.824219 C 182.652344 188.824219 182.175781 189.136719 181.855469 189.761719 C 181.535156 190.382812 181.375 191.324219 181.375 192.578125 C 181.375 193.824219 181.535156 194.761719 181.855469 195.386719 C 182.175781 196.011719 182.652344 196.324219 183.285156 196.324219 C 183.925781 196.324219 184.40625 196.011719 184.722656 195.386719 C 185.042969 194.761719 185.203125 193.824219 185.203125 192.578125 C 185.203125 191.324219 185.042969 190.382812 184.722656 189.761719 C 184.40625 189.136719 183.925781 188.824219 183.285156 188.824219 Z M 183.285156 187.847656 C 184.308594 187.847656 185.089844 188.25 185.628906 189.058594 C 186.167969 189.867188 186.4375 191.039062 186.4375 192.578125 C 186.4375 194.109375 186.167969 195.28125 185.628906 196.089844 C 185.089844 196.898438 184.308594 197.300781 183.285156 197.300781 C 182.265625 197.300781 181.484375 196.898438 180.945312 196.089844 C 180.40625 195.28125 180.136719 194.109375 180.136719 192.578125 C 180.136719 191.039062 180.40625 189.867188 180.945312 189.058594 C 181.484375 188.25 182.265625 187.847656 183.285156 187.847656 Z M 183.285156 187.847656 "/>
<g clip-path="url(#clip3)" clip-rule="nonzero">
<path style="fill:none;stroke-width:0.8;stroke-linecap:square;stroke-linejoin:round;stroke:rgb(69.019608%,69.019608%,69.019608%);stroke-opacity:1;stroke-miterlimit:4;" d="M 210.5375 143.1 L 210.5375 7.2 " transform="matrix(1.25,0,0,1.25,0,0.000000000000014211)"/>
</g>
<path style="fill:none;stroke-width:0.8;stroke-linecap:butt;stroke-linejoin:round;stroke:rgb(0%,0%,0%);stroke-opacity:1;stroke-miterlimit:4;" d="M 0.000625 0 L 0.000625 3.5 " transform="matrix(1.25,0,0,1.25,263.171094,178.875)"/>
<path style=" stroke:none;fill-rule:nonzero;fill:rgb(0%,0%,0%);fill-opacity:1;" d="M 257.617188 196.085938 L 261.917969 196.085938 L 261.917969 197.125 L 256.132812 197.125 L 256.132812 196.085938 C 256.601562 195.601562 257.238281 194.953125 258.046875 194.136719 C 258.855469 193.320312 259.363281 192.792969 259.570312 192.558594 C 259.964844 192.113281 260.238281 191.738281 260.394531 191.433594 C 260.554688 191.125 260.632812 190.824219 260.632812 190.527344 C 260.632812 190.042969 260.460938 189.648438 260.121094 189.34375 C 259.78125 189.035156 259.339844 188.882812 258.792969 188.882812 C 258.40625 188.882812 258 188.949219 257.570312 189.085938 C 257.140625 189.21875 256.683594 189.421875 256.195312 189.695312 L 256.195312 188.449219 C 256.691406 188.25 257.152344 188.101562 257.585938 188 C 258.015625 187.898438 258.414062 187.847656 258.769531 187.847656 C 259.714844 187.847656 260.46875 188.082031 261.027344 188.554688 C 261.589844 189.027344 261.871094 189.65625 261.871094 190.445312 C 261.871094 190.820312 261.800781 191.175781 261.660156 191.511719 C 261.519531 191.847656 261.265625 192.242188 260.894531 192.699219 C 260.792969 192.816406 260.46875 193.15625 259.921875 193.722656 C 259.378906 194.285156 258.609375 195.074219 257.617188 196.085938 Z M 257.617188 196.085938 "/>
<path style=" stroke:none;fill-rule:nonzero;fill:rgb(0%,0%,0%);fill-opacity:1;" d="M 267.144531 188.824219 C 266.507812 188.824219 266.03125 189.136719 265.710938 189.761719 C 265.394531 190.382812 265.234375 191.324219 265.234375 192.578125 C 265.234375 193.824219 265.394531 194.761719 265.710938 195.386719 C 266.03125 196.011719 266.507812 196.324219 267.144531 196.324219 C 267.78125 196.324219 268.261719 196.011719 268.582031 195.386719 C 268.902344 194.761719 269.0625 193.824219 269.0625 192.578125 C 269.0625 191.324219 268.902344 190.382812 268.582031 189.761719 C 268.261719 189.136719 267.78125 188.824219 267.144531 188.824219 Z M 267.144531 187.847656 C 268.164062 187.847656 268.945312 188.25 269.484375 189.058594 C 270.023438 189.867188 270.292969 191.039062 270.292969 192.578125 C 270.292969 194.109375 270.023438 195.28125 269.484375 196.089844 C 268.945312 196.898438 268.164062 197.300781 267.144531 197.300781 C 266.121094 197.300781 265.34375 196.898438 264.804688 196.089844 C 264.265625 195.28125 263.996094 194.109375 263.996094 192.578125 C 263.996094 191.039062 264.265625 189.867188 264.804688 189.058594 C 265.34375 188.25 266.121094 187.847656 267.144531 187.847656 Z M 267.144531 187.847656 "/>
<path style=" stroke:none;fill-rule:nonzero;fill:rgb(0%,0%,0%);fill-opacity:1;" d="M 186.453125 207.386719 L 183.980469 210.710938 L 186.582031 214.222656 L 185.257812 214.222656 L 183.265625 211.535156 L 181.277344 214.222656 L 179.953125 214.222656 L 182.609375 210.644531 L 180.179688 207.386719 L 181.503906 207.386719 L 183.316406 209.820312 L 185.128906 207.386719 Z M 186.453125 207.386719 "/>
<g clip-path="url(#clip4)" clip-rule="nonzero">
<path style="fill:none;stroke-width:0.8;stroke-linecap:square;stroke-linejoin:round;stroke:rgb(69.019608%,69.019608%,69.019608%);stroke-opacity:1;stroke-miterlimit:4;" d="M 48.984375 121.334375 L 244.284375 121.334375 " transform="matrix(1.25,0,0,1.25,0,0.000000000000014211)"/>
</g>
<path style="fill:none;stroke-width:0.8;stroke-linecap:butt;stroke-linejoin:round;stroke:rgb(0%,0%,0%);stroke-opacity:1;stroke-miterlimit:4;" d="M 0.001562 0.000214 L -3.498438 0.000214 " transform="matrix(1.25,0,0,1.25,61.228516,151.667701)"/>
<path style=" stroke:none;fill-rule:nonzero;fill:rgb(0%,0%,0%);fill-opacity:1;" d="M 27.421875 151.980469 L 35.246094 151.980469 L 35.246094 153.015625 L 27.421875 153.015625 Z M 27.421875 151.980469 "/>
<path style=" stroke:none;fill-rule:nonzero;fill:rgb(0%,0%,0%);fill-opacity:1;" d="M 38.96875 155.378906 L 43.273438 155.378906 L 43.273438 156.417969 L 37.488281 156.417969 L 37.488281 155.378906 C 37.953125 154.894531 38.59375 154.246094 39.398438 153.429688 C 40.207031 152.613281 40.714844 152.085938 40.921875 151.851562 C 41.316406 151.40625 41.59375 151.03125 41.75 150.726562 C 41.90625 150.417969 41.984375 150.117188 41.984375 149.820312 C 41.984375 149.335938 41.816406 148.941406 41.476562 148.636719 C 41.136719 148.328125 40.691406 148.175781 40.148438 148.175781 C 39.761719 148.175781 39.351562 148.242188 38.921875 148.378906 C 38.496094 148.511719 38.035156 148.714844 37.546875 148.988281 L 37.546875 147.742188 C 38.042969 147.542969 38.507812 147.394531 38.9375 147.292969 C 39.371094 147.191406 39.765625 147.140625 40.125 147.140625 C 41.066406 147.140625 41.820312 147.375 42.382812 147.847656 C 42.941406 148.320312 43.222656 148.949219 43.222656 149.738281 C 43.222656 150.113281 43.152344 150.46875 43.011719 150.804688 C 42.875 151.140625 42.617188 151.535156 42.246094 151.992188 C 42.144531 152.109375 41.820312 152.449219 41.277344 153.015625 C 40.730469 153.578125 39.964844 154.367188 38.96875 155.378906 Z M 38.96875 155.378906 "/>
<path style=" stroke:none;fill-rule:nonzero;fill:rgb(0%,0%,0%);fill-opacity:1;" d="M 48.496094 148.117188 C 47.863281 148.117188 47.386719 148.429688 47.066406 149.054688 C 46.746094 149.675781 46.585938 150.617188 46.585938 151.871094 C 46.585938 153.117188 46.746094 154.054688 47.066406 154.679688 C 47.386719 155.304688 47.863281 155.617188 48.496094 155.617188 C 49.136719 155.617188 49.617188 155.304688 49.933594 154.679688 C 50.253906 154.054688 50.414062 153.117188 50.414062 151.871094 C 50.414062 150.617188 50.253906 149.675781 49.933594 149.054688 C 49.617188 148.429688 49.136719 148.117188 48.496094 148.117188 Z M 48.496094 147.140625 C 49.519531 147.140625 50.300781 147.542969 50.839844 148.351562 C 51.378906 149.160156 51.648438 150.332031 51.648438 151.871094 C 51.648438 153.402344 51.378906 154.574219 50.839844 155.382812 C 50.300781 156.191406 49.519531 156.59375 48.496094 156.59375 C 47.476562 156.59375 46.695312 156.191406 46.15625 155.382812 C 45.617188 154.574219 45.347656 153.402344 45.347656 151.871094 C 45.347656 150.332031 45.617188 149.160156 46.15625 148.351562 C 46.695312 147.542969 47.476562 147.140625 48.496094 147.140625 Z M 48.496094 147.140625 "/>
<g clip-path="url(#clip5)" clip-rule="nonzero">
<path style="fill:none;stroke-width:0.8;stroke-linecap:square;stroke-linejoin:round;stroke:rgb(69.019608%,69.019608%,69.019608%);stroke-opacity:1;stroke-miterlimit:4;" d="M 48.984375 98.240625 L 244.284375 98.240625 " transform="matrix(1.25,0,0,1.25,0,0.000000000000014211)"/>
</g>
<path style="fill:none;stroke-width:0.8;stroke-linecap:butt;stroke-linejoin:round;stroke:rgb(0%,0%,0%);stroke-opacity:1;stroke-miterlimit:4;" d="M 0.001562 -0.001458 L -3.498438 -0.001458 " transform="matrix(1.25,0,0,1.25,61.228516,122.802604)"/>
<path style=" stroke:none;fill-rule:nonzero;fill:rgb(0%,0%,0%);fill-opacity:1;" d="M 27.421875 123.113281 L 35.246094 123.113281 L 35.246094 124.152344 L 27.421875 124.152344 Z M 27.421875 123.113281 "/>
<path style=" stroke:none;fill-rule:nonzero;fill:rgb(0%,0%,0%);fill-opacity:1;" d="M 38.121094 126.515625 L 40.136719 126.515625 L 40.136719 119.5625 L 37.945312 120 L 37.945312 118.878906 L 40.125 118.4375 L 41.355469 118.4375 L 41.355469 126.515625 L 43.371094 126.515625 L 43.371094 127.550781 L 38.121094 127.550781 Z M 38.121094 126.515625 "/>
<path style=" stroke:none;fill-rule:nonzero;fill:rgb(0%,0%,0%);fill-opacity:1;" d="M 48.496094 119.25 C 47.863281 119.25 47.386719 119.5625 47.066406 120.1875 C 46.746094 120.8125 46.585938 121.75 46.585938 123.003906 C 46.585938 124.253906 46.746094 125.191406 47.066406 125.816406 C 47.386719 126.441406 47.863281 126.753906 48.496094 126.753906 C 49.136719 126.753906 49.617188 126.441406 49.933594 125.816406 C 50.253906 125.191406 50.414062 124.253906 50.414062 123.003906 C 50.414062 121.75 50.253906 120.8125 49.933594 120.1875 C 49.617188 119.5625 49.136719 119.25 48.496094 119.25 Z M 48.496094 118.273438 C 49.519531 118.273438 50.300781 118.679688 50.839844 119.488281 C 51.378906 120.292969 51.648438 121.46875 51.648438 123.003906 C 51.648438 124.539062 51.378906 125.710938 50.839844 126.519531 C 50.300781 127.324219 49.519531 127.730469 48.496094 127.730469 C 47.476562 127.730469 46.695312 127.324219 46.15625 126.519531 C 45.617188 125.710938 45.347656 124.539062 45.347656 123.003906 C 45.347656 121.46875 45.617188 120.292969 46.15625 119.488281 C 46.695312 118.679688 47.476562 118.273438 48.496094 118.273438 Z M 48.496094 118.273438 "/>
<g clip-path="url(#clip6)" clip-rule="nonzero">
<path style="fill:none;stroke-width:0.8;stroke-linecap:square;stroke-linejoin:round;stroke:rgb(69.019608%,69.019608%,69.019608%);stroke-opacity:1;stroke-miterlimit:4;" d="M 48.984375 75.15 L 244.284375 75.15 " transform="matrix(1.25,0,0,1.25,0,0.000000000000014211)"/>
</g>
<path style="fill:none;stroke-width:0.8;stroke-linecap:butt;stroke-linejoin:round;stroke:rgb(0%,0%,0%);stroke-opacity:1;stroke-miterlimit:4;" d="M 0.001562 -0.000004 L -3.498438 -0.000004 " transform="matrix(1.25,0,0,1.25,61.228516,93.937505)"/>
<path style=" stroke:none;fill-rule:nonzero;fill:rgb(0%,0%,0%);fill-opacity:1;" d="M 48.5 90.386719 C 47.863281 90.386719 47.386719 90.699219 47.066406 91.324219 C 46.746094 91.945312 46.589844 92.886719 46.589844 94.140625 C 46.589844 95.386719 46.746094 96.324219 47.066406 96.949219 C 47.386719 97.574219 47.863281 97.886719 48.5 97.886719 C 49.136719 97.886719 49.617188 97.574219 49.9375 96.949219 C 50.257812 96.324219 50.417969 95.386719 50.417969 94.140625 C 50.417969 92.886719 50.257812 91.945312 49.9375 91.324219 C 49.617188 90.699219 49.136719 90.386719 48.5 90.386719 Z M 48.5 89.410156 C 49.519531 89.410156 50.300781 89.8125 50.839844 90.621094 C 51.378906 91.429688 51.648438 92.601562 51.648438 94.140625 C 51.648438 95.671875 51.378906 96.84375 50.839844 97.652344 C 50.300781 98.460938 49.519531 98.863281 48.5 98.863281 C 47.476562 98.863281 46.699219 98.460938 46.160156 97.652344 C 45.621094 96.84375 45.351562 95.671875 45.351562 94.140625 C 45.351562 92.601562 45.621094 91.429688 46.160156 90.621094 C 46.699219 89.8125 47.476562 89.410156 48.5 89.410156 Z M 48.5 89.410156 "/>
<g clip-path="url(#clip7)" clip-rule="nonzero">
<path style="fill:none;stroke-width:0.8;stroke-linecap:square;stroke-linejoin:round;stroke:rgb(69.019608%,69.019608%,69.019608%);stroke-opacity:1;stroke-miterlimit:4;" d="M 48.984375 52.059375 L 244.284375 52.059375 " transform="matrix(1.25,0,0,1.25,0,0.000000000000014211)"/>
</g>
<path style="fill:none;stroke-width:0.8;stroke-linecap:butt;stroke-linejoin:round;stroke:rgb(0%,0%,0%);stroke-opacity:1;stroke-miterlimit:4;" d="M 0.001562 0.001449 L -3.498438 0.001449 " transform="matrix(1.25,0,0,1.25,61.228516,65.072408)"/>
<path style=" stroke:none;fill-rule:nonzero;fill:rgb(0%,0%,0%);fill-opacity:1;" d="M 38.125 68.785156 L 40.136719 68.785156 L 40.136719 61.832031 L 37.945312 62.269531 L 37.945312 61.148438 L 40.125 60.707031 L 41.359375 60.707031 L 41.359375 68.785156 L 43.371094 68.785156 L 43.371094 69.820312 L 38.125 69.820312 Z M 38.125 68.785156 "/>
<path style=" stroke:none;fill-rule:nonzero;fill:rgb(0%,0%,0%);fill-opacity:1;" d="M 48.496094 61.519531 C 47.863281 61.519531 47.386719 61.832031 47.066406 62.457031 C 46.746094 63.082031 46.585938 64.019531 46.585938 65.273438 C 46.585938 66.523438 46.746094 67.460938 47.066406 68.085938 C 47.386719 68.710938 47.863281 69.023438 48.496094 69.023438 C 49.136719 69.023438 49.617188 68.710938 49.933594 68.085938 C 50.253906 67.460938 50.414062 66.523438 50.414062 65.273438 C 50.414062 64.019531 50.253906 63.082031 49.933594 62.457031 C 49.617188 61.832031 49.136719 61.519531 48.496094 61.519531 Z M 48.496094 60.542969 C 49.519531 60.542969 50.300781 60.949219 50.839844 61.757812 C 51.378906 62.5625 51.648438 63.738281 51.648438 65.273438 C 51.648438 66.808594 51.378906 67.980469 50.839844 68.789062 C 50.300781 69.59375 49.519531 70 48.496094 70 C 47.476562 70 46.695312 69.59375 46.15625 68.789062 C 45.617188 67.980469 45.347656 66.808594 45.347656 65.273438 C 45.347656 63.738281 45.617188 62.5625 46.15625 61.757812 C 46.695312 60.949219 47.476562 60.542969 48.496094 60.542969 Z M 48.496094 60.542969 "/>
<g clip-path="url(#clip8)" clip-rule="nonzero">
<path style="fill:none;stroke-width:0.8;stroke-linecap:square;stroke-linejoin:round;stroke:rgb(69.019608%,69.019608%,69.019608%);stroke-opacity:1;stroke-miterlimit:4;" d="M 48.984375 28.965625 L 244.284375 28.965625 " transform="matrix(1.25,0,0,1.25,0,0.000000000000014211)"/>
</g>
<path style="fill:none;stroke-width:0.8;stroke-linecap:butt;stroke-linejoin:round;stroke:rgb(0%,0%,0%);stroke-opacity:1;stroke-miterlimit:4;" d="M 0.001562 -0.000223 L -3.498438 -0.000223 " transform="matrix(1.25,0,0,1.25,61.228516,36.20731)"/>
<path style=" stroke:none;fill-rule:nonzero;fill:rgb(0%,0%,0%);fill-opacity:1;" d="M 38.972656 39.917969 L 43.273438 39.917969 L 43.273438 40.957031 L 37.488281 40.957031 L 37.488281 39.917969 C 37.957031 39.433594 38.59375 38.785156 39.402344 37.96875 C 40.210938 37.152344 40.71875 36.625 40.925781 36.390625 C 41.320312 35.945312 41.59375 35.570312 41.75 35.265625 C 41.90625 34.957031 41.988281 34.65625 41.988281 34.359375 C 41.988281 33.875 41.816406 33.480469 41.476562 33.175781 C 41.136719 32.867188 40.695312 32.714844 40.148438 32.714844 C 39.761719 32.714844 39.355469 32.78125 38.925781 32.917969 C 38.496094 33.050781 38.039062 33.253906 37.550781 33.527344 L 37.550781 32.28125 C 38.046875 32.082031 38.507812 31.933594 38.941406 31.832031 C 39.371094 31.730469 39.765625 31.679688 40.125 31.679688 C 41.070312 31.679688 41.820312 31.914062 42.382812 32.386719 C 42.945312 32.859375 43.226562 33.488281 43.226562 34.277344 C 43.226562 34.652344 43.15625 35.007812 43.015625 35.34375 C 42.875 35.679688 42.621094 36.074219 42.25 36.53125 C 42.148438 36.648438 41.824219 36.988281 41.277344 37.554688 C 40.734375 38.117188 39.964844 38.90625 38.972656 39.917969 Z M 38.972656 39.917969 "/>
<path style=" stroke:none;fill-rule:nonzero;fill:rgb(0%,0%,0%);fill-opacity:1;" d="M 48.496094 32.65625 C 47.863281 32.65625 47.386719 32.96875 47.066406 33.59375 C 46.746094 34.214844 46.585938 35.15625 46.585938 36.410156 C 46.585938 37.65625 46.746094 38.59375 47.066406 39.21875 C 47.386719 39.84375 47.863281 40.15625 48.496094 40.15625 C 49.136719 40.15625 49.617188 39.84375 49.933594 39.21875 C 50.253906 38.59375 50.414062 37.65625 50.414062 36.410156 C 50.414062 35.15625 50.253906 34.214844 49.933594 33.59375 C 49.617188 32.96875 49.136719 32.65625 48.496094 32.65625 Z M 48.496094 31.679688 C 49.519531 31.679688 50.300781 32.082031 50.839844 32.890625 C 51.378906 33.699219 51.648438 34.871094 51.648438 36.410156 C 51.648438 37.941406 51.378906 39.113281 50.839844 39.921875 C 50.300781 40.730469 49.519531 41.132812 48.496094 41.132812 C 47.476562 41.132812 46.695312 40.730469 46.15625 39.921875 C 45.617188 39.113281 45.347656 37.941406 45.347656 36.410156 C 45.347656 34.871094 45.617188 33.699219 46.15625 32.890625 C 46.695312 32.082031 47.476562 31.679688 48.496094 31.679688 Z M 48.496094 31.679688 "/>
<path style=" stroke:none;fill-rule:nonzero;fill:rgb(0%,0%,0%);fill-opacity:1;" d="M 9 100.074219 L 9.9375 100.074219 L 9.9375 101.148438 C 9.9375 101.550781 10.015625 101.832031 10.179688 101.988281 C 10.34375 102.144531 10.636719 102.222656 11.058594 102.222656 L 11.664062 102.222656 L 11.664062 100.375 L 12.535156 100.375 L 12.535156 102.222656 L 18.5 102.222656 L 18.5 103.351562 L 12.535156 103.351562 L 12.535156 104.425781 L 11.664062 104.425781 L 11.664062 103.351562 L 11.1875 103.351562 C 10.425781 103.351562 9.871094 103.175781 9.523438 102.820312 C 9.175781 102.46875 9 101.90625 9 101.136719 Z M 9 100.074219 "/>
<path style=" stroke:none;fill-rule:nonzero;fill:rgb(0%,0%,0%);fill-opacity:1;" d="M 9.015625 96.4375 C 9.949219 96.984375 10.875 97.386719 11.792969 97.652344 C 12.707031 97.917969 13.632812 98.050781 14.574219 98.050781 C 15.511719 98.050781 16.445312 97.917969 17.367188 97.648438 C 18.289062 97.382812 19.214844 96.980469 20.148438 96.4375 L 20.148438 97.414062 C 19.191406 98.023438 18.25 98.480469 17.328125 98.785156 C 16.402344 99.085938 15.484375 99.238281 14.574219 99.238281 C 13.667969 99.238281 12.753906 99.089844 11.835938 98.789062 C 10.914062 98.484375 9.972656 98.027344 9.015625 97.414062 Z M 9.015625 96.4375 "/>
<path style=" stroke:none;fill-rule:nonzero;fill:rgb(0%,0%,0%);fill-opacity:1;" d="M 11.664062 88.574219 L 14.988281 91.046875 L 18.5 88.449219 L 18.5 89.773438 L 15.8125 91.761719 L 18.5 93.75 L 18.5 95.078125 L 14.921875 92.421875 L 11.664062 94.851562 L 11.664062 93.527344 L 14.097656 91.714844 L 11.664062 89.902344 Z M 11.664062 88.574219 "/>
<path style=" stroke:none;fill-rule:nonzero;fill:rgb(0%,0%,0%);fill-opacity:1;" d="M 9.015625 87.039062 L 9.015625 86.0625 C 9.972656 85.453125 10.914062 84.996094 11.835938 84.691406 C 12.753906 84.386719 13.667969 84.238281 14.574219 84.238281 C 15.484375 84.238281 16.402344 84.386719 17.328125 84.691406 C 18.25 84.996094 19.191406 85.453125 20.148438 86.0625 L 20.148438 87.039062 C 19.214844 86.496094 18.289062 86.09375 17.367188 85.828125 C 16.445312 85.558594 15.511719 85.425781 14.574219 85.425781 C 13.632812 85.425781 12.707031 85.558594 11.792969 85.828125 C 10.875 86.09375 9.949219 86.496094 9.015625 87.039062 Z M 9.015625 87.039062 "/>
<path style="fill:none;stroke-width:1.5;stroke-linecap:square;stroke-linejoin:round;stroke:rgb(12.156863%,46.666667%,70.588235%);stroke-opacity:1;stroke-miterlimit:4;" d="M 57.859375 130.63125 L 58.690625 133.6 L 59.39375 135.384375 L 60 136.378125 L 60.5125 136.825 L 60.928125 136.921875 L 61.34375 136.784375 L 61.790625 136.378125 L 62.3 135.590625 L 62.909375 134.221875 L 63.64375 131.953125 L 64.50625 128.490625 L 65.496875 123.540625 L 66.678125 116.453125 L 68.15 106.2125 L 70.290625 89.5375 L 74.125 59.578125 L 75.721875 48.91875 L 77.03125 41.584375 L 78.15 36.521875 L 79.109375 33.14375 L 79.9375 30.971875 L 80.640625 29.7 L 81.25 29.01875 L 81.759375 28.74375 L 82.240625 28.734375 L 82.71875 28.959375 L 83.23125 29.453125 L 83.8375 30.371875 L 84.540625 31.865625 L 85.371875 34.19375 L 86.3625 37.69375 L 87.54375 42.76875 L 89.0125 50.15 L 91.121875 62.040625 L 94.9875 83.925 L 96.5875 91.625 L 97.896875 96.915625 L 99.015625 100.56875 L 100.00625 103.08125 L 100.86875 104.690625 L 101.603125 105.63125 L 102.240625 106.121875 L 102.815625 106.309375 L 103.390625 106.2625 L 103.965625 105.984375 L 104.60625 105.4125 L 105.340625 104.4375 L 106.171875 102.946875 L 107.1625 100.6875 L 108.34375 97.40625 L 109.846875 92.540625 L 112.24375 83.896875 L 115.2125 73.365625 L 116.84375 68.4 L 118.184375 64.990625 L 119.334375 62.64375 L 120.359375 61.04375 L 121.253125 60.028125 L 122.084375 59.40625 L 122.85 59.1 L 123.584375 59.04375 L 124.31875 59.203125 L 125.11875 59.609375 L 126.0125 60.325 L 127.06875 61.471875 L 128.346875 63.21875 L 130.103125 66.04375 L 134.415625 73.13125 L 135.8875 75.040625 L 137.134375 76.309375 L 138.25 77.140625 L 139.275 77.63125 L 140.265625 77.86875 L 141.25625 77.878125 L 142.309375 77.659375 L 143.490625 77.18125 L 144.928125 76.34375 L 147.6125 74.45 L 149.5 73.2625 L 150.809375 72.6875 L 151.928125 72.43125 L 152.95 72.428125 L 153.940625 72.65 L 154.93125 73.109375 L 155.953125 73.8375 L 157.071875 74.9125 L 158.31875 76.43125 L 159.81875 78.63125 L 162.025 82.309375 L 164.9625 87.146875 L 166.36875 89.034375 L 167.4875 90.190625 L 168.446875 90.86875 L 169.278125 91.19375 L 170.04375 91.25625 L 170.778125 91.0875 L 171.5125 90.684375 L 172.28125 90.00625 L 173.14375 88.928125 L 174.06875 87.4 L 175.125 85.209375 L 176.30625 82.221875 L 177.7125 78.034375 L 179.5 71.95 L 185.09375 52.38125 L 186.371875 48.95625 L 187.425 46.7125 L 188.31875 45.296875 L 189.0875 44.475 L 189.725 44.0875 L 190.3 43.978125 L 190.84375 44.09375 L 191.41875 44.446875 L 192.059375 45.125 L 192.7625 46.21875 L 193.559375 47.903125 L 194.45625 50.33125 L 195.478125 53.78125 L 196.659375 58.5875 L 198.065625 65.2875 L 199.8875 75.153125 L 205.575 106.8375 L 206.915625 112.653125 L 208.003125 116.440625 L 208.928125 118.9125 L 209.696875 120.378125 L 210.334375 121.16875 L 210.878125 121.521875 L 211.35625 121.584375 L 211.8375 121.409375 L 212.346875 120.959375 L 212.921875 120.121875 L 213.59375 118.70625 L 214.3625 116.515625 L 215.225 113.34375 L 216.215625 108.815625 L 217.365625 102.46875 L 218.7375 93.565625 L 220.496875 80.584375 L 226.790625 32.54375 L 228.06875 25.159375 L 229.121875 20.25 L 230.01875 17.046875 L 230.784375 15.065625 L 231.425 13.984375 L 231.934375 13.50625 L 232.38125 13.378125 L 232.796875 13.5 L 233.24375 13.896875 L 233.75625 14.6875 L 234.3625 16.090625 L 235.065625 18.34375 L 235.384375 19.5875 " transform="matrix(1.25,0,0,1.25,0,0.000000000000014211)"/>
<path style="fill:none;stroke-width:1.5;stroke-linecap:square;stroke-linejoin:round;stroke:rgb(100%,49.803922%,5.490196%);stroke-opacity:1;stroke-miterlimit:4;" d="M 178.584375 75.15 L 162.609375 83.315625 L 226.496875 34.434375 L 235.40625 19.66875 L 232.265625 13.384375 L 232.375 13.378125 L 232.371875 13.378125 " transform="matrix(1.25,0,0,1.25,0,0.000000000000014211)"/>
<path style="fill-rule:nonzero;fill:rgb(100%,49.803922%,5.490196%);fill-opacity:1;stroke-width:1;stroke-linecap:butt;stroke-linejoin:round;stroke:rgb(100%,49.803922%,5.490196%);stroke-opacity:1;stroke-miterlimit:4;" d="M -0.000469 2.999996 C 0.796406 2.999996 1.558906 2.684371 2.121406 2.121871 C 2.683906 1.559371 2.999531 0.796871 2.999531 -0.000004 C 2.999531 -0.796879 2.683906 -1.559379 2.121406 -2.121879 C 1.558906 -2.684379 0.796406 -3.000004 -0.000469 -3.000004 C -0.794219 -3.000004 -1.559844 -2.684379 -2.122344 -2.121879 C -2.684844 -1.559379 -3.000469 -0.796879 -3.000469 -0.000004 C -3.000469 0.796871 -2.684844 1.559371 -2.122344 2.121871 C -1.559844 2.684371 -0.794219 2.999996 -0.000469 2.999996 Z M -0.000469 2.999996 " transform="matrix(1.25,0,0,1.25,223.231055,93.937505)"/>
<path style="fill-rule:nonzero;fill:rgb(100%,49.803922%,5.490196%);fill-opacity:1;stroke-width:1;stroke-linecap:butt;stroke-linejoin:round;stroke:rgb(100%,49.803922%,5.490196%);stroke-opacity:1;stroke-miterlimit:4;" d="M 0.000547 3.001338 C 0.794297 3.001338 1.559922 2.682588 2.122422 2.120088 C 2.684922 1.557588 3.000547 0.795088 3.000547 0.001338 C 3.000547 -0.795537 2.684922 -1.558037 2.122422 -2.120537 C 1.559922 -2.683037 0.794297 -2.998662 0.000547 -2.998662 C -0.796328 -2.998662 -1.558828 -2.683037 -2.121328 -2.120537 C -2.683828 -1.558037 -2.999453 -0.795537 -2.999453 0.001338 C -2.999453 0.795088 -2.683828 1.557588 -2.121328 2.120088 C -1.558828 2.682588 -0.796328 3.001338 0.000547 3.001338 Z M 0.000547 3.001338 " transform="matrix(1.25,0,0,1.25,203.261035,104.142859)"/>
<path style="fill-rule:nonzero;fill:rgb(100%,49.803922%,5.490196%);fill-opacity:1;stroke-width:1;stroke-linecap:butt;stroke-linejoin:round;stroke:rgb(100%,49.803922%,5.490196%);stroke-opacity:1;stroke-miterlimit:4;" d="M 0.000378 2.998623 C 0.794128 2.998623 1.559753 2.682998 2.122253 2.120498 C 2.684753 1.557998 3.000378 0.795498 3.000378 -0.001377 C 3.000378 -0.795127 2.684753 -1.557627 2.122253 -2.120127 C 1.559753 -2.682627 0.794128 -3.001377 0.000378 -3.001377 C -0.796497 -3.001377 -1.558997 -2.682627 -2.121497 -2.120127 C -2.683997 -1.557627 -2.999622 -0.795127 -2.999622 -0.001377 C -2.999622 0.795498 -2.683997 1.557998 -2.121497 2.120498 C -1.558997 2.682998 -0.796497 2.998623 0.000378 2.998623 Z M 0.000378 2.998623 " transform="matrix(1.25,0,0,1.25,283.120621,43.04469)"/>
<path style="fill-rule:nonzero;fill:rgb(100%,49.803922%,5.490196%);fill-opacity:1;stroke-width:1;stroke-linecap:butt;stroke-linejoin:round;stroke:rgb(100%,49.803922%,5.490196%);stroke-opacity:1;stroke-miterlimit:4;" d="M 0.00071 2.999334 C 0.79446 2.999334 1.560085 2.683709 2.122585 2.121209 C 2.685085 1.558709 3.00071 0.796209 3.00071 -0.000666 C 3.00071 -0.794416 2.685085 -1.560041 2.122585 -2.122541 C 1.560085 -2.685041 0.79446 -3.000666 0.00071 -3.000666 C -0.796165 -3.000666 -1.558665 -2.685041 -2.121165 -2.122541 C -2.683665 -1.560041 -2.99929 -0.794416 -2.99929 -0.000666 C -2.99929 0.796209 -2.683665 1.558709 -2.121165 2.121209 C -1.558665 2.683709 -0.796165 2.999334 0.00071 2.999334 Z M 0.00071 2.999334 " transform="matrix(1.25,0,0,1.25,294.256925,24.58677)"/>
<path style="fill-rule:nonzero;fill:rgb(100%,49.803922%,5.490196%);fill-opacity:1;stroke-width:1;stroke-linecap:butt;stroke-linejoin:round;stroke:rgb(100%,49.803922%,5.490196%);stroke-opacity:1;stroke-miterlimit:4;" d="M 0.001061 2.999064 C 0.794811 2.999064 1.557311 2.683439 2.119811 2.120939 C 2.685436 1.558439 3.001061 0.795939 3.001061 -0.000936 C 3.001061 -0.794686 2.685436 -1.557186 2.119811 -2.122811 C 1.557311 -2.685311 0.794811 -3.000936 0.001061 -3.000936 C -0.795814 -3.000936 -1.558314 -2.685311 -2.120814 -2.122811 C -2.683314 -1.557186 -2.998939 -0.794686 -2.998939 -0.000936 C -2.998939 0.795939 -2.683314 1.558439 -2.120814 2.120939 C -1.558314 2.683439 -0.795814 2.999064 0.001061 2.999064 Z M 0.001061 2.999064 " transform="matrix(1.25,0,0,1.25,290.330705,16.731639)"/>
<path style="fill-rule:nonzero;fill:rgb(100%,49.803922%,5.490196%);fill-opacity:1;stroke-width:1;stroke-linecap:butt;stroke-linejoin:round;stroke:rgb(100%,49.803922%,5.490196%);stroke-opacity:1;stroke-miterlimit:4;" d="M 0.001542 3.000852 C 0.795292 3.000852 1.557792 2.685227 2.120292 2.122727 C 2.682792 1.560227 3.001542 0.794602 3.001542 0.000852 C 3.001542 -0.796023 2.682792 -1.558523 2.120292 -2.121023 C 1.557792 -2.683523 0.795292 -2.999148 0.001542 -2.999148 C -0.795333 -2.999148 -1.557833 -2.683523 -2.120333 -2.121023 C -2.682833 -1.558523 -2.998458 -0.796023 -2.998458 0.000852 C -2.998458 0.794602 -2.682833 1.560227 -2.120333 2.122727 C -1.557833 2.685227 -0.795333 3.000852 0.001542 3.000852 Z M 0.001542 3.000852 " transform="matrix(1.25,0,0,1.25,290.466822,16.721591)"/>
<path style="fill-rule:nonzero;fill:rgb(100%,49.803922%,5.490196%);fill-opacity:1;stroke-width:1;stroke-linecap:butt;stroke-linejoin:round;stroke:rgb(100%,49.803922%,5.490196%);stroke-opacity:1;stroke-miterlimit:4;" d="M -0.001437 3.000852 C 0.795438 3.000852 1.557938 2.685227 2.120438 2.122727 C 2.682938 1.560227 2.998563 0.794602 2.998563 0.000852 C 2.998563 -0.796023 2.682938 -1.558523 2.120438 -2.121023 C 1.557938 -2.683523 0.795438 -2.999148 -0.001437 -2.999148 C -0.795187 -2.999148 -1.557687 -2.683523 -2.120187 -2.121023 C -2.682687 -1.558523 -3.001437 -0.796023 -3.001437 0.000852 C -3.001437 0.794602 -2.682687 1.560227 -2.120187 2.122727 C -1.557687 2.685227 -0.795187 3.000852 -0.001437 3.000852 Z M -0.001437 3.000852 " transform="matrix(1.25,0,0,1.25,290.46664,16.721591)"/>
<path style="fill-rule:nonzero;fill:rgb(100%,49.803922%,5.490196%);fill-opacity:1;stroke-width:1;stroke-linecap:butt;stroke-linejoin:round;stroke:rgb(100%,49.803922%,5.490196%);stroke-opacity:1;stroke-miterlimit:4;" d="M -0.001443 3.000852 C 0.795432 3.000852 1.557932 2.685227 2.120432 2.122727 C 2.682932 1.560227 2.998557 0.794602 2.998557 0.000852 C 2.998557 -0.796023 2.682932 -1.558523 2.120432 -2.121023 C 1.557932 -2.683523 0.795432 -2.999148 -0.001443 -2.999148 C -0.795193 -2.999148 -1.557693 -2.683523 -2.120193 -2.121023 C -2.682693 -1.558523 -3.001443 -0.796023 -3.001443 0.000852 C -3.001443 0.794602 -2.682693 1.560227 -2.120193 2.122727 C -1.557693 2.685227 -0.795193 3.000852 -0.001443 3.000852 Z M -0.001443 3.000852 " transform="matrix(1.25,0,0,1.25,290.466648,16.721591)"/>
<path style="fill-rule:nonzero;fill:rgb(100%,49.803922%,5.490196%);fill-opacity:1;stroke-width:1;stroke-linecap:butt;stroke-linejoin:round;stroke:rgb(100%,49.803922%,5.490196%);stroke-opacity:1;stroke-miterlimit:4;" d="M -0.001443 3.000852 C 0.795432 3.000852 1.557932 2.685227 2.120432 2.122727 C 2.682932 1.560227 2.998557 0.794602 2.998557 0.000852 C 2.998557 -0.796023 2.682932 -1.558523 2.120432 -2.121023 C 1.557932 -2.683523 0.795432 -2.999148 -0.001443 -2.999148 C -0.795193 -2.999148 -1.557693 -2.683523 -2.120193 -2.121023 C -2.682693 -1.558523 -3.001443 -0.796023 -3.001443 0.000852 C -3.001443 0.794602 -2.682693 1.560227 -2.120193 2.122727 C -1.557693 2.685227 -0.795193 3.000852 -0.001443 3.000852 Z M -0.001443 3.000852 " transform="matrix(1.25,0,0,1.25,290.466648,16.721591)"/>
<path style="fill-rule:nonzero;fill:rgb(100%,49.803922%,5.490196%);fill-opacity:1;stroke-width:1;stroke-linecap:butt;stroke-linejoin:round;stroke:rgb(100%,49.803922%,5.490196%);stroke-opacity:1;stroke-miterlimit:4;" d="M -0.001443 3.000852 C 0.795432 3.000852 1.557932 2.685227 2.120432 2.122727 C 2.682932 1.560227 2.998557 0.794602 2.998557 0.000852 C 2.998557 -0.796023 2.682932 -1.558523 2.120432 -2.121023 C 1.557932 -2.683523 0.795432 -2.999148 -0.001443 -2.999148 C -0.795193 -2.999148 -1.557693 -2.683523 -2.120193 -2.121023 C -2.682693 -1.558523 -3.001443 -0.796023 -3.001443 0.000852 C -3.001443 0.794602 -2.682693 1.560227 -2.120193 2.122727 C -1.557693 2.685227 -0.795193 3.000852 -0.001443 3.000852 Z M -0.001443 3.000852 " transform="matrix(1.25,0,0,1.25,290.466648,16.721591)"/>
<path style="fill-rule:nonzero;fill:rgb(100%,49.803922%,5.490196%);fill-opacity:1;stroke-width:1;stroke-linecap:butt;stroke-linejoin:round;stroke:rgb(100%,49.803922%,5.490196%);stroke-opacity:1;stroke-miterlimit:4;" d="M -0.001443 3.000852 C 0.795432 3.000852 1.557932 2.685227 2.120432 2.122727 C 2.682932 1.560227 2.998557 0.794602 2.998557 0.000852 C 2.998557 -0.796023 2.682932 -1.558523 2.120432 -2.121023 C 1.557932 -2.683523 0.795432 -2.999148 -0.001443 -2.999148 C -0.795193 -2.999148 -1.557693 -2.683523 -2.120193 -2.121023 C -2.682693 -1.558523 -3.001443 -0.796023 -3.001443 0.000852 C -3.001443 0.794602 -2.682693 1.560227 -2.120193 2.122727 C -1.557693 2.685227 -0.795193 3.000852 -0.001443 3.000852 Z M -0.001443 3.000852 " transform="matrix(1.25,0,0,1.25,290.466648,16.721591)"/>
<path style="fill:none;stroke-width:0.8;stroke-linecap:square;stroke-linejoin:miter;stroke:rgb(0%,0%,0%);stroke-opacity:1;stroke-miterlimit:4;" d="M 48.984375 143.1 L 48.984375 7.2 " transform="matrix(1.25,0,0,1.25,0,0.000000000000014211)"/>
<path style="fill:none;stroke-width:0.8;stroke-linecap:square;stroke-linejoin:miter;stroke:rgb(0%,0%,0%);stroke-opacity:1;stroke-miterlimit:4;" d="M 244.284375 143.1 L 244.284375 7.2 " transform="matrix(1.25,0,0,1.25,0,0.000000000000014211)"/>
<path style="fill:none;stroke-width:0.8;stroke-linecap:square;stroke-linejoin:miter;stroke:rgb(0%,0%,0%);stroke-opacity:1;stroke-miterlimit:4;" d="M 48.984375 143.1 L 244.28125 143.1 " transform="matrix(1.25,0,0,1.25,0,0.000000000000014211)"/>
<path style="fill:none;stroke-width:0.8;stroke-linecap:square;stroke-linejoin:miter;stroke:rgb(0%,0%,0%);stroke-opacity:1;stroke-miterlimit:4;" d="M 48.984375 7.2 L 244.28125 7.2 " transform="matrix(1.25,0,0,1.25,0,0.000000000000014211)"/>
</g>
</svg>
