<?xml version="1.0" encoding="UTF-8"?>
<svg xmlns="http://www.w3.org/2000/svg" xmlns:xlink="http://www.w3.org/1999/xlink" width="320pt" height="230pt" viewBox="0 0 320 230" version="1.1">
<defs>
<clipPath id="clip1">
  <path d="M 98 12.722656 L 100 12.722656 L 100 182.597656 L 98 182.597656 Z M 98 12.722656 "/>
</clipPath>
<clipPath id="clip2">
  <path d="M 143 12.722656 L 145 12.722656 L 145 182.597656 L 143 182.597656 Z M 143 12.722656 "/>
</clipPath>
<clipPath id="clip3">
  <path d="M 188 12.722656 L 190 12.722656 L 190 182.597656 L 188 182.597656 Z M 188 12.722656 "/>
</clipPath>
<clipPath id="clip4">
  <path d="M 232 12.722656 L 235 12.722656 L 235 182.597656 L 232 182.597656 Z M 232 12.722656 "/>
</clipPath>
<clipPath id="clip5">
  <path d="M 277 12.722656 L 280 12.722656 L 280 182.597656 L 277 182.597656 Z M 277 12.722656 "/>
</clipPath>
<clipPath id="clip6">
  <path d="M 66.660156 174 L 310.785156 174 L 310.785156 176 L 66.660156 176 Z M 66.660156 174 "/>
</clipPath>
<clipPath id="clip7">
  <path d="M 66.660156 133 L 310.785156 133 L 310.785156 136 L 66.660156 136 Z M 66.660156 133 "/>
</clipPath>
<clipPath id="clip8">
  <path d="M 66.660156 93 L 310.785156 93 L 310.785156 96 L 66.660156 96 Z M 66.660156 93 "/>
</clipPath>
<clipPath id="clip9">
  <path d="M 66.660156 53 L 310.785156 53 L 310.785156 55 L 66.660156 55 Z M 66.660156 53 "/>
</clipPath>
<clipPath id="clip10">
  <path d="M 66.660156 13 L 310.785156 13 L 310.785156 15 L 66.660156 15 Z M 66.660156 13 "/>
</clipPath>
</defs>
<g id="surface1">
<path style=" stroke:none;fill-rule:nonzero;fill:rgb(100%,100%,100%);fill-opacity:1;" d="M 66.660156 182.597656 L 310.785156 182.597656 L 310.785156 12.722656 L 66.660156 12.722656 Z M 66.660156 182.597656 "/>
<g clip-path="url(#clip1)" clip-rule="nonzero">
<path style="fill:none;stroke-width:0.8;stroke-linecap:square;stroke-linejoin:round;stroke:rgb(69.019608%,69.019608%,69.019608%);stroke-opacity:1;stroke-miterlimit:4;" d="M 79.290625 146.078125 L 79.290625 10.178125 " transform="matrix(1.25,0,0,1.25,0,0)"/>
</g>
<path style="fill:none;stroke-width:0.8;stroke-linecap:butt;stroke-linejoin:round;stroke:rgb(0%,0%,0%);stroke-opacity:1;stroke-miterlimit:4;" d="M -0.001047 -0.001007 L -0.001047 3.498993 " transform="matrix(1.25,0,0,1.25,99.11459,182.598915)"/>
<path style=" stroke:none;fill-rule:nonzero;fill:rgb(0%,0%,0%);fill-opacity:1;" d="M 87.25 196.410156 L 95.074219 196.410156 L 95.074219 197.445312 L 87.25 197.445312 Z M 87.25 196.410156 "/>
<path style=" stroke:none;fill-rule:nonzero;fill:rgb(0%,0%,0%);fill-opacity:1;" d="M 97.746094 191.734375 L 102.585938 191.734375 L 102.585938 192.773438 L 98.875 192.773438 L 98.875 195.003906 C 99.054688 194.945312 99.234375 194.898438 99.410156 194.867188 C 99.589844 194.839844 99.769531 194.824219 99.949219 194.824219 C 100.96875 194.824219 101.773438 195.101562 102.367188 195.660156 C 102.960938 196.214844 103.257812 196.972656 103.257812 197.921875 C 103.257812 198.902344 102.953125 199.664062 102.34375 200.210938 C 101.734375 200.753906 100.871094 201.023438 99.761719 201.023438 C 99.378906 201.023438 98.988281 200.992188 98.589844 200.925781 C 98.195312 200.863281 97.785156 200.765625 97.363281 200.632812 L 97.363281 199.394531 C 97.730469 199.59375 98.105469 199.742188 98.496094 199.839844 C 98.886719 199.9375 99.300781 199.984375 99.734375 199.984375 C 100.441406 199.984375 100.996094 199.800781 101.40625 199.429688 C 101.820312 199.0625 102.023438 198.558594 102.023438 197.921875 C 102.023438 197.289062 101.820312 196.785156 101.40625 196.417969 C 100.996094 196.046875 100.441406 195.859375 99.734375 195.859375 C 99.40625 195.859375 99.078125 195.898438 98.75 195.96875 C 98.421875 196.042969 98.089844 196.15625 97.746094 196.3125 Z M 97.746094 191.734375 "/>
<path style=" stroke:none;fill-rule:nonzero;fill:rgb(0%,0%,0%);fill-opacity:1;" d="M 108.324219 192.546875 C 107.6875 192.546875 107.210938 192.859375 106.890625 193.484375 C 106.574219 194.105469 106.414062 195.046875 106.414062 196.300781 C 106.414062 197.546875 106.574219 198.484375 106.890625 199.109375 C 107.210938 199.734375 107.6875 200.046875 108.324219 200.046875 C 108.960938 200.046875 109.441406 199.734375 109.761719 199.109375 C 110.082031 198.484375 110.242188 197.546875 110.242188 196.300781 C 110.242188 195.046875 110.082031 194.105469 109.761719 193.484375 C 109.441406 192.859375 108.960938 192.546875 108.324219 192.546875 Z M 108.324219 191.570312 C 109.34375 191.570312 110.125 191.972656 110.664062 192.78125 C 111.203125 193.589844 111.472656 194.761719 111.472656 196.300781 C 111.472656 197.832031 111.203125 199.003906 110.664062 199.8125 C 110.125 200.621094 109.34375 201.023438 108.324219 201.023438 C 107.300781 201.023438 106.523438 200.621094 105.984375 199.8125 C 105.445312 199.003906 105.175781 197.832031 105.175781 196.300781 C 105.175781 194.761719 105.445312 193.589844 105.984375 192.78125 C 106.523438 191.972656 107.300781 191.570312 108.324219 191.570312 Z M 108.324219 191.570312 "/>
<g clip-path="url(#clip2)" clip-rule="nonzero">
<path style="fill:none;stroke-width:0.8;stroke-linecap:square;stroke-linejoin:round;stroke:rgb(69.019608%,69.019608%,69.019608%);stroke-opacity:1;stroke-miterlimit:4;" d="M 115.134375 146.078125 L 115.134375 10.178125 " transform="matrix(1.25,0,0,1.25,0,0)"/>
</g>
<path style="fill:none;stroke-width:0.8;stroke-linecap:butt;stroke-linejoin:round;stroke:rgb(0%,0%,0%);stroke-opacity:1;stroke-miterlimit:4;" d="M -0.000524 -0.001007 L -0.000524 3.498993 " transform="matrix(1.25,0,0,1.25,143.918624,182.598915)"/>
<path style=" stroke:none;fill-rule:nonzero;fill:rgb(0%,0%,0%);fill-opacity:1;" d="M 132.050781 196.410156 L 139.875 196.410156 L 139.875 197.445312 L 132.050781 197.445312 Z M 132.050781 196.410156 "/>
<path style=" stroke:none;fill-rule:nonzero;fill:rgb(0%,0%,0%);fill-opacity:1;" d="M 143.601562 199.808594 L 147.902344 199.808594 L 147.902344 200.847656 L 142.117188 200.847656 L 142.117188 199.808594 C 142.585938 199.324219 143.222656 198.675781 144.03125 197.859375 C 144.839844 197.042969 145.347656 196.515625 145.554688 196.28125 C 145.949219 195.835938 146.222656 195.460938 146.378906 195.15625 C 146.539062 194.847656 146.617188 194.546875 146.617188 194.25 C 146.617188 193.765625 146.445312 193.371094 146.105469 193.066406 C 145.765625 192.757812 145.324219 192.605469 144.777344 192.605469 C 144.390625 192.605469 143.984375 192.671875 143.554688 192.808594 C 143.125 192.941406 142.667969 193.144531 142.179688 193.417969 L 142.179688 192.171875 C 142.675781 191.972656 143.136719 191.824219 143.570312 191.722656 C 144 191.621094 144.398438 191.570312 144.753906 191.570312 C 145.699219 191.570312 146.453125 191.804688 147.011719 192.277344 C 147.574219 192.75 147.855469 193.378906 147.855469 194.167969 C 147.855469 194.542969 147.785156 194.898438 147.644531 195.234375 C 147.503906 195.570312 147.25 195.964844 146.878906 196.421875 C 146.777344 196.539062 146.453125 196.878906 145.90625 197.445312 C 145.363281 198.007812 144.59375 198.796875 143.601562 199.808594 Z M 143.601562 199.808594 "/>
<path style=" stroke:none;fill-rule:nonzero;fill:rgb(0%,0%,0%);fill-opacity:1;" d="M 150.503906 191.734375 L 155.34375 191.734375 L 155.34375 192.773438 L 151.632812 192.773438 L 151.632812 195.003906 C 151.8125 194.945312 151.988281 194.898438 152.167969 194.867188 C 152.347656 194.839844 152.527344 194.824219 152.707031 194.824219 C 153.722656 194.824219 154.53125 195.101562 155.125 195.660156 C 155.71875 196.214844 156.015625 196.972656 156.015625 197.921875 C 156.015625 198.902344 155.710938 199.664062 155.101562 200.210938 C 154.488281 200.753906 153.628906 201.023438 152.519531 201.023438 C 152.136719 201.023438 151.746094 200.992188 151.347656 200.925781 C 150.953125 200.863281 150.542969 200.765625 150.121094 200.632812 L 150.121094 199.394531 C 150.484375 199.59375 150.863281 199.742188 151.253906 199.839844 C 151.644531 199.9375 152.058594 199.984375 152.492188 199.984375 C 153.195312 199.984375 153.753906 199.800781 154.164062 199.429688 C 154.574219 199.0625 154.78125 198.558594 154.78125 197.921875 C 154.78125 197.289062 154.574219 196.785156 154.164062 196.417969 C 153.753906 196.046875 153.195312 195.859375 152.492188 195.859375 C 152.164062 195.859375 151.835938 195.898438 151.507812 195.96875 C 151.179688 196.042969 150.84375 196.15625 150.503906 196.3125 Z M 150.503906 191.734375 "/>
<g clip-path="url(#clip3)" clip-rule="nonzero">
<path style="fill:none;stroke-width:0.8;stroke-linecap:square;stroke-linejoin:round;stroke:rgb(69.019608%,69.019608%,69.019608%);stroke-opacity:1;stroke-miterlimit:4;" d="M 150.978125 146.078125 L 150.978125 10.178125 " transform="matrix(1.25,0,0,1.25,0,0)"/>
</g>
<path style="fill:none;stroke-width:0.8;stroke-linecap:butt;stroke-linejoin:round;stroke:rgb(0%,0%,0%);stroke-opacity:1;stroke-miterlimit:4;" d="M -0.000001 -0.001007 L -0.000001 3.498993 " transform="matrix(1.25,0,0,1.25,188.722657,182.598915)"/>
<path style=" stroke:none;fill-rule:nonzero;fill:rgb(0%,0%,0%);fill-opacity:1;" d="M 188.71875 192.546875 C 188.085938 192.546875 187.609375 192.859375 187.289062 193.484375 C 186.96875 194.105469 186.808594 195.046875 186.808594 196.300781 C 186.808594 197.546875 186.96875 198.484375 187.289062 199.109375 C 187.609375 199.734375 188.085938 200.046875 188.71875 200.046875 C 189.359375 200.046875 189.835938 199.734375 190.15625 199.109375 C 190.476562 198.484375 190.636719 197.546875 190.636719 196.300781 C 190.636719 195.046875 190.476562 194.105469 190.15625 193.484375 C 189.835938 192.859375 189.359375 192.546875 188.71875 192.546875 Z M 188.71875 191.570312 C 189.742188 191.570312 190.523438 191.972656 191.0625 192.78125 C 191.601562 193.589844 191.871094 194.761719 191.871094 196.300781 C 191.871094 197.832031 191.601562 199.003906 191.0625 199.8125 C 190.523438 200.621094 189.742188 201.023438 188.71875 201.023438 C 187.699219 201.023438 186.917969 200.621094 186.378906 199.8125 C 185.839844 199.003906 185.570312 197.832031 185.570312 196.300781 C 185.570312 194.761719 185.839844 193.589844 186.378906 192.78125 C 186.917969 191.972656 187.699219 191.570312 188.71875 191.570312 Z M 188.71875 191.570312 "/>
<g clip-path="url(#clip4)" clip-rule="nonzero">
<path style="fill:none;stroke-width:0.8;stroke-linecap:square;stroke-linejoin:round;stroke:rgb(69.019608%,69.019608%,69.019608%);stroke-opacity:1;stroke-miterlimit:4;" d="M 186.821875 146.078125 L 186.821875 10.178125 " transform="matrix(1.25,0,0,1.25,0,0)"/>
</g>
<path style="fill:none;stroke-width:0.8;stroke-linecap:butt;stroke-linejoin:round;stroke:rgb(0%,0%,0%);stroke-opacity:1;stroke-miterlimit:4;" d="M 0.000522 -0.001007 L 0.000522 3.498993 " transform="matrix(1.25,0,0,1.25,233.526691,182.598915)"/>
<path style=" stroke:none;fill-rule:nonzero;fill:rgb(0%,0%,0%);fill-opacity:1;" d="M 227.972656 199.808594 L 232.273438 199.808594 L 232.273438 200.847656 L 226.488281 200.847656 L 226.488281 199.808594 C 226.957031 199.324219 227.59375 198.675781 228.402344 197.859375 C 229.210938 197.042969 229.71875 196.515625 229.925781 196.28125 C 230.320312 195.835938 230.59375 195.460938 230.75 195.15625 C 230.910156 194.847656 230.988281 194.546875 230.988281 194.25 C 230.988281 193.765625 230.816406 193.371094 230.476562 193.066406 C 230.136719 192.757812 229.695312 192.605469 229.148438 192.605469 C 228.761719 192.605469 228.355469 192.671875 227.925781 192.808594 C 227.496094 192.941406 227.039062 193.144531 226.550781 193.417969 L 226.550781 192.171875 C 227.046875 191.972656 227.507812 191.824219 227.941406 191.722656 C 228.371094 191.621094 228.769531 191.570312 229.125 191.570312 C 230.070312 191.570312 230.824219 191.804688 231.382812 192.277344 C 231.945312 192.75 232.226562 193.378906 232.226562 194.167969 C 232.226562 194.542969 232.15625 194.898438 232.015625 195.234375 C 231.875 195.570312 231.621094 195.964844 231.25 196.421875 C 231.148438 196.539062 230.824219 196.878906 230.277344 197.445312 C 229.734375 198.007812 228.964844 198.796875 227.972656 199.808594 Z M 227.972656 199.808594 "/>
<path style=" stroke:none;fill-rule:nonzero;fill:rgb(0%,0%,0%);fill-opacity:1;" d="M 234.875 191.734375 L 239.714844 191.734375 L 239.714844 192.773438 L 236.003906 192.773438 L 236.003906 195.003906 C 236.183594 194.945312 236.363281 194.898438 236.539062 194.867188 C 236.71875 194.839844 236.898438 194.824219 237.078125 194.824219 C 238.097656 194.824219 238.902344 195.101562 239.496094 195.660156 C 240.089844 196.214844 240.386719 196.972656 240.386719 197.921875 C 240.386719 198.902344 240.082031 199.664062 239.472656 200.210938 C 238.859375 200.753906 238 201.023438 236.890625 201.023438 C 236.507812 201.023438 236.117188 200.992188 235.71875 200.925781 C 235.324219 200.863281 234.914062 200.765625 234.492188 200.632812 L 234.492188 199.394531 C 234.855469 199.59375 235.234375 199.742188 235.625 199.839844 C 236.015625 199.9375 236.429688 199.984375 236.863281 199.984375 C 237.570312 199.984375 238.125 199.800781 238.535156 199.429688 C 238.949219 199.0625 239.152344 198.558594 239.152344 197.921875 C 239.152344 197.289062 238.949219 196.785156 238.535156 196.417969 C 238.125 196.046875 237.570312 195.859375 236.863281 195.859375 C 236.535156 195.859375 236.207031 195.898438 235.878906 195.96875 C 235.550781 196.042969 235.21875 196.15625 234.875 196.3125 Z M 234.875 191.734375 "/>
<g clip-path="url(#clip5)" clip-rule="nonzero">
<path style="fill:none;stroke-width:0.8;stroke-linecap:square;stroke-linejoin:round;stroke:rgb(69.019608%,69.019608%,69.019608%);stroke-opacity:1;stroke-miterlimit:4;" d="M 222.665625 146.078125 L 222.665625 10.178125 " transform="matrix(1.25,0,0,1.25,0,0)"/>
</g>
<path style="fill:none;stroke-width:0.8;stroke-linecap:butt;stroke-linejoin:round;stroke:rgb(0%,0%,0%);stroke-opacity:1;stroke-miterlimit:4;" d="M 0.001044 -0.001007 L 0.001044 3.498993 " transform="matrix(1.25,0,0,1.25,278.330726,182.598915)"/>
<path style=" stroke:none;fill-rule:nonzero;fill:rgb(0%,0%,0%);fill-opacity:1;" d="M 271.726562 191.734375 L 276.566406 191.734375 L 276.566406 192.773438 L 272.855469 192.773438 L 272.855469 195.003906 C 273.035156 194.945312 273.210938 194.898438 273.390625 194.867188 C 273.570312 194.839844 273.75 194.824219 273.929688 194.824219 C 274.945312 194.824219 275.753906 195.101562 276.347656 195.660156 C 276.941406 196.214844 277.238281 196.972656 277.238281 197.921875 C 277.238281 198.902344 276.933594 199.664062 276.324219 200.210938 C 275.710938 200.753906 274.851562 201.023438 273.742188 201.023438 C 273.359375 201.023438 272.96875 200.992188 272.570312 200.925781 C 272.175781 200.863281 271.765625 200.765625 271.34375 200.632812 L 271.34375 199.394531 C 271.707031 199.59375 272.085938 199.742188 272.476562 199.839844 C 272.867188 199.9375 273.28125 199.984375 273.714844 199.984375 C 274.417969 199.984375 274.976562 199.800781 275.386719 199.429688 C 275.796875 199.0625 276.003906 198.558594 276.003906 197.921875 C 276.003906 197.289062 275.796875 196.785156 275.386719 196.417969 C 274.976562 196.046875 274.417969 195.859375 273.714844 195.859375 C 273.386719 195.859375 273.058594 195.898438 272.730469 195.96875 C 272.402344 196.042969 272.066406 196.15625 271.726562 196.3125 Z M 271.726562 191.734375 "/>
<path style=" stroke:none;fill-rule:nonzero;fill:rgb(0%,0%,0%);fill-opacity:1;" d="M 282.304688 192.546875 C 281.667969 192.546875 281.191406 192.859375 280.871094 193.484375 C 280.550781 194.105469 280.394531 195.046875 280.394531 196.300781 C 280.394531 197.546875 280.550781 198.484375 280.871094 199.109375 C 281.191406 199.734375 281.667969 200.046875 282.304688 200.046875 C 282.941406 200.046875 283.421875 199.734375 283.742188 199.109375 C 284.0625 198.484375 284.222656 197.546875 284.222656 196.300781 C 284.222656 195.046875 284.0625 194.105469 283.742188 193.484375 C 283.421875 192.859375 282.941406 192.546875 282.304688 192.546875 Z M 282.304688 191.570312 C 283.324219 191.570312 284.105469 191.972656 284.644531 192.78125 C 285.183594 193.589844 285.453125 194.761719 285.453125 196.300781 C 285.453125 197.832031 285.183594 199.003906 284.644531 199.8125 C 284.105469 200.621094 283.324219 201.023438 282.304688 201.023438 C 281.28125 201.023438 280.503906 200.621094 279.964844 199.8125 C 279.425781 199.003906 279.15625 197.832031 279.15625 196.300781 C 279.15625 194.761719 279.425781 193.589844 279.964844 192.78125 C 280.503906 191.972656 281.28125 191.570312 282.304688 191.570312 Z M 282.304688 191.570312 "/>
<path style=" stroke:none;fill-rule:nonzero;fill:rgb(0%,0%,0%);fill-opacity:1;" d="M 191.882812 211.109375 L 189.414062 214.433594 L 192.011719 217.945312 L 190.6875 217.945312 L 188.695312 215.257812 L 186.710938 217.945312 L 185.382812 217.945312 L 188.039062 214.367188 L 185.609375 211.109375 L 186.933594 211.109375 L 188.746094 213.542969 L 190.558594 211.109375 Z M 191.882812 211.109375 "/>
<g clip-path="url(#clip6)" clip-rule="nonzero">
<path style="fill:none;stroke-width:0.8;stroke-linecap:square;stroke-linejoin:round;stroke:rgb(69.019608%,69.019608%,69.019608%);stroke-opacity:1;stroke-miterlimit:4;" d="M 53.328125 139.903125 L 248.628125 139.903125 " transform="matrix(1.25,0,0,1.25,0,0)"/>
</g>
<path style="fill:none;stroke-width:0.8;stroke-linecap:butt;stroke-linejoin:round;stroke:rgb(0%,0%,0%);stroke-opacity:1;stroke-miterlimit:4;" d="M 0 0.001266 L -3.5 0.001266 " transform="matrix(1.25,0,0,1.25,66.660156,174.877324)"/>
<path style=" stroke:none;fill-rule:nonzero;fill:rgb(0%,0%,0%);fill-opacity:1;" d="M 53.929688 171.324219 C 53.296875 171.324219 52.820312 171.636719 52.5 172.261719 C 52.179688 172.886719 52.019531 173.824219 52.019531 175.078125 C 52.019531 176.328125 52.179688 177.265625 52.5 177.890625 C 52.820312 178.515625 53.296875 178.828125 53.929688 178.828125 C 54.570312 178.828125 55.046875 178.515625 55.367188 177.890625 C 55.6875 177.265625 55.847656 176.328125 55.847656 175.078125 C 55.847656 173.824219 55.6875 172.886719 55.367188 172.261719 C 55.046875 171.636719 54.570312 171.324219 53.929688 171.324219 Z M 53.929688 170.347656 C 54.953125 170.347656 55.734375 170.753906 56.273438 171.5625 C 56.8125 172.371094 57.078125 173.542969 57.078125 175.078125 C 57.078125 176.613281 56.8125 177.785156 56.273438 178.59375 C 55.734375 179.402344 54.953125 179.804688 53.929688 179.804688 C 52.910156 179.804688 52.128906 179.402344 51.589844 178.59375 C 51.050781 177.785156 50.78125 176.613281 50.78125 175.078125 C 50.78125 173.542969 51.050781 172.371094 51.589844 171.5625 C 52.128906 170.753906 52.910156 170.347656 53.929688 170.347656 Z M 53.929688 170.347656 "/>
<g clip-path="url(#clip7)" clip-rule="nonzero">
<path style="fill:none;stroke-width:0.8;stroke-linecap:square;stroke-linejoin:round;stroke:rgb(69.019608%,69.019608%,69.019608%);stroke-opacity:1;stroke-miterlimit:4;" d="M 53.328125 107.675 L 248.628125 107.675 " transform="matrix(1.25,0,0,1.25,0,0)"/>
</g>
<path style="fill:none;stroke-width:0.8;stroke-linecap:butt;stroke-linejoin:round;stroke:rgb(0%,0%,0%);stroke-opacity:1;stroke-miterlimit:4;" d="M 0 -0.001199 L -3.5 -0.001199 " transform="matrix(1.25,0,0,1.25,66.660156,134.595249)"/>
<path style=" stroke:none;fill-rule:nonzero;fill:rgb(0%,0%,0%);fill-opacity:1;" d="M 27.648438 138.308594 L 29.664062 138.308594 L 29.664062 131.355469 L 27.46875 131.792969 L 27.46875 130.671875 L 29.648438 130.230469 L 30.882812 130.230469 L 30.882812 138.308594 L 32.898438 138.308594 L 32.898438 139.34375 L 27.648438 139.34375 Z M 27.648438 138.308594 "/>
<path style=" stroke:none;fill-rule:nonzero;fill:rgb(0%,0%,0%);fill-opacity:1;" d="M 38.023438 131.042969 C 37.390625 131.042969 36.910156 131.355469 36.589844 131.980469 C 36.273438 132.605469 36.113281 133.542969 36.113281 134.796875 C 36.113281 136.046875 36.273438 136.984375 36.589844 137.609375 C 36.910156 138.234375 37.390625 138.546875 38.023438 138.546875 C 38.664062 138.546875 39.140625 138.234375 39.460938 137.609375 C 39.78125 136.984375 39.941406 136.046875 39.941406 134.796875 C 39.941406 133.542969 39.78125 132.605469 39.460938 131.980469 C 39.140625 131.355469 38.664062 131.042969 38.023438 131.042969 Z M 38.023438 130.066406 C 39.046875 130.066406 39.824219 130.472656 40.363281 131.28125 C 40.902344 132.085938 41.171875 133.257812 41.171875 134.796875 C 41.171875 136.332031 40.902344 137.503906 40.363281 138.3125 C 39.824219 139.117188 39.046875 139.523438 38.023438 139.523438 C 37.003906 139.523438 36.222656 139.117188 35.683594 138.3125 C 35.144531 137.503906 34.875 136.332031 34.875 134.796875 C 34.875 133.257812 35.144531 132.085938 35.683594 131.28125 C 36.222656 130.472656 37.003906 130.066406 38.023438 130.066406 Z M 38.023438 130.066406 "/>
<path style=" stroke:none;fill-rule:nonzero;fill:rgb(0%,0%,0%);fill-opacity:1;" d="M 45.976562 131.042969 C 45.34375 131.042969 44.863281 131.355469 44.542969 131.980469 C 44.226562 132.605469 44.066406 133.542969 44.066406 134.796875 C 44.066406 136.046875 44.226562 136.984375 44.542969 137.609375 C 44.863281 138.234375 45.34375 138.546875 45.976562 138.546875 C 46.617188 138.546875 47.09375 138.234375 47.414062 137.609375 C 47.734375 136.984375 47.894531 136.046875 47.894531 134.796875 C 47.894531 133.542969 47.734375 132.605469 47.414062 131.980469 C 47.09375 131.355469 46.617188 131.042969 45.976562 131.042969 Z M 45.976562 130.066406 C 47 130.066406 47.777344 130.472656 48.316406 131.28125 C 48.855469 132.085938 49.125 133.257812 49.125 134.796875 C 49.125 136.332031 48.855469 137.503906 48.316406 138.3125 C 47.777344 139.117188 47 139.523438 45.976562 139.523438 C 44.957031 139.523438 44.175781 139.117188 43.636719 138.3125 C 43.097656 137.503906 42.828125 136.332031 42.828125 134.796875 C 42.828125 133.257812 43.097656 132.085938 43.636719 131.28125 C 44.175781 130.472656 44.957031 130.066406 45.976562 130.066406 Z M 45.976562 130.066406 "/>
<path style=" stroke:none;fill-rule:nonzero;fill:rgb(0%,0%,0%);fill-opacity:1;" d="M 53.929688 131.042969 C 53.292969 131.042969 52.816406 131.355469 52.496094 131.980469 C 52.179688 132.605469 52.019531 133.542969 52.019531 134.796875 C 52.019531 136.046875 52.179688 136.984375 52.496094 137.609375 C 52.816406 138.234375 53.292969 138.546875 53.929688 138.546875 C 54.566406 138.546875 55.046875 138.234375 55.367188 137.609375 C 55.6875 136.984375 55.847656 136.046875 55.847656 134.796875 C 55.847656 133.542969 55.6875 132.605469 55.367188 131.980469 C 55.046875 131.355469 54.566406 131.042969 53.929688 131.042969 Z M 53.929688 130.066406 C 54.949219 130.066406 55.730469 130.472656 56.269531 131.28125 C 56.808594 132.085938 57.078125 133.257812 57.078125 134.796875 C 57.078125 136.332031 56.808594 137.503906 56.269531 138.3125 C 55.730469 139.117188 54.949219 139.523438 53.929688 139.523438 C 52.90625 139.523438 52.128906 139.117188 51.589844 138.3125 C 51.050781 137.503906 50.78125 136.332031 50.78125 134.796875 C 50.78125 133.257812 51.050781 132.085938 51.589844 131.28125 C 52.128906 130.472656 52.90625 130.066406 53.929688 130.066406 Z M 53.929688 130.066406 "/>
<g clip-path="url(#clip8)" clip-rule="nonzero">
<path style="fill:none;stroke-width:0.8;stroke-linecap:square;stroke-linejoin:round;stroke:rgb(69.019608%,69.019608%,69.019608%);stroke-opacity:1;stroke-miterlimit:4;" d="M 53.328125 75.45 L 248.628125 75.45 " transform="matrix(1.25,0,0,1.25,0,0)"/>
</g>
<path style="fill:none;stroke-width:0.8;stroke-linecap:butt;stroke-linejoin:round;stroke:rgb(0%,0%,0%);stroke-opacity:1;stroke-miterlimit:4;" d="M 0 -0.000539 L -3.5 -0.000539 " transform="matrix(1.25,0,0,1.25,66.660156,94.313174)"/>
<path style=" stroke:none;fill-rule:nonzero;fill:rgb(0%,0%,0%);fill-opacity:1;" d="M 28.496094 98.023438 L 32.796875 98.023438 L 32.796875 99.0625 L 27.015625 99.0625 L 27.015625 98.023438 C 27.480469 97.539062 28.117188 96.890625 28.925781 96.074219 C 29.734375 95.257812 30.242188 94.734375 30.449219 94.496094 C 30.84375 94.054688 31.117188 93.679688 31.273438 93.371094 C 31.433594 93.0625 31.511719 92.761719 31.511719 92.464844 C 31.511719 91.980469 31.34375 91.585938 31 91.28125 C 30.664062 90.976562 30.21875 90.820312 29.671875 90.820312 C 29.289062 90.820312 28.878906 90.890625 28.449219 91.023438 C 28.019531 91.15625 27.5625 91.359375 27.074219 91.632812 L 27.074219 90.386719 C 27.570312 90.1875 28.035156 90.039062 28.464844 89.9375 C 28.898438 89.835938 29.292969 89.785156 29.648438 89.785156 C 30.59375 89.785156 31.347656 90.019531 31.90625 90.492188 C 32.46875 90.964844 32.75 91.59375 32.75 92.382812 C 32.75 92.757812 32.679688 93.113281 32.539062 93.449219 C 32.398438 93.785156 32.144531 94.179688 31.773438 94.636719 C 31.671875 94.753906 31.347656 95.097656 30.804688 95.660156 C 30.257812 96.222656 29.488281 97.011719 28.496094 98.023438 Z M 28.496094 98.023438 "/>
<path style=" stroke:none;fill-rule:nonzero;fill:rgb(0%,0%,0%);fill-opacity:1;" d="M 38.023438 90.761719 C 37.390625 90.761719 36.910156 91.074219 36.589844 91.699219 C 36.273438 92.324219 36.113281 93.261719 36.113281 94.515625 C 36.113281 95.765625 36.273438 96.699219 36.589844 97.324219 C 36.910156 97.949219 37.390625 98.261719 38.023438 98.261719 C 38.664062 98.261719 39.140625 97.949219 39.460938 97.324219 C 39.78125 96.699219 39.941406 95.765625 39.941406 94.515625 C 39.941406 93.261719 39.78125 92.324219 39.460938 91.699219 C 39.140625 91.074219 38.664062 90.761719 38.023438 90.761719 Z M 38.023438 89.785156 C 39.046875 89.785156 39.824219 90.1875 40.363281 90.996094 C 40.902344 91.804688 41.171875 92.976562 41.171875 94.515625 C 41.171875 96.050781 40.902344 97.21875 40.363281 98.027344 C 39.824219 98.835938 39.046875 99.238281 38.023438 99.238281 C 37.003906 99.238281 36.222656 98.835938 35.683594 98.027344 C 35.144531 97.21875 34.875 96.050781 34.875 94.515625 C 34.875 92.976562 35.144531 91.804688 35.683594 90.996094 C 36.222656 90.1875 37.003906 89.785156 38.023438 89.785156 Z M 38.023438 89.785156 "/>
<path style=" stroke:none;fill-rule:nonzero;fill:rgb(0%,0%,0%);fill-opacity:1;" d="M 45.976562 90.761719 C 45.34375 90.761719 44.863281 91.074219 44.542969 91.699219 C 44.226562 92.324219 44.066406 93.261719 44.066406 94.515625 C 44.066406 95.765625 44.226562 96.699219 44.542969 97.324219 C 44.863281 97.949219 45.34375 98.261719 45.976562 98.261719 C 46.617188 98.261719 47.09375 97.949219 47.414062 97.324219 C 47.734375 96.699219 47.894531 95.765625 47.894531 94.515625 C 47.894531 93.261719 47.734375 92.324219 47.414062 91.699219 C 47.09375 91.074219 46.617188 90.761719 45.976562 90.761719 Z M 45.976562 89.785156 C 47 89.785156 47.777344 90.1875 48.316406 90.996094 C 48.855469 91.804688 49.125 92.976562 49.125 94.515625 C 49.125 96.050781 48.855469 97.21875 48.316406 98.027344 C 47.777344 98.835938 47 99.238281 45.976562 99.238281 C 44.957031 99.238281 44.175781 98.835938 43.636719 98.027344 C 43.097656 97.21875 42.828125 96.050781 42.828125 94.515625 C 42.828125 92.976562 43.097656 91.804688 43.636719 90.996094 C 44.175781 90.1875 44.957031 89.785156 45.976562 89.785156 Z M 45.976562 89.785156 "/>
<path style=" stroke:none;fill-rule:nonzero;fill:rgb(0%,0%,0%);fill-opacity:1;" d="M 53.929688 90.761719 C 53.292969 90.761719 52.816406 91.074219 52.496094 91.699219 C 52.179688 92.324219 52.019531 93.261719 52.019531 94.515625 C 52.019531 95.765625 52.179688 96.699219 52.496094 97.324219 C 52.816406 97.949219 53.292969 98.261719 53.929688 98.261719 C 54.566406 98.261719 55.046875 97.949219 55.367188 97.324219 C 55.6875 96.699219 55.847656 95.765625 55.847656 94.515625 C 55.847656 93.261719 55.6875 92.324219 55.367188 91.699219 C 55.046875 91.074219 54.566406 90.761719 53.929688 90.761719 Z M 53.929688 89.785156 C 54.949219 89.785156 55.730469 90.1875 56.269531 90.996094 C 56.808594 91.804688 57.078125 92.976562 57.078125 94.515625 C 57.078125 96.050781 56.808594 97.21875 56.269531 98.027344 C 55.730469 98.835938 54.949219 99.238281 53.929688 99.238281 C 52.90625 99.238281 52.128906 98.835938 51.589844 98.027344 C 51.050781 97.21875 50.78125 96.050781 50.78125 94.515625 C 50.78125 92.976562 51.050781 91.804688 51.589844 90.996094 C 52.128906 90.1875 52.90625 89.785156 53.929688 89.785156 Z M 53.929688 89.785156 "/>
<g clip-path="url(#clip9)" clip-rule="nonzero">
<path style="fill:none;stroke-width:0.8;stroke-linecap:square;stroke-linejoin:round;stroke:rgb(69.019608%,69.019608%,69.019608%);stroke-opacity:1;stroke-miterlimit:4;" d="M 53.328125 43.225 L 248.628125 43.225 " transform="matrix(1.25,0,0,1.25,0,0)"/>
</g>
<path style="fill:none;stroke-width:0.8;stroke-linecap:butt;stroke-linejoin:round;stroke:rgb(0%,0%,0%);stroke-opacity:1;stroke-miterlimit:4;" d="M 0 0.000121 L -3.5 0.000121 " transform="matrix(1.25,0,0,1.25,66.660156,54.031099)"/>
<path style=" stroke:none;fill-rule:nonzero;fill:rgb(0%,0%,0%);fill-opacity:1;" d="M 31.171875 53.867188 C 31.757812 53.992188 32.21875 54.253906 32.550781 54.65625 C 32.882812 55.054688 33.046875 55.546875 33.046875 56.132812 C 33.046875 57.03125 32.738281 57.726562 32.121094 58.21875 C 31.503906 58.710938 30.625 58.957031 29.484375 58.957031 C 29.101562 58.957031 28.710938 58.921875 28.304688 58.84375 C 27.898438 58.769531 27.480469 58.65625 27.050781 58.503906 L 27.050781 57.316406 C 27.390625 57.515625 27.765625 57.664062 28.171875 57.765625 C 28.578125 57.867188 29.003906 57.917969 29.449219 57.917969 C 30.222656 57.917969 30.808594 57.765625 31.214844 57.460938 C 31.621094 57.15625 31.820312 56.714844 31.820312 56.132812 C 31.820312 55.59375 31.632812 55.175781 31.257812 54.871094 C 30.882812 54.570312 30.359375 54.417969 29.6875 54.417969 L 28.625 54.417969 L 28.625 53.402344 L 29.734375 53.402344 C 30.34375 53.402344 30.804688 53.28125 31.125 53.039062 C 31.449219 52.796875 31.609375 52.449219 31.609375 51.992188 C 31.609375 51.527344 31.445312 51.167969 31.109375 50.917969 C 30.78125 50.664062 30.304688 50.539062 29.6875 50.539062 C 29.347656 50.539062 28.984375 50.578125 28.601562 50.652344 C 28.210938 50.722656 27.789062 50.835938 27.324219 50.992188 L 27.324219 49.894531 C 27.792969 49.761719 28.230469 49.664062 28.640625 49.601562 C 29.050781 49.535156 29.433594 49.503906 29.796875 49.503906 C 30.734375 49.503906 31.472656 49.714844 32.015625 50.140625 C 32.5625 50.566406 32.835938 51.140625 32.835938 51.863281 C 32.835938 52.371094 32.691406 52.796875 32.402344 53.144531 C 32.113281 53.492188 31.703125 53.730469 31.171875 53.867188 Z M 31.171875 53.867188 "/>
<path style=" stroke:none;fill-rule:nonzero;fill:rgb(0%,0%,0%);fill-opacity:1;" d="M 38.023438 50.480469 C 37.390625 50.480469 36.910156 50.792969 36.589844 51.417969 C 36.273438 52.039062 36.113281 52.980469 36.113281 54.234375 C 36.113281 55.480469 36.273438 56.417969 36.589844 57.042969 C 36.910156 57.667969 37.390625 57.980469 38.023438 57.980469 C 38.664062 57.980469 39.140625 57.667969 39.460938 57.042969 C 39.78125 56.417969 39.941406 55.480469 39.941406 54.234375 C 39.941406 52.980469 39.78125 52.039062 39.460938 51.417969 C 39.140625 50.792969 38.664062 50.480469 38.023438 50.480469 Z M 38.023438 49.503906 C 39.046875 49.503906 39.824219 49.90625 40.363281 50.714844 C 40.902344 51.523438 41.171875 52.695312 41.171875 54.234375 C 41.171875 55.765625 40.902344 56.9375 40.363281 57.746094 C 39.824219 58.554688 39.046875 58.957031 38.023438 58.957031 C 37.003906 58.957031 36.222656 58.554688 35.683594 57.746094 C 35.144531 56.9375 34.875 55.765625 34.875 54.234375 C 34.875 52.695312 35.144531 51.523438 35.683594 50.714844 C 36.222656 49.90625 37.003906 49.503906 38.023438 49.503906 Z M 38.023438 49.503906 "/>
<path style=" stroke:none;fill-rule:nonzero;fill:rgb(0%,0%,0%);fill-opacity:1;" d="M 45.976562 50.480469 C 45.34375 50.480469 44.863281 50.792969 44.542969 51.417969 C 44.226562 52.039062 44.066406 52.980469 44.066406 54.234375 C 44.066406 55.480469 44.226562 56.417969 44.542969 57.042969 C 44.863281 57.667969 45.34375 57.980469 45.976562 57.980469 C 46.617188 57.980469 47.09375 57.667969 47.414062 57.042969 C 47.734375 56.417969 47.894531 55.480469 47.894531 54.234375 C 47.894531 52.980469 47.734375 52.039062 47.414062 51.417969 C 47.09375 50.792969 46.617188 50.480469 45.976562 50.480469 Z M 45.976562 49.503906 C 47 49.503906 47.777344 49.90625 48.316406 50.714844 C 48.855469 51.523438 49.125 52.695312 49.125 54.234375 C 49.125 55.765625 48.855469 56.9375 48.316406 57.746094 C 47.777344 58.554688 47 58.957031 45.976562 58.957031 C 44.957031 58.957031 44.175781 58.554688 43.636719 57.746094 C 43.097656 56.9375 42.828125 55.765625 42.828125 54.234375 C 42.828125 52.695312 43.097656 51.523438 43.636719 50.714844 C 44.175781 49.90625 44.957031 49.503906 45.976562 49.503906 Z M 45.976562 49.503906 "/>
<path style=" stroke:none;fill-rule:nonzero;fill:rgb(0%,0%,0%);fill-opacity:1;" d="M 53.929688 50.480469 C 53.292969 50.480469 52.816406 50.792969 52.496094 51.417969 C 52.179688 52.039062 52.019531 52.980469 52.019531 54.234375 C 52.019531 55.480469 52.179688 56.417969 52.496094 57.042969 C 52.816406 57.667969 53.292969 57.980469 53.929688 57.980469 C 54.566406 57.980469 55.046875 57.667969 55.367188 57.042969 C 55.6875 56.417969 55.847656 55.480469 55.847656 54.234375 C 55.847656 52.980469 55.6875 52.039062 55.367188 51.417969 C 55.046875 50.792969 54.566406 50.480469 53.929688 50.480469 Z M 53.929688 49.503906 C 54.949219 49.503906 55.730469 49.90625 56.269531 50.714844 C 56.808594 51.523438 57.078125 52.695312 57.078125 54.234375 C 57.078125 55.765625 56.808594 56.9375 56.269531 57.746094 C 55.730469 58.554688 54.949219 58.957031 53.929688 58.957031 C 52.90625 58.957031 52.128906 58.554688 51.589844 57.746094 C 51.050781 56.9375 50.78125 55.765625 50.78125 54.234375 C 50.78125 52.695312 51.050781 51.523438 51.589844 50.714844 C 52.128906 49.90625 52.90625 49.503906 53.929688 49.503906 Z M 53.929688 49.503906 "/>
<g clip-path="url(#clip10)" clip-rule="nonzero">
<path style="fill:none;stroke-width:0.8;stroke-linecap:square;stroke-linejoin:round;stroke:rgb(69.019608%,69.019608%,69.019608%);stroke-opacity:1;stroke-miterlimit:4;" d="M 53.328125 11 L 248.628125 11 " transform="matrix(1.25,0,0,1.25,0,0)"/>
</g>
<path style="fill:none;stroke-width:0.8;stroke-linecap:butt;stroke-linejoin:round;stroke:rgb(0%,0%,0%);stroke-opacity:1;stroke-miterlimit:4;" d="M 0 0.000781 L -3.5 0.000781 " transform="matrix(1.25,0,0,1.25,66.660156,13.749024)"/>
<path style=" stroke:none;fill-rule:nonzero;fill:rgb(0%,0%,0%);fill-opacity:1;" d="M 30.820312 10.457031 L 27.710938 15.324219 L 30.820312 15.324219 Z M 30.5 9.382812 L 32.046875 9.382812 L 32.046875 15.324219 L 33.351562 15.324219 L 33.351562 16.347656 L 32.046875 16.347656 L 32.046875 18.496094 L 30.820312 18.496094 L 30.820312 16.347656 L 26.710938 16.347656 L 26.710938 15.160156 Z M 30.5 9.382812 "/>
<path style=" stroke:none;fill-rule:nonzero;fill:rgb(0%,0%,0%);fill-opacity:1;" d="M 38.023438 10.195312 C 37.390625 10.195312 36.910156 10.507812 36.589844 11.132812 C 36.273438 11.757812 36.113281 12.695312 36.113281 13.949219 C 36.113281 15.199219 36.273438 16.136719 36.589844 16.761719 C 36.910156 17.386719 37.390625 17.699219 38.023438 17.699219 C 38.664062 17.699219 39.140625 17.386719 39.460938 16.761719 C 39.78125 16.136719 39.941406 15.199219 39.941406 13.949219 C 39.941406 12.695312 39.78125 11.757812 39.460938 11.132812 C 39.140625 10.507812 38.664062 10.195312 38.023438 10.195312 Z M 38.023438 9.21875 C 39.046875 9.21875 39.824219 9.625 40.363281 10.433594 C 40.902344 11.242188 41.171875 12.414062 41.171875 13.949219 C 41.171875 15.484375 40.902344 16.65625 40.363281 17.464844 C 39.824219 18.273438 39.046875 18.675781 38.023438 18.675781 C 37.003906 18.675781 36.222656 18.273438 35.683594 17.464844 C 35.144531 16.65625 34.875 15.484375 34.875 13.949219 C 34.875 12.414062 35.144531 11.242188 35.683594 10.433594 C 36.222656 9.625 37.003906 9.21875 38.023438 9.21875 Z M 38.023438 9.21875 "/>
<path style=" stroke:none;fill-rule:nonzero;fill:rgb(0%,0%,0%);fill-opacity:1;" d="M 45.976562 10.195312 C 45.34375 10.195312 44.863281 10.507812 44.542969 11.132812 C 44.226562 11.757812 44.066406 12.695312 44.066406 13.949219 C 44.066406 15.199219 44.226562 16.136719 44.542969 16.761719 C 44.863281 17.386719 45.34375 17.699219 45.976562 17.699219 C 46.617188 17.699219 47.09375 17.386719 47.414062 16.761719 C 47.734375 16.136719 47.894531 15.199219 47.894531 13.949219 C 47.894531 12.695312 47.734375 11.757812 47.414062 11.132812 C 47.09375 10.507812 46.617188 10.195312 45.976562 10.195312 Z M 45.976562 9.21875 C 47 9.21875 47.777344 9.625 48.316406 10.433594 C 48.855469 11.242188 49.125 12.414062 49.125 13.949219 C 49.125 15.484375 48.855469 16.65625 48.316406 17.464844 C 47.777344 18.273438 47 18.675781 45.976562 18.675781 C 44.957031 18.675781 44.175781 18.273438 43.636719 17.464844 C 43.097656 16.65625 42.828125 15.484375 42.828125 13.949219 C 42.828125 12.414062 43.097656 11.242188 43.636719 10.433594 C 44.175781 9.625 44.957031 9.21875 45.976562 9.21875 Z M 45.976562 9.21875 "/>
<path style=" stroke:none;fill-rule:nonzero;fill:rgb(0%,0%,0%);fill-opacity:1;" d="M 53.929688 10.195312 C 53.292969 10.195312 52.816406 10.507812 52.496094 11.132812 C 52.179688 11.757812 52.019531 12.695312 52.019531 13.949219 C 52.019531 15.199219 52.179688 16.136719 52.496094 16.761719 C 52.816406 17.386719 53.292969 17.699219 53.929688 17.699219 C 54.566406 17.699219 55.046875 17.386719 55.367188 16.761719 C 55.6875 16.136719 55.847656 15.199219 55.847656 13.949219 C 55.847656 12.695312 55.6875 11.757812 55.367188 11.132812 C 55.046875 10.507812 54.566406 10.195312 53.929688 10.195312 Z M 53.929688 9.21875 C 54.949219 9.21875 55.730469 9.625 56.269531 10.433594 C 56.808594 11.242188 57.078125 12.414062 57.078125 13.949219 C 57.078125 15.484375 56.808594 16.65625 56.269531 17.464844 C 55.730469 18.273438 54.949219 18.675781 53.929688 18.675781 C 52.90625 18.675781 52.128906 18.273438 51.589844 17.464844 C 51.050781 16.65625 50.78125 15.484375 50.78125 13.949219 C 50.78125 12.414062 51.050781 11.242188 51.589844 10.433594 C 52.128906 9.625 52.90625 9.21875 53.929688 9.21875 Z M 53.929688 9.21875 "/>
<path style=" stroke:none;fill-rule:nonzero;fill:rgb(0%,0%,0%);fill-opacity:1;" d="M 9 103.800781 L 9.933594 103.800781 L 9.933594 104.875 C 9.933594 105.277344 10.015625 105.554688 10.179688 105.714844 C 10.34375 105.871094 10.636719 105.949219 11.058594 105.949219 L 11.660156 105.949219 L 11.660156 104.097656 L 12.535156 104.097656 L 12.535156 105.949219 L 18.496094 105.949219 L 18.496094 107.078125 L 12.535156 107.078125 L 12.535156 108.152344 L 11.660156 108.152344 L 11.660156 107.078125 L 11.183594 107.078125 C 10.425781 107.078125 9.871094 106.898438 9.523438 106.546875 C 9.175781 106.191406 9 105.628906 9 104.863281 Z M 9 103.800781 "/>
<path style=" stroke:none;fill-rule:nonzero;fill:rgb(0%,0%,0%);fill-opacity:1;" d="M 9.011719 100.164062 C 9.949219 100.707031 10.875 101.113281 11.789062 101.378906 C 12.707031 101.640625 13.632812 101.773438 14.574219 101.773438 C 15.511719 101.773438 16.441406 101.640625 17.363281 101.375 C 18.285156 101.105469 19.214844 100.703125 20.144531 100.164062 L 20.144531 101.140625 C 19.1875 101.75 18.25 102.203125 17.324219 102.507812 C 16.402344 102.8125 15.484375 102.964844 14.574219 102.964844 C 13.667969 102.964844 12.753906 102.8125 11.832031 102.511719 C 10.914062 102.210938 9.972656 101.753906 9.011719 101.140625 Z M 9.011719 100.164062 "/>
<path style=" stroke:none;fill-rule:nonzero;fill:rgb(0%,0%,0%);fill-opacity:1;" d="M 11.660156 92.300781 L 14.988281 94.773438 L 18.496094 92.171875 L 18.496094 93.496094 L 15.8125 95.488281 L 18.496094 97.476562 L 18.496094 98.800781 L 14.921875 96.144531 L 11.660156 98.574219 L 11.660156 97.25 L 14.097656 95.4375 L 11.660156 93.625 Z M 11.660156 92.300781 "/>
<path style=" stroke:none;fill-rule:nonzero;fill:rgb(0%,0%,0%);fill-opacity:1;" d="M 9.011719 90.761719 L 9.011719 89.785156 C 9.972656 89.175781 10.914062 88.71875 11.832031 88.414062 C 12.753906 88.113281 13.667969 87.960938 14.574219 87.960938 C 15.484375 87.960938 16.402344 88.113281 17.324219 88.414062 C 18.25 88.71875 19.1875 89.175781 20.144531 89.785156 L 20.144531 90.761719 C 19.214844 90.21875 18.285156 89.816406 17.363281 89.550781 C 16.441406 89.28125 15.511719 89.148438 14.574219 89.148438 C 13.632812 89.148438 12.707031 89.28125 11.789062 89.550781 C 10.875 89.816406 9.949219 90.21875 9.011719 90.761719 Z M 9.011719 90.761719 "/>
<path style="fill:none;stroke-width:1.5;stroke-linecap:square;stroke-linejoin:round;stroke:rgb(12.156863%,46.666667%,70.588235%);stroke-opacity:1;stroke-miterlimit:4;" d="M 62.20625 16.35625 L 66.778125 28.759375 L 71.253125 40.253125 L 75.625 50.884375 L 79.896875 60.69375 L 84.06875 69.71875 L 88.140625 78.003125 L 92.1 85.553125 L 95.95625 92.440625 L 99.7125 98.7 L 103.36875 104.365625 L 106.9375 109.49375 L 110.40625 114.096875 L 113.790625 118.221875 L 117.0875 121.896875 L 120.3 125.146875 L 123.440625 128.0125 L 126.49375 130.503125 L 129.490625 132.6625 L 132.415625 134.5 L 135.28125 136.040625 L 138.09375 137.3 L 140.859375 138.296875 L 143.584375 139.04375 L 146.278125 139.55625 L 148.959375 139.8375 L 151.628125 139.89375 L 154.29375 139.728125 L 156.959375 139.340625 L 159.640625 138.725 L 162.35 137.875 L 165.090625 136.78125 L 167.871875 135.428125 L 170.709375 133.796875 L 173.590625 131.884375 L 176.54375 129.653125 L 179.55625 127.096875 L 182.6375 124.1875 L 185.79375 120.9 L 189.034375 117.2 L 192.359375 113.05625 L 195.75625 108.465625 L 199.25625 103.3625 L 202.840625 97.734375 L 206.525 91.53125 L 210.309375 84.715625 L 214.165625 77.30625 L 218.121875 69.221875 L 222.19375 60.390625 L 226.353125 50.834375 L 230.6125 40.4875 L 234.96875 29.30625 L 239.428125 17.253125 L 239.74375 16.375 " transform="matrix(1.25,0,0,1.25,0,0)"/>
<path style="fill:none;stroke-width:1.5;stroke-linecap:square;stroke-linejoin:round;stroke:rgb(100%,49.803922%,5.490196%);stroke-opacity:1;stroke-miterlimit:4;" d="M 165.315625 136.678125 L 133.771875 135.2625 L 171.625 133.21875 L 126.203125 130.278125 L 180.709375 126.046875 L 115.303125 119.95 L 193.7875 111.16875 L 99.60625 98.528125 L 212.625 80.321875 L 77 54.10625 L 239.75 16.35625 " transform="matrix(1.25,0,0,1.25,0,0)"/>
<path style="fill-rule:nonzero;fill:rgb(100%,49.803922%,5.490196%);fill-opacity:1;stroke-width:1;stroke-linecap:butt;stroke-linejoin:round;stroke:rgb(100%,49.803922%,5.490196%);stroke-opacity:1;stroke-miterlimit:4;" d="M 0.000208 2.998832 C 0.797083 2.998832 1.559583 2.683207 2.122083 2.120707 C 2.684583 1.558207 3.000208 0.795707 3.000208 -0.001168 C 3.000208 -0.794918 2.684583 -1.557418 2.122083 -2.119918 C 1.559583 -2.682418 0.797083 -3.001168 0.000208 -3.001168 C -0.796667 -3.001168 -1.559167 -2.682418 -2.121667 -2.119918 C -2.684167 -1.557418 -2.999792 -0.794918 -2.999792 -0.001168 C -2.999792 0.795707 -2.684167 1.558207 -2.121667 2.120707 C -1.559167 2.683207 -0.796667 2.998832 0.000208 2.998832 Z M 0.000208 2.998832 " transform="matrix(1.25,0,0,1.25,206.644271,170.849116)"/>
<path style="fill-rule:nonzero;fill:rgb(100%,49.803922%,5.490196%);fill-opacity:1;stroke-width:1;stroke-linecap:butt;stroke-linejoin:round;stroke:rgb(100%,49.803922%,5.490196%);stroke-opacity:1;stroke-miterlimit:4;" d="M -0.001502 3.001136 C 0.795373 3.001136 1.557873 2.682386 2.120373 2.119886 C 2.682873 1.557386 2.998498 0.794886 2.998498 0.001136 C 2.998498 -0.795739 2.682873 -1.558239 2.120373 -2.120739 C 1.557873 -2.683239 0.795373 -2.998864 -0.001502 -2.998864 C -0.795252 -2.998864 -1.557752 -2.683239 -2.120252 -2.120739 C -2.682752 -1.558239 -3.001502 -0.795739 -3.001502 0.001136 C -3.001502 0.794886 -2.682752 1.557386 -2.120252 2.119886 C -1.557752 2.682386 -0.795252 3.001136 -0.001502 3.001136 Z M -0.001502 3.001136 " transform="matrix(1.25,0,0,1.25,167.216721,169.076705)"/>
<path style="fill-rule:nonzero;fill:rgb(100%,49.803922%,5.490196%);fill-opacity:1;stroke-width:1;stroke-linecap:butt;stroke-linejoin:round;stroke:rgb(100%,49.803922%,5.490196%);stroke-opacity:1;stroke-miterlimit:4;" d="M 0.001175 2.999204 C 0.794925 2.999204 1.557425 2.683579 2.119925 2.121079 C 2.682425 1.558579 3.001175 0.796079 3.001175 -0.000796 C 3.001175 -0.794546 2.682425 -1.560171 2.119925 -2.122671 C 1.557425 -2.685171 0.794925 -3.000796 0.001175 -3.000796 C -0.7957 -3.000796 -1.5582 -2.685171 -2.1207 -2.122671 C -2.6832 -1.560171 -2.998825 -0.794546 -2.998825 -0.000796 C -2.998825 0.796079 -2.6832 1.558579 -2.1207 2.121079 C -1.5582 2.683579 -0.7957 2.999204 0.001175 2.999204 Z M 0.001175 2.999204 " transform="matrix(1.25,0,0,1.25,214.529781,166.524433)"/>
<path style="fill-rule:nonzero;fill:rgb(100%,49.803922%,5.490196%);fill-opacity:1;stroke-width:1;stroke-linecap:butt;stroke-linejoin:round;stroke:rgb(100%,49.803922%,5.490196%);stroke-opacity:1;stroke-miterlimit:4;" d="M -0.000163 2.998796 C 0.796712 2.998796 1.559212 2.683171 2.121712 2.120671 C 2.684212 1.558171 2.999837 0.795671 2.999837 -0.001204 C 2.999837 -0.794954 2.684212 -1.557454 2.121712 -2.119954 C 1.559212 -2.682454 0.796712 -3.001204 -0.000163 -3.001204 C -0.797038 -3.001204 -1.559538 -2.682454 -2.122038 -2.119954 C -2.684538 -1.557454 -3.000163 -0.794954 -3.000163 -0.001204 C -3.000163 0.795671 -2.684538 1.558171 -2.122038 2.120671 C -1.559538 2.683171 -0.797038 2.998796 -0.000163 2.998796 Z M -0.000163 2.998796 " transform="matrix(1.25,0,0,1.25,157.75411,162.849161)"/>
<path style="fill-rule:nonzero;fill:rgb(100%,49.803922%,5.490196%);fill-opacity:1;stroke-width:1;stroke-linecap:butt;stroke-linejoin:round;stroke:rgb(100%,49.803922%,5.490196%);stroke-opacity:1;stroke-miterlimit:4;" d="M 0.001442 3.00146 C 0.795192 3.00146 1.557692 2.68271 2.120192 2.12021 C 2.682692 1.55771 3.001442 0.79521 3.001442 0.00146 C 3.001442 -0.795415 2.682692 -1.557915 2.120192 -2.120415 C 1.557692 -2.682915 0.795192 -2.99854 0.001442 -2.99854 C -0.795433 -2.99854 -1.557933 -2.682915 -2.120433 -2.120415 C -2.682933 -1.557915 -2.998558 -0.795415 -2.998558 0.00146 C -2.998558 0.79521 -2.682933 1.55771 -2.120433 2.12021 C -1.557933 2.68271 -0.795433 3.00146 0.001442 3.00146 Z M 0.001442 3.00146 " transform="matrix(1.25,0,0,1.25,225.884916,157.556769)"/>
<path style="fill-rule:nonzero;fill:rgb(100%,49.803922%,5.490196%);fill-opacity:1;stroke-width:1;stroke-linecap:butt;stroke-linejoin:round;stroke:rgb(100%,49.803922%,5.490196%);stroke-opacity:1;stroke-miterlimit:4;" d="M 0.000766 3.00142 C 0.794516 3.00142 1.560141 2.68267 2.122641 2.12017 C 2.685141 1.55767 3.000766 0.79517 3.000766 0.00142 C 3.000766 -0.795455 2.685141 -1.557955 2.122641 -2.120455 C 1.560141 -2.682955 0.794516 -2.99858 0.000766 -2.99858 C -0.796109 -2.99858 -1.558609 -2.682955 -2.121109 -2.120455 C -2.683609 -1.557955 -2.999234 -0.795455 -2.999234 0.00142 C -2.999234 0.79517 -2.683609 1.55767 -2.121109 2.12017 C -1.558609 2.68267 -0.796109 3.00142 0.000766 3.00142 Z M 0.000766 3.00142 " transform="matrix(1.25,0,0,1.25,144.127949,149.935725)"/>
<path style="fill-rule:nonzero;fill:rgb(100%,49.803922%,5.490196%);fill-opacity:1;stroke-width:1;stroke-linecap:butt;stroke-linejoin:round;stroke:rgb(100%,49.803922%,5.490196%);stroke-opacity:1;stroke-miterlimit:4;" d="M -0.001547 2.999613 C 0.795328 2.999613 1.557828 2.683988 2.120328 2.121488 C 2.682828 1.558988 2.998453 0.796488 2.998453 -0.000387 C 2.998453 -0.794137 2.682828 -1.559762 2.120328 -2.122262 C 1.557828 -2.684762 0.795328 -3.000387 -0.001547 -3.000387 C -0.795297 -3.000387 -1.557797 -2.684762 -2.120297 -2.122262 C -2.682797 -1.559762 -3.001547 -0.794137 -3.001547 -0.000387 C -3.001547 0.796488 -2.682797 1.558988 -2.120297 2.121488 C -1.557797 2.683988 -0.795297 2.999613 -0.001547 2.999613 Z M -0.001547 2.999613 " transform="matrix(1.25,0,0,1.25,242.236309,138.961421)"/>
<path style="fill-rule:nonzero;fill:rgb(100%,49.803922%,5.490196%);fill-opacity:1;stroke-width:1;stroke-linecap:butt;stroke-linejoin:round;stroke:rgb(100%,49.803922%,5.490196%);stroke-opacity:1;stroke-miterlimit:4;" d="M 0.001229 3.001386 C 0.794979 3.001386 1.557479 2.682636 2.119979 2.120136 C 2.682479 1.557636 3.001229 0.795136 3.001229 0.001386 C 3.001229 -0.795489 2.682479 -1.557989 2.119979 -2.120489 C 1.557479 -2.682989 0.794979 -2.998614 0.001229 -2.998614 C -0.795646 -2.998614 -1.558146 -2.682989 -2.120646 -2.120489 C -2.683146 -1.557989 -2.998771 -0.795489 -2.998771 0.001386 C -2.998771 0.795136 -2.683146 1.557636 -2.120646 2.120136 C -1.558146 2.682636 -0.795646 3.001386 0.001229 3.001386 Z M 0.001229 3.001386 " transform="matrix(1.25,0,0,1.25,124.506276,123.158424)"/>
<path style="fill-rule:nonzero;fill:rgb(100%,49.803922%,5.490196%);fill-opacity:1;stroke-width:1;stroke-linecap:butt;stroke-linejoin:round;stroke:rgb(100%,49.803922%,5.490196%);stroke-opacity:1;stroke-miterlimit:4;" d="M -0.000853 3.000189 C 0.796022 3.000189 1.558522 2.684564 2.121022 2.122064 C 2.683522 1.559564 2.999147 0.797064 2.999147 0.000189 C 2.999147 -0.796686 2.683522 -1.559186 2.121022 -2.121686 C 1.558522 -2.684186 0.796022 -2.999811 -0.000853 -2.999811 C -0.794603 -2.999811 -1.560228 -2.684186 -2.122728 -2.121686 C -2.685228 -1.559186 -3.000853 -0.796686 -3.000853 0.000189 C -3.000853 0.797064 -2.685228 1.559564 -2.122728 2.122064 C -1.560228 2.684564 -0.794603 3.000189 -0.000853 3.000189 Z M -0.000853 3.000189 " transform="matrix(1.25,0,0,1.25,265.782316,100.402107)"/>
<path style="fill-rule:nonzero;fill:rgb(100%,49.803922%,5.490196%);fill-opacity:1;stroke-width:1;stroke-linecap:butt;stroke-linejoin:round;stroke:rgb(100%,49.803922%,5.490196%);stroke-opacity:1;stroke-miterlimit:4;" d="M -0.000855 2.99984 C 0.79602 2.99984 1.55852 2.684215 2.12102 2.121715 C 2.68352 1.559215 2.999145 0.796715 2.999145 -0.00016 C 2.999145 -0.797035 2.68352 -1.559535 2.12102 -2.122035 C 1.55852 -2.684535 0.79602 -3.00016 -0.000855 -3.00016 C -0.794605 -3.00016 -1.56023 -2.684535 -2.12273 -2.122035 C -2.68523 -1.559535 -3.000855 -0.797035 -3.000855 -0.00016 C -3.000855 0.796715 -2.68523 1.559215 -2.12273 2.121715 C -1.56023 2.684215 -0.794605 2.99984 -0.000855 2.99984 Z M -0.000855 2.99984 " transform="matrix(1.25,0,0,1.25,96.251069,67.633012)"/>
<path style="fill-rule:nonzero;fill:rgb(100%,49.803922%,5.490196%);fill-opacity:1;stroke-width:1;stroke-linecap:butt;stroke-linejoin:round;stroke:rgb(100%,49.803922%,5.490196%);stroke-opacity:1;stroke-miterlimit:4;" d="M -0.000852 2.999837 C 0.796023 2.999837 1.558523 2.684212 2.121023 2.121712 C 2.683523 1.559212 2.999148 0.796712 2.999148 -0.000163 C 2.999148 -0.797038 2.683523 -1.559538 2.121023 -2.122038 C 1.558523 -2.684538 0.796023 -3.000163 -0.000852 -3.000163 C -0.794602 -3.000163 -1.560227 -2.684538 -2.122727 -2.122038 C -2.685227 -1.559538 -3.000852 -0.797038 -3.000852 -0.000163 C -3.000852 0.796712 -2.685227 1.559212 -2.122727 2.121712 C -1.560227 2.684212 -0.794602 2.999837 -0.000852 2.999837 Z M -0.000852 2.999837 " transform="matrix(1.25,0,0,1.25,299.688565,20.445516)"/>
<path style="fill:none;stroke-width:0.8;stroke-linecap:square;stroke-linejoin:miter;stroke:rgb(0%,0%,0%);stroke-opacity:1;stroke-miterlimit:4;" d="M 53.328125 146.078125 L 53.328125 10.178125 " transform="matrix(1.25,0,0,1.25,0,0)"/>
<path style="fill:none;stroke-width:0.8;stroke-linecap:square;stroke-linejoin:miter;stroke:rgb(0%,0%,0%);stroke-opacity:1;stroke-miterlimit:4;" d="M 248.628125 146.078125 L 248.628125 10.178125 " transform="matrix(1.25,0,0,1.25,0,0)"/>
<path style="fill:none;stroke-width:0.8;stroke-linecap:square;stroke-linejoin:miter;stroke:rgb(0%,0%,0%);stroke-opacity:1;stroke-miterlimit:4;" d="M 53.328125 146.078125 L 248.628125 146.078125 " transform="matrix(1.25,0,0,1.25,0,0)"/>
<path style="fill:none;stroke-width:0.8;stroke-linecap:square;stroke-linejoin:miter;stroke:rgb(0%,0%,0%);stroke-opacity:1;stroke-miterlimit:4;" d="M 53.328125 10.178125 L 248.628125 10.178125 " transform="matrix(1.25,0,0,1.25,0,0)"/>
</g>
</svg>
