<?xml version="1.0" encoding="UTF-8"?>
<svg xmlns="http://www.w3.org/2000/svg" xmlns:xlink="http://www.w3.org/1999/xlink" width="674pt" height="243pt" viewBox="0 0 674 243" version="1.1">
<defs>
<clipPath id="clip1">
  <path d="M 45 9 L 47 9 L 47 212.851562 L 45 212.851562 Z M 45 9 "/>
</clipPath>
<clipPath id="clip2">
  <path d="M 129 9 L 131 9 L 131 212.851562 L 129 212.851562 Z M 129 9 "/>
</clipPath>
<clipPath id="clip3">
  <path d="M 213 9 L 215 9 L 215 212.851562 L 213 212.851562 Z M 213 9 "/>
</clipPath>
<clipPath id="clip4">
  <path d="M 37.628906 202 L 222.261719 202 L 222.261719 205 L 37.628906 205 Z M 37.628906 202 "/>
</clipPath>
<clipPath id="clip5">
  <path d="M 37.628906 156 L 222.261719 156 L 222.261719 158 L 37.628906 158 Z M 37.628906 156 "/>
</clipPath>
<clipPath id="clip6">
  <path d="M 37.628906 110 L 222.261719 110 L 222.261719 112 L 37.628906 112 Z M 37.628906 110 "/>
</clipPath>
<clipPath id="clip7">
  <path d="M 37.628906 63 L 222.261719 63 L 222.261719 66 L 37.628906 66 Z M 37.628906 63 "/>
</clipPath>
<clipPath id="clip8">
  <path d="M 37.628906 17 L 222.261719 17 L 222.261719 19 L 37.628906 19 Z M 37.628906 17 "/>
</clipPath>
<clipPath id="clip9">
  <path d="M 266 9 L 269 9 L 269 212.851562 L 266 212.851562 Z M 266 9 "/>
</clipPath>
<clipPath id="clip10">
  <path d="M 351 9 L 353 9 L 353 212.851562 L 351 212.851562 Z M 351 9 "/>
</clipPath>
<clipPath id="clip11">
  <path d="M 435 9 L 437 9 L 437 212.851562 L 435 212.851562 Z M 435 9 "/>
</clipPath>
<clipPath id="clip12">
  <path d="M 259.1875 202 L 443.820312 202 L 443.820312 205 L 259.1875 205 Z M 259.1875 202 "/>
</clipPath>
<clipPath id="clip13">
  <path d="M 259.1875 156 L 443.820312 156 L 443.820312 158 L 259.1875 158 Z M 259.1875 156 "/>
</clipPath>
<clipPath id="clip14">
  <path d="M 259.1875 110 L 443.820312 110 L 443.820312 112 L 259.1875 112 Z M 259.1875 110 "/>
</clipPath>
<clipPath id="clip15">
  <path d="M 259.1875 63 L 443.820312 63 L 443.820312 66 L 259.1875 66 Z M 259.1875 63 "/>
</clipPath>
<clipPath id="clip16">
  <path d="M 259.1875 17 L 443.820312 17 L 443.820312 19 L 259.1875 19 Z M 259.1875 17 "/>
</clipPath>
<clipPath id="clip17">
  <path d="M 488 9 L 490 9 L 490 212.851562 L 488 212.851562 Z M 488 9 "/>
</clipPath>
<clipPath id="clip18">
  <path d="M 572 9 L 574 9 L 574 212.851562 L 572 212.851562 Z M 572 9 "/>
</clipPath>
<clipPath id="clip19">
  <path d="M 656 9 L 659 9 L 659 212.851562 L 656 212.851562 Z M 656 9 "/>
</clipPath>
<clipPath id="clip20">
  <path d="M 480.746094 192 L 665.378906 192 L 665.378906 194 L 480.746094 194 Z M 480.746094 192 "/>
</clipPath>
<clipPath id="clip21">
  <path d="M 480.746094 152 L 665.378906 152 L 665.378906 155 L 480.746094 155 Z M 480.746094 152 "/>
</clipPath>
<clipPath id="clip22">
  <path d="M 480.746094 113 L 665.378906 113 L 665.378906 115 L 480.746094 115 Z M 480.746094 113 "/>
</clipPath>
<clipPath id="clip23">
  <path d="M 480.746094 73 L 665.378906 73 L 665.378906 75 L 480.746094 75 Z M 480.746094 73 "/>
</clipPath>
<clipPath id="clip24">
  <path d="M 480.746094 33 L 665.378906 33 L 665.378906 36 L 480.746094 36 Z M 480.746094 33 "/>
</clipPath>
</defs>
<g id="surface1">
<path style=" stroke:none;fill-rule:nonzero;fill:rgb(100%,100%,100%);fill-opacity:1;" d="M 37.628906 212.851562 L 222.261719 212.851562 L 222.261719 9 L 37.628906 9 Z M 37.628906 212.851562 "/>
<g clip-path="url(#clip1)" clip-rule="nonzero">
<path style="fill:none;stroke-width:0.8;stroke-linecap:square;stroke-linejoin:round;stroke:rgb(69.019608%,69.019608%,69.019608%);stroke-opacity:1;stroke-miterlimit:4;" d="M 36.815625 170.28125 L 36.815625 7.2 " transform="matrix(1.25,0,0,1.25,0,0.000000000000014211)"/>
</g>
<path style="fill:none;stroke-width:0.8;stroke-linecap:butt;stroke-linejoin:round;stroke:rgb(0%,0%,0%);stroke-opacity:1;stroke-miterlimit:4;" d="M -0.001404 0.00125 L -0.001404 3.50125 " transform="matrix(1.25,0,0,1.25,46.021286,212.85)"/>
<path style=" stroke:none;fill-rule:nonzero;fill:rgb(0%,0%,0%);fill-opacity:1;" d="M 38.132812 226.660156 L 45.957031 226.660156 L 45.957031 227.699219 L 38.132812 227.699219 Z M 38.132812 226.660156 "/>
<path style=" stroke:none;fill-rule:nonzero;fill:rgb(0%,0%,0%);fill-opacity:1;" d="M 49.679688 230.0625 L 53.980469 230.0625 L 53.980469 231.097656 L 48.195312 231.097656 L 48.195312 230.0625 C 48.664062 229.578125 49.300781 228.925781 50.109375 228.113281 C 50.917969 227.296875 51.425781 226.769531 51.632812 226.53125 C 52.027344 226.089844 52.300781 225.714844 52.457031 225.40625 C 52.617188 225.097656 52.695312 224.796875 52.695312 224.5 C 52.695312 224.015625 52.523438 223.621094 52.183594 223.316406 C 51.84375 223.011719 51.402344 222.859375 50.855469 222.859375 C 50.46875 222.859375 50.0625 222.925781 49.632812 223.058594 C 49.203125 223.191406 48.746094 223.398438 48.257812 223.671875 L 48.257812 222.425781 C 48.753906 222.226562 49.21875 222.074219 49.648438 221.972656 C 50.082031 221.871094 50.476562 221.820312 50.832031 221.820312 C 51.777344 221.820312 52.53125 222.058594 53.089844 222.53125 C 53.652344 223 53.933594 223.632812 53.933594 224.421875 C 53.933594 224.796875 53.863281 225.152344 53.722656 225.488281 C 53.582031 225.820312 53.328125 226.214844 52.957031 226.671875 C 52.855469 226.789062 52.53125 227.132812 51.984375 227.695312 C 51.441406 228.257812 50.671875 229.046875 49.679688 230.0625 Z M 49.679688 230.0625 "/>
<g clip-path="url(#clip2)" clip-rule="nonzero">
<path style="fill:none;stroke-width:0.8;stroke-linecap:square;stroke-linejoin:round;stroke:rgb(69.019608%,69.019608%,69.019608%);stroke-opacity:1;stroke-miterlimit:4;" d="M 104.125 170.28125 L 104.125 7.2 " transform="matrix(1.25,0,0,1.25,0,0.000000000000014211)"/>
</g>
<path style="fill:none;stroke-width:0.8;stroke-linecap:butt;stroke-linejoin:round;stroke:rgb(0%,0%,0%);stroke-opacity:1;stroke-miterlimit:4;" d="M 0.000666 0.00125 L 0.000666 3.50125 " transform="matrix(1.25,0,0,1.25,130.155417,212.85)"/>
<path style=" stroke:none;fill-rule:nonzero;fill:rgb(0%,0%,0%);fill-opacity:1;" d="M 130.152344 222.796875 C 129.515625 222.796875 129.039062 223.109375 128.71875 223.734375 C 128.402344 224.359375 128.242188 225.296875 128.242188 226.550781 C 128.242188 227.800781 128.402344 228.738281 128.71875 229.363281 C 129.039062 229.988281 129.515625 230.300781 130.152344 230.300781 C 130.789062 230.300781 131.269531 229.988281 131.589844 229.363281 C 131.910156 228.738281 132.070312 227.800781 132.070312 226.550781 C 132.070312 225.296875 131.910156 224.359375 131.589844 223.734375 C 131.269531 223.109375 130.789062 222.796875 130.152344 222.796875 Z M 130.152344 221.820312 C 131.171875 221.820312 131.953125 222.226562 132.492188 223.035156 C 133.03125 223.839844 133.300781 225.011719 133.300781 226.550781 C 133.300781 228.085938 133.03125 229.257812 132.492188 230.066406 C 131.953125 230.871094 131.171875 231.277344 130.152344 231.277344 C 129.128906 231.277344 128.351562 230.871094 127.8125 230.066406 C 127.273438 229.257812 127.003906 228.085938 127.003906 226.550781 C 127.003906 225.011719 127.273438 223.839844 127.8125 223.035156 C 128.351562 222.226562 129.128906 221.820312 130.152344 221.820312 Z M 130.152344 221.820312 "/>
<g clip-path="url(#clip3)" clip-rule="nonzero">
<path style="fill:none;stroke-width:0.8;stroke-linecap:square;stroke-linejoin:round;stroke:rgb(69.019608%,69.019608%,69.019608%);stroke-opacity:1;stroke-miterlimit:4;" d="M 171.43125 170.28125 L 171.43125 7.2 " transform="matrix(1.25,0,0,1.25,0,0.000000000000014211)"/>
</g>
<path style="fill:none;stroke-width:0.8;stroke-linecap:butt;stroke-linejoin:round;stroke:rgb(0%,0%,0%);stroke-opacity:1;stroke-miterlimit:4;" d="M -0.00039 0.00125 L -0.00039 3.50125 " transform="matrix(1.25,0,0,1.25,214.28955,212.85)"/>
<path style=" stroke:none;fill-rule:nonzero;fill:rgb(0%,0%,0%);fill-opacity:1;" d="M 212.710938 230.0625 L 217.015625 230.0625 L 217.015625 231.097656 L 211.230469 231.097656 L 211.230469 230.0625 C 211.695312 229.578125 212.332031 228.925781 213.140625 228.113281 C 213.949219 227.296875 214.457031 226.769531 214.664062 226.53125 C 215.058594 226.089844 215.335938 225.714844 215.492188 225.40625 C 215.648438 225.097656 215.726562 224.796875 215.726562 224.5 C 215.726562 224.015625 215.558594 223.621094 215.21875 223.316406 C 214.878906 223.011719 214.433594 222.859375 213.890625 222.859375 C 213.503906 222.859375 213.09375 222.925781 212.664062 223.058594 C 212.234375 223.191406 211.777344 223.398438 211.289062 223.671875 L 211.289062 222.425781 C 211.785156 222.226562 212.25 222.074219 212.679688 221.972656 C 213.113281 221.871094 213.507812 221.820312 213.867188 221.820312 C 214.808594 221.820312 215.5625 222.058594 216.125 222.53125 C 216.683594 223 216.964844 223.632812 216.964844 224.421875 C 216.964844 224.796875 216.894531 225.152344 216.753906 225.488281 C 216.613281 225.820312 216.359375 226.214844 215.988281 226.671875 C 215.886719 226.789062 215.5625 227.132812 215.019531 227.695312 C 214.472656 228.257812 213.703125 229.046875 212.710938 230.0625 Z M 212.710938 230.0625 "/>
<g clip-path="url(#clip4)" clip-rule="nonzero">
<path style="fill:none;stroke-width:0.8;stroke-linecap:square;stroke-linejoin:round;stroke:rgb(69.019608%,69.019608%,69.019608%);stroke-opacity:1;stroke-miterlimit:4;" d="M 30.103125 162.86875 L 177.809375 162.86875 " transform="matrix(1.25,0,0,1.25,0,0.000000000000014211)"/>
</g>
<path style="fill:none;stroke-width:0.8;stroke-linecap:butt;stroke-linejoin:round;stroke:rgb(0%,0%,0%);stroke-opacity:1;stroke-miterlimit:4;" d="M 0 0.001477 L -3.5 0.001477 " transform="matrix(1.25,0,0,1.25,37.628906,203.584091)"/>
<path style=" stroke:none;fill-rule:nonzero;fill:rgb(0%,0%,0%);fill-opacity:1;" d="M 12.972656 200.03125 C 12.339844 200.03125 11.859375 200.34375 11.539062 200.96875 C 11.222656 201.59375 11.0625 202.53125 11.0625 203.785156 C 11.0625 205.035156 11.222656 205.972656 11.539062 206.597656 C 11.859375 207.222656 12.339844 207.535156 12.972656 207.535156 C 13.613281 207.535156 14.089844 207.222656 14.410156 206.597656 C 14.730469 205.972656 14.890625 205.035156 14.890625 203.785156 C 14.890625 202.53125 14.730469 201.59375 14.410156 200.96875 C 14.089844 200.34375 13.613281 200.03125 12.972656 200.03125 Z M 12.972656 199.054688 C 13.996094 199.054688 14.773438 199.460938 15.3125 200.269531 C 15.851562 201.074219 16.125 202.25 16.125 203.785156 C 16.125 205.320312 15.851562 206.492188 15.3125 207.300781 C 14.773438 208.105469 13.996094 208.511719 12.972656 208.511719 C 11.953125 208.511719 11.171875 208.105469 10.632812 207.300781 C 10.09375 206.492188 9.824219 205.320312 9.824219 203.785156 C 9.824219 202.25 10.09375 201.074219 10.632812 200.269531 C 11.171875 199.460938 11.953125 199.054688 12.972656 199.054688 Z M 12.972656 199.054688 "/>
<path style=" stroke:none;fill-rule:nonzero;fill:rgb(0%,0%,0%);fill-opacity:1;" d="M 18.289062 206.78125 L 19.578125 206.78125 L 19.578125 208.332031 L 18.289062 208.332031 Z M 18.289062 206.78125 "/>
<path style=" stroke:none;fill-rule:nonzero;fill:rgb(0%,0%,0%);fill-opacity:1;" d="M 24.898438 200.03125 C 24.265625 200.03125 23.789062 200.34375 23.46875 200.96875 C 23.148438 201.59375 22.988281 202.53125 22.988281 203.785156 C 22.988281 205.035156 23.148438 205.972656 23.46875 206.597656 C 23.789062 207.222656 24.265625 207.535156 24.898438 207.535156 C 25.539062 207.535156 26.015625 207.222656 26.335938 206.597656 C 26.65625 205.972656 26.816406 205.035156 26.816406 203.785156 C 26.816406 202.53125 26.65625 201.59375 26.335938 200.96875 C 26.015625 200.34375 25.539062 200.03125 24.898438 200.03125 Z M 24.898438 199.054688 C 25.921875 199.054688 26.703125 199.460938 27.242188 200.269531 C 27.78125 201.074219 28.050781 202.25 28.050781 203.785156 C 28.050781 205.320312 27.78125 206.492188 27.242188 207.300781 C 26.703125 208.105469 25.921875 208.511719 24.898438 208.511719 C 23.878906 208.511719 23.097656 208.105469 22.558594 207.300781 C 22.019531 206.492188 21.75 205.320312 21.75 203.785156 C 21.75 202.25 22.019531 201.074219 22.558594 200.269531 C 23.097656 199.460938 23.878906 199.054688 24.898438 199.054688 Z M 24.898438 199.054688 "/>
<g clip-path="url(#clip5)" clip-rule="nonzero">
<path style="fill:none;stroke-width:0.8;stroke-linecap:square;stroke-linejoin:round;stroke:rgb(69.019608%,69.019608%,69.019608%);stroke-opacity:1;stroke-miterlimit:4;" d="M 30.103125 125.803125 L 177.809375 125.803125 " transform="matrix(1.25,0,0,1.25,0,0.000000000000014211)"/>
</g>
<path style="fill:none;stroke-width:0.8;stroke-linecap:butt;stroke-linejoin:round;stroke:rgb(0%,0%,0%);stroke-opacity:1;stroke-miterlimit:4;" d="M 0 -0.000511 L -3.5 -0.000511 " transform="matrix(1.25,0,0,1.25,37.628906,157.254545)"/>
<path style=" stroke:none;fill-rule:nonzero;fill:rgb(0%,0%,0%);fill-opacity:1;" d="M 12.972656 153.703125 C 12.339844 153.703125 11.859375 154.015625 11.539062 154.640625 C 11.222656 155.265625 11.0625 156.203125 11.0625 157.457031 C 11.0625 158.707031 11.222656 159.640625 11.539062 160.265625 C 11.859375 160.890625 12.339844 161.203125 12.972656 161.203125 C 13.613281 161.203125 14.089844 160.890625 14.410156 160.265625 C 14.730469 159.640625 14.890625 158.707031 14.890625 157.457031 C 14.890625 156.203125 14.730469 155.265625 14.410156 154.640625 C 14.089844 154.015625 13.613281 153.703125 12.972656 153.703125 Z M 12.972656 152.726562 C 13.996094 152.726562 14.773438 153.128906 15.3125 153.9375 C 15.851562 154.746094 16.125 155.917969 16.125 157.457031 C 16.125 158.992188 15.851562 160.160156 15.3125 160.96875 C 14.773438 161.777344 13.996094 162.179688 12.972656 162.179688 C 11.953125 162.179688 11.171875 161.777344 10.632812 160.96875 C 10.09375 160.160156 9.824219 158.992188 9.824219 157.457031 C 9.824219 155.917969 10.09375 154.746094 10.632812 153.9375 C 11.171875 153.128906 11.953125 152.726562 12.972656 152.726562 Z M 12.972656 152.726562 "/>
<path style=" stroke:none;fill-rule:nonzero;fill:rgb(0%,0%,0%);fill-opacity:1;" d="M 18.289062 160.453125 L 19.578125 160.453125 L 19.578125 162.003906 L 18.289062 162.003906 Z M 18.289062 160.453125 "/>
<path style=" stroke:none;fill-rule:nonzero;fill:rgb(0%,0%,0%);fill-opacity:1;" d="M 22.277344 152.890625 L 27.117188 152.890625 L 27.117188 153.929688 L 23.40625 153.929688 L 23.40625 156.160156 C 23.582031 156.101562 23.761719 156.054688 23.941406 156.023438 C 24.121094 155.996094 24.300781 155.980469 24.480469 155.980469 C 25.496094 155.980469 26.300781 156.257812 26.894531 156.816406 C 27.488281 157.375 27.789062 158.128906 27.789062 159.078125 C 27.789062 160.058594 27.480469 160.824219 26.871094 161.367188 C 26.261719 161.910156 25.398438 162.179688 24.289062 162.179688 C 23.90625 162.179688 23.515625 162.148438 23.121094 162.082031 C 22.722656 162.019531 22.3125 161.921875 21.890625 161.789062 L 21.890625 160.550781 C 22.257812 160.75 22.636719 160.898438 23.027344 160.996094 C 23.417969 161.09375 23.828125 161.140625 24.265625 161.140625 C 24.96875 161.140625 25.527344 160.957031 25.9375 160.585938 C 26.347656 160.21875 26.554688 159.714844 26.554688 159.078125 C 26.554688 158.445312 26.347656 157.945312 25.9375 157.574219 C 25.527344 157.203125 24.96875 157.015625 24.265625 157.015625 C 23.933594 157.015625 23.605469 157.054688 23.277344 157.125 C 22.949219 157.199219 22.617188 157.3125 22.277344 157.46875 Z M 22.277344 152.890625 "/>
<g clip-path="url(#clip6)" clip-rule="nonzero">
<path style="fill:none;stroke-width:0.8;stroke-linecap:square;stroke-linejoin:round;stroke:rgb(69.019608%,69.019608%,69.019608%);stroke-opacity:1;stroke-miterlimit:4;" d="M 30.103125 88.740625 L 177.809375 88.740625 " transform="matrix(1.25,0,0,1.25,0,0.000000000000014211)"/>
</g>
<path style="fill:none;stroke-width:0.8;stroke-linecap:butt;stroke-linejoin:round;stroke:rgb(0%,0%,0%);stroke-opacity:1;stroke-miterlimit:4;" d="M 0 0.000625 L -3.5 0.000625 " transform="matrix(1.25,0,0,1.25,37.628906,110.925)"/>
<path style=" stroke:none;fill-rule:nonzero;fill:rgb(0%,0%,0%);fill-opacity:1;" d="M 10.550781 114.636719 L 12.5625 114.636719 L 12.5625 107.683594 L 10.375 108.125 L 10.375 107 L 12.554688 106.5625 L 13.785156 106.5625 L 13.785156 114.636719 L 15.796875 114.636719 L 15.796875 115.675781 L 10.550781 115.675781 Z M 10.550781 114.636719 "/>
<path style=" stroke:none;fill-rule:nonzero;fill:rgb(0%,0%,0%);fill-opacity:1;" d="M 18.289062 114.125 L 19.578125 114.125 L 19.578125 115.675781 L 18.289062 115.675781 Z M 18.289062 114.125 "/>
<path style=" stroke:none;fill-rule:nonzero;fill:rgb(0%,0%,0%);fill-opacity:1;" d="M 24.898438 107.375 C 24.265625 107.375 23.789062 107.6875 23.46875 108.3125 C 23.148438 108.933594 22.988281 109.875 22.988281 111.128906 C 22.988281 112.375 23.148438 113.3125 23.46875 113.9375 C 23.789062 114.5625 24.265625 114.875 24.898438 114.875 C 25.539062 114.875 26.015625 114.5625 26.335938 113.9375 C 26.65625 113.3125 26.816406 112.375 26.816406 111.128906 C 26.816406 109.875 26.65625 108.933594 26.335938 108.3125 C 26.015625 107.6875 25.539062 107.375 24.898438 107.375 Z M 24.898438 106.398438 C 25.921875 106.398438 26.703125 106.800781 27.242188 107.609375 C 27.78125 108.417969 28.050781 109.589844 28.050781 111.128906 C 28.050781 112.660156 27.78125 113.832031 27.242188 114.640625 C 26.703125 115.449219 25.921875 115.851562 24.898438 115.851562 C 23.878906 115.851562 23.097656 115.449219 22.558594 114.640625 C 22.019531 113.832031 21.75 112.660156 21.75 111.128906 C 21.75 109.589844 22.019531 108.417969 22.558594 107.609375 C 23.097656 106.800781 23.878906 106.398438 24.898438 106.398438 Z M 24.898438 106.398438 "/>
<g clip-path="url(#clip7)" clip-rule="nonzero">
<path style="fill:none;stroke-width:0.8;stroke-linecap:square;stroke-linejoin:round;stroke:rgb(69.019608%,69.019608%,69.019608%);stroke-opacity:1;stroke-miterlimit:4;" d="M 30.103125 51.675 L 177.809375 51.675 " transform="matrix(1.25,0,0,1.25,0,0.000000000000014211)"/>
</g>
<path style="fill:none;stroke-width:0.8;stroke-linecap:butt;stroke-linejoin:round;stroke:rgb(0%,0%,0%);stroke-opacity:1;stroke-miterlimit:4;" d="M 0 -0.001364 L -3.5 -0.001364 " transform="matrix(1.25,0,0,1.25,37.628906,64.595455)"/>
<path style=" stroke:none;fill-rule:nonzero;fill:rgb(0%,0%,0%);fill-opacity:1;" d="M 10.550781 68.308594 L 12.5625 68.308594 L 12.5625 61.355469 L 10.375 61.792969 L 10.375 60.671875 L 12.554688 60.230469 L 13.785156 60.230469 L 13.785156 68.308594 L 15.796875 68.308594 L 15.796875 69.34375 L 10.550781 69.34375 Z M 10.550781 68.308594 "/>
<path style=" stroke:none;fill-rule:nonzero;fill:rgb(0%,0%,0%);fill-opacity:1;" d="M 18.289062 67.792969 L 19.578125 67.792969 L 19.578125 69.34375 L 18.289062 69.34375 Z M 18.289062 67.792969 "/>
<path style=" stroke:none;fill-rule:nonzero;fill:rgb(0%,0%,0%);fill-opacity:1;" d="M 22.277344 60.230469 L 27.117188 60.230469 L 27.117188 61.269531 L 23.40625 61.269531 L 23.40625 63.503906 C 23.582031 63.441406 23.761719 63.394531 23.941406 63.367188 C 24.121094 63.335938 24.300781 63.320312 24.480469 63.320312 C 25.496094 63.320312 26.300781 63.601562 26.894531 64.15625 C 27.488281 64.714844 27.789062 65.46875 27.789062 66.421875 C 27.789062 67.402344 27.480469 68.164062 26.871094 68.707031 C 26.261719 69.25 25.398438 69.523438 24.289062 69.523438 C 23.90625 69.523438 23.515625 69.488281 23.121094 69.425781 C 22.722656 69.359375 22.3125 69.261719 21.890625 69.132812 L 21.890625 67.890625 C 22.257812 68.089844 22.636719 68.238281 23.027344 68.335938 C 23.417969 68.433594 23.828125 68.484375 24.265625 68.484375 C 24.96875 68.484375 25.527344 68.296875 25.9375 67.929688 C 26.347656 67.558594 26.554688 67.054688 26.554688 66.421875 C 26.554688 65.785156 26.347656 65.285156 25.9375 64.914062 C 25.527344 64.542969 24.96875 64.359375 24.265625 64.359375 C 23.933594 64.359375 23.605469 64.394531 23.277344 64.46875 C 22.949219 64.539062 22.617188 64.65625 22.277344 64.808594 Z M 22.277344 60.230469 "/>
<g clip-path="url(#clip8)" clip-rule="nonzero">
<path style="fill:none;stroke-width:0.8;stroke-linecap:square;stroke-linejoin:round;stroke:rgb(69.019608%,69.019608%,69.019608%);stroke-opacity:1;stroke-miterlimit:4;" d="M 30.103125 14.6125 L 177.809375 14.6125 " transform="matrix(1.25,0,0,1.25,0,0.000000000000014211)"/>
</g>
<path style="fill:none;stroke-width:0.8;stroke-linecap:butt;stroke-linejoin:round;stroke:rgb(0%,0%,0%);stroke-opacity:1;stroke-miterlimit:4;" d="M 0 -0.000227 L -3.5 -0.000227 " transform="matrix(1.25,0,0,1.25,37.628906,18.265909)"/>
<path style=" stroke:none;fill-rule:nonzero;fill:rgb(0%,0%,0%);fill-opacity:1;" d="M 11.398438 21.976562 L 15.703125 21.976562 L 15.703125 23.015625 L 9.914062 23.015625 L 9.914062 21.976562 C 10.382812 21.492188 11.019531 20.84375 11.828125 20.027344 C 12.636719 19.210938 13.144531 18.683594 13.351562 18.449219 C 13.746094 18.003906 14.023438 17.628906 14.179688 17.324219 C 14.335938 17.015625 14.414062 16.714844 14.414062 16.417969 C 14.414062 15.933594 14.242188 15.539062 13.90625 15.234375 C 13.5625 14.925781 13.121094 14.773438 12.578125 14.773438 C 12.1875 14.773438 11.78125 14.839844 11.351562 14.976562 C 10.921875 15.109375 10.464844 15.3125 9.976562 15.585938 L 9.976562 14.339844 C 10.472656 14.140625 10.9375 13.992188 11.367188 13.890625 C 11.800781 13.789062 12.195312 13.738281 12.554688 13.738281 C 13.496094 13.738281 14.25 13.972656 14.8125 14.445312 C 15.371094 14.917969 15.652344 15.546875 15.652344 16.335938 C 15.652344 16.710938 15.582031 17.066406 15.441406 17.402344 C 15.300781 17.738281 15.046875 18.132812 14.675781 18.589844 C 14.574219 18.707031 14.25 19.046875 13.703125 19.613281 C 13.160156 20.175781 12.390625 20.964844 11.398438 21.976562 Z M 11.398438 21.976562 "/>
<path style=" stroke:none;fill-rule:nonzero;fill:rgb(0%,0%,0%);fill-opacity:1;" d="M 18.289062 21.464844 L 19.578125 21.464844 L 19.578125 23.015625 L 18.289062 23.015625 Z M 18.289062 21.464844 "/>
<path style=" stroke:none;fill-rule:nonzero;fill:rgb(0%,0%,0%);fill-opacity:1;" d="M 24.898438 14.714844 C 24.265625 14.714844 23.789062 15.027344 23.46875 15.652344 C 23.148438 16.273438 22.988281 17.214844 22.988281 18.46875 C 22.988281 19.714844 23.148438 20.652344 23.46875 21.277344 C 23.789062 21.902344 24.265625 22.214844 24.898438 22.214844 C 25.539062 22.214844 26.015625 21.902344 26.335938 21.277344 C 26.65625 20.652344 26.816406 19.714844 26.816406 18.46875 C 26.816406 17.214844 26.65625 16.273438 26.335938 15.652344 C 26.015625 15.027344 25.539062 14.714844 24.898438 14.714844 Z M 24.898438 13.738281 C 25.921875 13.738281 26.703125 14.140625 27.242188 14.949219 C 27.78125 15.757812 28.050781 16.929688 28.050781 18.46875 C 28.050781 20 27.78125 21.171875 27.242188 21.980469 C 26.703125 22.789062 25.921875 23.191406 24.898438 23.191406 C 23.878906 23.191406 23.097656 22.789062 22.558594 21.980469 C 22.019531 21.171875 21.75 20 21.75 18.46875 C 21.75 16.929688 22.019531 15.757812 22.558594 14.949219 C 23.097656 14.140625 23.878906 13.738281 24.898438 13.738281 Z M 24.898438 13.738281 "/>
<path style="fill:none;stroke-width:1.5;stroke-linecap:square;stroke-linejoin:round;stroke:rgb(12.156863%,46.666667%,70.588235%);stroke-opacity:1;stroke-miterlimit:4;" d="M 36.815625 14.6125 L 40.85625 31.86875 L 44.55625 46.75 L 48.259375 60.734375 L 51.9625 73.821875 L 55.325 84.940625 L 58.690625 95.31875 L 62.05625 104.95625 L 65.0875 112.99375 L 68.115625 120.434375 L 71.14375 127.271875 L 73.8375 132.846875 L 76.528125 137.946875 L 79.221875 142.571875 L 81.9125 146.721875 L 84.26875 149.965625 L 86.625 152.84375 L 88.98125 155.3625 L 91 157.23125 L 93.01875 158.83125 L 95.0375 160.165625 L 97.05625 161.23125 L 99.075 162.034375 L 101.096875 162.565625 L 103.115625 162.834375 L 105.134375 162.834375 L 107.153125 162.565625 L 109.171875 162.034375 L 111.190625 161.23125 L 113.209375 160.165625 L 115.23125 158.83125 L 117.25 157.23125 L 119.26875 155.3625 L 121.625 152.84375 L 123.98125 149.965625 L 126.334375 146.721875 L 128.690625 143.115625 L 131.384375 138.55 L 134.075 133.509375 L 136.76875 127.99375 L 139.459375 122.003125 L 142.490625 114.7 L 145.51875 106.79375 L 148.546875 98.2875 L 151.9125 88.13125 L 155.278125 77.234375 L 158.64375 65.596875 L 162.34375 51.940625 L 166.046875 37.384375 L 169.75 21.93125 L 171.09375 16.090625 " transform="matrix(1.25,0,0,1.25,0,0.000000000000014211)"/>
<path style="fill:none;stroke-width:1.5;stroke-linecap:butt;stroke-linejoin:round;stroke:rgb(74.901961%,0%,74.901961%);stroke-opacity:1;stroke-dasharray:5.55,2.4;stroke-miterlimit:4;" d="M 53.64375 79.475 L 137.778125 125.803125 " transform="matrix(1.25,0,0,1.25,0,0.000000000000014211)"/>
<path style="fill:none;stroke-width:0.8;stroke-linecap:square;stroke-linejoin:miter;stroke:rgb(0%,0%,0%);stroke-opacity:1;stroke-miterlimit:4;" d="M 30.103125 170.28125 L 30.103125 7.2 " transform="matrix(1.25,0,0,1.25,0,0.000000000000014211)"/>
<path style="fill:none;stroke-width:0.8;stroke-linecap:square;stroke-linejoin:miter;stroke:rgb(0%,0%,0%);stroke-opacity:1;stroke-miterlimit:4;" d="M 177.809375 170.28125 L 177.809375 7.2 " transform="matrix(1.25,0,0,1.25,0,0.000000000000014211)"/>
<path style="fill:none;stroke-width:0.8;stroke-linecap:square;stroke-linejoin:miter;stroke:rgb(0%,0%,0%);stroke-opacity:1;stroke-miterlimit:4;" d="M 30.103125 170.28125 L 177.809375 170.28125 " transform="matrix(1.25,0,0,1.25,0,0.000000000000014211)"/>
<path style="fill:none;stroke-width:0.8;stroke-linecap:square;stroke-linejoin:miter;stroke:rgb(0%,0%,0%);stroke-opacity:1;stroke-miterlimit:4;" d="M 30.103125 7.2 L 177.809375 7.2 " transform="matrix(1.25,0,0,1.25,0,0.000000000000014211)"/>
<path style=" stroke:none;fill-rule:nonzero;fill:rgb(100%,100%,100%);fill-opacity:1;" d="M 259.1875 212.851562 L 443.820312 212.851562 L 443.820312 9 L 259.1875 9 Z M 259.1875 212.851562 "/>
<g clip-path="url(#clip9)" clip-rule="nonzero">
<path style="fill:none;stroke-width:0.8;stroke-linecap:square;stroke-linejoin:round;stroke:rgb(69.019608%,69.019608%,69.019608%);stroke-opacity:1;stroke-miterlimit:4;" d="M 214.065625 170.28125 L 214.065625 7.2 " transform="matrix(1.25,0,0,1.25,0,0.000000000000014211)"/>
</g>
<path style="fill:none;stroke-width:0.8;stroke-linecap:butt;stroke-linejoin:round;stroke:rgb(0%,0%,0%);stroke-opacity:1;stroke-miterlimit:4;" d="M 0.001537 0.00125 L 0.001537 3.50125 " transform="matrix(1.25,0,0,1.25,267.58011,212.85)"/>
<path style=" stroke:none;fill-rule:nonzero;fill:rgb(0%,0%,0%);fill-opacity:1;" d="M 259.691406 226.660156 L 267.515625 226.660156 L 267.515625 227.699219 L 259.691406 227.699219 Z M 259.691406 226.660156 "/>
<path style=" stroke:none;fill-rule:nonzero;fill:rgb(0%,0%,0%);fill-opacity:1;" d="M 271.238281 230.0625 L 275.542969 230.0625 L 275.542969 231.097656 L 269.757812 231.097656 L 269.757812 230.0625 C 270.222656 229.578125 270.859375 228.925781 271.667969 228.113281 C 272.476562 227.296875 272.984375 226.769531 273.191406 226.53125 C 273.585938 226.089844 273.863281 225.714844 274.019531 225.40625 C 274.175781 225.097656 274.253906 224.796875 274.253906 224.5 C 274.253906 224.015625 274.085938 223.621094 273.746094 223.316406 C 273.40625 223.011719 272.960938 222.859375 272.417969 222.859375 C 272.03125 222.859375 271.621094 222.925781 271.191406 223.058594 C 270.761719 223.191406 270.304688 223.398438 269.816406 223.671875 L 269.816406 222.425781 C 270.3125 222.226562 270.777344 222.074219 271.207031 221.972656 C 271.640625 221.871094 272.035156 221.820312 272.394531 221.820312 C 273.335938 221.820312 274.089844 222.058594 274.652344 222.53125 C 275.210938 223 275.492188 223.632812 275.492188 224.421875 C 275.492188 224.796875 275.421875 225.152344 275.28125 225.488281 C 275.140625 225.820312 274.886719 226.214844 274.515625 226.671875 C 274.414062 226.789062 274.089844 227.132812 273.546875 227.695312 C 273 228.257812 272.230469 229.046875 271.238281 230.0625 Z M 271.238281 230.0625 "/>
<g clip-path="url(#clip10)" clip-rule="nonzero">
<path style="fill:none;stroke-width:0.8;stroke-linecap:square;stroke-linejoin:round;stroke:rgb(69.019608%,69.019608%,69.019608%);stroke-opacity:1;stroke-miterlimit:4;" d="M 281.371875 170.28125 L 281.371875 7.2 " transform="matrix(1.25,0,0,1.25,0,0.000000000000014211)"/>
</g>
<path style="fill:none;stroke-width:0.8;stroke-linecap:butt;stroke-linejoin:round;stroke:rgb(0%,0%,0%);stroke-opacity:1;stroke-miterlimit:4;" d="M 0.000482 0.00125 L 0.000482 3.50125 " transform="matrix(1.25,0,0,1.25,351.714241,212.85)"/>
<path style=" stroke:none;fill-rule:nonzero;fill:rgb(0%,0%,0%);fill-opacity:1;" d="M 351.710938 222.796875 C 351.078125 222.796875 350.597656 223.109375 350.277344 223.734375 C 349.960938 224.359375 349.800781 225.296875 349.800781 226.550781 C 349.800781 227.800781 349.960938 228.738281 350.277344 229.363281 C 350.597656 229.988281 351.078125 230.300781 351.710938 230.300781 C 352.351562 230.300781 352.828125 229.988281 353.148438 229.363281 C 353.46875 228.738281 353.628906 227.800781 353.628906 226.550781 C 353.628906 225.296875 353.46875 224.359375 353.148438 223.734375 C 352.828125 223.109375 352.351562 222.796875 351.710938 222.796875 Z M 351.710938 221.820312 C 352.734375 221.820312 353.511719 222.226562 354.050781 223.035156 C 354.589844 223.839844 354.859375 225.011719 354.859375 226.550781 C 354.859375 228.085938 354.589844 229.257812 354.050781 230.066406 C 353.511719 230.871094 352.734375 231.277344 351.710938 231.277344 C 350.691406 231.277344 349.910156 230.871094 349.371094 230.066406 C 348.832031 229.257812 348.5625 228.085938 348.5625 226.550781 C 348.5625 225.011719 348.832031 223.839844 349.371094 223.035156 C 349.910156 222.226562 350.691406 221.820312 351.710938 221.820312 Z M 351.710938 221.820312 "/>
<g clip-path="url(#clip11)" clip-rule="nonzero">
<path style="fill:none;stroke-width:0.8;stroke-linecap:square;stroke-linejoin:round;stroke:rgb(69.019608%,69.019608%,69.019608%);stroke-opacity:1;stroke-miterlimit:4;" d="M 348.678125 170.28125 L 348.678125 7.2 " transform="matrix(1.25,0,0,1.25,0,0.000000000000014211)"/>
</g>
<path style="fill:none;stroke-width:0.8;stroke-linecap:butt;stroke-linejoin:round;stroke:rgb(0%,0%,0%);stroke-opacity:1;stroke-miterlimit:4;" d="M -0.000574 0.00125 L -0.000574 3.50125 " transform="matrix(1.25,0,0,1.25,435.848374,212.85)"/>
<path style=" stroke:none;fill-rule:nonzero;fill:rgb(0%,0%,0%);fill-opacity:1;" d="M 434.269531 230.0625 L 438.574219 230.0625 L 438.574219 231.097656 L 432.789062 231.097656 L 432.789062 230.0625 C 433.253906 229.578125 433.894531 228.925781 434.699219 228.113281 C 435.507812 227.296875 436.015625 226.769531 436.222656 226.53125 C 436.617188 226.089844 436.894531 225.714844 437.050781 225.40625 C 437.207031 225.097656 437.285156 224.796875 437.285156 224.5 C 437.285156 224.015625 437.117188 223.621094 436.777344 223.316406 C 436.4375 223.011719 435.992188 222.859375 435.449219 222.859375 C 435.0625 222.859375 434.652344 222.925781 434.222656 223.058594 C 433.796875 223.191406 433.335938 223.398438 432.847656 223.671875 L 432.847656 222.425781 C 433.34375 222.226562 433.808594 222.074219 434.238281 221.972656 C 434.671875 221.871094 435.066406 221.820312 435.425781 221.820312 C 436.367188 221.820312 437.121094 222.058594 437.683594 222.53125 C 438.242188 223 438.523438 223.632812 438.523438 224.421875 C 438.523438 224.796875 438.453125 225.152344 438.3125 225.488281 C 438.175781 225.820312 437.917969 226.214844 437.546875 226.671875 C 437.445312 226.789062 437.121094 227.132812 436.578125 227.695312 C 436.03125 228.257812 435.265625 229.046875 434.269531 230.0625 Z M 434.269531 230.0625 "/>
<g clip-path="url(#clip12)" clip-rule="nonzero">
<path style="fill:none;stroke-width:0.8;stroke-linecap:square;stroke-linejoin:round;stroke:rgb(69.019608%,69.019608%,69.019608%);stroke-opacity:1;stroke-miterlimit:4;" d="M 207.35 162.86875 L 355.05625 162.86875 " transform="matrix(1.25,0,0,1.25,0,0.000000000000014211)"/>
</g>
<path style="fill:none;stroke-width:0.8;stroke-linecap:butt;stroke-linejoin:round;stroke:rgb(0%,0%,0%);stroke-opacity:1;stroke-miterlimit:4;" d="M -0.000184 0.001477 L -3.500184 0.001477 " transform="matrix(1.25,0,0,1.25,259.18773,203.584091)"/>
<path style=" stroke:none;fill-rule:nonzero;fill:rgb(0%,0%,0%);fill-opacity:1;" d="M 221.410156 203.894531 L 229.234375 203.894531 L 229.234375 204.933594 L 221.410156 204.933594 Z M 221.410156 203.894531 "/>
<path style=" stroke:none;fill-rule:nonzero;fill:rgb(0%,0%,0%);fill-opacity:1;" d="M 232.109375 207.296875 L 234.121094 207.296875 L 234.121094 200.34375 L 231.929688 200.78125 L 231.929688 199.660156 L 234.109375 199.21875 L 235.34375 199.21875 L 235.34375 207.296875 L 237.355469 207.296875 L 237.355469 208.332031 L 232.109375 208.332031 Z M 232.109375 207.296875 "/>
<path style=" stroke:none;fill-rule:nonzero;fill:rgb(0%,0%,0%);fill-opacity:1;" d="M 239.847656 206.78125 L 241.136719 206.78125 L 241.136719 208.332031 L 239.847656 208.332031 Z M 239.847656 206.78125 "/>
<path style=" stroke:none;fill-rule:nonzero;fill:rgb(0%,0%,0%);fill-opacity:1;" d="M 246.457031 200.03125 C 245.824219 200.03125 245.34375 200.34375 245.023438 200.96875 C 244.707031 201.59375 244.546875 202.53125 244.546875 203.785156 C 244.546875 205.035156 244.707031 205.972656 245.023438 206.597656 C 245.34375 207.222656 245.824219 207.535156 246.457031 207.535156 C 247.097656 207.535156 247.574219 207.222656 247.894531 206.597656 C 248.214844 205.972656 248.375 205.035156 248.375 203.785156 C 248.375 202.53125 248.214844 201.59375 247.894531 200.96875 C 247.574219 200.34375 247.097656 200.03125 246.457031 200.03125 Z M 246.457031 199.054688 C 247.480469 199.054688 248.257812 199.460938 248.796875 200.269531 C 249.335938 201.074219 249.605469 202.25 249.605469 203.785156 C 249.605469 205.320312 249.335938 206.492188 248.796875 207.300781 C 248.257812 208.105469 247.480469 208.511719 246.457031 208.511719 C 245.4375 208.511719 244.65625 208.105469 244.117188 207.300781 C 243.578125 206.492188 243.308594 205.320312 243.308594 203.785156 C 243.308594 202.25 243.578125 201.074219 244.117188 200.269531 C 244.65625 199.460938 245.4375 199.054688 246.457031 199.054688 Z M 246.457031 199.054688 "/>
<g clip-path="url(#clip13)" clip-rule="nonzero">
<path style="fill:none;stroke-width:0.8;stroke-linecap:square;stroke-linejoin:round;stroke:rgb(69.019608%,69.019608%,69.019608%);stroke-opacity:1;stroke-miterlimit:4;" d="M 207.35 125.803125 L 355.05625 125.803125 " transform="matrix(1.25,0,0,1.25,0,0.000000000000014211)"/>
</g>
<path style="fill:none;stroke-width:0.8;stroke-linecap:butt;stroke-linejoin:round;stroke:rgb(0%,0%,0%);stroke-opacity:1;stroke-miterlimit:4;" d="M -0.000184 -0.000511 L -3.500184 -0.000511 " transform="matrix(1.25,0,0,1.25,259.18773,157.254545)"/>
<path style=" stroke:none;fill-rule:nonzero;fill:rgb(0%,0%,0%);fill-opacity:1;" d="M 221.410156 157.566406 L 229.234375 157.566406 L 229.234375 158.601562 L 221.410156 158.601562 Z M 221.410156 157.566406 "/>
<path style=" stroke:none;fill-rule:nonzero;fill:rgb(0%,0%,0%);fill-opacity:1;" d="M 234.53125 153.703125 C 233.894531 153.703125 233.417969 154.015625 233.097656 154.640625 C 232.78125 155.265625 232.621094 156.203125 232.621094 157.457031 C 232.621094 158.707031 232.78125 159.640625 233.097656 160.265625 C 233.417969 160.890625 233.894531 161.203125 234.53125 161.203125 C 235.167969 161.203125 235.648438 160.890625 235.96875 160.265625 C 236.289062 159.640625 236.449219 158.707031 236.449219 157.457031 C 236.449219 156.203125 236.289062 155.265625 235.96875 154.640625 C 235.648438 154.015625 235.167969 153.703125 234.53125 153.703125 Z M 234.53125 152.726562 C 235.550781 152.726562 236.332031 153.128906 236.871094 153.9375 C 237.410156 154.746094 237.679688 155.917969 237.679688 157.457031 C 237.679688 158.992188 237.410156 160.160156 236.871094 160.96875 C 236.332031 161.777344 235.550781 162.179688 234.53125 162.179688 C 233.507812 162.179688 232.730469 161.777344 232.191406 160.96875 C 231.652344 160.160156 231.382812 158.992188 231.382812 157.457031 C 231.382812 155.917969 231.652344 154.746094 232.191406 153.9375 C 232.730469 153.128906 233.507812 152.726562 234.53125 152.726562 Z M 234.53125 152.726562 "/>
<path style=" stroke:none;fill-rule:nonzero;fill:rgb(0%,0%,0%);fill-opacity:1;" d="M 239.847656 160.453125 L 241.136719 160.453125 L 241.136719 162.003906 L 239.847656 162.003906 Z M 239.847656 160.453125 "/>
<path style=" stroke:none;fill-rule:nonzero;fill:rgb(0%,0%,0%);fill-opacity:1;" d="M 243.832031 152.890625 L 248.671875 152.890625 L 248.671875 153.929688 L 244.960938 153.929688 L 244.960938 156.160156 C 245.140625 156.101562 245.320312 156.054688 245.496094 156.023438 C 245.675781 155.996094 245.855469 155.980469 246.035156 155.980469 C 247.054688 155.980469 247.859375 156.257812 248.453125 156.816406 C 249.046875 157.375 249.34375 158.128906 249.34375 159.078125 C 249.34375 160.058594 249.039062 160.824219 248.429688 161.367188 C 247.820312 161.910156 246.957031 162.179688 245.847656 162.179688 C 245.464844 162.179688 245.074219 162.148438 244.675781 162.082031 C 244.28125 162.019531 243.871094 161.921875 243.449219 161.789062 L 243.449219 160.550781 C 243.816406 160.75 244.191406 160.898438 244.582031 160.996094 C 244.972656 161.09375 245.386719 161.140625 245.820312 161.140625 C 246.527344 161.140625 247.082031 160.957031 247.492188 160.585938 C 247.90625 160.21875 248.109375 159.714844 248.109375 159.078125 C 248.109375 158.445312 247.90625 157.945312 247.492188 157.574219 C 247.082031 157.203125 246.527344 157.015625 245.820312 157.015625 C 245.492188 157.015625 245.164062 157.054688 244.835938 157.125 C 244.507812 157.199219 244.175781 157.3125 243.832031 157.46875 Z M 243.832031 152.890625 "/>
<g clip-path="url(#clip14)" clip-rule="nonzero">
<path style="fill:none;stroke-width:0.8;stroke-linecap:square;stroke-linejoin:round;stroke:rgb(69.019608%,69.019608%,69.019608%);stroke-opacity:1;stroke-miterlimit:4;" d="M 207.35 88.740625 L 355.05625 88.740625 " transform="matrix(1.25,0,0,1.25,0,0.000000000000014211)"/>
</g>
<path style="fill:none;stroke-width:0.8;stroke-linecap:butt;stroke-linejoin:round;stroke:rgb(0%,0%,0%);stroke-opacity:1;stroke-miterlimit:4;" d="M -0.000184 0.000625 L -3.500184 0.000625 " transform="matrix(1.25,0,0,1.25,259.18773,110.925)"/>
<path style=" stroke:none;fill-rule:nonzero;fill:rgb(0%,0%,0%);fill-opacity:1;" d="M 234.53125 107.375 C 233.898438 107.375 233.421875 107.6875 233.101562 108.3125 C 232.78125 108.933594 232.621094 109.875 232.621094 111.128906 C 232.621094 112.375 232.78125 113.3125 233.101562 113.9375 C 233.421875 114.5625 233.898438 114.875 234.53125 114.875 C 235.171875 114.875 235.648438 114.5625 235.96875 113.9375 C 236.289062 113.3125 236.449219 112.375 236.449219 111.128906 C 236.449219 109.875 236.289062 108.933594 235.96875 108.3125 C 235.648438 107.6875 235.171875 107.375 234.53125 107.375 Z M 234.53125 106.398438 C 235.554688 106.398438 236.335938 106.800781 236.875 107.609375 C 237.414062 108.417969 237.683594 109.589844 237.683594 111.128906 C 237.683594 112.660156 237.414062 113.832031 236.875 114.640625 C 236.335938 115.449219 235.554688 115.851562 234.53125 115.851562 C 233.511719 115.851562 232.730469 115.449219 232.191406 114.640625 C 231.652344 113.832031 231.382812 112.660156 231.382812 111.128906 C 231.382812 109.589844 231.652344 108.417969 232.191406 107.609375 C 232.730469 106.800781 233.511719 106.398438 234.53125 106.398438 Z M 234.53125 106.398438 "/>
<path style=" stroke:none;fill-rule:nonzero;fill:rgb(0%,0%,0%);fill-opacity:1;" d="M 239.847656 114.125 L 241.136719 114.125 L 241.136719 115.675781 L 239.847656 115.675781 Z M 239.847656 114.125 "/>
<path style=" stroke:none;fill-rule:nonzero;fill:rgb(0%,0%,0%);fill-opacity:1;" d="M 246.457031 107.375 C 245.824219 107.375 245.347656 107.6875 245.027344 108.3125 C 244.707031 108.933594 244.546875 109.875 244.546875 111.128906 C 244.546875 112.375 244.707031 113.3125 245.027344 113.9375 C 245.347656 114.5625 245.824219 114.875 246.457031 114.875 C 247.097656 114.875 247.578125 114.5625 247.894531 113.9375 C 248.214844 113.3125 248.375 112.375 248.375 111.128906 C 248.375 109.875 248.214844 108.933594 247.894531 108.3125 C 247.578125 107.6875 247.097656 107.375 246.457031 107.375 Z M 246.457031 106.398438 C 247.480469 106.398438 248.261719 106.800781 248.800781 107.609375 C 249.339844 108.417969 249.609375 109.589844 249.609375 111.128906 C 249.609375 112.660156 249.339844 113.832031 248.800781 114.640625 C 248.261719 115.449219 247.480469 115.851562 246.457031 115.851562 C 245.4375 115.851562 244.65625 115.449219 244.117188 114.640625 C 243.578125 113.832031 243.308594 112.660156 243.308594 111.128906 C 243.308594 109.589844 243.578125 108.417969 244.117188 107.609375 C 244.65625 106.800781 245.4375 106.398438 246.457031 106.398438 Z M 246.457031 106.398438 "/>
<g clip-path="url(#clip15)" clip-rule="nonzero">
<path style="fill:none;stroke-width:0.8;stroke-linecap:square;stroke-linejoin:round;stroke:rgb(69.019608%,69.019608%,69.019608%);stroke-opacity:1;stroke-miterlimit:4;" d="M 207.35 51.675 L 355.05625 51.675 " transform="matrix(1.25,0,0,1.25,0,0.000000000000014211)"/>
</g>
<path style="fill:none;stroke-width:0.8;stroke-linecap:butt;stroke-linejoin:round;stroke:rgb(0%,0%,0%);stroke-opacity:1;stroke-miterlimit:4;" d="M -0.000184 -0.001364 L -3.500184 -0.001364 " transform="matrix(1.25,0,0,1.25,259.18773,64.595455)"/>
<path style=" stroke:none;fill-rule:nonzero;fill:rgb(0%,0%,0%);fill-opacity:1;" d="M 234.53125 61.042969 C 233.898438 61.042969 233.421875 61.355469 233.101562 61.980469 C 232.78125 62.605469 232.621094 63.542969 232.621094 64.796875 C 232.621094 66.046875 232.78125 66.984375 233.101562 67.609375 C 233.421875 68.234375 233.898438 68.546875 234.53125 68.546875 C 235.171875 68.546875 235.648438 68.234375 235.96875 67.609375 C 236.289062 66.984375 236.449219 66.046875 236.449219 64.796875 C 236.449219 63.542969 236.289062 62.605469 235.96875 61.980469 C 235.648438 61.355469 235.171875 61.042969 234.53125 61.042969 Z M 234.53125 60.066406 C 235.554688 60.066406 236.335938 60.472656 236.875 61.28125 C 237.414062 62.085938 237.683594 63.261719 237.683594 64.796875 C 237.683594 66.332031 237.414062 67.503906 236.875 68.3125 C 236.335938 69.117188 235.554688 69.523438 234.53125 69.523438 C 233.511719 69.523438 232.730469 69.117188 232.191406 68.3125 C 231.652344 67.503906 231.382812 66.332031 231.382812 64.796875 C 231.382812 63.261719 231.652344 62.085938 232.191406 61.28125 C 232.730469 60.472656 233.511719 60.066406 234.53125 60.066406 Z M 234.53125 60.066406 "/>
<path style=" stroke:none;fill-rule:nonzero;fill:rgb(0%,0%,0%);fill-opacity:1;" d="M 239.847656 67.792969 L 241.136719 67.792969 L 241.136719 69.34375 L 239.847656 69.34375 Z M 239.847656 67.792969 "/>
<path style=" stroke:none;fill-rule:nonzero;fill:rgb(0%,0%,0%);fill-opacity:1;" d="M 243.835938 60.230469 L 248.675781 60.230469 L 248.675781 61.269531 L 244.964844 61.269531 L 244.964844 63.503906 C 245.140625 63.441406 245.320312 63.394531 245.5 63.367188 C 245.679688 63.335938 245.859375 63.320312 246.039062 63.320312 C 247.054688 63.320312 247.859375 63.601562 248.453125 64.15625 C 249.050781 64.714844 249.347656 65.46875 249.347656 66.421875 C 249.347656 67.402344 249.042969 68.164062 248.429688 68.707031 C 247.820312 69.25 246.960938 69.523438 245.847656 69.523438 C 245.464844 69.523438 245.074219 69.488281 244.679688 69.425781 C 244.28125 69.359375 243.875 69.261719 243.449219 69.132812 L 243.449219 67.890625 C 243.816406 68.089844 244.195312 68.238281 244.585938 68.335938 C 244.976562 68.433594 245.386719 68.484375 245.824219 68.484375 C 246.527344 68.484375 247.085938 68.296875 247.496094 67.929688 C 247.90625 67.558594 248.113281 67.054688 248.113281 66.421875 C 248.113281 65.785156 247.90625 65.285156 247.496094 64.914062 C 247.085938 64.542969 246.527344 64.359375 245.824219 64.359375 C 245.492188 64.359375 245.164062 64.394531 244.835938 64.46875 C 244.511719 64.539062 244.175781 64.65625 243.835938 64.808594 Z M 243.835938 60.230469 "/>
<g clip-path="url(#clip16)" clip-rule="nonzero">
<path style="fill:none;stroke-width:0.8;stroke-linecap:square;stroke-linejoin:round;stroke:rgb(69.019608%,69.019608%,69.019608%);stroke-opacity:1;stroke-miterlimit:4;" d="M 207.35 14.6125 L 355.05625 14.6125 " transform="matrix(1.25,0,0,1.25,0,0.000000000000014211)"/>
</g>
<path style="fill:none;stroke-width:0.8;stroke-linecap:butt;stroke-linejoin:round;stroke:rgb(0%,0%,0%);stroke-opacity:1;stroke-miterlimit:4;" d="M -0.000184 -0.000227 L -3.500184 -0.000227 " transform="matrix(1.25,0,0,1.25,259.18773,18.265909)"/>
<path style=" stroke:none;fill-rule:nonzero;fill:rgb(0%,0%,0%);fill-opacity:1;" d="M 232.109375 21.976562 L 234.125 21.976562 L 234.125 15.023438 L 231.933594 15.464844 L 231.933594 14.339844 L 234.113281 13.902344 L 235.34375 13.902344 L 235.34375 21.976562 L 237.359375 21.976562 L 237.359375 23.015625 L 232.109375 23.015625 Z M 232.109375 21.976562 "/>
<path style=" stroke:none;fill-rule:nonzero;fill:rgb(0%,0%,0%);fill-opacity:1;" d="M 239.847656 21.464844 L 241.136719 21.464844 L 241.136719 23.015625 L 239.847656 23.015625 Z M 239.847656 21.464844 "/>
<path style=" stroke:none;fill-rule:nonzero;fill:rgb(0%,0%,0%);fill-opacity:1;" d="M 246.457031 14.714844 C 245.824219 14.714844 245.347656 15.027344 245.027344 15.652344 C 244.707031 16.273438 244.546875 17.214844 244.546875 18.46875 C 244.546875 19.714844 244.707031 20.652344 245.027344 21.277344 C 245.347656 21.902344 245.824219 22.214844 246.457031 22.214844 C 247.097656 22.214844 247.578125 21.902344 247.894531 21.277344 C 248.214844 20.652344 248.375 19.714844 248.375 18.46875 C 248.375 17.214844 248.214844 16.273438 247.894531 15.652344 C 247.578125 15.027344 247.097656 14.714844 246.457031 14.714844 Z M 246.457031 13.738281 C 247.480469 13.738281 248.261719 14.140625 248.800781 14.949219 C 249.339844 15.757812 249.609375 16.929688 249.609375 18.46875 C 249.609375 20 249.339844 21.171875 248.800781 21.980469 C 248.261719 22.789062 247.480469 23.191406 246.457031 23.191406 C 245.4375 23.191406 244.65625 22.789062 244.117188 21.980469 C 243.578125 21.171875 243.308594 20 243.308594 18.46875 C 243.308594 16.929688 243.578125 15.757812 244.117188 14.949219 C 244.65625 14.140625 245.4375 13.738281 246.457031 13.738281 Z M 246.457031 13.738281 "/>
<path style="fill:none;stroke-width:1.5;stroke-linecap:square;stroke-linejoin:round;stroke:rgb(12.156863%,46.666667%,70.588235%);stroke-opacity:1;stroke-miterlimit:4;" d="M 214.065625 14.6125 L 214.7375 14.759375 L 215.409375 15.196875 L 216.084375 15.925 L 216.75625 16.940625 L 217.765625 18.99375 L 218.775 21.66875 L 219.784375 24.934375 L 221.13125 30.16875 L 222.478125 36.325 L 224.159375 45.16875 L 226.178125 57.178125 L 228.871875 74.85 L 235.9375 122.39375 L 237.959375 134.171875 L 239.640625 142.775 L 240.9875 148.709375 L 242.334375 153.696875 L 243.34375 156.771875 L 244.353125 159.240625 L 245.3625 161.08125 L 246.034375 161.953125 L 246.709375 162.5375 L 247.38125 162.83125 L 248.053125 162.83125 L 248.728125 162.5375 L 249.4 161.953125 L 250.075 161.08125 L 250.746875 159.925 L 251.75625 157.6625 L 252.765625 154.7875 L 253.775 151.328125 L 255.121875 145.85625 L 256.46875 139.484375 L 258.15 130.40625 L 260.16875 118.178125 L 262.8625 100.3375 L 269.25625 57.178125 L 271.275 45.16875 L 272.959375 36.325 L 274.303125 30.16875 L 275.65 24.934375 L 276.996875 20.709375 L 278.00625 18.240625 L 279.015625 16.396875 L 279.6875 15.525 L 280.3625 14.940625 L 281.034375 14.65 L 281.709375 14.65 L 282.38125 14.940625 L 283.053125 15.525 L 283.728125 16.396875 L 284.4 17.55625 L 285.409375 19.81875 L 286.41875 22.690625 L 287.428125 26.153125 L 288.775 31.625 L 290.121875 37.996875 L 291.803125 47.075 L 293.821875 59.3 L 296.515625 77.14375 L 302.909375 120.303125 L 304.928125 132.309375 L 306.6125 141.15625 L 307.95625 147.3125 L 309.303125 152.54375 L 310.65 156.771875 L 311.659375 159.240625 L 312.66875 161.08125 L 313.34375 161.953125 L 314.015625 162.5375 L 314.6875 162.83125 L 315.3625 162.83125 L 316.034375 162.5375 L 316.70625 161.953125 L 317.38125 161.08125 L 318.053125 159.925 L 319.0625 157.6625 L 320.071875 154.7875 L 321.08125 151.328125 L 322.428125 145.85625 L 323.775 139.484375 L 325.45625 130.40625 L 327.478125 118.178125 L 330.16875 100.3375 L 336.5625 57.178125 L 338.58125 45.16875 L 340.265625 36.325 L 341.6125 30.16875 L 342.95625 24.934375 L 344.303125 20.709375 L 345.3125 18.240625 L 346.321875 16.396875 L 346.996875 15.525 L 347.66875 14.940625 L 348.340625 14.65 " transform="matrix(1.25,0,0,1.25,0,0.000000000000014211)"/>
<path style="fill:none;stroke-width:1.5;stroke-linecap:butt;stroke-linejoin:round;stroke:rgb(74.901961%,0%,74.901961%);stroke-opacity:1;stroke-dasharray:5.55,2.4;stroke-miterlimit:4;" d="M 230.890625 88.740625 L 315.025 162.86875 " transform="matrix(1.25,0,0,1.25,0,0.000000000000014211)"/>
<path style="fill:none;stroke-width:0.8;stroke-linecap:square;stroke-linejoin:miter;stroke:rgb(0%,0%,0%);stroke-opacity:1;stroke-miterlimit:4;" d="M 207.35 170.28125 L 207.35 7.2 " transform="matrix(1.25,0,0,1.25,0,0.000000000000014211)"/>
<path style="fill:none;stroke-width:0.8;stroke-linecap:square;stroke-linejoin:miter;stroke:rgb(0%,0%,0%);stroke-opacity:1;stroke-miterlimit:4;" d="M 355.05625 170.28125 L 355.05625 7.2 " transform="matrix(1.25,0,0,1.25,0,0.000000000000014211)"/>
<path style="fill:none;stroke-width:0.8;stroke-linecap:square;stroke-linejoin:miter;stroke:rgb(0%,0%,0%);stroke-opacity:1;stroke-miterlimit:4;" d="M 207.35 170.28125 L 355.05625 170.28125 " transform="matrix(1.25,0,0,1.25,0,0.000000000000014211)"/>
<path style="fill:none;stroke-width:0.8;stroke-linecap:square;stroke-linejoin:miter;stroke:rgb(0%,0%,0%);stroke-opacity:1;stroke-miterlimit:4;" d="M 207.35 7.2 L 355.05625 7.2 " transform="matrix(1.25,0,0,1.25,0,0.000000000000014211)"/>
<path style=" stroke:none;fill-rule:nonzero;fill:rgb(100%,100%,100%);fill-opacity:1;" d="M 480.746094 212.851562 L 665.378906 212.851562 L 665.378906 9 L 480.746094 9 Z M 480.746094 212.851562 "/>
<g clip-path="url(#clip17)" clip-rule="nonzero">
<path style="fill:none;stroke-width:0.8;stroke-linecap:square;stroke-linejoin:round;stroke:rgb(69.019608%,69.019608%,69.019608%);stroke-opacity:1;stroke-miterlimit:4;" d="M 391.3125 170.28125 L 391.3125 7.2 " transform="matrix(1.25,0,0,1.25,0,0.000000000000014211)"/>
</g>
<path style="fill:none;stroke-width:0.8;stroke-linecap:butt;stroke-linejoin:round;stroke:rgb(0%,0%,0%);stroke-opacity:1;stroke-miterlimit:4;" d="M 0.001354 0.00125 L 0.001354 3.50125 " transform="matrix(1.25,0,0,1.25,489.138933,212.85)"/>
<path style=" stroke:none;fill-rule:nonzero;fill:rgb(0%,0%,0%);fill-opacity:1;" d="M 481.25 226.660156 L 489.074219 226.660156 L 489.074219 227.699219 L 481.25 227.699219 Z M 481.25 226.660156 "/>
<path style=" stroke:none;fill-rule:nonzero;fill:rgb(0%,0%,0%);fill-opacity:1;" d="M 492.796875 230.0625 L 497.101562 230.0625 L 497.101562 231.097656 L 491.316406 231.097656 L 491.316406 230.0625 C 491.78125 229.578125 492.417969 228.925781 493.226562 228.113281 C 494.035156 227.296875 494.542969 226.769531 494.75 226.53125 C 495.144531 226.089844 495.421875 225.714844 495.578125 225.40625 C 495.734375 225.097656 495.8125 224.796875 495.8125 224.5 C 495.8125 224.015625 495.644531 223.621094 495.304688 223.316406 C 494.964844 223.011719 494.519531 222.859375 493.976562 222.859375 C 493.589844 222.859375 493.179688 222.925781 492.75 223.058594 C 492.320312 223.191406 491.863281 223.398438 491.375 223.671875 L 491.375 222.425781 C 491.871094 222.226562 492.335938 222.074219 492.765625 221.972656 C 493.199219 221.871094 493.59375 221.820312 493.953125 221.820312 C 494.894531 221.820312 495.648438 222.058594 496.210938 222.53125 C 496.769531 223 497.050781 223.632812 497.050781 224.421875 C 497.050781 224.796875 496.980469 225.152344 496.839844 225.488281 C 496.699219 225.820312 496.445312 226.214844 496.074219 226.671875 C 495.972656 226.789062 495.648438 227.132812 495.105469 227.695312 C 494.558594 228.257812 493.789062 229.046875 492.796875 230.0625 Z M 492.796875 230.0625 "/>
<g clip-path="url(#clip18)" clip-rule="nonzero">
<path style="fill:none;stroke-width:0.8;stroke-linecap:square;stroke-linejoin:round;stroke:rgb(69.019608%,69.019608%,69.019608%);stroke-opacity:1;stroke-miterlimit:4;" d="M 458.61875 170.28125 L 458.61875 7.2 " transform="matrix(1.25,0,0,1.25,0,0.000000000000014211)"/>
</g>
<path style="fill:none;stroke-width:0.8;stroke-linecap:butt;stroke-linejoin:round;stroke:rgb(0%,0%,0%);stroke-opacity:1;stroke-miterlimit:4;" d="M 0.000298 0.00125 L 0.000298 3.50125 " transform="matrix(1.25,0,0,1.25,573.273065,212.85)"/>
<path style=" stroke:none;fill-rule:nonzero;fill:rgb(0%,0%,0%);fill-opacity:1;" d="M 573.269531 222.796875 C 572.636719 222.796875 572.15625 223.109375 571.835938 223.734375 C 571.519531 224.359375 571.359375 225.296875 571.359375 226.550781 C 571.359375 227.800781 571.519531 228.738281 571.835938 229.363281 C 572.15625 229.988281 572.636719 230.300781 573.269531 230.300781 C 573.910156 230.300781 574.386719 229.988281 574.707031 229.363281 C 575.027344 228.738281 575.1875 227.800781 575.1875 226.550781 C 575.1875 225.296875 575.027344 224.359375 574.707031 223.734375 C 574.386719 223.109375 573.910156 222.796875 573.269531 222.796875 Z M 573.269531 221.820312 C 574.292969 221.820312 575.070312 222.226562 575.609375 223.035156 C 576.148438 223.839844 576.417969 225.011719 576.417969 226.550781 C 576.417969 228.085938 576.148438 229.257812 575.609375 230.066406 C 575.070312 230.871094 574.292969 231.277344 573.269531 231.277344 C 572.25 231.277344 571.46875 230.871094 570.929688 230.066406 C 570.390625 229.257812 570.121094 228.085938 570.121094 226.550781 C 570.121094 225.011719 570.390625 223.839844 570.929688 223.035156 C 571.46875 222.226562 572.25 221.820312 573.269531 221.820312 Z M 573.269531 221.820312 "/>
<g clip-path="url(#clip19)" clip-rule="nonzero">
<path style="fill:none;stroke-width:0.8;stroke-linecap:square;stroke-linejoin:round;stroke:rgb(69.019608%,69.019608%,69.019608%);stroke-opacity:1;stroke-miterlimit:4;" d="M 525.925 170.28125 L 525.925 7.2 " transform="matrix(1.25,0,0,1.25,0,0.000000000000014211)"/>
</g>
<path style="fill:none;stroke-width:0.8;stroke-linecap:butt;stroke-linejoin:round;stroke:rgb(0%,0%,0%);stroke-opacity:1;stroke-miterlimit:4;" d="M -0.000757 0.00125 L -0.000757 3.50125 " transform="matrix(1.25,0,0,1.25,657.407196,212.85)"/>
<path style=" stroke:none;fill-rule:nonzero;fill:rgb(0%,0%,0%);fill-opacity:1;" d="M 655.828125 230.0625 L 660.132812 230.0625 L 660.132812 231.097656 L 654.347656 231.097656 L 654.347656 230.0625 C 654.8125 229.578125 655.453125 228.925781 656.257812 228.113281 C 657.066406 227.296875 657.574219 226.769531 657.78125 226.53125 C 658.175781 226.089844 658.453125 225.714844 658.609375 225.40625 C 658.765625 225.097656 658.84375 224.796875 658.84375 224.5 C 658.84375 224.015625 658.675781 223.621094 658.335938 223.316406 C 657.996094 223.011719 657.550781 222.859375 657.007812 222.859375 C 656.621094 222.859375 656.210938 222.925781 655.78125 223.058594 C 655.355469 223.191406 654.894531 223.398438 654.40625 223.671875 L 654.40625 222.425781 C 654.902344 222.226562 655.367188 222.074219 655.796875 221.972656 C 656.230469 221.871094 656.625 221.820312 656.984375 221.820312 C 657.925781 221.820312 658.679688 222.058594 659.242188 222.53125 C 659.800781 223 660.082031 223.632812 660.082031 224.421875 C 660.082031 224.796875 660.011719 225.152344 659.871094 225.488281 C 659.734375 225.820312 659.476562 226.214844 659.105469 226.671875 C 659.003906 226.789062 658.679688 227.132812 658.136719 227.695312 C 657.589844 228.257812 656.824219 229.046875 655.828125 230.0625 Z M 655.828125 230.0625 "/>
<g clip-path="url(#clip20)" clip-rule="nonzero">
<path style="fill:none;stroke-width:0.8;stroke-linecap:square;stroke-linejoin:round;stroke:rgb(69.019608%,69.019608%,69.019608%);stroke-opacity:1;stroke-miterlimit:4;" d="M 384.596875 154.484375 L 532.303125 154.484375 " transform="matrix(1.25,0,0,1.25,0,0.000000000000014211)"/>
</g>
<path style="fill:none;stroke-width:0.8;stroke-linecap:butt;stroke-linejoin:round;stroke:rgb(0%,0%,0%);stroke-opacity:1;stroke-miterlimit:4;" d="M -0.000368 -0.000881 L -3.500368 -0.000881 " transform="matrix(1.25,0,0,1.25,480.746554,193.10657)"/>
<path style=" stroke:none;fill-rule:nonzero;fill:rgb(0%,0%,0%);fill-opacity:1;" d="M 456.089844 189.554688 C 455.457031 189.554688 454.980469 189.867188 454.660156 190.492188 C 454.339844 191.117188 454.179688 192.054688 454.179688 193.308594 C 454.179688 194.558594 454.339844 195.496094 454.660156 196.121094 C 454.980469 196.746094 455.457031 197.058594 456.089844 197.058594 C 456.730469 197.058594 457.207031 196.746094 457.527344 196.121094 C 457.847656 195.496094 458.007812 194.558594 458.007812 193.308594 C 458.007812 192.054688 457.847656 191.117188 457.527344 190.492188 C 457.207031 189.867188 456.730469 189.554688 456.089844 189.554688 Z M 456.089844 188.578125 C 457.113281 188.578125 457.894531 188.984375 458.433594 189.792969 C 458.972656 190.597656 459.242188 191.769531 459.242188 193.308594 C 459.242188 194.84375 458.972656 196.015625 458.433594 196.824219 C 457.894531 197.628906 457.113281 198.035156 456.089844 198.035156 C 455.070312 198.035156 454.289062 197.628906 453.75 196.824219 C 453.210938 196.015625 452.941406 194.84375 452.941406 193.308594 C 452.941406 191.769531 453.210938 190.597656 453.75 189.792969 C 454.289062 188.984375 455.070312 188.578125 456.089844 188.578125 Z M 456.089844 188.578125 "/>
<path style=" stroke:none;fill-rule:nonzero;fill:rgb(0%,0%,0%);fill-opacity:1;" d="M 461.40625 196.304688 L 462.695312 196.304688 L 462.695312 197.855469 L 461.40625 197.855469 Z M 461.40625 196.304688 "/>
<path style=" stroke:none;fill-rule:nonzero;fill:rgb(0%,0%,0%);fill-opacity:1;" d="M 465.394531 188.742188 L 470.234375 188.742188 L 470.234375 189.78125 L 466.523438 189.78125 L 466.523438 192.015625 C 466.699219 191.953125 466.878906 191.90625 467.058594 191.878906 C 467.238281 191.847656 467.417969 191.832031 467.597656 191.832031 C 468.613281 191.832031 469.417969 192.109375 470.011719 192.667969 C 470.609375 193.226562 470.90625 193.980469 470.90625 194.933594 C 470.90625 195.914062 470.601562 196.675781 469.988281 197.21875 C 469.378906 197.761719 468.519531 198.035156 467.40625 198.035156 C 467.023438 198.035156 466.632812 198 466.238281 197.9375 C 465.839844 197.871094 465.433594 197.773438 465.007812 197.644531 L 465.007812 196.402344 C 465.375 196.601562 465.753906 196.75 466.144531 196.847656 C 466.535156 196.945312 466.945312 196.996094 467.382812 196.996094 C 468.085938 196.996094 468.644531 196.808594 469.054688 196.441406 C 469.464844 196.070312 469.671875 195.566406 469.671875 194.933594 C 469.671875 194.296875 469.464844 193.796875 469.054688 193.425781 C 468.644531 193.054688 468.085938 192.871094 467.382812 192.871094 C 467.050781 192.871094 466.722656 192.90625 466.394531 192.980469 C 466.070312 193.050781 465.734375 193.164062 465.394531 193.320312 Z M 465.394531 188.742188 "/>
<g clip-path="url(#clip21)" clip-rule="nonzero">
<path style="fill:none;stroke-width:0.8;stroke-linecap:square;stroke-linejoin:round;stroke:rgb(69.019608%,69.019608%,69.019608%);stroke-opacity:1;stroke-miterlimit:4;" d="M 384.596875 122.765625 L 532.303125 122.765625 " transform="matrix(1.25,0,0,1.25,0,0.000000000000014211)"/>
</g>
<path style="fill:none;stroke-width:0.8;stroke-linecap:butt;stroke-linejoin:round;stroke:rgb(0%,0%,0%);stroke-opacity:1;stroke-miterlimit:4;" d="M -0.000368 0.001462 L -3.500368 0.001462 " transform="matrix(1.25,0,0,1.25,480.746554,153.455204)"/>
<path style=" stroke:none;fill-rule:nonzero;fill:rgb(0%,0%,0%);fill-opacity:1;" d="M 453.667969 157.167969 L 455.683594 157.167969 L 455.683594 150.214844 L 453.492188 150.652344 L 453.492188 149.53125 L 455.671875 149.089844 L 456.902344 149.089844 L 456.902344 157.167969 L 458.917969 157.167969 L 458.917969 158.203125 L 453.667969 158.203125 Z M 453.667969 157.167969 "/>
<path style=" stroke:none;fill-rule:nonzero;fill:rgb(0%,0%,0%);fill-opacity:1;" d="M 461.40625 156.652344 L 462.695312 156.652344 L 462.695312 158.203125 L 461.40625 158.203125 Z M 461.40625 156.652344 "/>
<path style=" stroke:none;fill-rule:nonzero;fill:rgb(0%,0%,0%);fill-opacity:1;" d="M 468.015625 149.902344 C 467.382812 149.902344 466.90625 150.214844 466.585938 150.839844 C 466.265625 151.464844 466.105469 152.402344 466.105469 153.65625 C 466.105469 154.90625 466.265625 155.84375 466.585938 156.46875 C 466.90625 157.09375 467.382812 157.40625 468.015625 157.40625 C 468.65625 157.40625 469.136719 157.09375 469.453125 156.46875 C 469.773438 155.84375 469.933594 154.90625 469.933594 153.65625 C 469.933594 152.402344 469.773438 151.464844 469.453125 150.839844 C 469.136719 150.214844 468.65625 149.902344 468.015625 149.902344 Z M 468.015625 148.925781 C 469.039062 148.925781 469.820312 149.332031 470.359375 150.140625 C 470.898438 150.945312 471.167969 152.121094 471.167969 153.65625 C 471.167969 155.191406 470.898438 156.363281 470.359375 157.171875 C 469.820312 157.976562 469.039062 158.382812 468.015625 158.382812 C 466.996094 158.382812 466.214844 157.976562 465.675781 157.171875 C 465.136719 156.363281 464.867188 155.191406 464.867188 153.65625 C 464.867188 152.121094 465.136719 150.945312 465.675781 150.140625 C 466.214844 149.332031 466.996094 148.925781 468.015625 148.925781 Z M 468.015625 148.925781 "/>
<g clip-path="url(#clip22)" clip-rule="nonzero">
<path style="fill:none;stroke-width:0.8;stroke-linecap:square;stroke-linejoin:round;stroke:rgb(69.019608%,69.019608%,69.019608%);stroke-opacity:1;stroke-miterlimit:4;" d="M 384.596875 91.04375 L 532.303125 91.04375 " transform="matrix(1.25,0,0,1.25,0,0.000000000000014211)"/>
</g>
<path style="fill:none;stroke-width:0.8;stroke-linecap:butt;stroke-linejoin:round;stroke:rgb(0%,0%,0%);stroke-opacity:1;stroke-miterlimit:4;" d="M -0.000368 0.000679 L -3.500368 0.000679 " transform="matrix(1.25,0,0,1.25,480.746554,113.803839)"/>
<path style=" stroke:none;fill-rule:nonzero;fill:rgb(0%,0%,0%);fill-opacity:1;" d="M 453.667969 117.515625 L 455.683594 117.515625 L 455.683594 110.5625 L 453.492188 111.003906 L 453.492188 109.878906 L 455.671875 109.441406 L 456.902344 109.441406 L 456.902344 117.515625 L 458.917969 117.515625 L 458.917969 118.554688 L 453.667969 118.554688 Z M 453.667969 117.515625 "/>
<path style=" stroke:none;fill-rule:nonzero;fill:rgb(0%,0%,0%);fill-opacity:1;" d="M 461.40625 117.003906 L 462.695312 117.003906 L 462.695312 118.554688 L 461.40625 118.554688 Z M 461.40625 117.003906 "/>
<path style=" stroke:none;fill-rule:nonzero;fill:rgb(0%,0%,0%);fill-opacity:1;" d="M 465.394531 109.441406 L 470.234375 109.441406 L 470.234375 110.480469 L 466.523438 110.480469 L 466.523438 112.710938 C 466.699219 112.648438 466.878906 112.605469 467.058594 112.574219 C 467.238281 112.542969 467.417969 112.53125 467.597656 112.53125 C 468.613281 112.53125 469.417969 112.808594 470.011719 113.367188 C 470.609375 113.921875 470.90625 114.675781 470.90625 115.628906 C 470.90625 116.609375 470.601562 117.371094 469.988281 117.917969 C 469.378906 118.460938 468.519531 118.730469 467.40625 118.730469 C 467.023438 118.730469 466.632812 118.699219 466.238281 118.632812 C 465.839844 118.566406 465.433594 118.46875 465.007812 118.339844 L 465.007812 117.101562 C 465.375 117.300781 465.753906 117.449219 466.144531 117.546875 C 466.535156 117.644531 466.945312 117.691406 467.382812 117.691406 C 468.085938 117.691406 468.644531 117.507812 469.054688 117.136719 C 469.464844 116.765625 469.671875 116.265625 469.671875 115.628906 C 469.671875 114.996094 469.464844 114.492188 469.054688 114.125 C 468.644531 113.753906 468.085938 113.566406 467.382812 113.566406 C 467.050781 113.566406 466.722656 113.601562 466.394531 113.675781 C 466.070312 113.75 465.734375 113.863281 465.394531 114.019531 Z M 465.394531 109.441406 "/>
<g clip-path="url(#clip23)" clip-rule="nonzero">
<path style="fill:none;stroke-width:0.8;stroke-linecap:square;stroke-linejoin:round;stroke:rgb(69.019608%,69.019608%,69.019608%);stroke-opacity:1;stroke-miterlimit:4;" d="M 384.596875 59.321875 L 532.303125 59.321875 " transform="matrix(1.25,0,0,1.25,0,0.000000000000014211)"/>
</g>
<path style="fill:none;stroke-width:0.8;stroke-linecap:butt;stroke-linejoin:round;stroke:rgb(0%,0%,0%);stroke-opacity:1;stroke-miterlimit:4;" d="M -0.000368 -0.000103 L -3.500368 -0.000103 " transform="matrix(1.25,0,0,1.25,480.746554,74.152473)"/>
<path style=" stroke:none;fill-rule:nonzero;fill:rgb(0%,0%,0%);fill-opacity:1;" d="M 454.515625 77.863281 L 458.820312 77.863281 L 458.820312 78.902344 L 453.035156 78.902344 L 453.035156 77.863281 C 453.5 77.378906 454.136719 76.730469 454.945312 75.914062 C 455.753906 75.097656 456.261719 74.570312 456.46875 74.335938 C 456.863281 73.890625 457.140625 73.515625 457.296875 73.210938 C 457.453125 72.902344 457.53125 72.601562 457.53125 72.304688 C 457.53125 71.820312 457.363281 71.425781 457.023438 71.121094 C 456.683594 70.8125 456.238281 70.660156 455.695312 70.660156 C 455.308594 70.660156 454.898438 70.726562 454.46875 70.863281 C 454.039062 70.996094 453.582031 71.199219 453.09375 71.472656 L 453.09375 70.226562 C 453.589844 70.027344 454.054688 69.878906 454.484375 69.777344 C 454.917969 69.675781 455.3125 69.625 455.671875 69.625 C 456.613281 69.625 457.367188 69.859375 457.929688 70.332031 C 458.488281 70.804688 458.769531 71.433594 458.769531 72.222656 C 458.769531 72.597656 458.699219 72.953125 458.558594 73.289062 C 458.417969 73.625 458.164062 74.019531 457.792969 74.476562 C 457.691406 74.59375 457.367188 74.933594 456.824219 75.5 C 456.277344 76.0625 455.507812 76.851562 454.515625 77.863281 Z M 454.515625 77.863281 "/>
<path style=" stroke:none;fill-rule:nonzero;fill:rgb(0%,0%,0%);fill-opacity:1;" d="M 461.40625 77.351562 L 462.695312 77.351562 L 462.695312 78.902344 L 461.40625 78.902344 Z M 461.40625 77.351562 "/>
<path style=" stroke:none;fill-rule:nonzero;fill:rgb(0%,0%,0%);fill-opacity:1;" d="M 468.015625 70.601562 C 467.382812 70.601562 466.90625 70.914062 466.585938 71.539062 C 466.265625 72.160156 466.105469 73.101562 466.105469 74.355469 C 466.105469 75.601562 466.265625 76.539062 466.585938 77.164062 C 466.90625 77.789062 467.382812 78.101562 468.015625 78.101562 C 468.65625 78.101562 469.136719 77.789062 469.453125 77.164062 C 469.773438 76.539062 469.933594 75.601562 469.933594 74.355469 C 469.933594 73.101562 469.773438 72.160156 469.453125 71.539062 C 469.136719 70.914062 468.65625 70.601562 468.015625 70.601562 Z M 468.015625 69.625 C 469.039062 69.625 469.820312 70.027344 470.359375 70.835938 C 470.898438 71.644531 471.167969 72.816406 471.167969 74.355469 C 471.167969 75.886719 470.898438 77.058594 470.359375 77.867188 C 469.820312 78.675781 469.039062 79.078125 468.015625 79.078125 C 466.996094 79.078125 466.214844 78.675781 465.675781 77.867188 C 465.136719 77.058594 464.867188 75.886719 464.867188 74.355469 C 464.867188 72.816406 465.136719 71.644531 465.675781 70.835938 C 466.214844 70.027344 466.996094 69.625 468.015625 69.625 Z M 468.015625 69.625 "/>
<g clip-path="url(#clip24)" clip-rule="nonzero">
<path style="fill:none;stroke-width:0.8;stroke-linecap:square;stroke-linejoin:round;stroke:rgb(69.019608%,69.019608%,69.019608%);stroke-opacity:1;stroke-miterlimit:4;" d="M 384.596875 27.6 L 532.303125 27.6 " transform="matrix(1.25,0,0,1.25,0,0.000000000000014211)"/>
</g>
<path style="fill:none;stroke-width:0.8;stroke-linecap:butt;stroke-linejoin:round;stroke:rgb(0%,0%,0%);stroke-opacity:1;stroke-miterlimit:4;" d="M -0.000368 -0.000885 L -3.500368 -0.000885 " transform="matrix(1.25,0,0,1.25,480.746554,34.501106)"/>
<path style=" stroke:none;fill-rule:nonzero;fill:rgb(0%,0%,0%);fill-opacity:1;" d="M 454.515625 38.214844 L 458.820312 38.214844 L 458.820312 39.25 L 453.035156 39.25 L 453.035156 38.214844 C 453.5 37.730469 454.136719 37.078125 454.945312 36.265625 C 455.753906 35.449219 456.261719 34.921875 456.46875 34.683594 C 456.863281 34.242188 457.140625 33.867188 457.296875 33.558594 C 457.453125 33.25 457.53125 32.949219 457.53125 32.652344 C 457.53125 32.167969 457.363281 31.773438 457.023438 31.46875 C 456.683594 31.164062 456.238281 31.011719 455.695312 31.011719 C 455.308594 31.011719 454.898438 31.078125 454.46875 31.210938 C 454.039062 31.34375 453.582031 31.550781 453.09375 31.824219 L 453.09375 30.578125 C 453.589844 30.378906 454.054688 30.226562 454.484375 30.125 C 454.917969 30.023438 455.3125 29.972656 455.671875 29.972656 C 456.613281 29.972656 457.367188 30.210938 457.929688 30.683594 C 458.488281 31.152344 458.769531 31.785156 458.769531 32.574219 C 458.769531 32.949219 458.699219 33.304688 458.558594 33.640625 C 458.417969 33.972656 458.164062 34.367188 457.792969 34.824219 C 457.691406 34.941406 457.367188 35.285156 456.824219 35.847656 C 456.277344 36.410156 455.507812 37.199219 454.515625 38.214844 Z M 454.515625 38.214844 "/>
<path style=" stroke:none;fill-rule:nonzero;fill:rgb(0%,0%,0%);fill-opacity:1;" d="M 461.40625 37.699219 L 462.695312 37.699219 L 462.695312 39.25 L 461.40625 39.25 Z M 461.40625 37.699219 "/>
<path style=" stroke:none;fill-rule:nonzero;fill:rgb(0%,0%,0%);fill-opacity:1;" d="M 465.394531 30.136719 L 470.234375 30.136719 L 470.234375 31.175781 L 466.523438 31.175781 L 466.523438 33.410156 C 466.699219 33.347656 466.878906 33.300781 467.058594 33.273438 C 467.238281 33.242188 467.417969 33.226562 467.597656 33.226562 C 468.613281 33.226562 469.417969 33.503906 470.011719 34.0625 C 470.609375 34.621094 470.90625 35.375 470.90625 36.328125 C 470.90625 37.308594 470.601562 38.070312 469.988281 38.613281 C 469.378906 39.15625 468.519531 39.429688 467.40625 39.429688 C 467.023438 39.429688 466.632812 39.394531 466.238281 39.332031 C 465.839844 39.265625 465.433594 39.167969 465.007812 39.039062 L 465.007812 37.796875 C 465.375 37.996094 465.753906 38.144531 466.144531 38.242188 C 466.535156 38.339844 466.945312 38.390625 467.382812 38.390625 C 468.085938 38.390625 468.644531 38.203125 469.054688 37.835938 C 469.464844 37.464844 469.671875 36.960938 469.671875 36.328125 C 469.671875 35.691406 469.464844 35.191406 469.054688 34.820312 C 468.644531 34.449219 468.085938 34.265625 467.382812 34.265625 C 467.050781 34.265625 466.722656 34.300781 466.394531 34.375 C 466.070312 34.445312 465.734375 34.558594 465.394531 34.714844 Z M 465.394531 30.136719 "/>
<path style="fill:none;stroke-width:1.5;stroke-linecap:square;stroke-linejoin:round;stroke:rgb(12.156863%,46.666667%,70.588235%);stroke-opacity:1;stroke-miterlimit:4;" d="M 391.3125 162.86875 L 398.040625 160.4125 L 404.4375 157.840625 L 410.49375 155.171875 L 416.215625 152.41875 L 421.9375 149.41875 L 427.321875 146.35625 L 432.70625 143.0375 L 437.753125 139.675 L 442.8 136.05 L 447.85 132.14375 L 452.559375 128.225 L 457.271875 124.021875 L 461.984375 119.5125 L 466.696875 114.675 L 471.06875 109.871875 L 475.44375 104.74375 L 479.81875 99.275 L 484.19375 93.434375 L 488.56875 87.20625 L 492.94375 80.55625 L 496.984375 74.025 L 501.021875 67.0875 L 505.059375 59.721875 L 509.1 51.9 L 513.1375 43.59375 L 517.175 34.775 L 521.215625 25.4125 L 525.253125 15.46875 L 525.590625 14.6125 " transform="matrix(1.25,0,0,1.25,0,0.000000000000014211)"/>
<path style="fill:none;stroke-width:1.5;stroke-linecap:butt;stroke-linejoin:round;stroke:rgb(74.901961%,0%,74.901961%);stroke-opacity:1;stroke-dasharray:5.55,2.4;stroke-miterlimit:4;" d="M 408.1375 156.2375 L 492.271875 81.609375 " transform="matrix(1.25,0,0,1.25,0,0.000000000000014211)"/>
<path style="fill:none;stroke-width:0.8;stroke-linecap:square;stroke-linejoin:miter;stroke:rgb(0%,0%,0%);stroke-opacity:1;stroke-miterlimit:4;" d="M 384.596875 170.28125 L 384.596875 7.2 " transform="matrix(1.25,0,0,1.25,0,0.000000000000014211)"/>
<path style="fill:none;stroke-width:0.8;stroke-linecap:square;stroke-linejoin:miter;stroke:rgb(0%,0%,0%);stroke-opacity:1;stroke-miterlimit:4;" d="M 532.303125 170.28125 L 532.303125 7.2 " transform="matrix(1.25,0,0,1.25,0,0.000000000000014211)"/>
<path style="fill:none;stroke-width:0.8;stroke-linecap:square;stroke-linejoin:miter;stroke:rgb(0%,0%,0%);stroke-opacity:1;stroke-miterlimit:4;" d="M 384.596875 170.28125 L 532.303125 170.28125 " transform="matrix(1.25,0,0,1.25,0,0.000000000000014211)"/>
<path style="fill:none;stroke-width:0.8;stroke-linecap:square;stroke-linejoin:miter;stroke:rgb(0%,0%,0%);stroke-opacity:1;stroke-miterlimit:4;" d="M 384.596875 7.2 L 532.303125 7.2 " transform="matrix(1.25,0,0,1.25,0,0.000000000000014211)"/>
</g>
</svg>
