<?xml version="1.0" encoding="UTF-8"?>
<svg xmlns="http://www.w3.org/2000/svg" xmlns:xlink="http://www.w3.org/1999/xlink" width="296pt" height="226pt" viewBox="0 0 296 226" version="1.1">
<defs>
<clipPath id="clip1">
  <path d="M 53 9 L 55 9 L 55 178.875 L 53 178.875 Z M 53 9 "/>
</clipPath>
<clipPath id="clip2">
  <path d="M 108 9 L 111 9 L 111 178.875 L 108 178.875 Z M 108 9 "/>
</clipPath>
<clipPath id="clip3">
  <path d="M 164 9 L 166 9 L 166 178.875 L 164 178.875 Z M 164 9 "/>
</clipPath>
<clipPath id="clip4">
  <path d="M 220 9 L 222 9 L 222 178.875 L 220 178.875 Z M 220 9 "/>
</clipPath>
<clipPath id="clip5">
  <path d="M 275 9 L 278 9 L 278 178.875 L 275 178.875 Z M 275 9 "/>
</clipPath>
<clipPath id="clip6">
  <path d="M 42.800781 170 L 286.925781 170 L 286.925781 172 L 42.800781 172 Z M 42.800781 170 "/>
</clipPath>
<clipPath id="clip7">
  <path d="M 42.800781 136 L 286.925781 136 L 286.925781 138 L 42.800781 138 Z M 42.800781 136 "/>
</clipPath>
<clipPath id="clip8">
  <path d="M 42.800781 101 L 286.925781 101 L 286.925781 104 L 42.800781 104 Z M 42.800781 101 "/>
</clipPath>
<clipPath id="clip9">
  <path d="M 42.800781 67 L 286.925781 67 L 286.925781 69 L 42.800781 69 Z M 42.800781 67 "/>
</clipPath>
<clipPath id="clip10">
  <path d="M 42.800781 33 L 286.925781 33 L 286.925781 35 L 42.800781 35 Z M 42.800781 33 "/>
</clipPath>
</defs>
<g id="surface1">
<path style=" stroke:none;fill-rule:nonzero;fill:rgb(100%,100%,100%);fill-opacity:1;" d="M 42.800781 178.875 L 286.925781 178.875 L 286.925781 9 L 42.800781 9 Z M 42.800781 178.875 "/>
<g clip-path="url(#clip1)" clip-rule="nonzero">
<path style="fill:none;stroke-width:0.8;stroke-linecap:square;stroke-linejoin:round;stroke:rgb(69.019608%,69.019608%,69.019608%);stroke-opacity:1;stroke-miterlimit:4;" d="M 43.11875 143.1 L 43.11875 7.2 " transform="matrix(1.25,0,0,1.25,0,0)"/>
</g>
<path style="fill:none;stroke-width:0.8;stroke-linecap:butt;stroke-linejoin:round;stroke:rgb(0%,0%,0%);stroke-opacity:1;stroke-miterlimit:4;" d="M 0.000852 0 L 0.000852 3.5 " transform="matrix(1.25,0,0,1.25,53.897372,178.875)"/>
<path style=" stroke:none;fill-rule:nonzero;fill:rgb(0%,0%,0%);fill-opacity:1;" d="M 46.007812 192.6875 L 53.832031 192.6875 L 53.832031 193.722656 L 46.007812 193.722656 Z M 46.007812 192.6875 "/>
<path style=" stroke:none;fill-rule:nonzero;fill:rgb(0%,0%,0%);fill-opacity:1;" d="M 57.554688 196.085938 L 61.859375 196.085938 L 61.859375 197.125 L 56.074219 197.125 L 56.074219 196.085938 C 56.539062 195.601562 57.179688 194.953125 57.984375 194.136719 C 58.792969 193.320312 59.300781 192.792969 59.507812 192.558594 C 59.902344 192.113281 60.179688 191.738281 60.335938 191.433594 C 60.492188 191.125 60.570312 190.824219 60.570312 190.527344 C 60.570312 190.042969 60.402344 189.648438 60.0625 189.34375 C 59.722656 189.035156 59.277344 188.882812 58.734375 188.882812 C 58.347656 188.882812 57.9375 188.949219 57.507812 189.085938 C 57.082031 189.21875 56.621094 189.421875 56.132812 189.695312 L 56.132812 188.449219 C 56.628906 188.25 57.09375 188.101562 57.523438 188 C 57.957031 187.898438 58.351562 187.847656 58.710938 187.847656 C 59.652344 187.847656 60.40625 188.082031 60.96875 188.554688 C 61.527344 189.027344 61.808594 189.65625 61.808594 190.445312 C 61.808594 190.820312 61.738281 191.175781 61.597656 191.511719 C 61.460938 191.847656 61.203125 192.242188 60.832031 192.699219 C 60.730469 192.816406 60.40625 193.15625 59.863281 193.722656 C 59.316406 194.285156 58.550781 195.074219 57.554688 196.085938 Z M 57.554688 196.085938 "/>
<g clip-path="url(#clip2)" clip-rule="nonzero">
<path style="fill:none;stroke-width:0.8;stroke-linecap:square;stroke-linejoin:round;stroke:rgb(69.019608%,69.019608%,69.019608%);stroke-opacity:1;stroke-miterlimit:4;" d="M 87.615625 143.1 L 87.615625 7.2 " transform="matrix(1.25,0,0,1.25,0,0)"/>
</g>
<path style="fill:none;stroke-width:0.8;stroke-linecap:butt;stroke-linejoin:round;stroke:rgb(0%,0%,0%);stroke-opacity:1;stroke-miterlimit:4;" d="M 0.00012 0 L 0.00012 3.5 " transform="matrix(1.25,0,0,1.25,109.519381,178.875)"/>
<path style=" stroke:none;fill-rule:nonzero;fill:rgb(0%,0%,0%);fill-opacity:1;" d="M 101.628906 192.6875 L 109.453125 192.6875 L 109.453125 193.722656 L 101.628906 193.722656 Z M 101.628906 192.6875 "/>
<path style=" stroke:none;fill-rule:nonzero;fill:rgb(0%,0%,0%);fill-opacity:1;" d="M 112.328125 196.085938 L 114.34375 196.085938 L 114.34375 189.132812 L 112.152344 189.574219 L 112.152344 188.449219 L 114.332031 188.011719 L 115.5625 188.011719 L 115.5625 196.085938 L 117.578125 196.085938 L 117.578125 197.125 L 112.328125 197.125 Z M 112.328125 196.085938 "/>
<g clip-path="url(#clip3)" clip-rule="nonzero">
<path style="fill:none;stroke-width:0.8;stroke-linecap:square;stroke-linejoin:round;stroke:rgb(69.019608%,69.019608%,69.019608%);stroke-opacity:1;stroke-miterlimit:4;" d="M 132.1125 143.1 L 132.1125 7.2 " transform="matrix(1.25,0,0,1.25,0,0)"/>
</g>
<path style="fill:none;stroke-width:0.8;stroke-linecap:butt;stroke-linejoin:round;stroke:rgb(0%,0%,0%);stroke-opacity:1;stroke-miterlimit:4;" d="M -0.000613 0 L -0.000613 3.5 " transform="matrix(1.25,0,0,1.25,165.141391,178.875)"/>
<path style=" stroke:none;fill-rule:nonzero;fill:rgb(0%,0%,0%);fill-opacity:1;" d="M 165.136719 188.824219 C 164.503906 188.824219 164.027344 189.136719 163.707031 189.761719 C 163.386719 190.382812 163.226562 191.324219 163.226562 192.578125 C 163.226562 193.824219 163.386719 194.761719 163.707031 195.386719 C 164.027344 196.011719 164.503906 196.324219 165.136719 196.324219 C 165.777344 196.324219 166.257812 196.011719 166.574219 195.386719 C 166.894531 194.761719 167.054688 193.824219 167.054688 192.578125 C 167.054688 191.324219 166.894531 190.382812 166.574219 189.761719 C 166.257812 189.136719 165.777344 188.824219 165.136719 188.824219 Z M 165.136719 187.847656 C 166.160156 187.847656 166.941406 188.25 167.480469 189.058594 C 168.019531 189.867188 168.289062 191.039062 168.289062 192.578125 C 168.289062 194.109375 168.019531 195.28125 167.480469 196.089844 C 166.941406 196.898438 166.160156 197.300781 165.136719 197.300781 C 164.117188 197.300781 163.335938 196.898438 162.796875 196.089844 C 162.257812 195.28125 161.988281 194.109375 161.988281 192.578125 C 161.988281 191.039062 162.257812 189.867188 162.796875 189.058594 C 163.335938 188.25 164.117188 187.847656 165.136719 187.847656 Z M 165.136719 187.847656 "/>
<g clip-path="url(#clip4)" clip-rule="nonzero">
<path style="fill:none;stroke-width:0.8;stroke-linecap:square;stroke-linejoin:round;stroke:rgb(69.019608%,69.019608%,69.019608%);stroke-opacity:1;stroke-miterlimit:4;" d="M 176.609375 143.1 L 176.609375 7.2 " transform="matrix(1.25,0,0,1.25,0,0)"/>
</g>
<path style="fill:none;stroke-width:0.8;stroke-linecap:butt;stroke-linejoin:round;stroke:rgb(0%,0%,0%);stroke-opacity:1;stroke-miterlimit:4;" d="M -0.001345 0 L -0.001345 3.5 " transform="matrix(1.25,0,0,1.25,220.7634,178.875)"/>
<path style=" stroke:none;fill-rule:nonzero;fill:rgb(0%,0%,0%);fill-opacity:1;" d="M 218.335938 196.085938 L 220.351562 196.085938 L 220.351562 189.132812 L 218.160156 189.574219 L 218.160156 188.449219 L 220.339844 188.011719 L 221.570312 188.011719 L 221.570312 196.085938 L 223.585938 196.085938 L 223.585938 197.125 L 218.335938 197.125 Z M 218.335938 196.085938 "/>
<g clip-path="url(#clip5)" clip-rule="nonzero">
<path style="fill:none;stroke-width:0.8;stroke-linecap:square;stroke-linejoin:round;stroke:rgb(69.019608%,69.019608%,69.019608%);stroke-opacity:1;stroke-miterlimit:4;" d="M 221.109375 143.1 L 221.109375 7.2 " transform="matrix(1.25,0,0,1.25,0,0)"/>
</g>
<path style="fill:none;stroke-width:0.8;stroke-linecap:butt;stroke-linejoin:round;stroke:rgb(0%,0%,0%);stroke-opacity:1;stroke-miterlimit:4;" d="M 0.001047 0 L 0.001047 3.5 " transform="matrix(1.25,0,0,1.25,276.38541,178.875)"/>
<path style=" stroke:none;fill-rule:nonzero;fill:rgb(0%,0%,0%);fill-opacity:1;" d="M 274.808594 196.085938 L 279.109375 196.085938 L 279.109375 197.125 L 273.324219 197.125 L 273.324219 196.085938 C 273.792969 195.601562 274.429688 194.953125 275.238281 194.136719 C 276.046875 193.320312 276.554688 192.792969 276.761719 192.558594 C 277.15625 192.113281 277.429688 191.738281 277.585938 191.433594 C 277.742188 191.125 277.824219 190.824219 277.824219 190.527344 C 277.824219 190.042969 277.652344 189.648438 277.3125 189.34375 C 276.972656 189.035156 276.53125 188.882812 275.984375 188.882812 C 275.597656 188.882812 275.191406 188.949219 274.761719 189.085938 C 274.332031 189.21875 273.875 189.421875 273.386719 189.695312 L 273.386719 188.449219 C 273.882812 188.25 274.34375 188.101562 274.777344 188 C 275.207031 187.898438 275.601562 187.847656 275.960938 187.847656 C 276.90625 187.847656 277.65625 188.082031 278.21875 188.554688 C 278.78125 189.027344 279.0625 189.65625 279.0625 190.445312 C 279.0625 190.820312 278.992188 191.175781 278.851562 191.511719 C 278.710938 191.847656 278.457031 192.242188 278.085938 192.699219 C 277.984375 192.816406 277.660156 193.15625 277.113281 193.722656 C 276.570312 194.285156 275.800781 195.074219 274.808594 196.085938 Z M 274.808594 196.085938 "/>
<path style=" stroke:none;fill-rule:nonzero;fill:rgb(0%,0%,0%);fill-opacity:1;" d="M 168.023438 207.386719 L 165.554688 210.710938 L 168.152344 214.222656 L 166.828125 214.222656 L 164.835938 211.535156 L 162.851562 214.222656 L 161.523438 214.222656 L 164.179688 210.644531 L 161.75 207.386719 L 163.074219 207.386719 L 164.886719 209.820312 L 166.699219 207.386719 Z M 168.023438 207.386719 "/>
<g clip-path="url(#clip6)" clip-rule="nonzero">
<path style="fill:none;stroke-width:0.8;stroke-linecap:square;stroke-linejoin:round;stroke:rgb(69.019608%,69.019608%,69.019608%);stroke-opacity:1;stroke-miterlimit:4;" d="M 34.240625 136.921875 L 229.540625 136.921875 " transform="matrix(1.25,0,0,1.25,0,0)"/>
</g>
<path style="fill:none;stroke-width:0.8;stroke-linecap:butt;stroke-linejoin:round;stroke:rgb(0%,0%,0%);stroke-opacity:1;stroke-miterlimit:4;" d="M 0 -0.000852 L -3.5 -0.000852 " transform="matrix(1.25,0,0,1.25,42.800781,171.153409)"/>
<path style=" stroke:none;fill-rule:nonzero;fill:rgb(0%,0%,0%);fill-opacity:1;" d="M 30.070312 167.601562 C 29.4375 167.601562 28.960938 167.914062 28.640625 168.539062 C 28.320312 169.164062 28.160156 170.101562 28.160156 171.355469 C 28.160156 172.605469 28.320312 173.542969 28.640625 174.167969 C 28.960938 174.792969 29.4375 175.105469 30.070312 175.105469 C 30.710938 175.105469 31.1875 174.792969 31.507812 174.167969 C 31.828125 173.542969 31.988281 172.605469 31.988281 171.355469 C 31.988281 170.101562 31.828125 169.164062 31.507812 168.539062 C 31.1875 167.914062 30.710938 167.601562 30.070312 167.601562 Z M 30.070312 166.625 C 31.09375 166.625 31.875 167.03125 32.414062 167.839844 C 32.953125 168.644531 33.21875 169.816406 33.21875 171.355469 C 33.21875 172.890625 32.953125 174.0625 32.414062 174.871094 C 31.875 175.675781 31.09375 176.082031 30.070312 176.082031 C 29.050781 176.082031 28.269531 175.675781 27.730469 174.871094 C 27.191406 174.0625 26.921875 172.890625 26.921875 171.355469 C 26.921875 169.816406 27.191406 168.644531 27.730469 167.839844 C 28.269531 167.03125 29.050781 166.625 30.070312 166.625 Z M 30.070312 166.625 "/>
<g clip-path="url(#clip7)" clip-rule="nonzero">
<path style="fill:none;stroke-width:0.8;stroke-linecap:square;stroke-linejoin:round;stroke:rgb(69.019608%,69.019608%,69.019608%);stroke-opacity:1;stroke-miterlimit:4;" d="M 34.240625 109.46875 L 229.540625 109.46875 " transform="matrix(1.25,0,0,1.25,0,0)"/>
</g>
<path style="fill:none;stroke-width:0.8;stroke-linecap:butt;stroke-linejoin:round;stroke:rgb(0%,0%,0%);stroke-opacity:1;stroke-miterlimit:4;" d="M 0 0.000568 L -3.5 0.000568 " transform="matrix(1.25,0,0,1.25,42.800781,136.835228)"/>
<path style=" stroke:none;fill-rule:nonzero;fill:rgb(0%,0%,0%);fill-opacity:1;" d="M 28.496094 140.546875 L 32.796875 140.546875 L 32.796875 141.585938 L 27.015625 141.585938 L 27.015625 140.546875 C 27.480469 140.0625 28.117188 139.414062 28.925781 138.597656 C 29.734375 137.78125 30.242188 137.253906 30.449219 137.019531 C 30.84375 136.574219 31.117188 136.199219 31.273438 135.894531 C 31.433594 135.585938 31.511719 135.285156 31.511719 134.988281 C 31.511719 134.503906 31.34375 134.109375 31 133.804688 C 30.664062 133.496094 30.21875 133.34375 29.671875 133.34375 C 29.289062 133.34375 28.878906 133.410156 28.449219 133.546875 C 28.019531 133.679688 27.5625 133.882812 27.074219 134.15625 L 27.074219 132.910156 C 27.570312 132.710938 28.035156 132.5625 28.464844 132.460938 C 28.898438 132.359375 29.292969 132.308594 29.648438 132.308594 C 30.59375 132.308594 31.347656 132.542969 31.90625 133.015625 C 32.46875 133.488281 32.75 134.117188 32.75 134.90625 C 32.75 135.28125 32.679688 135.636719 32.539062 135.972656 C 32.398438 136.308594 32.144531 136.703125 31.773438 137.160156 C 31.671875 137.277344 31.347656 137.617188 30.804688 138.183594 C 30.257812 138.746094 29.488281 139.535156 28.496094 140.546875 Z M 28.496094 140.546875 "/>
<g clip-path="url(#clip8)" clip-rule="nonzero">
<path style="fill:none;stroke-width:0.8;stroke-linecap:square;stroke-linejoin:round;stroke:rgb(69.019608%,69.019608%,69.019608%);stroke-opacity:1;stroke-miterlimit:4;" d="M 34.240625 82.0125 L 229.540625 82.0125 " transform="matrix(1.25,0,0,1.25,0,0)"/>
</g>
<path style="fill:none;stroke-width:0.8;stroke-linecap:butt;stroke-linejoin:round;stroke:rgb(0%,0%,0%);stroke-opacity:1;stroke-miterlimit:4;" d="M 0 -0.001136 L -3.5 -0.001136 " transform="matrix(1.25,0,0,1.25,42.800781,102.517045)"/>
<path style=" stroke:none;fill-rule:nonzero;fill:rgb(0%,0%,0%);fill-opacity:1;" d="M 30.820312 99.226562 L 27.710938 104.09375 L 30.820312 104.09375 Z M 30.5 98.152344 L 32.046875 98.152344 L 32.046875 104.09375 L 33.351562 104.09375 L 33.351562 105.117188 L 32.046875 105.117188 L 32.046875 107.265625 L 30.820312 107.265625 L 30.820312 105.117188 L 26.710938 105.117188 L 26.710938 103.929688 Z M 30.5 98.152344 "/>
<g clip-path="url(#clip9)" clip-rule="nonzero">
<path style="fill:none;stroke-width:0.8;stroke-linecap:square;stroke-linejoin:round;stroke:rgb(69.019608%,69.019608%,69.019608%);stroke-opacity:1;stroke-miterlimit:4;" d="M 34.240625 54.559375 L 229.540625 54.559375 " transform="matrix(1.25,0,0,1.25,0,0)"/>
</g>
<path style="fill:none;stroke-width:0.8;stroke-linecap:butt;stroke-linejoin:round;stroke:rgb(0%,0%,0%);stroke-opacity:1;stroke-miterlimit:4;" d="M 0 0.000284 L -3.5 0.000284 " transform="matrix(1.25,0,0,1.25,42.800781,68.198864)"/>
<path style=" stroke:none;fill-rule:nonzero;fill:rgb(0%,0%,0%);fill-opacity:1;" d="M 30.226562 67.902344 C 29.671875 67.902344 29.234375 68.089844 28.90625 68.46875 C 28.585938 68.847656 28.421875 69.363281 28.421875 70.023438 C 28.421875 70.679688 28.585938 71.195312 28.90625 71.578125 C 29.234375 71.957031 29.671875 72.148438 30.226562 72.148438 C 30.777344 72.148438 31.214844 71.957031 31.539062 71.578125 C 31.863281 71.195312 32.023438 70.679688 32.023438 70.023438 C 32.023438 69.363281 31.863281 68.847656 31.539062 68.46875 C 31.214844 68.089844 30.777344 67.902344 30.226562 67.902344 Z M 32.671875 64.035156 L 32.671875 65.160156 C 32.363281 65.011719 32.050781 64.902344 31.734375 64.824219 C 31.417969 64.746094 31.105469 64.707031 30.796875 64.707031 C 29.984375 64.707031 29.359375 64.980469 28.929688 65.53125 C 28.503906 66.082031 28.257812 66.910156 28.195312 68.023438 C 28.4375 67.667969 28.738281 67.394531 29.101562 67.207031 C 29.460938 67.019531 29.863281 66.925781 30.296875 66.925781 C 31.210938 66.925781 31.9375 67.203125 32.46875 67.757812 C 33 68.3125 33.265625 69.066406 33.265625 70.023438 C 33.265625 70.960938 32.988281 71.710938 32.433594 72.277344 C 31.878906 72.84375 31.144531 73.125 30.226562 73.125 C 29.171875 73.125 28.363281 72.722656 27.804688 71.914062 C 27.25 71.105469 26.96875 69.933594 26.96875 68.402344 C 26.96875 66.960938 27.3125 65.8125 27.996094 64.957031 C 28.679688 64.097656 29.597656 63.671875 30.75 63.671875 C 31.058594 63.671875 31.371094 63.699219 31.6875 63.761719 C 32 63.824219 32.328125 63.914062 32.671875 64.035156 Z M 32.671875 64.035156 "/>
<g clip-path="url(#clip10)" clip-rule="nonzero">
<path style="fill:none;stroke-width:0.8;stroke-linecap:square;stroke-linejoin:round;stroke:rgb(69.019608%,69.019608%,69.019608%);stroke-opacity:1;stroke-miterlimit:4;" d="M 34.240625 27.103125 L 229.540625 27.103125 " transform="matrix(1.25,0,0,1.25,0,0)"/>
</g>
<path style="fill:none;stroke-width:0.8;stroke-linecap:butt;stroke-linejoin:round;stroke:rgb(0%,0%,0%);stroke-opacity:1;stroke-miterlimit:4;" d="M 0 -0.00142 L -3.5 -0.00142 " transform="matrix(1.25,0,0,1.25,42.800781,33.880681)"/>
<path style=" stroke:none;fill-rule:nonzero;fill:rgb(0%,0%,0%);fill-opacity:1;" d="M 30.070312 34.300781 C 29.484375 34.300781 29.023438 34.457031 28.6875 34.773438 C 28.351562 35.085938 28.1875 35.515625 28.1875 36.066406 C 28.1875 36.613281 28.351562 37.046875 28.6875 37.359375 C 29.023438 37.675781 29.484375 37.832031 30.070312 37.832031 C 30.65625 37.832031 31.117188 37.671875 31.453125 37.359375 C 31.792969 37.042969 31.960938 36.609375 31.960938 36.066406 C 31.960938 35.515625 31.796875 35.085938 31.460938 34.773438 C 31.125 34.457031 30.660156 34.300781 30.070312 34.300781 Z M 28.835938 33.777344 C 28.308594 33.648438 27.898438 33.402344 27.601562 33.039062 C 27.308594 32.675781 27.160156 32.234375 27.160156 31.714844 C 27.160156 30.984375 27.417969 30.410156 27.9375 29.988281 C 28.457031 29.5625 29.167969 29.351562 30.070312 29.351562 C 30.976562 29.351562 31.691406 29.5625 32.207031 29.988281 C 32.722656 30.410156 32.984375 30.984375 32.984375 31.714844 C 32.984375 32.234375 32.835938 32.675781 32.539062 33.039062 C 32.246094 33.402344 31.835938 33.648438 31.3125 33.777344 C 31.90625 33.917969 32.367188 34.1875 32.695312 34.589844 C 33.03125 34.992188 33.195312 35.484375 33.195312 36.066406 C 33.195312 36.949219 32.925781 37.628906 32.386719 38.101562 C 31.847656 38.570312 31.074219 38.808594 30.070312 38.808594 C 29.066406 38.808594 28.292969 38.570312 27.753906 38.101562 C 27.214844 37.628906 26.945312 36.949219 26.945312 36.066406 C 26.945312 35.484375 27.113281 34.992188 27.445312 34.589844 C 27.78125 34.1875 28.242188 33.917969 28.835938 33.777344 Z M 28.386719 31.832031 C 28.386719 32.300781 28.535156 32.671875 28.828125 32.933594 C 29.125 33.199219 29.539062 33.332031 30.070312 33.332031 C 30.601562 33.332031 31.015625 33.199219 31.3125 32.933594 C 31.613281 32.671875 31.761719 32.300781 31.761719 31.832031 C 31.761719 31.359375 31.613281 30.988281 31.3125 30.726562 C 31.015625 30.460938 30.601562 30.328125 30.070312 30.328125 C 29.539062 30.328125 29.125 30.460938 28.828125 30.726562 C 28.535156 30.988281 28.386719 31.359375 28.386719 31.832031 Z M 28.386719 31.832031 "/>
<path style=" stroke:none;fill-rule:nonzero;fill:rgb(0%,0%,0%);fill-opacity:1;" d="M 9 100.074219 L 9.9375 100.074219 L 9.9375 101.148438 C 9.9375 101.550781 10.015625 101.832031 10.179688 101.988281 C 10.34375 102.144531 10.636719 102.222656 11.058594 102.222656 L 11.664062 102.222656 L 11.664062 100.375 L 12.535156 100.375 L 12.535156 102.222656 L 18.5 102.222656 L 18.5 103.351562 L 12.535156 103.351562 L 12.535156 104.425781 L 11.664062 104.425781 L 11.664062 103.351562 L 11.1875 103.351562 C 10.425781 103.351562 9.871094 103.175781 9.523438 102.820312 C 9.175781 102.46875 9 101.90625 9 101.136719 Z M 9 100.074219 "/>
<path style=" stroke:none;fill-rule:nonzero;fill:rgb(0%,0%,0%);fill-opacity:1;" d="M 9.015625 96.4375 C 9.949219 96.984375 10.875 97.386719 11.792969 97.652344 C 12.707031 97.917969 13.632812 98.050781 14.574219 98.050781 C 15.511719 98.050781 16.445312 97.917969 17.367188 97.648438 C 18.289062 97.382812 19.214844 96.980469 20.148438 96.4375 L 20.148438 97.414062 C 19.191406 98.023438 18.25 98.480469 17.328125 98.785156 C 16.402344 99.085938 15.484375 99.238281 14.574219 99.238281 C 13.667969 99.238281 12.753906 99.089844 11.835938 98.789062 C 10.914062 98.484375 9.972656 98.027344 9.015625 97.414062 Z M 9.015625 96.4375 "/>
<path style=" stroke:none;fill-rule:nonzero;fill:rgb(0%,0%,0%);fill-opacity:1;" d="M 11.664062 88.574219 L 14.988281 91.046875 L 18.5 88.449219 L 18.5 89.773438 L 15.8125 91.761719 L 18.5 93.75 L 18.5 95.078125 L 14.921875 92.421875 L 11.664062 94.851562 L 11.664062 93.527344 L 14.097656 91.714844 L 11.664062 89.902344 Z M 11.664062 88.574219 "/>
<path style=" stroke:none;fill-rule:nonzero;fill:rgb(0%,0%,0%);fill-opacity:1;" d="M 9.015625 87.039062 L 9.015625 86.0625 C 9.972656 85.453125 10.914062 84.996094 11.835938 84.691406 C 12.753906 84.386719 13.667969 84.238281 14.574219 84.238281 C 15.484375 84.238281 16.402344 84.386719 17.328125 84.691406 C 18.25 84.996094 19.191406 85.453125 20.148438 86.0625 L 20.148438 87.039062 C 19.214844 86.496094 18.289062 86.09375 17.367188 85.828125 C 16.445312 85.558594 15.511719 85.425781 14.574219 85.425781 C 13.632812 85.425781 12.707031 85.558594 11.792969 85.828125 C 10.875 86.09375 9.949219 86.496094 9.015625 87.039062 Z M 9.015625 87.039062 "/>
<path style="fill:none;stroke-width:1.5;stroke-linecap:square;stroke-linejoin:round;stroke:rgb(12.156863%,46.666667%,70.588235%);stroke-opacity:1;stroke-miterlimit:4;" d="M 43.11875 13.378125 L 48.903125 23.853125 L 54.6875 33.8625 L 60.471875 43.4125 L 65.8125 51.8125 L 71.15 59.81875 L 76.490625 67.428125 L 81.83125 74.64375 L 87.171875 81.4625 L 92.065625 87.36875 L 96.959375 92.940625 L 101.85625 98.178125 L 106.75 103.0875 L 111.64375 107.6625 L 116.09375 111.53125 L 120.54375 115.128125 L 124.99375 118.45 L 129.44375 121.5 L 133.89375 124.271875 L 138.34375 126.76875 L 142.79375 128.99375 L 146.796875 130.759375 L 150.803125 132.30625 L 154.80625 133.628125 L 158.8125 134.725 L 162.815625 135.603125 L 166.821875 136.259375 L 170.825 136.690625 L 174.83125 136.9 L 178.834375 136.8875 L 182.840625 136.653125 L 186.84375 136.196875 L 190.85 135.515625 L 194.85625 134.615625 L 198.859375 133.490625 L 202.865625 132.14375 L 206.86875 130.575 L 210.875 128.784375 L 214.878125 126.76875 L 219.328125 124.271875 L 220.6625 123.46875 " transform="matrix(1.25,0,0,1.25,0,0)"/>
<path style="fill:none;stroke-width:1.5;stroke-linecap:butt;stroke-linejoin:round;stroke:rgb(74.901961%,0%,74.901961%);stroke-opacity:1;stroke-dasharray:5.55,2.4;stroke-miterlimit:4;" d="M 65.365625 51.128125 L 176.609375 136.921875 " transform="matrix(1.25,0,0,1.25,0,0)"/>
<path style="fill:none;stroke-width:0.8;stroke-linecap:square;stroke-linejoin:miter;stroke:rgb(0%,0%,0%);stroke-opacity:1;stroke-miterlimit:4;" d="M 34.240625 143.1 L 34.240625 7.2 " transform="matrix(1.25,0,0,1.25,0,0)"/>
<path style="fill:none;stroke-width:0.8;stroke-linecap:square;stroke-linejoin:miter;stroke:rgb(0%,0%,0%);stroke-opacity:1;stroke-miterlimit:4;" d="M 229.540625 143.1 L 229.540625 7.2 " transform="matrix(1.25,0,0,1.25,0,0)"/>
<path style="fill:none;stroke-width:0.8;stroke-linecap:square;stroke-linejoin:miter;stroke:rgb(0%,0%,0%);stroke-opacity:1;stroke-miterlimit:4;" d="M 34.240625 143.1 L 229.540625 143.1 " transform="matrix(1.25,0,0,1.25,0,0)"/>
<path style="fill:none;stroke-width:0.8;stroke-linecap:square;stroke-linejoin:miter;stroke:rgb(0%,0%,0%);stroke-opacity:1;stroke-miterlimit:4;" d="M 34.240625 7.2 L 229.540625 7.2 " transform="matrix(1.25,0,0,1.25,0,0)"/>
</g>
</svg>
