<?xml version="1.0" encoding="UTF-8"?>
<svg xmlns="http://www.w3.org/2000/svg" xmlns:xlink="http://www.w3.org/1999/xlink" width="306pt" height="226pt" viewBox="0 0 306 226" version="1.1">
<defs>
<clipPath id="clip1">
  <path d="M 154 9 L 297.398438 9 L 297.398438 137 L 154 137 Z M 154 9 "/>
</clipPath>
<clipPath id="clip2">
  <path d="M 109 9 L 297.398438 9 L 297.398438 173 L 109 173 Z M 109 9 "/>
</clipPath>
<clipPath id="clip3">
  <path d="M 75 9 L 171 9 L 171 178.875 L 75 178.875 Z M 75 9 "/>
</clipPath>
<clipPath id="clip4">
  <path d="M 53.273438 87 L 122 87 L 122 178.875 L 53.273438 178.875 Z M 53.273438 87 "/>
</clipPath>
<clipPath id="clip5">
  <path d="M 53.273438 143 L 86 143 L 86 178.875 L 53.273438 178.875 Z M 53.273438 143 "/>
</clipPath>
<clipPath id="clip6">
  <path d="M 53.273438 177 L 56 177 L 56 178.875 L 53.273438 178.875 Z M 53.273438 177 "/>
</clipPath>
</defs>
<g id="surface1">
<path style=" stroke:none;fill-rule:nonzero;fill:rgb(100%,100%,100%);fill-opacity:1;" d="M 53.273438 178.875 L 297.402344 178.875 L 297.402344 9 L 53.273438 9 Z M 53.273438 178.875 "/>
<path style="fill:none;stroke-width:0.8;stroke-linecap:butt;stroke-linejoin:round;stroke:rgb(0%,0%,0%);stroke-opacity:1;stroke-miterlimit:4;" d="M 0.000000000000014211 0 L 0.000000000000014211 3.5 " transform="matrix(1.25,0,0,1.25,110.492187,178.875)"/>
<path style=" stroke:none;fill-rule:nonzero;fill:rgb(0%,0%,0%);fill-opacity:1;" d="M 102.601562 192.6875 L 110.425781 192.6875 L 110.425781 193.722656 L 102.601562 193.722656 Z M 102.601562 192.6875 "/>
<path style=" stroke:none;fill-rule:nonzero;fill:rgb(0%,0%,0%);fill-opacity:1;" d="M 116.476562 189.085938 L 113.363281 193.949219 L 116.476562 193.949219 Z M 116.152344 188.011719 L 117.703125 188.011719 L 117.703125 193.949219 L 119.003906 193.949219 L 119.003906 194.976562 L 117.703125 194.976562 L 117.703125 197.125 L 116.476562 197.125 L 116.476562 194.976562 L 112.363281 194.976562 L 112.363281 193.785156 Z M 116.152344 188.011719 "/>
<path style="fill:none;stroke-width:0.8;stroke-linecap:butt;stroke-linejoin:round;stroke:rgb(0%,0%,0%);stroke-opacity:1;stroke-miterlimit:4;" d="M 0.000000000000028422 0 L 0.000000000000028422 3.5 " transform="matrix(1.25,0,0,1.25,186.78125,178.875)"/>
<path style=" stroke:none;fill-rule:nonzero;fill:rgb(0%,0%,0%);fill-opacity:1;" d="M 178.890625 192.6875 L 186.714844 192.6875 L 186.714844 193.722656 L 178.890625 193.722656 Z M 178.890625 192.6875 "/>
<path style=" stroke:none;fill-rule:nonzero;fill:rgb(0%,0%,0%);fill-opacity:1;" d="M 190.441406 196.085938 L 194.742188 196.085938 L 194.742188 197.125 L 188.957031 197.125 L 188.957031 196.085938 C 189.425781 195.601562 190.0625 194.953125 190.871094 194.136719 C 191.679688 193.320312 192.1875 192.792969 192.394531 192.558594 C 192.789062 192.113281 193.0625 191.738281 193.21875 191.433594 C 193.375 191.125 193.457031 190.824219 193.457031 190.527344 C 193.457031 190.042969 193.285156 189.648438 192.945312 189.34375 C 192.605469 189.035156 192.164062 188.882812 191.617188 188.882812 C 191.230469 188.882812 190.824219 188.949219 190.394531 189.085938 C 189.964844 189.21875 189.507812 189.421875 189.019531 189.695312 L 189.019531 188.449219 C 189.515625 188.25 189.976562 188.101562 190.410156 188 C 190.839844 187.898438 191.234375 187.847656 191.59375 187.847656 C 192.539062 187.847656 193.289062 188.082031 193.851562 188.554688 C 194.414062 189.027344 194.695312 189.65625 194.695312 190.445312 C 194.695312 190.820312 194.625 191.175781 194.484375 191.511719 C 194.34375 191.847656 194.089844 192.242188 193.71875 192.699219 C 193.617188 192.816406 193.292969 193.15625 192.746094 193.722656 C 192.203125 194.285156 191.433594 195.074219 190.441406 196.085938 Z M 190.441406 196.085938 "/>
<path style="fill:none;stroke-width:0.8;stroke-linecap:butt;stroke-linejoin:round;stroke:rgb(0%,0%,0%);stroke-opacity:1;stroke-miterlimit:4;" d="M -0.000001 0 L -0.000001 3.5 " transform="matrix(1.25,0,0,1.25,263.070314,178.875)"/>
<path style=" stroke:none;fill-rule:nonzero;fill:rgb(0%,0%,0%);fill-opacity:1;" d="M 263.066406 188.824219 C 262.433594 188.824219 261.957031 189.136719 261.636719 189.761719 C 261.316406 190.382812 261.15625 191.324219 261.15625 192.578125 C 261.15625 193.824219 261.316406 194.761719 261.636719 195.386719 C 261.957031 196.011719 262.433594 196.324219 263.066406 196.324219 C 263.707031 196.324219 264.183594 196.011719 264.503906 195.386719 C 264.824219 194.761719 264.984375 193.824219 264.984375 192.578125 C 264.984375 191.324219 264.824219 190.382812 264.503906 189.761719 C 264.183594 189.136719 263.707031 188.824219 263.066406 188.824219 Z M 263.066406 187.847656 C 264.089844 187.847656 264.871094 188.25 265.410156 189.058594 C 265.949219 189.867188 266.21875 191.039062 266.21875 192.578125 C 266.21875 194.109375 265.949219 195.28125 265.410156 196.089844 C 264.871094 196.898438 264.089844 197.300781 263.066406 197.300781 C 262.046875 197.300781 261.265625 196.898438 260.726562 196.089844 C 260.1875 195.28125 259.917969 194.109375 259.917969 192.578125 C 259.917969 191.039062 260.1875 189.867188 260.726562 189.058594 C 261.265625 188.25 262.046875 187.847656 263.066406 187.847656 Z M 263.066406 187.847656 "/>
<path style=" stroke:none;fill-rule:nonzero;fill:rgb(0%,0%,0%);fill-opacity:1;" d="M 174.523438 207.386719 L 172.050781 210.710938 L 174.648438 214.222656 L 173.324219 214.222656 L 171.335938 211.535156 L 169.347656 214.222656 L 168.019531 214.222656 L 170.675781 210.644531 L 168.246094 207.386719 L 169.570312 207.386719 L 171.382812 209.820312 L 173.195312 207.386719 Z M 174.523438 207.386719 "/>
<path style=" stroke:none;fill-rule:nonzero;fill:rgb(0%,0%,0%);fill-opacity:1;" d="M 176.609375 213.183594 L 178.625 213.183594 L 178.625 206.230469 L 176.433594 206.671875 L 176.433594 205.546875 L 178.613281 205.109375 L 179.84375 205.109375 L 179.84375 213.183594 L 181.859375 213.183594 L 181.859375 214.222656 L 176.609375 214.222656 Z M 176.609375 213.183594 "/>
<path style="fill:none;stroke-width:0.8;stroke-linecap:butt;stroke-linejoin:round;stroke:rgb(0%,0%,0%);stroke-opacity:1;stroke-miterlimit:4;" d="M -0.001562 0 L -3.501562 0 " transform="matrix(1.25,0,0,1.25,53.27539,178.875)"/>
<path style=" stroke:none;fill-rule:nonzero;fill:rgb(0%,0%,0%);fill-opacity:1;" d="M 27.421875 179.1875 L 35.246094 179.1875 L 35.246094 180.222656 L 27.421875 180.222656 Z M 27.421875 179.1875 "/>
<path style=" stroke:none;fill-rule:nonzero;fill:rgb(0%,0%,0%);fill-opacity:1;" d="M 41.644531 178.710938 C 42.234375 178.835938 42.695312 179.097656 43.023438 179.5 C 43.355469 179.898438 43.523438 180.390625 43.523438 180.976562 C 43.523438 181.875 43.214844 182.570312 42.59375 183.0625 C 41.976562 183.554688 41.097656 183.800781 39.957031 183.800781 C 39.578125 183.800781 39.183594 183.765625 38.777344 183.6875 C 38.375 183.613281 37.957031 183.5 37.523438 183.347656 L 37.523438 182.160156 C 37.867188 182.359375 38.238281 182.507812 38.644531 182.609375 C 39.054688 182.710938 39.480469 182.761719 39.921875 182.761719 C 40.695312 182.761719 41.285156 182.609375 41.6875 182.304688 C 42.09375 182 42.296875 181.558594 42.296875 180.976562 C 42.296875 180.4375 42.109375 180.019531 41.730469 179.714844 C 41.355469 179.414062 40.832031 179.261719 40.160156 179.261719 L 39.097656 179.261719 L 39.097656 178.246094 L 40.210938 178.246094 C 40.816406 178.246094 41.277344 178.125 41.601562 177.882812 C 41.921875 177.640625 42.082031 177.292969 42.082031 176.835938 C 42.082031 176.371094 41.917969 176.011719 41.585938 175.761719 C 41.253906 175.507812 40.78125 175.382812 40.160156 175.382812 C 39.824219 175.382812 39.460938 175.421875 39.074219 175.496094 C 38.6875 175.566406 38.261719 175.679688 37.796875 175.835938 L 37.796875 174.738281 C 38.265625 174.605469 38.707031 174.507812 39.113281 174.445312 C 39.523438 174.378906 39.910156 174.347656 40.269531 174.347656 C 41.207031 174.347656 41.945312 174.558594 42.492188 174.984375 C 43.035156 175.410156 43.308594 175.984375 43.308594 176.707031 C 43.308594 177.214844 43.164062 177.640625 42.875 177.988281 C 42.585938 178.335938 42.175781 178.574219 41.644531 178.710938 Z M 41.644531 178.710938 "/>
<path style="fill:none;stroke-width:0.8;stroke-linecap:butt;stroke-linejoin:round;stroke:rgb(0%,0%,0%);stroke-opacity:1;stroke-miterlimit:4;" d="M -0.001562 -0.000721 L -3.501562 -0.000721 " transform="matrix(1.25,0,0,1.25,53.27539,135.317307)"/>
<path style=" stroke:none;fill-rule:nonzero;fill:rgb(0%,0%,0%);fill-opacity:1;" d="M 27.421875 135.628906 L 35.246094 135.628906 L 35.246094 136.664062 L 27.421875 136.664062 Z M 27.421875 135.628906 "/>
<path style=" stroke:none;fill-rule:nonzero;fill:rgb(0%,0%,0%);fill-opacity:1;" d="M 38.96875 139.027344 L 43.273438 139.027344 L 43.273438 140.066406 L 37.488281 140.066406 L 37.488281 139.027344 C 37.953125 138.542969 38.59375 137.894531 39.398438 137.078125 C 40.207031 136.261719 40.714844 135.738281 40.921875 135.5 C 41.316406 135.058594 41.59375 134.683594 41.75 134.375 C 41.90625 134.066406 41.984375 133.765625 41.984375 133.46875 C 41.984375 132.984375 41.816406 132.589844 41.476562 132.285156 C 41.136719 131.980469 40.691406 131.824219 40.148438 131.824219 C 39.761719 131.824219 39.351562 131.894531 38.921875 132.027344 C 38.496094 132.160156 38.035156 132.363281 37.546875 132.636719 L 37.546875 131.390625 C 38.042969 131.191406 38.507812 131.042969 38.9375 130.941406 C 39.371094 130.839844 39.765625 130.789062 40.125 130.789062 C 41.066406 130.789062 41.820312 131.023438 42.382812 131.496094 C 42.941406 131.96875 43.222656 132.597656 43.222656 133.386719 C 43.222656 133.761719 43.152344 134.117188 43.011719 134.453125 C 42.875 134.789062 42.617188 135.183594 42.246094 135.640625 C 42.144531 135.757812 41.820312 136.101562 41.277344 136.664062 C 40.730469 137.226562 39.964844 138.015625 38.96875 139.027344 Z M 38.96875 139.027344 "/>
<path style="fill:none;stroke-width:0.8;stroke-linecap:butt;stroke-linejoin:round;stroke:rgb(0%,0%,0%);stroke-opacity:1;stroke-miterlimit:4;" d="M -0.001562 -0.001442 L -3.501562 -0.001442 " transform="matrix(1.25,0,0,1.25,53.27539,91.759615)"/>
<path style=" stroke:none;fill-rule:nonzero;fill:rgb(0%,0%,0%);fill-opacity:1;" d="M 27.421875 92.070312 L 35.246094 92.070312 L 35.246094 93.109375 L 27.421875 93.109375 Z M 27.421875 92.070312 "/>
<path style=" stroke:none;fill-rule:nonzero;fill:rgb(0%,0%,0%);fill-opacity:1;" d="M 38.121094 95.472656 L 40.136719 95.472656 L 40.136719 88.519531 L 37.945312 88.957031 L 37.945312 87.835938 L 40.125 87.394531 L 41.355469 87.394531 L 41.355469 95.472656 L 43.371094 95.472656 L 43.371094 96.507812 L 38.121094 96.507812 Z M 38.121094 95.472656 "/>
<path style="fill:none;stroke-width:0.8;stroke-linecap:butt;stroke-linejoin:round;stroke:rgb(0%,0%,0%);stroke-opacity:1;stroke-miterlimit:4;" d="M -0.001562 0.000962 L -3.501562 0.000962 " transform="matrix(1.25,0,0,1.25,53.27539,48.201923)"/>
<path style=" stroke:none;fill-rule:nonzero;fill:rgb(0%,0%,0%);fill-opacity:1;" d="M 40.542969 44.648438 C 39.910156 44.648438 39.433594 44.960938 39.113281 45.585938 C 38.792969 46.210938 38.632812 47.148438 38.632812 48.402344 C 38.632812 49.652344 38.792969 50.589844 39.113281 51.214844 C 39.433594 51.839844 39.910156 52.152344 40.542969 52.152344 C 41.183594 52.152344 41.664062 51.839844 41.980469 51.214844 C 42.300781 50.589844 42.460938 49.652344 42.460938 48.402344 C 42.460938 47.148438 42.300781 46.210938 41.980469 45.585938 C 41.664062 44.960938 41.183594 44.648438 40.542969 44.648438 Z M 40.542969 43.671875 C 41.566406 43.671875 42.347656 44.078125 42.886719 44.886719 C 43.425781 45.695312 43.695312 46.867188 43.695312 48.402344 C 43.695312 49.9375 43.425781 51.109375 42.886719 51.917969 C 42.347656 52.726562 41.566406 53.128906 40.542969 53.128906 C 39.523438 53.128906 38.742188 52.726562 38.203125 51.917969 C 37.664062 51.109375 37.394531 49.9375 37.394531 48.402344 C 37.394531 46.867188 37.664062 45.695312 38.203125 44.886719 C 38.742188 44.078125 39.523438 43.671875 40.542969 43.671875 Z M 40.542969 43.671875 "/>
<path style=" stroke:none;fill-rule:nonzero;fill:rgb(0%,0%,0%);fill-opacity:1;" d="M 11.660156 94.75 L 14.988281 97.226562 L 18.496094 94.625 L 18.496094 95.949219 L 15.8125 97.9375 L 18.496094 99.929688 L 18.496094 101.253906 L 14.921875 98.597656 L 11.660156 101.027344 L 11.660156 99.703125 L 14.097656 97.890625 L 11.660156 96.078125 Z M 11.660156 94.75 "/>
<path style=" stroke:none;fill-rule:nonzero;fill:rgb(0%,0%,0%);fill-opacity:1;" d="M 17.460938 91.816406 L 17.460938 87.515625 L 18.496094 87.515625 L 18.496094 93.300781 L 17.460938 93.300781 C 16.976562 92.832031 16.328125 92.195312 15.511719 91.386719 C 14.695312 90.578125 14.167969 90.070312 13.929688 89.863281 C 13.488281 89.46875 13.113281 89.195312 12.804688 89.039062 C 12.5 88.878906 12.195312 88.800781 11.898438 88.800781 C 11.414062 88.800781 11.019531 88.972656 10.714844 89.3125 C 10.410156 89.652344 10.257812 90.09375 10.257812 90.640625 C 10.257812 91.027344 10.324219 91.433594 10.457031 91.863281 C 10.59375 92.292969 10.796875 92.75 11.070312 93.238281 L 9.824219 93.238281 C 9.625 92.742188 9.472656 92.28125 9.371094 91.847656 C 9.269531 91.417969 9.21875 91.019531 9.21875 90.664062 C 9.21875 89.71875 9.457031 88.964844 9.929688 88.40625 C 10.402344 87.84375 11.03125 87.5625 11.820312 87.5625 C 12.195312 87.5625 12.550781 87.632812 12.886719 87.773438 C 13.222656 87.914062 13.617188 88.167969 14.070312 88.539062 C 14.191406 88.640625 14.53125 88.964844 15.09375 89.511719 C 15.660156 90.054688 16.449219 90.824219 17.460938 91.816406 Z M 17.460938 91.816406 "/>
<path style="fill:none;stroke-width:1.5;stroke-linecap:square;stroke-linejoin:round;stroke:rgb(100%,49.803922%,5.490196%);stroke-opacity:1;stroke-miterlimit:4;" d="M 57.878125 108.253125 L 88.015625 82.971875 L 112.3125 64.15625 L 135.621875 55.775 L 148.375 50.428125 L 159.28125 44.86875 L 164.671875 44.775 L 173.509375 41.996875 L 179.84375 41.471875 L 186.6375 41.103125 L 190.971875 41.9125 L 189.403125 39.75 L 190.721875 38.55 L 188.2375 41.121875 L 198.071875 36.803125 L 200.221875 37.41875 L 205.084375 34.4875 L 210.759375 34.60625 L 209.5625 37.165625 L 208.884375 30.246875 L 207.3125 31.296875 L 207.66875 30.1125 L 208.59375 28.43125 L 208.428125 31.634375 L 212.175 30.11875 L 209.45 33.384375 L 206.521875 38.15625 L 208.24375 40.378125 L 203.23125 39.5125 L 204.1 45.85 L 205.80625 47.4375 L 208.1625 48.384375 L 214.778125 43.796875 L 217.684375 44.3625 L 213.328125 41.115625 L 214.471875 40.80625 L 215.025 38.85 L 212.096875 39.775 L 212.55 36.096875 L 211.778125 38.55625 L 210.534375 43.79375 L 212.221875 46.315625 L 212.128125 43.940625 L 212.9625 41.509375 L 215.0125 37.146875 L 212.41875 34.96875 L 213.628125 39.078125 L 215.171875 41.85625 L 206.965625 43.78125 L 213.60625 39.875 L 212.771875 42.190625 " transform="matrix(1.25,0,0,1.25,0,0.000000000000014211)"/>
<path style="fill-rule:nonzero;fill:rgb(100%,49.803922%,5.490196%);fill-opacity:1;stroke-width:1;stroke-linecap:butt;stroke-linejoin:round;stroke:rgb(100%,49.803922%,5.490196%);stroke-opacity:1;stroke-miterlimit:4;" d="M 0.000000000000014211 2.999279 C 0.796875 2.999279 1.559375 2.683654 2.121875 2.121154 C 2.684375 1.558654 3 0.796154 3 -0.000721 C 3 -0.794471 2.684375 -1.560096 2.121875 -2.122596 C 1.559375 -2.685096 0.796875 -3.000721 0.000000000000014211 -3.000721 C -0.796875 -3.000721 -1.559375 -2.685096 -2.121875 -2.122596 C -2.684375 -1.560096 -3 -0.794471 -3 -0.000721 C -3 0.796154 -2.684375 1.558654 -2.121875 2.121154 C -1.559375 2.683654 -0.796875 2.999279 0.000000000000014211 2.999279 Z M 0.000000000000014211 2.999279 " transform="matrix(1.25,0,0,1.25,72.347656,135.317307)"/>
<path style="fill-rule:nonzero;fill:rgb(100%,49.803922%,5.490196%);fill-opacity:1;stroke-width:1;stroke-linecap:butt;stroke-linejoin:round;stroke:rgb(100%,49.803922%,5.490196%);stroke-opacity:1;stroke-miterlimit:4;" d="M -0.0006 3.001368 C 0.796275 3.001368 1.558775 2.682618 2.121275 2.120118 C 2.683775 1.557618 2.9994 0.795118 2.9994 0.001368 C 2.9994 -0.795507 2.683775 -1.558007 2.121275 -2.120507 C 1.558775 -2.683007 0.796275 -2.998632 -0.0006 -2.998632 C -0.79435 -2.998632 -1.559975 -2.683007 -2.122475 -2.120507 C -2.684975 -1.558007 -3.0006 -0.795507 -3.0006 0.001368 C -3.0006 0.795118 -2.684975 1.557618 -2.122475 2.120118 C -1.559975 2.682618 -0.79435 3.001368 -0.0006 3.001368 Z M -0.0006 3.001368 " transform="matrix(1.25,0,0,1.25,110.020281,103.713134)"/>
<path style="fill-rule:nonzero;fill:rgb(100%,49.803922%,5.490196%);fill-opacity:1;stroke-width:1;stroke-linecap:butt;stroke-linejoin:round;stroke:rgb(100%,49.803922%,5.490196%);stroke-opacity:1;stroke-miterlimit:4;" d="M -0.000994 3.00145 C 0.795881 3.00145 1.558381 2.6827 2.120881 2.1202 C 2.683381 1.5577 2.999006 0.7952 2.999006 0.00145 C 2.999006 -0.795425 2.683381 -1.557925 2.120881 -2.120425 C 1.558381 -2.682925 0.795881 -2.99855 -0.000994 -2.99855 C -0.794744 -2.99855 -1.557244 -2.682925 -2.122869 -2.120425 C -2.685369 -1.557925 -3.000994 -0.795425 -3.000994 0.00145 C -3.000994 0.7952 -2.685369 1.5577 -2.122869 2.1202 C -1.557244 2.6827 -0.794744 3.00145 -0.000994 3.00145 Z M -0.000994 3.00145 " transform="matrix(1.25,0,0,1.25,140.391867,80.1935)"/>
<path style="fill-rule:nonzero;fill:rgb(100%,49.803922%,5.490196%);fill-opacity:1;stroke-width:1;stroke-linecap:butt;stroke-linejoin:round;stroke:rgb(100%,49.803922%,5.490196%);stroke-opacity:1;stroke-miterlimit:4;" d="M 0.001197 3.000502 C 0.794947 3.000502 1.557447 2.684877 2.119947 2.122377 C 2.682447 1.559877 3.001197 0.794252 3.001197 0.000502 C 3.001197 -0.796373 2.682447 -1.558873 2.119947 -2.121373 C 1.557447 -2.683873 0.794947 -2.999498 0.001197 -2.999498 C -0.795678 -2.999498 -1.558178 -2.683873 -2.120678 -2.121373 C -2.683178 -1.558873 -2.998803 -0.796373 -2.998803 0.000502 C -2.998803 0.794252 -2.683178 1.559877 -2.120678 2.122377 C -1.558178 2.684877 -0.795678 3.000502 0.001197 3.000502 Z M 0.001197 3.000502 " transform="matrix(1.25,0,0,1.25,169.525847,69.718123)"/>
<path style="fill-rule:nonzero;fill:rgb(100%,49.803922%,5.490196%);fill-opacity:1;stroke-width:1;stroke-linecap:butt;stroke-linejoin:round;stroke:rgb(100%,49.803922%,5.490196%);stroke-opacity:1;stroke-miterlimit:4;" d="M 0.000821 3.001158 C 0.794571 3.001158 1.560196 2.682408 2.122696 2.119908 C 2.685196 1.557408 3.000821 0.794908 3.000821 0.001158 C 3.000821 -0.795717 2.685196 -1.558217 2.122696 -2.120717 C 1.560196 -2.683217 0.794571 -2.998842 0.000821 -2.998842 C -0.796054 -2.998842 -1.558554 -2.683217 -2.121054 -2.120717 C -2.683554 -1.558217 -2.999179 -0.795717 -2.999179 0.001158 C -2.999179 0.794908 -2.683554 1.557408 -2.121054 2.119908 C -1.558554 2.682408 -0.796054 3.001158 0.000821 3.001158 Z M 0.000821 3.001158 " transform="matrix(1.25,0,0,1.25,185.467724,63.033709)"/>
<path style="fill-rule:nonzero;fill:rgb(100%,49.803922%,5.490196%);fill-opacity:1;stroke-width:1;stroke-linecap:butt;stroke-linejoin:round;stroke:rgb(100%,49.803922%,5.490196%);stroke-opacity:1;stroke-miterlimit:4;" d="M -0.001111 2.999469 C 0.795764 2.999469 1.558264 2.683844 2.120764 2.121344 C 2.683264 1.558844 2.998889 0.796344 2.998889 -0.000531 C 2.998889 -0.794281 2.683264 -1.559906 2.120764 -2.122406 C 1.558264 -2.684906 0.795764 -3.000531 -0.001111 -3.000531 C -0.794861 -3.000531 -1.557361 -2.684906 -2.119861 -2.122406 C -2.682361 -1.559906 -3.001111 -0.794281 -3.001111 -0.000531 C -3.001111 0.796344 -2.682361 1.558844 -2.119861 2.121344 C -1.557361 2.683844 -0.794861 2.999469 -0.001111 2.999469 Z M -0.001111 2.999469 " transform="matrix(1.25,0,0,1.25,199.102951,56.086601)"/>
<path style="fill-rule:nonzero;fill:rgb(100%,49.803922%,5.490196%);fill-opacity:1;stroke-width:1;stroke-linecap:butt;stroke-linejoin:round;stroke:rgb(100%,49.803922%,5.490196%);stroke-opacity:1;stroke-miterlimit:4;" d="M 0.001438 2.999188 C 0.795188 2.999188 1.557688 2.683563 2.120188 2.121063 C 2.682688 1.558563 3.001438 0.796063 3.001438 -0.000812 C 3.001438 -0.794562 2.682688 -1.560187 2.120188 -2.122687 C 1.557688 -2.685187 0.795188 -3.000812 0.001438 -3.000812 C -0.795437 -3.000812 -1.557937 -2.685187 -2.120437 -2.122687 C -2.682937 -1.560187 -2.998562 -0.794562 -2.998562 -0.000812 C -2.998562 0.796063 -2.682937 1.558563 -2.120437 2.121063 C -1.557937 2.683563 -0.795437 2.999188 0.001438 2.999188 Z M 0.001438 2.999188 " transform="matrix(1.25,0,0,1.25,205.838046,55.969765)"/>
<path style="fill-rule:nonzero;fill:rgb(100%,49.803922%,5.490196%);fill-opacity:1;stroke-width:1;stroke-linecap:butt;stroke-linejoin:round;stroke:rgb(100%,49.803922%,5.490196%);stroke-opacity:1;stroke-miterlimit:4;" d="M -0.000512 3.000349 C 0.796363 3.000349 1.558863 2.684724 2.121363 2.122224 C 2.683863 1.559724 2.999488 0.794099 2.999488 0.000349 C 2.999488 -0.796526 2.683863 -1.559026 2.121363 -2.121526 C 1.558863 -2.684026 0.796363 -2.999651 -0.000512 -2.999651 C -0.794262 -2.999651 -1.559887 -2.684026 -2.122387 -2.121526 C -2.684887 -1.559026 -3.000512 -0.796526 -3.000512 0.000349 C -3.000512 0.794099 -2.684887 1.559724 -2.122387 2.122224 C -1.559887 2.684724 -0.794262 3.000349 -0.000512 3.000349 Z M -0.000512 3.000349 " transform="matrix(1.25,0,0,1.25,216.887359,52.495658)"/>
<path style="fill-rule:nonzero;fill:rgb(100%,49.803922%,5.490196%);fill-opacity:1;stroke-width:1;stroke-linecap:butt;stroke-linejoin:round;stroke:rgb(100%,49.803922%,5.490196%);stroke-opacity:1;stroke-miterlimit:4;" d="M -0.001286 3.001112 C 0.795589 3.001112 1.558089 2.682362 2.120589 2.119862 C 2.683089 1.557362 2.998714 0.794862 2.998714 0.001112 C 2.998714 -0.795763 2.683089 -1.558263 2.120589 -2.120763 C 1.558089 -2.683263 0.795589 -2.998888 -0.001286 -2.998888 C -0.795036 -2.998888 -1.557536 -2.683263 -2.120036 -2.120763 C -2.682536 -1.558263 -3.001286 -0.795763 -3.001286 0.001112 C -3.001286 0.794862 -2.682536 1.557362 -2.120036 2.119862 C -1.557536 2.682362 -0.795036 3.001112 -0.001286 3.001112 Z M -0.001286 3.001112 " transform="matrix(1.25,0,0,1.25,224.806295,51.838454)"/>
<path style="fill-rule:nonzero;fill:rgb(100%,49.803922%,5.490196%);fill-opacity:1;stroke-width:1;stroke-linecap:butt;stroke-linejoin:round;stroke:rgb(100%,49.803922%,5.490196%);stroke-opacity:1;stroke-miterlimit:4;" d="M 0.000426 2.998506 C 0.794176 2.998506 1.559801 2.682881 2.122301 2.120381 C 2.684801 1.557881 3.000426 0.795381 3.000426 -0.001494 C 3.000426 -0.795244 2.684801 -1.557744 2.122301 -2.120244 C 1.559801 -2.682744 0.794176 -3.001494 0.000426 -3.001494 C -0.796449 -3.001494 -1.558949 -2.682744 -2.121449 -2.120244 C -2.683949 -1.557744 -2.999574 -0.795244 -2.999574 -0.001494 C -2.999574 0.795381 -2.683949 1.557881 -2.121449 2.120381 C -1.558949 2.682881 -0.796449 2.998506 0.000426 2.998506 Z M 0.000426 2.998506 " transform="matrix(1.25,0,0,1.25,233.296342,51.380774)"/>
<path style="fill-rule:nonzero;fill:rgb(100%,49.803922%,5.490196%);fill-opacity:1;stroke-width:1;stroke-linecap:butt;stroke-linejoin:round;stroke:rgb(100%,49.803922%,5.490196%);stroke-opacity:1;stroke-miterlimit:4;" d="M 0.000694 3.000463 C 0.794444 3.000463 1.560069 2.684838 2.122569 2.122338 C 2.685069 1.559838 3.000694 0.794213 3.000694 0.000463 C 3.000694 -0.796412 2.685069 -1.558912 2.122569 -2.121412 C 1.560069 -2.683912 0.794444 -2.999537 0.000694 -2.999537 C -0.796181 -2.999537 -1.558681 -2.683912 -2.121181 -2.121412 C -2.683681 -1.558912 -2.999306 -0.796412 -2.999306 0.000463 C -2.999306 0.794213 -2.683681 1.559838 -2.121181 2.122338 C -1.558681 2.684838 -0.796181 3.000463 0.000694 3.000463 Z M 0.000694 3.000463 " transform="matrix(1.25,0,0,1.25,238.713976,52.390046)"/>
<path style="fill-rule:nonzero;fill:rgb(100%,49.803922%,5.490196%);fill-opacity:1;stroke-width:1;stroke-linecap:butt;stroke-linejoin:round;stroke:rgb(100%,49.803922%,5.490196%);stroke-opacity:1;stroke-miterlimit:4;" d="M 0.001504 2.999128 C 0.795254 2.999128 1.557754 2.683503 2.120254 2.121003 C 2.682754 1.558503 3.001504 0.796003 3.001504 -0.000872 C 3.001504 -0.794622 2.682754 -1.560247 2.120254 -2.122747 C 1.557754 -2.685247 0.795254 -3.000872 0.001504 -3.000872 C -0.795371 -3.000872 -1.557871 -2.685247 -2.120371 -2.122747 C -2.682871 -1.560247 -2.998496 -0.794622 -2.998496 -0.000872 C -2.998496 0.796003 -2.682871 1.558503 -2.120371 2.121003 C -1.557871 2.683503 -0.795371 2.999128 0.001504 2.999128 Z M 0.001504 2.999128 " transform="matrix(1.25,0,0,1.25,236.752026,49.68859)"/>
<path style="fill-rule:nonzero;fill:rgb(100%,49.803922%,5.490196%);fill-opacity:1;stroke-width:1;stroke-linecap:butt;stroke-linejoin:round;stroke:rgb(100%,49.803922%,5.490196%);stroke-opacity:1;stroke-miterlimit:4;" d="M -0.001201 3.000539 C 0.795674 3.000539 1.558174 2.684914 2.120674 2.122414 C 2.683174 1.559914 2.998799 0.794289 2.998799 0.000539 C 2.998799 -0.796336 2.683174 -1.558836 2.120674 -2.121336 C 1.558174 -2.683836 0.795674 -2.999461 -0.001201 -2.999461 C -0.794951 -2.999461 -1.557451 -2.683836 -2.119951 -2.121336 C -2.682451 -1.558836 -3.001201 -0.796336 -3.001201 0.000539 C -3.001201 0.794289 -2.682451 1.559914 -2.119951 2.122414 C -1.557451 2.684914 -0.794951 3.000539 -0.001201 3.000539 Z M -0.001201 3.000539 " transform="matrix(1.25,0,0,1.25,238.403845,48.186826)"/>
<path style="fill-rule:nonzero;fill:rgb(100%,49.803922%,5.490196%);fill-opacity:1;stroke-width:1;stroke-linecap:butt;stroke-linejoin:round;stroke:rgb(100%,49.803922%,5.490196%);stroke-opacity:1;stroke-miterlimit:4;" d="M -0.000437 2.999629 C 0.796438 2.999629 1.558938 2.684004 2.121438 2.121504 C 2.683938 1.559004 2.999563 0.796504 2.999563 -0.000371 C 2.999563 -0.794121 2.683938 -1.559746 2.121438 -2.122246 C 1.558938 -2.684746 0.796438 -3.000371 -0.000437 -3.000371 C -0.794187 -3.000371 -1.559812 -2.684746 -2.122312 -2.122246 C -2.684812 -1.559746 -3.000437 -0.794121 -3.000437 -0.000371 C -3.000437 0.796504 -2.684812 1.559004 -2.122312 2.121504 C -1.559812 2.684004 -0.794187 2.999629 -0.000437 2.999629 Z M -0.000437 2.999629 " transform="matrix(1.25,0,0,1.25,235.297421,51.402808)"/>
<path style="fill-rule:nonzero;fill:rgb(100%,49.803922%,5.490196%);fill-opacity:1;stroke-width:1;stroke-linecap:butt;stroke-linejoin:round;stroke:rgb(100%,49.803922%,5.490196%);stroke-opacity:1;stroke-miterlimit:4;" d="M 0.000875 2.999404 C 0.794625 2.999404 1.56025 2.683779 2.12275 2.121279 C 2.68525 1.558779 3.000875 0.796279 3.000875 -0.000596 C 3.000875 -0.794346 2.68525 -1.559971 2.12275 -2.122471 C 1.56025 -2.684971 0.794625 -3.000596 0.000875 -3.000596 C -0.796 -3.000596 -1.5585 -2.684971 -2.121 -2.122471 C -2.6835 -1.559971 -2.999125 -0.794346 -2.999125 -0.000596 C -2.999125 0.796279 -2.6835 1.558779 -2.121 2.121279 C -1.5585 2.683779 -0.796 2.999404 0.000875 2.999404 Z M 0.000875 2.999404 " transform="matrix(1.25,0,0,1.25,247.58875,46.004651)"/>
<path style="fill-rule:nonzero;fill:rgb(100%,49.803922%,5.490196%);fill-opacity:1;stroke-width:1;stroke-linecap:butt;stroke-linejoin:round;stroke:rgb(100%,49.803922%,5.490196%);stroke-opacity:1;stroke-miterlimit:4;" d="M -0.000691 2.999641 C 0.796184 2.999641 1.558684 2.684016 2.121184 2.121516 C 2.683684 1.559016 2.999309 0.796516 2.999309 -0.000359 C 2.999309 -0.794109 2.683684 -1.559734 2.121184 -2.122234 C 1.558684 -2.684734 0.796184 -3.000359 -0.000691 -3.000359 C -0.794441 -3.000359 -1.560066 -2.684734 -2.122566 -2.122234 C -2.685066 -1.559734 -3.000691 -0.794109 -3.000691 -0.000359 C -3.000691 0.796516 -2.685066 1.559016 -2.122566 2.121516 C -1.560066 2.684016 -0.794441 2.999641 -0.000691 2.999641 Z M -0.000691 2.999641 " transform="matrix(1.25,0,0,1.25,250.278207,46.773886)"/>
<path style="fill-rule:nonzero;fill:rgb(100%,49.803922%,5.490196%);fill-opacity:1;stroke-width:1;stroke-linecap:butt;stroke-linejoin:round;stroke:rgb(100%,49.803922%,5.490196%);stroke-opacity:1;stroke-miterlimit:4;" d="M 0.000503 2.999676 C 0.794253 2.999676 1.559878 2.684051 2.122378 2.121551 C 2.684878 1.559051 3.000503 0.796551 3.000503 -0.000324 C 3.000503 -0.794074 2.684878 -1.559699 2.122378 -2.122199 C 1.559878 -2.684699 0.794253 -3.000324 0.000503 -3.000324 C -0.796372 -3.000324 -1.558872 -2.684699 -2.121372 -2.122199 C -2.683872 -1.559699 -2.999497 -0.794074 -2.999497 -0.000324 C -2.999497 0.796551 -2.683872 1.559051 -2.121372 2.121551 C -1.558872 2.684051 -0.796372 2.999676 0.000503 2.999676 Z M 0.000503 2.999676 " transform="matrix(1.25,0,0,1.25,256.35484,43.10978)"/>
<path style="fill-rule:nonzero;fill:rgb(100%,49.803922%,5.490196%);fill-opacity:1;stroke-width:1;stroke-linecap:butt;stroke-linejoin:round;stroke:rgb(100%,49.803922%,5.490196%);stroke-opacity:1;stroke-miterlimit:4;" d="M -0.000188 3.000429 C 0.796687 3.000429 1.559187 2.684804 2.121687 2.122304 C 2.684187 1.559804 2.999812 0.794179 2.999812 0.000429 C 2.999812 -0.796446 2.684187 -1.558946 2.121687 -2.121446 C 1.559187 -2.683946 0.796687 -2.999571 -0.000188 -2.999571 C -0.797063 -2.999571 -1.559563 -2.683946 -2.122063 -2.121446 C -2.684563 -1.558946 -3.000188 -0.796446 -3.000188 0.000429 C -3.000188 0.794179 -2.684563 1.559804 -2.122063 2.122304 C -1.559563 2.684804 -0.797063 3.000429 -0.000188 3.000429 Z M -0.000188 3.000429 " transform="matrix(1.25,0,0,1.25,263.449454,43.257276)"/>
<path style="fill-rule:nonzero;fill:rgb(100%,49.803922%,5.490196%);fill-opacity:1;stroke-width:1;stroke-linecap:butt;stroke-linejoin:round;stroke:rgb(100%,49.803922%,5.490196%);stroke-opacity:1;stroke-miterlimit:4;" d="M -0.000512 2.999304 C 0.796363 2.999304 1.558863 2.683679 2.121363 2.121179 C 2.683863 1.558679 2.999488 0.796179 2.999488 -0.000696 C 2.999488 -0.794446 2.683863 -1.560071 2.121363 -2.122571 C 1.558863 -2.685071 0.796363 -3.000696 -0.000512 -3.000696 C -0.794262 -3.000696 -1.559887 -2.685071 -2.122387 -2.122571 C -2.684887 -1.560071 -3.000512 -0.794446 -3.000512 -0.000696 C -3.000512 0.796179 -2.684887 1.558679 -2.122387 2.121179 C -1.559887 2.683679 -0.794262 2.999304 -0.000512 2.999304 Z M -0.000512 2.999304 " transform="matrix(1.25,0,0,1.25,261.953765,46.457901)"/>
<path style="fill-rule:nonzero;fill:rgb(100%,49.803922%,5.490196%);fill-opacity:1;stroke-width:1;stroke-linecap:butt;stroke-linejoin:round;stroke:rgb(100%,49.803922%,5.490196%);stroke-opacity:1;stroke-miterlimit:4;" d="M -0.001165 3.000594 C 0.79571 3.000594 1.55821 2.684969 2.12071 2.122469 C 2.68321 1.559969 2.998835 0.794344 2.998835 0.000594 C 2.998835 -0.796281 2.68321 -1.558781 2.12071 -2.121281 C 1.55821 -2.683781 0.79571 -2.999406 -0.001165 -2.999406 C -0.794915 -2.999406 -1.557415 -2.683781 -2.119915 -2.121281 C -2.682415 -1.558781 -3.001165 -0.796281 -3.001165 0.000594 C -3.001165 0.794344 -2.682415 1.559969 -2.119915 2.122469 C -1.557415 2.684969 -0.794915 3.000594 -0.001165 3.000594 Z M -0.001165 3.000594 " transform="matrix(1.25,0,0,1.25,261.106925,37.807851)"/>
<path style="fill-rule:nonzero;fill:rgb(100%,49.803922%,5.490196%);fill-opacity:1;stroke-width:1;stroke-linecap:butt;stroke-linejoin:round;stroke:rgb(100%,49.803922%,5.490196%);stroke-opacity:1;stroke-miterlimit:4;" d="M 0.001467 3.000138 C 0.795217 3.000138 1.557717 2.684513 2.120217 2.122013 C 2.682717 1.559513 3.001467 0.797013 3.001467 0.000138 C 3.001467 -0.796737 2.682717 -1.559237 2.120217 -2.121737 C 1.557717 -2.684237 0.795217 -2.999862 0.001467 -2.999862 C -0.795408 -2.999862 -1.557908 -2.684237 -2.120408 -2.121737 C -2.682908 -1.559237 -2.998533 -0.796737 -2.998533 0.000138 C -2.998533 0.797013 -2.682908 1.559513 -2.120408 2.122013 C -1.557908 2.684513 -0.795408 3.000138 0.001467 3.000138 Z M 0.001467 3.000138 " transform="matrix(1.25,0,0,1.25,259.138791,39.120921)"/>
<path style="fill-rule:nonzero;fill:rgb(100%,49.803922%,5.490196%);fill-opacity:1;stroke-width:1;stroke-linecap:butt;stroke-linejoin:round;stroke:rgb(100%,49.803922%,5.490196%);stroke-opacity:1;stroke-miterlimit:4;" d="M -0.001178 3.001144 C 0.795697 3.001144 1.558197 2.682394 2.120697 2.119894 C 2.683197 1.557394 2.998822 0.794894 2.998822 0.001144 C 2.998822 -0.795731 2.683197 -1.558231 2.120697 -2.120731 C 1.558197 -2.683231 0.795697 -2.998856 -0.001178 -2.998856 C -0.794928 -2.998856 -1.557428 -2.683231 -2.119928 -2.120731 C -2.682428 -1.558231 -3.001178 -0.795731 -3.001178 0.001144 C -3.001178 0.794894 -2.682428 1.557394 -2.119928 2.119894 C -1.557428 2.682394 -0.794928 3.001144 -0.001178 3.001144 Z M -0.001178 3.001144 " transform="matrix(1.25,0,0,1.25,259.58741,37.639195)"/>
<path style="fill-rule:nonzero;fill:rgb(100%,49.803922%,5.490196%);fill-opacity:1;stroke-width:1;stroke-linecap:butt;stroke-linejoin:round;stroke:rgb(100%,49.803922%,5.490196%);stroke-opacity:1;stroke-miterlimit:4;" d="M -0.000239 2.998819 C 0.796636 2.998819 1.559136 2.683194 2.121636 2.120694 C 2.684136 1.558194 2.999761 0.795694 2.999761 -0.001181 C 2.999761 -0.794931 2.684136 -1.557431 2.121636 -2.119931 C 1.559136 -2.682431 0.796636 -3.001181 -0.000239 -3.001181 C -0.797114 -3.001181 -1.559614 -2.682431 -2.122114 -2.119931 C -2.684614 -1.557431 -3.000239 -0.794931 -3.000239 -0.001181 C -3.000239 0.795694 -2.684614 1.558194 -2.122114 2.120694 C -1.559614 2.683194 -0.797114 2.998819 -0.000239 2.998819 Z M -0.000239 2.998819 " transform="matrix(1.25,0,0,1.25,260.742486,35.540539)"/>
<path style="fill-rule:nonzero;fill:rgb(100%,49.803922%,5.490196%);fill-opacity:1;stroke-width:1;stroke-linecap:butt;stroke-linejoin:round;stroke:rgb(100%,49.803922%,5.490196%);stroke-opacity:1;stroke-miterlimit:4;" d="M -0.001187 3.001083 C 0.795688 3.001083 1.558188 2.685458 2.120688 2.119833 C 2.683188 1.557333 2.998813 0.794833 2.998813 0.001083 C 2.998813 -0.795792 2.683188 -1.558292 2.120688 -2.120792 C 1.558188 -2.683292 0.795688 -2.998917 -0.001187 -2.998917 C -0.794937 -2.998917 -1.557437 -2.683292 -2.119937 -2.120792 C -2.682437 -1.558292 -3.001187 -0.795792 -3.001187 0.001083 C -3.001187 0.794833 -2.682437 1.557333 -2.119937 2.119833 C -1.557437 2.685458 -0.794937 3.001083 -0.001187 3.001083 Z M -0.001187 3.001083 " transform="matrix(1.25,0,0,1.25,260.53664,39.541615)"/>
<path style="fill-rule:nonzero;fill:rgb(100%,49.803922%,5.490196%);fill-opacity:1;stroke-width:1;stroke-linecap:butt;stroke-linejoin:round;stroke:rgb(100%,49.803922%,5.490196%);stroke-opacity:1;stroke-miterlimit:4;" d="M 0.001173 2.999296 C 0.794923 2.999296 1.557423 2.683671 2.119923 2.121171 C 2.682423 1.558671 3.001173 0.796171 3.001173 -0.000704 C 3.001173 -0.794454 2.682423 -1.560079 2.119923 -2.122579 C 1.557423 -2.685079 0.794923 -3.000704 0.001173 -3.000704 C -0.795702 -3.000704 -1.558202 -2.685079 -2.120702 -2.122579 C -2.683202 -1.560079 -2.998827 -0.794454 -2.998827 -0.000704 C -2.998827 0.796171 -2.683202 1.558671 -2.120702 2.121171 C -1.558202 2.683671 -0.795702 2.999296 0.001173 2.999296 Z M 0.001173 2.999296 " transform="matrix(1.25,0,0,1.25,265.217284,37.649318)"/>
<path style="fill-rule:nonzero;fill:rgb(100%,49.803922%,5.490196%);fill-opacity:1;stroke-width:1;stroke-linecap:butt;stroke-linejoin:round;stroke:rgb(100%,49.803922%,5.490196%);stroke-opacity:1;stroke-miterlimit:4;" d="M 0.001135 3.000676 C 0.794885 3.000676 1.557385 2.685051 2.119885 2.122551 C 2.682385 1.560051 3.001135 0.794426 3.001135 0.000676 C 3.001135 -0.796199 2.682385 -1.558699 2.119885 -2.121199 C 1.557385 -2.683699 0.794885 -2.999324 0.001135 -2.999324 C -0.79574 -2.999324 -1.55824 -2.683699 -2.12074 -2.121199 C -2.68324 -1.558699 -2.998865 -0.796199 -2.998865 0.000676 C -2.998865 0.794426 -2.68324 1.560051 -2.12074 2.122551 C -1.55824 2.685051 -0.79574 3.000676 0.001135 3.000676 Z M 0.001135 3.000676 " transform="matrix(1.25,0,0,1.25,261.811081,41.729624)"/>
<path style="fill-rule:nonzero;fill:rgb(100%,49.803922%,5.490196%);fill-opacity:1;stroke-width:1;stroke-linecap:butt;stroke-linejoin:round;stroke:rgb(100%,49.803922%,5.490196%);stroke-opacity:1;stroke-miterlimit:4;" d="M -0.001131 3.001255 C 0.795744 3.001255 1.558244 2.682505 2.120744 2.120005 C 2.683244 1.557505 2.998869 0.795005 2.998869 0.001255 C 2.998869 -0.79562 2.683244 -1.55812 2.120744 -2.12062 C 1.558244 -2.68312 0.795744 -2.998745 -0.001131 -2.998745 C -0.794881 -2.998745 -1.557381 -2.68312 -2.119881 -2.12062 C -2.682381 -1.55812 -3.001131 -0.79562 -3.001131 0.001255 C -3.001131 0.795005 -2.682381 1.557505 -2.119881 2.120005 C -1.557381 2.682505 -0.794881 3.001255 -0.001131 3.001255 Z M -0.001131 3.001255 " transform="matrix(1.25,0,0,1.25,258.153757,47.693744)"/>
<path style="fill-rule:nonzero;fill:rgb(100%,49.803922%,5.490196%);fill-opacity:1;stroke-width:1;stroke-linecap:butt;stroke-linejoin:round;stroke:rgb(100%,49.803922%,5.490196%);stroke-opacity:1;stroke-miterlimit:4;" d="M 0.001077 3.000667 C 0.794827 3.000667 1.557327 2.685042 2.119827 2.122542 C 2.685452 1.560042 3.001077 0.794417 3.001077 0.000667 C 3.001077 -0.796208 2.685452 -1.558708 2.119827 -2.121208 C 1.557327 -2.683708 0.794827 -2.999333 0.001077 -2.999333 C -0.795798 -2.999333 -1.558298 -2.683708 -2.120798 -2.121208 C -2.683298 -1.558708 -2.998923 -0.796208 -2.998923 0.000667 C -2.998923 0.794417 -2.683298 1.560042 -2.120798 2.122542 C -1.558298 2.685042 -0.795798 3.000667 0.001077 3.000667 Z M 0.001077 3.000667 " transform="matrix(1.25,0,0,1.25,260.303341,50.471823)"/>
<path style="fill-rule:nonzero;fill:rgb(100%,49.803922%,5.490196%);fill-opacity:1;stroke-width:1;stroke-linecap:butt;stroke-linejoin:round;stroke:rgb(100%,49.803922%,5.490196%);stroke-opacity:1;stroke-miterlimit:4;" d="M -0.000558 3.00078 C 0.796317 3.00078 1.558817 2.685155 2.121317 2.122655 C 2.683817 1.560155 2.999442 0.79453 2.999442 0.00078 C 2.999442 -0.796095 2.683817 -1.558595 2.121317 -2.121095 C 1.558817 -2.683595 0.796317 -2.99922 -0.000558 -2.99922 C -0.794308 -2.99922 -1.559933 -2.683595 -2.122433 -2.121095 C -2.684933 -1.558595 -3.000558 -0.796095 -3.000558 0.00078 C -3.000558 0.79453 -2.684933 1.560155 -2.122433 2.122655 C -1.559933 2.685155 -0.794308 3.00078 -0.000558 3.00078 Z M -0.000558 3.00078 " transform="matrix(1.25,0,0,1.25,254.03976,49.38965)"/>
<path style="fill-rule:nonzero;fill:rgb(100%,49.803922%,5.490196%);fill-opacity:1;stroke-width:1;stroke-linecap:butt;stroke-linejoin:round;stroke:rgb(100%,49.803922%,5.490196%);stroke-opacity:1;stroke-miterlimit:4;" d="M -0.000037 3.001282 C 0.796838 3.001282 1.559338 2.682532 2.121838 2.120032 C 2.684338 1.557532 2.999963 0.795032 2.999963 0.001282 C 2.999963 -0.795593 2.684338 -1.558093 2.121838 -2.120593 C 1.559338 -2.683093 0.796838 -2.998718 -0.000037 -2.998718 C -0.796912 -2.998718 -1.559412 -2.683093 -2.121912 -2.120593 C -2.684412 -1.558093 -3.000037 -0.795593 -3.000037 0.001282 C -3.000037 0.795032 -2.684412 1.557532 -2.121912 2.120032 C -1.559412 2.682532 -0.796912 3.001282 -0.000037 3.001282 Z M -0.000037 3.001282 " transform="matrix(1.25,0,0,1.25,255.125046,57.310898)"/>
<path style="fill-rule:nonzero;fill:rgb(100%,49.803922%,5.490196%);fill-opacity:1;stroke-width:1;stroke-linecap:butt;stroke-linejoin:round;stroke:rgb(100%,49.803922%,5.490196%);stroke-opacity:1;stroke-miterlimit:4;" d="M -0.001397 2.999272 C 0.795478 2.999272 1.557978 2.683647 2.120478 2.121147 C 2.682978 1.558647 2.998603 0.796147 2.998603 -0.000728 C 2.998603 -0.794478 2.682978 -1.560103 2.120478 -2.122603 C 1.557978 -2.685103 0.795478 -3.000728 -0.001397 -3.000728 C -0.795147 -3.000728 -1.557647 -2.685103 -2.120147 -2.122603 C -2.682647 -1.560103 -3.001397 -0.794478 -3.001397 -0.000728 C -3.001397 0.796147 -2.682647 1.558647 -2.120147 2.121147 C -1.557647 2.683647 -0.795147 2.999272 -0.001397 2.999272 Z M -0.001397 2.999272 " transform="matrix(1.25,0,0,1.25,257.259559,59.297785)"/>
<path style="fill-rule:nonzero;fill:rgb(100%,49.803922%,5.490196%);fill-opacity:1;stroke-width:1;stroke-linecap:butt;stroke-linejoin:round;stroke:rgb(100%,49.803922%,5.490196%);stroke-opacity:1;stroke-miterlimit:4;" d="M -0.000907 3.001417 C 0.795968 3.001417 1.558468 2.682667 2.120968 2.120167 C 2.683468 1.557667 2.999093 0.795167 2.999093 0.001417 C 2.999093 -0.795458 2.683468 -1.557958 2.120968 -2.120458 C 1.558468 -2.682958 0.795968 -2.998583 -0.000907 -2.998583 C -0.794657 -2.998583 -1.560282 -2.682958 -2.122782 -2.120458 C -2.685282 -1.557958 -3.000907 -0.795458 -3.000907 0.001417 C -3.000907 0.795167 -2.685282 1.557667 -2.122782 2.120167 C -1.560282 2.682667 -0.794657 3.001417 -0.000907 3.001417 Z M -0.000907 3.001417 " transform="matrix(1.25,0,0,1.25,260.204259,60.478698)"/>
<path style="fill-rule:nonzero;fill:rgb(100%,49.803922%,5.490196%);fill-opacity:1;stroke-width:1;stroke-linecap:butt;stroke-linejoin:round;stroke:rgb(100%,49.803922%,5.490196%);stroke-opacity:1;stroke-miterlimit:4;" d="M -0.000577 3.001491 C 0.796298 3.001491 1.558798 2.682741 2.121298 2.120241 C 2.683798 1.557741 2.999423 0.795241 2.999423 0.001491 C 2.999423 -0.795384 2.683798 -1.557884 2.121298 -2.120384 C 1.558798 -2.682884 0.796298 -2.998509 -0.000577 -2.998509 C -0.794327 -2.998509 -1.559952 -2.682884 -2.122452 -2.120384 C -2.684952 -1.557884 -3.000577 -0.795384 -3.000577 0.001491 C -3.000577 0.795241 -2.684952 1.557741 -2.122452 2.120241 C -1.559952 2.682741 -0.794327 3.001491 -0.000577 3.001491 Z M -0.000577 3.001491 " transform="matrix(1.25,0,0,1.25,268.473377,54.74423)"/>
<path style="fill-rule:nonzero;fill:rgb(100%,49.803922%,5.490196%);fill-opacity:1;stroke-width:1;stroke-linecap:butt;stroke-linejoin:round;stroke:rgb(100%,49.803922%,5.490196%);stroke-opacity:1;stroke-miterlimit:4;" d="M -0.000614 3.001291 C 0.796261 3.001291 1.558761 2.682541 2.121261 2.120041 C 2.683761 1.557541 2.999386 0.795041 2.999386 0.001291 C 2.999386 -0.795584 2.683761 -1.558084 2.121261 -2.120584 C 1.558761 -2.683084 0.796261 -2.998709 -0.000614 -2.998709 C -0.794364 -2.998709 -1.559989 -2.683084 -2.122489 -2.120584 C -2.684989 -1.558084 -3.000614 -0.795584 -3.000614 0.001291 C -3.000614 0.795041 -2.684989 1.557541 -2.122489 2.120041 C -1.559989 2.682541 -0.794364 3.001291 -0.000614 3.001291 Z M -0.000614 3.001291 " transform="matrix(1.25,0,0,1.25,272.106236,55.451511)"/>
<path style="fill-rule:nonzero;fill:rgb(100%,49.803922%,5.490196%);fill-opacity:1;stroke-width:1;stroke-linecap:butt;stroke-linejoin:round;stroke:rgb(100%,49.803922%,5.490196%);stroke-opacity:1;stroke-miterlimit:4;" d="M -0.000024 3.000411 C 0.796851 3.000411 1.559351 2.684786 2.121851 2.122286 C 2.684351 1.559786 2.999976 0.794161 2.999976 0.000411 C 2.999976 -0.796464 2.684351 -1.558964 2.121851 -2.121464 C 1.559351 -2.683964 0.796851 -2.999589 -0.000024 -2.999589 C -0.796899 -2.999589 -1.559399 -2.683964 -2.121899 -2.121464 C -2.684399 -1.558964 -3.000024 -0.796464 -3.000024 0.000411 C -3.000024 0.794161 -2.684399 1.559786 -2.121899 2.122286 C -1.559399 2.684786 -0.796899 3.000411 -0.000024 3.000411 Z M -0.000024 3.000411 " transform="matrix(1.25,0,0,1.25,266.660186,51.394018)"/>
<path style="fill-rule:nonzero;fill:rgb(100%,49.803922%,5.490196%);fill-opacity:1;stroke-width:1;stroke-linecap:butt;stroke-linejoin:round;stroke:rgb(100%,49.803922%,5.490196%);stroke-opacity:1;stroke-miterlimit:4;" d="M -0.001204 2.998757 C 0.795671 2.998757 1.558171 2.683132 2.120671 2.120632 C 2.683171 1.558132 2.998796 0.795632 2.998796 -0.001243 C 2.998796 -0.794993 2.683171 -1.557493 2.120671 -2.119993 C 1.558171 -2.682493 0.795671 -3.001243 -0.001204 -3.001243 C -0.794954 -3.001243 -1.557454 -2.682493 -2.119954 -2.119993 C -2.682454 -1.557493 -3.001204 -0.794993 -3.001204 -0.001243 C -3.001204 0.795632 -2.682454 1.558132 -2.119954 2.120632 C -1.557454 2.683132 -0.794954 2.998757 -0.001204 2.998757 Z M -0.001204 2.998757 " transform="matrix(1.25,0,0,1.25,268.091349,51.009366)"/>
<path style="fill-rule:nonzero;fill:rgb(100%,49.803922%,5.490196%);fill-opacity:1;stroke-width:1;stroke-linecap:butt;stroke-linejoin:round;stroke:rgb(100%,49.803922%,5.490196%);stroke-opacity:1;stroke-miterlimit:4;" d="M 0.000664 3.000232 C 0.794414 3.000232 1.560039 2.684607 2.122539 2.122107 C 2.685039 1.559607 3.000664 0.797107 3.000664 0.000232 C 3.000664 -0.796643 2.685039 -1.559143 2.122539 -2.121643 C 1.560039 -2.684143 0.794414 -2.999768 0.000664 -2.999768 C -0.796211 -2.999768 -1.558711 -2.684143 -2.121211 -2.121643 C -2.683711 -1.559143 -2.999336 -0.796643 -2.999336 0.000232 C -2.999336 0.797107 -2.683711 1.559607 -2.121211 2.122107 C -1.558711 2.684607 -0.796211 3.000232 0.000664 3.000232 Z M 0.000664 3.000232 " transform="matrix(1.25,0,0,1.25,268.78042,48.56221)"/>
<path style="fill-rule:nonzero;fill:rgb(100%,49.803922%,5.490196%);fill-opacity:1;stroke-width:1;stroke-linecap:butt;stroke-linejoin:round;stroke:rgb(100%,49.803922%,5.490196%);stroke-opacity:1;stroke-miterlimit:4;" d="M -0.000715 2.999486 C 0.79616 2.999486 1.55866 2.683861 2.12116 2.121361 C 2.68366 1.558861 2.999285 0.796361 2.999285 -0.000514 C 2.999285 -0.794264 2.68366 -1.559889 2.12116 -2.122389 C 1.55866 -2.684889 0.79616 -3.000514 -0.000715 -3.000514 C -0.794465 -3.000514 -1.56009 -2.684889 -2.12259 -2.122389 C -2.68509 -1.559889 -3.000715 -0.794264 -3.000715 -0.000514 C -3.000715 0.796361 -2.68509 1.558861 -2.12259 2.121361 C -1.56009 2.683861 -0.794465 2.999486 -0.000715 2.999486 Z M -0.000715 2.999486 " transform="matrix(1.25,0,0,1.25,265.121987,49.719393)"/>
<path style="fill-rule:nonzero;fill:rgb(100%,49.803922%,5.490196%);fill-opacity:1;stroke-width:1;stroke-linecap:butt;stroke-linejoin:round;stroke:rgb(100%,49.803922%,5.490196%);stroke-opacity:1;stroke-miterlimit:4;" d="M -0.000998 2.999062 C 0.795877 2.999062 1.558377 2.683437 2.120877 2.120937 C 2.683377 1.558437 2.999002 0.795937 2.999002 -0.000938 C 2.999002 -0.794688 2.683377 -1.557188 2.120877 -2.122813 C 1.558377 -2.685313 0.795877 -3.000938 -0.000998 -3.000938 C -0.794748 -3.000938 -1.557248 -2.685313 -2.122873 -2.122813 C -2.685373 -1.557188 -3.000998 -0.794688 -3.000998 -0.000938 C -3.000998 0.795937 -2.685373 1.558437 -2.122873 2.120937 C -1.557248 2.683437 -0.794748 2.999062 -0.000998 2.999062 Z M -0.000998 2.999062 " transform="matrix(1.25,0,0,1.25,265.688747,45.122266)"/>
<path style="fill-rule:nonzero;fill:rgb(100%,49.803922%,5.490196%);fill-opacity:1;stroke-width:1;stroke-linecap:butt;stroke-linejoin:round;stroke:rgb(100%,49.803922%,5.490196%);stroke-opacity:1;stroke-miterlimit:4;" d="M 0.00013 2.998556 C 0.797005 2.998556 1.559505 2.682931 2.122005 2.120431 C 2.684505 1.557931 3.00013 0.795431 3.00013 -0.001444 C 3.00013 -0.795194 2.684505 -1.557694 2.122005 -2.120194 C 1.559505 -2.682694 0.797005 -3.001444 0.00013 -3.001444 C -0.796745 -3.001444 -1.559245 -2.682694 -2.121745 -2.120194 C -2.684245 -1.557694 -2.99987 -0.795194 -2.99987 -0.001444 C -2.99987 0.795431 -2.684245 1.557931 -2.121745 2.120431 C -1.559245 2.682931 -0.796745 2.998556 0.00013 2.998556 Z M 0.00013 2.998556 " transform="matrix(1.25,0,0,1.25,264.722494,48.197118)"/>
<path style="fill-rule:nonzero;fill:rgb(100%,49.803922%,5.490196%);fill-opacity:1;stroke-width:1;stroke-linecap:butt;stroke-linejoin:round;stroke:rgb(100%,49.803922%,5.490196%);stroke-opacity:1;stroke-miterlimit:4;" d="M 0.000124 3.000632 C 0.796999 3.000632 1.559499 2.685007 2.121999 2.122507 C 2.684499 1.560007 3.000124 0.794382 3.000124 0.000632 C 3.000124 -0.796243 2.684499 -1.558743 2.121999 -2.121243 C 1.559499 -2.683743 0.796999 -2.999368 0.000124 -2.999368 C -0.796751 -2.999368 -1.559251 -2.683743 -2.121751 -2.121243 C -2.684251 -1.558743 -2.999876 -0.796243 -2.999876 0.000632 C -2.999876 0.794382 -2.684251 1.560007 -2.121751 2.122507 C -1.559251 2.685007 -0.796751 3.000632 0.000124 3.000632 Z M 0.000124 3.000632 " transform="matrix(1.25,0,0,1.25,263.167814,54.741398)"/>
<path style="fill-rule:nonzero;fill:rgb(100%,49.803922%,5.490196%);fill-opacity:1;stroke-width:1;stroke-linecap:butt;stroke-linejoin:round;stroke:rgb(100%,49.803922%,5.490196%);stroke-opacity:1;stroke-miterlimit:4;" d="M 0.000107 3.000471 C 0.796982 3.000471 1.559482 2.684846 2.121982 2.122346 C 2.684482 1.559846 3.000107 0.794221 3.000107 0.000471 C 3.000107 -0.796404 2.684482 -1.558904 2.121982 -2.121404 C 1.559482 -2.683904 0.796982 -2.999529 0.000107 -2.999529 C -0.796768 -2.999529 -1.559268 -2.683904 -2.121768 -2.121404 C -2.684268 -1.558904 -2.999893 -0.796404 -2.999893 0.000471 C -2.999893 0.794221 -2.684268 1.559846 -2.121768 2.122346 C -1.559268 2.684846 -0.796768 3.000471 0.000107 3.000471 Z M 0.000107 3.000471 " transform="matrix(1.25,0,0,1.25,265.27721,57.893943)"/>
<path style="fill-rule:nonzero;fill:rgb(100%,49.803922%,5.490196%);fill-opacity:1;stroke-width:1;stroke-linecap:butt;stroke-linejoin:round;stroke:rgb(100%,49.803922%,5.490196%);stroke-opacity:1;stroke-miterlimit:4;" d="M -0.000005 2.999626 C 0.79687 2.999626 1.55937 2.684001 2.12187 2.121501 C 2.68437 1.559001 2.999995 0.796501 2.999995 -0.000374 C 2.999995 -0.794124 2.68437 -1.559749 2.12187 -2.122249 C 1.55937 -2.684749 0.79687 -3.000374 -0.000005 -3.000374 C -0.79688 -3.000374 -1.55938 -2.684749 -2.12188 -2.122249 C -2.68438 -1.559749 -3.000005 -0.794124 -3.000005 -0.000374 C -3.000005 0.796501 -2.68438 1.559001 -2.12188 2.121501 C -1.55938 2.684001 -0.79688 2.999626 -0.000005 2.999626 Z M -0.000005 2.999626 " transform="matrix(1.25,0,0,1.25,265.160162,54.926249)"/>
<path style="fill-rule:nonzero;fill:rgb(100%,49.803922%,5.490196%);fill-opacity:1;stroke-width:1;stroke-linecap:butt;stroke-linejoin:round;stroke:rgb(100%,49.803922%,5.490196%);stroke-opacity:1;stroke-miterlimit:4;" d="M -0.000792 3.000392 C 0.796083 3.000392 1.558583 2.684767 2.121083 2.122267 C 2.683583 1.559767 2.999208 0.794142 2.999208 0.000392 C 2.999208 -0.796483 2.683583 -1.558983 2.121083 -2.121483 C 1.558583 -2.683983 0.796083 -2.999608 -0.000792 -2.999608 C -0.794542 -2.999608 -1.560167 -2.683983 -2.122667 -2.121483 C -2.685167 -1.558983 -3.000792 -0.796483 -3.000792 0.000392 C -3.000792 0.794142 -2.685167 1.559767 -2.122667 2.122267 C -1.560167 2.684767 -0.794542 3.000392 -0.000792 3.000392 Z M -0.000792 3.000392 " transform="matrix(1.25,0,0,1.25,266.204115,51.886229)"/>
<path style="fill-rule:nonzero;fill:rgb(100%,49.803922%,5.490196%);fill-opacity:1;stroke-width:1;stroke-linecap:butt;stroke-linejoin:round;stroke:rgb(100%,49.803922%,5.490196%);stroke-opacity:1;stroke-miterlimit:4;" d="M -0.000389 3.000001 C 0.796486 3.000001 1.558986 2.684376 2.121486 2.121876 C 2.683986 1.559376 2.999611 0.796876 2.999611 0.000001 C 2.999611 -0.796874 2.683986 -1.559374 2.121486 -2.121874 C 1.558986 -2.684374 0.796486 -2.999999 -0.000389 -2.999999 C -0.794139 -2.999999 -1.559764 -2.684374 -2.122264 -2.121874 C -2.684764 -1.559374 -3.000389 -0.796874 -3.000389 0.000001 C -3.000389 0.796876 -2.684764 1.559376 -2.122264 2.121876 C -1.559764 2.684376 -0.794139 3.000001 -0.000389 3.000001 Z M -0.000389 3.000001 " transform="matrix(1.25,0,0,1.25,268.766111,46.433593)"/>
<path style="fill-rule:nonzero;fill:rgb(100%,49.803922%,5.490196%);fill-opacity:1;stroke-width:1;stroke-linecap:butt;stroke-linejoin:round;stroke:rgb(100%,49.803922%,5.490196%);stroke-opacity:1;stroke-miterlimit:4;" d="M -0.00054 3.00006 C 0.796335 3.00006 1.558835 2.684435 2.121335 2.121935 C 2.683835 1.559435 2.99946 0.796935 2.99946 0.00006 C 2.99946 -0.796815 2.683835 -1.559315 2.121335 -2.121815 C 1.558835 -2.684315 0.796335 -2.99994 -0.00054 -2.99994 C -0.79429 -2.99994 -1.559915 -2.684315 -2.122415 -2.121815 C -2.684915 -1.559315 -3.00054 -0.796815 -3.00054 0.00006 C -3.00054 0.796935 -2.684915 1.559435 -2.122415 2.121935 C -1.559915 2.684435 -0.79429 3.00006 -0.00054 3.00006 Z M -0.00054 3.00006 " transform="matrix(1.25,0,0,1.25,265.524112,43.710863)"/>
<path style="fill-rule:nonzero;fill:rgb(100%,49.803922%,5.490196%);fill-opacity:1;stroke-width:1;stroke-linecap:butt;stroke-linejoin:round;stroke:rgb(100%,49.803922%,5.490196%);stroke-opacity:1;stroke-miterlimit:4;" d="M -0.001433 3.001453 C 0.795442 3.001453 1.557942 2.682703 2.120442 2.120203 C 2.682942 1.557703 2.998567 0.795203 2.998567 0.001453 C 2.998567 -0.795422 2.682942 -1.557922 2.120442 -2.120422 C 1.557942 -2.682922 0.795442 -2.998547 -0.001433 -2.998547 C -0.795183 -2.998547 -1.557683 -2.682922 -2.120183 -2.120422 C -2.682683 -1.557922 -3.001433 -0.795422 -3.001433 0.001453 C -3.001433 0.795203 -2.682683 1.557703 -2.120183 2.120203 C -1.557683 2.682703 -0.795183 3.001453 -0.001433 3.001453 Z M -0.001433 3.001453 " transform="matrix(1.25,0,0,1.25,267.036947,48.84584)"/>
<path style="fill-rule:nonzero;fill:rgb(100%,49.803922%,5.490196%);fill-opacity:1;stroke-width:1;stroke-linecap:butt;stroke-linejoin:round;stroke:rgb(100%,49.803922%,5.490196%);stroke-opacity:1;stroke-miterlimit:4;" d="M 0.000077 2.999557 C 0.796952 2.999557 1.559452 2.683932 2.121952 2.121432 C 2.684452 1.558932 3.000077 0.796432 3.000077 -0.000443 C 3.000077 -0.794193 2.684452 -1.559818 2.121952 -2.122318 C 1.559452 -2.684818 0.796952 -3.000443 0.000077 -3.000443 C -0.796798 -3.000443 -1.559298 -2.684818 -2.121798 -2.122318 C -2.684298 -1.559818 -2.999923 -0.794193 -2.999923 -0.000443 C -2.999923 0.796432 -2.684298 1.558932 -2.121798 2.121432 C -1.559298 2.683932 -0.796798 2.999557 0.000077 2.999557 Z M 0.000077 2.999557 " transform="matrix(1.25,0,0,1.25,268.964747,52.320866)"/>
<path style="fill-rule:nonzero;fill:rgb(100%,49.803922%,5.490196%);fill-opacity:1;stroke-width:1;stroke-linecap:butt;stroke-linejoin:round;stroke:rgb(100%,49.803922%,5.490196%);stroke-opacity:1;stroke-miterlimit:4;" d="M 0.001441 3.001076 C 0.795191 3.001076 1.557691 2.685451 2.120191 2.119826 C 2.682691 1.557326 3.001441 0.794826 3.001441 0.001076 C 3.001441 -0.795799 2.682691 -1.558299 2.120191 -2.120799 C 1.557691 -2.683299 0.795191 -2.998924 0.001441 -2.998924 C -0.795434 -2.998924 -1.557934 -2.683299 -2.120434 -2.120799 C -2.682934 -1.558299 -2.998559 -0.795799 -2.998559 0.001076 C -2.998559 0.794826 -2.682934 1.557326 -2.120434 2.119826 C -1.557934 2.685451 -0.795434 3.001076 0.001441 3.001076 Z M 0.001441 3.001076 " transform="matrix(1.25,0,0,1.25,258.70523,54.725218)"/>
<path style="fill-rule:nonzero;fill:rgb(100%,49.803922%,5.490196%);fill-opacity:1;stroke-width:1;stroke-linecap:butt;stroke-linejoin:round;stroke:rgb(100%,49.803922%,5.490196%);stroke-opacity:1;stroke-miterlimit:4;" d="M 0.000578 2.99871 C 0.794328 2.99871 1.559953 2.683085 2.122453 2.120585 C 2.684953 1.558085 3.000578 0.795585 3.000578 -0.00129 C 3.000578 -0.79504 2.684953 -1.55754 2.122453 -2.12004 C 1.559953 -2.68254 0.794328 -3.00129 0.000578 -3.00129 C -0.796297 -3.00129 -1.558797 -2.68254 -2.121297 -2.12004 C -2.683797 -1.55754 -2.999422 -0.79504 -2.999422 -0.00129 C -2.999422 0.795585 -2.683797 1.558085 -2.121297 2.120585 C -1.558797 2.683085 -0.796297 2.99871 0.000578 2.99871 Z M 0.000578 2.99871 " transform="matrix(1.25,0,0,1.25,267.00709,49.845363)"/>
<path style="fill-rule:nonzero;fill:rgb(100%,49.803922%,5.490196%);fill-opacity:1;stroke-width:1;stroke-linecap:butt;stroke-linejoin:round;stroke:rgb(100%,49.803922%,5.490196%);stroke-opacity:1;stroke-miterlimit:4;" d="M 0.00124 3.000262 C 0.79499 3.000262 1.55749 2.684637 2.11999 2.122137 C 2.68249 1.559637 3.00124 0.797137 3.00124 0.000262 C 3.00124 -0.796613 2.68249 -1.559113 2.11999 -2.121613 C 1.55749 -2.684113 0.79499 -2.999738 0.00124 -2.999738 C -0.795635 -2.999738 -1.558135 -2.684113 -2.120635 -2.121613 C -2.683135 -1.559113 -2.99876 -0.796613 -2.99876 0.000262 C -2.99876 0.797137 -2.683135 1.559637 -2.120635 2.122137 C -1.558135 2.684637 -0.795635 3.000262 0.00124 3.000262 Z M 0.00124 3.000262 " transform="matrix(1.25,0,0,1.25,265.963294,52.737954)"/>
<g clip-path="url(#clip1)" clip-rule="nonzero">
<path style="fill:none;stroke-width:1.5;stroke-linecap:butt;stroke-linejoin:round;stroke:rgb(12.156863%,46.666667%,70.588235%);stroke-opacity:1;stroke-miterlimit:4;" d="M 133.390625 7.2 L 131.35625 10.684375 L 131.115625 11.15 L 129.61875 14.16875 L 128.121875 17.653125 L 128.065625 17.8125 L 126.9 21.1375 L 125.9 24.621875 L 125.125 28.10625 L 125.0125 28.803125 L 124.584375 31.59375 L 124.2625 35.078125 L 124.15625 38.5625 L 124.2625 42.046875 L 124.584375 45.53125 L 125.0125 48.31875 L 125.125 49.015625 L 125.9 52.5 L 126.9 55.984375 L 128.065625 59.309375 L 128.121875 59.46875 L 129.61875 62.953125 L 131.115625 65.975 L 131.35625 66.4375 L 133.390625 69.921875 L 134.16875 71.115625 L 135.725 73.40625 L 137.21875 75.4 L 138.3875 76.89375 L 140.271875 79.090625 L 141.421875 80.378125 L 143.321875 82.328125 L 144.884375 83.8625 L 146.375 85.215625 L 148.828125 87.346875 L 149.425 87.828125 L 152.478125 90.16875 L 153.384375 90.83125 L 155.528125 92.290625 L 158.58125 94.259375 L 158.671875 94.315625 L 161.63125 96.00625 L 164.684375 97.640625 L 165 97.8 L 167.734375 99.09375 L 170.7875 100.4375 L 172.8625 101.284375 L 173.8375 101.6625 L 176.8875 102.74375 L 179.940625 103.734375 L 182.99375 104.628125 L 183.53125 104.76875 L 186.04375 105.39375 L 189.096875 106.065625 L 192.146875 106.646875 L 195.2 107.1375 L 198.25 107.5375 L 201.303125 107.853125 L 204.353125 108.075 L 207.40625 108.209375 L 210.45625 108.253125 L 213.509375 108.209375 L 216.559375 108.075 L 219.6125 107.853125 L 222.6625 107.5375 L 225.715625 107.1375 L 228.765625 106.646875 L 231.81875 106.065625 L 234.86875 105.39375 L 237.38125 104.76875 L 237.921875 104.628125 " transform="matrix(1.25,0,0,1.25,0,0.000000000000014211)"/>
</g>
<g clip-path="url(#clip2)" clip-rule="nonzero">
<path style="fill:none;stroke-width:1.5;stroke-linecap:butt;stroke-linejoin:round;stroke:rgb(12.156863%,46.666667%,70.588235%);stroke-opacity:1;stroke-miterlimit:4;" d="M 94.740625 7.2 L 94.496875 7.815625 L 93.3875 10.684375 L 92.196875 14.16875 L 91.44375 16.715625 L 91.175 17.653125 L 90.325 21.1375 L 89.63125 24.621875 L 89.0875 28.10625 L 88.703125 31.59375 L 88.471875 35.078125 L 88.39375 38.5625 L 88.471875 42.046875 L 88.703125 45.53125 L 89.0875 49.015625 L 89.63125 52.5 L 90.325 55.984375 L 91.175 59.46875 L 91.44375 60.40625 L 92.196875 62.953125 L 93.3875 66.4375 L 94.496875 69.309375 L 94.740625 69.921875 L 96.2875 73.40625 L 97.546875 75.978125 L 98.009375 76.89375 L 99.93125 80.378125 L 100.6 81.490625 L 102.0625 83.8625 L 103.653125 86.25 L 104.403125 87.346875 L 106.703125 90.46875 L 106.975 90.83125 L 109.753125 94.259375 L 109.803125 94.315625 L 112.80625 97.69375 L 112.903125 97.8 L 115.859375 100.8375 L 116.309375 101.284375 L 118.909375 103.734375 L 120.046875 104.76875 L 121.9625 106.421875 L 124.15625 108.253125 L 125.0125 108.934375 L 128.065625 111.271875 L 128.696875 111.7375 L 131.115625 113.440625 L 133.746875 115.221875 L 134.16875 115.49375 L 137.21875 117.390625 L 139.425 118.70625 L 140.271875 119.190625 L 143.321875 120.85625 L 145.878125 122.19375 L 146.375 122.440625 L 149.425 123.9 L 152.478125 125.284375 L 153.384375 125.678125 L 155.528125 126.565625 L 158.58125 127.759375 L 161.63125 128.8875 L 162.41875 129.1625 L 164.684375 129.91875 L 167.734375 130.871875 L 170.7875 131.759375 L 173.8375 132.58125 L 174.103125 132.646875 L 176.8875 133.3125 L 179.940625 133.978125 L 182.99375 134.578125 L 186.04375 135.115625 L 189.096875 135.59375 L 192.146875 136.003125 L 193.25625 136.13125 L 195.2 136.34375 L 198.25 136.61875 L 201.303125 136.834375 L 204.353125 136.9875 L 207.40625 137.078125 L 210.45625 137.109375 L 213.509375 137.078125 L 216.559375 136.9875 L 219.6125 136.834375 L 222.6625 136.61875 L 225.715625 136.34375 L 227.65625 136.13125 L 228.765625 136.003125 L 231.81875 135.59375 L 234.86875 135.115625 L 237.921875 134.578125 " transform="matrix(1.25,0,0,1.25,0,0.000000000000014211)"/>
</g>
<g clip-path="url(#clip3)" clip-rule="nonzero">
<path style="fill:none;stroke-width:1.5;stroke-linecap:butt;stroke-linejoin:round;stroke:rgb(12.156863%,46.666667%,70.588235%);stroke-opacity:1;stroke-miterlimit:4;" d="M 66.1 7.2 L 65.009375 10.684375 L 64.046875 14.16875 L 63.98125 14.4375 L 63.225 17.653125 L 62.534375 21.1375 L 61.96875 24.621875 L 61.528125 28.10625 L 61.2125 31.59375 L 61.025 35.078125 L 60.9625 38.5625 L 61.025 42.046875 L 61.2125 45.53125 L 61.528125 49.015625 L 61.96875 52.5 L 62.534375 55.984375 L 63.225 59.46875 L 63.98125 62.684375 L 64.046875 62.953125 L 65.009375 66.4375 L 66.1 69.921875 L 67.034375 72.58125 L 67.328125 73.40625 L 68.70625 76.89375 L 70.084375 80.075 L 70.21875 80.378125 L 71.89375 83.8625 L 73.1375 86.25 L 73.71875 87.346875 L 75.70625 90.83125 L 76.1875 91.61875 L 77.871875 94.315625 L 79.240625 96.375 L 80.209375 97.8 L 82.290625 100.6875 L 82.73125 101.284375 L 85.34375 104.628125 L 85.45625 104.76875 L 88.39375 108.253125 L 91.44375 111.6125 L 91.565625 111.7375 L 94.496875 114.7375 L 94.984375 115.221875 L 97.546875 117.6625 L 98.678125 118.70625 L 100.6 120.4125 L 102.6625 122.19375 L 103.653125 123.009375 L 106.703125 125.4625 L 106.975 125.678125 L 109.753125 127.759375 L 111.678125 129.1625 L 112.80625 129.95 L 115.859375 132.021875 L 116.809375 132.646875 L 118.909375 133.978125 L 121.9625 135.846875 L 122.44375 136.13125 L 125.0125 137.596875 L 128.065625 139.278125 L 128.696875 139.615625 L 131.115625 140.85625 L 134.16875 142.3625 L 135.725 143.1 " transform="matrix(1.25,0,0,1.25,0,0.000000000000014211)"/>
</g>
<g clip-path="url(#clip4)" clip-rule="nonzero">
<path style="fill:none;stroke-width:1.5;stroke-linecap:butt;stroke-linejoin:round;stroke:rgb(12.156863%,46.666667%,70.588235%);stroke-opacity:1;stroke-miterlimit:4;" d="M 42.61875 71.115625 L 43.31875 73.40625 L 44.496875 76.89375 L 45.671875 80.075 L 45.7875 80.378125 L 47.2125 83.8625 L 48.721875 87.28125 L 48.753125 87.346875 L 50.4375 90.83125 L 51.775 93.415625 L 52.25 94.315625 L 54.203125 97.8 L 54.828125 98.846875 L 56.30625 101.284375 L 57.878125 103.734375 L 58.55625 104.76875 L 60.928125 108.209375 L 60.9625 108.253125 L 63.540625 111.7375 L 63.98125 112.30625 L 66.29375 115.221875 L 67.034375 116.1125 L 69.23125 118.70625 L 70.084375 119.671875 L 72.365625 122.19375 L 73.1375 123.009375 L 75.70625 125.678125 L 76.1875 126.15625 L 79.240625 129.128125 L 79.275 129.1625 L 82.290625 131.921875 L 83.1 132.646875 L 85.34375 134.578125 L 87.1875 136.13125 L 88.39375 137.109375 L 91.44375 139.525 L 91.565625 139.615625 L 94.496875 141.8 L 96.2875 143.1 " transform="matrix(1.25,0,0,1.25,0,0.000000000000014211)"/>
</g>
<g clip-path="url(#clip5)" clip-rule="nonzero">
<path style="fill:none;stroke-width:1.5;stroke-linecap:butt;stroke-linejoin:round;stroke:rgb(12.156863%,46.666667%,70.588235%);stroke-opacity:1;stroke-miterlimit:4;" d="M 42.61875 115.49375 L 44.94375 118.70625 L 45.671875 119.671875 L 47.6125 122.19375 L 48.721875 123.578125 L 50.4375 125.678125 L 51.775 127.246875 L 53.434375 129.1625 L 54.828125 130.70625 L 56.609375 132.646875 L 57.878125 133.978125 L 59.975 136.13125 L 60.928125 137.078125 L 63.540625 139.615625 L 63.98125 140.028125 L 67.034375 142.834375 L 67.328125 143.1 " transform="matrix(1.25,0,0,1.25,0,0.000000000000014211)"/>
</g>
<g clip-path="url(#clip6)" clip-rule="nonzero">
<path style="fill:none;stroke-width:1.5;stroke-linecap:butt;stroke-linejoin:round;stroke:rgb(12.156863%,46.666667%,70.588235%);stroke-opacity:1;stroke-miterlimit:4;" d="M 42.61875 142.3625 L 43.31875 143.1 " transform="matrix(1.25,0,0,1.25,0,0.000000000000014211)"/>
</g>
<path style="fill:none;stroke-width:0.8;stroke-linecap:square;stroke-linejoin:miter;stroke:rgb(0%,0%,0%);stroke-opacity:1;stroke-miterlimit:4;" d="M 42.61875 143.1 L 42.61875 7.2 " transform="matrix(1.25,0,0,1.25,0,0.000000000000014211)"/>
<path style="fill:none;stroke-width:0.8;stroke-linecap:square;stroke-linejoin:miter;stroke:rgb(0%,0%,0%);stroke-opacity:1;stroke-miterlimit:4;" d="M 237.921875 143.1 L 237.921875 7.2 " transform="matrix(1.25,0,0,1.25,0,0.000000000000014211)"/>
<path style="fill:none;stroke-width:0.8;stroke-linecap:square;stroke-linejoin:miter;stroke:rgb(0%,0%,0%);stroke-opacity:1;stroke-miterlimit:4;" d="M 42.61875 143.1 L 237.921875 143.1 " transform="matrix(1.25,0,0,1.25,0,0.000000000000014211)"/>
<path style="fill:none;stroke-width:0.8;stroke-linecap:square;stroke-linejoin:miter;stroke:rgb(0%,0%,0%);stroke-opacity:1;stroke-miterlimit:4;" d="M 42.61875 7.2 L 237.921875 7.2 " transform="matrix(1.25,0,0,1.25,0,0.000000000000014211)"/>
</g>
</svg>
